<?xml version="1.0" standalone="no"?>
<!DOCTYPE svg PUBLIC "-//W3C//DTD SVG 1.1//EN" "http://www.w3.org/Graphics/SVG/1.1/DTD/svg11.dtd" >
<svg xmlns="http://www.w3.org/2000/svg" xmlns:xlink="http://www.w3.org/1999/xlink" version="1.1">
<metadata></metadata>
<defs>
<font id="cormorant_garamondregular" horiz-adv-x="1437" >
<font-face units-per-em="2048" ascent="1638" descent="-410" />
<missing-glyph horiz-adv-x="479" />
<glyph horiz-adv-x="0" />
<glyph horiz-adv-x="682" />
<glyph unicode=" "  horiz-adv-x="479" />
<glyph unicode="&#x09;" horiz-adv-x="479" />
<glyph unicode="&#xa0;" horiz-adv-x="479" />
<glyph unicode="!" horiz-adv-x="505" d="M154 68q0 39 24.5 61.5t65.5 22.5q43 0 66.5 -23t23.5 -61q0 -41 -23.5 -66t-66.5 -25q-41 0 -65.5 25t-24.5 66zM160 1270q-2 8 28.5 13t65.5 5t65.5 -5t26.5 -13q-33 -176 -49 -377t-33 -506q0 -6 -14 -6q-16 0 -17 6q-10 279 -25 492t-48 391z" />
<glyph unicode="&#x22;" horiz-adv-x="579" d="M88 1245q-2 23 51.5 44.5t87.5 21.5q18 0 17 -8l-107 -553q-4 -4 -14 -6.5t-10 4.5zM379 1245q-2 23 51 44.5t88 21.5q18 0 17 -8l-107 -553q-4 -4 -14.5 -6.5t-10.5 4.5z" />
<glyph unicode="#" horiz-adv-x="1077" d="M119 199q0 14 2 26.5t6 12.5h156l57 325h-139q-4 0 -7.5 13.5t-3.5 29.5q0 14 3.5 25.5t5.5 11.5h155l62 344q0 10 36.5 2t34.5 -16l-57 -330h307l62 344q0 4 14 4q16 0 37.5 -6t19.5 -12l-57 -330h135q4 0 7 -12.5t3 -26.5t-3 -27.5t-7 -13.5h-149l-60 -325h138 q4 0 7 -13.5t3 -27.5t-3 -27.5t-7 -13.5h-152l-55 -318q0 -6 -19 -6q-16 0 -36.5 5t-18.5 9l55 310h-309l-55 -318q0 -6 -19 -6q-16 0 -36.5 5t-18.5 9l55 310h-139q-4 0 -7 13t-3 30zM356 238h310l57 325h-307z" />
<glyph unicode="$" horiz-adv-x="841" d="M121 289q-2 8 10 10t14 -6q27 -106 102 -187t169 -96v432l-29 17q-82 43 -130 76.5t-81 83t-33 116.5q0 106 78 171t195 75v168q0 8 6 12t16 4q8 0 14.5 -4t6.5 -12v-166q96 0 196 -47q18 -10 23.5 -15.5t7.5 -19.5l14 -178q0 -8 -11 -10t-13 6q-14 72 -73.5 142.5 t-143.5 86.5v-395l35 -18q84 -45 135 -79t86 -85.5t35 -120.5q0 -107 -78 -182.5t-213 -90.5v-186q0 -14 -21 -14q-23 0 -22 14v184h-10q-147 0 -246 72q-16 8 -17 39zM252 791q0 -72 43 -121t121 -95v377q-78 0 -121 -45t-43 -116zM459 8q71 2 122.5 44t51.5 130 q0 78 -46 132.5t-128 103.5v-410z" />
<glyph unicode="%" horiz-adv-x="1175" d="M55 887q0 109 72 184.5t180 75.5q106 0 176 -77t70 -189q0 -111 -69.5 -185.5t-176.5 -74.5q-108 0 -180 76.5t-72 189.5zM168 14l760 1114l4 2q10 0 28.5 -12t16.5 -18l-760 -1112h-2q-10 0 -29.5 10t-17.5 16zM174 893q0 -250 148 -250q67 0 89.5 56.5t22.5 166.5 q0 127 -34.5 192.5t-104.5 65.5t-95.5 -61.5t-25.5 -169.5zM623 256q0 109 71.5 185.5t179.5 76.5q106 0 176 -78t70 -188q0 -111 -69.5 -186.5t-176.5 -75.5q-108 0 -179.5 76.5t-71.5 189.5zM743 264q0 -250 146 -250q67 0 89.5 56.5t22.5 167.5q0 256 -139 256 q-68 0 -93.5 -60.5t-25.5 -169.5z" />
<glyph unicode="&#x26;" horiz-adv-x="1427" d="M131 281q0 117 72.5 203.5t210.5 187.5q-37 55 -60 102q-59 131 -59 223q0 88 43 163t121 119t176 44t168.5 -47t70.5 -156q0 -80 -39.5 -143.5t-98 -111.5t-156.5 -113q-14 -8 -43 -29q141 -227 436 -457q72 125 71 277q0 74 -29.5 110.5t-115.5 36.5q-6 0 -7 12.5 t7 12.5l428 2q8 0 8 -12.5t-8 -12.5q-70 0 -104.5 -13t-49 -35.5t-28.5 -72.5q-59 -203 -141 -327q121 -88 233.5 -145.5t189.5 -73.5q9 -2 8 -13.5t-8 -11.5h-221q-92 0 -280 145q-166 -170 -414 -170q-127 0 -212 43t-127 113t-42 150zM262 352q0 -86 44 -158.5 t123 -114.5t175 -42q172 0 295 129l-37 31q-123 96 -236.5 213.5t-195.5 234.5q-80 -63 -124 -134t-44 -159zM414 1085q0 -159 106 -337q113 84 173.5 162.5t60.5 176.5q0 90 -48.5 141.5t-130.5 51.5q-162 0 -161 -195z" />
<glyph unicode="'" horiz-adv-x="286" d="M88 1245q-2 23 51.5 44.5t87.5 21.5q18 0 17 -8l-107 -553q-4 -4 -14 -6.5t-10 4.5z" />
<glyph unicode="(" horiz-adv-x="632" d="M133 623q0 290 112.5 521.5t315.5 340.5q4 2 8 -3t0 -9q-152 -143 -222.5 -355.5t-70.5 -494.5q0 -283 71 -495t222 -355q4 -2 0 -8.5t-8 -4.5q-203 111 -315.5 341.5t-112.5 521.5z" />
<glyph unicode=")" horiz-adv-x="632" d="M63 -227q152 143 222.5 355t70.5 495t-70.5 494.5t-222.5 355.5q-4 2 0.5 8t8.5 4q203 -111 315.5 -341.5t112.5 -520.5q0 -291 -113 -522.5t-315 -340.5q-4 -2 -8.5 3.5t-0.5 9.5z" />
<glyph unicode="*" horiz-adv-x="917" d="M119 829l303 177l4 2q4 0 9 -6.5t3 -8.5l-157 -209q-6 -10 -29 -10q-25 0 -59.5 11.5t-58 25.5t-15.5 18zM143 1217q0 35 6.5 62.5t12.5 20.5l262 -235q6 -2 2 -11.5t-8 -6.5l-250 83q-25 8 -25 87zM463 1083l4 263q0 18 40 36.5t81 24.5t37 -4l-142 -320q-2 -6 -11 -6 t-9 6zM477 985q-2 4 6.5 11.5t10.5 2.5l153 -217q10 -14 -12.5 -53t-52 -68.5t-31.5 -17.5zM507 1039.5q-3 9.5 1 11.5l252 77q18 6 48 -26.5t49.5 -69.5t6.5 -37l-350 35q-4 0 -7 9.5z" />
<glyph unicode="+" horiz-adv-x="815" d="M59 391q0 14 3.5 25.5t5.5 11.5h299v297q0 4 13 7t28 3q14 0 27.5 -3t13.5 -7v-297h296q5 0 8 -12.5t3 -26.5t-3 -27.5t-8 -13.5h-296v-297q0 -4 -15.5 -7t-32.5 -3q-35 0 -34 6v301h-297q-4 0 -7.5 13.5t-3.5 29.5z" />
<glyph unicode="," horiz-adv-x="454" d="M115 63q0 82 94 82q61 0 96 -46t35 -132q0 -82 -37 -152.5t-108 -140.5q-2 -2 -7 -2q-6 0 -10 6.5t0 10.5q100 102 101 241q0 57 -21 84q-18 -31 -63 -30q-37 0 -58.5 22.5t-21.5 56.5z" />
<glyph unicode="-" horiz-adv-x="661" d="M55 385q0 39 6 39l535 96q4 2 7 -11t3 -30q0 -41 -10 -45l-530 -96q-5 -2 -8 14.5t-3 32.5z" />
<glyph unicode="." horiz-adv-x="403" d="M113 68q0 39 24.5 61.5t65.5 22.5q43 0 66.5 -23t23.5 -61q0 -41 -23.5 -66t-66.5 -25q-41 0 -65.5 25t-24.5 66z" />
<glyph unicode="/" horiz-adv-x="698" d="M53 -311l516 1806q4 8 42 -3t34 -22l-514 -1804q-2 -8 -41 3.5t-37 19.5z" />
<glyph unicode="0" horiz-adv-x="976" d="M72 401q0 121 54 215.5t150.5 147.5t217.5 53q119 0 213 -54t146 -150.5t52 -217.5t-53 -217t-147.5 -150.5t-212.5 -54.5q-121 0 -216.5 55.5t-149.5 153t-54 219.5zM213 418q0 -182 82 -299t219 -117q123 0 185.5 99.5t62.5 269.5q0 205 -83 311t-208 106 q-121 0 -189.5 -102t-68.5 -268z" />
<glyph unicode="1" horiz-adv-x="679" d="M100 12.5q0 12.5 6 12.5q76 0 112 11t50.5 39.5t14.5 90.5v459q0 63 -12.5 91.5t-48.5 39t-116 10.5q-6 0 -6 12.5t6 12.5q59 0 95 -3l139 -2l137 2q35 2 96 3q6 0 6.5 -12.5t-6.5 -12.5q-76 0 -111.5 -11.5t-50 -40t-14.5 -89.5v-459q0 -63 12.5 -92t48.5 -39t115 -10 q6 0 6.5 -12.5t-6.5 -12.5q-59 0 -94 2l-139 2l-137 -2q-35 -2 -97 -2q-6 0 -6 12.5z" />
<glyph unicode="2" horiz-adv-x="823" d="M74 11.5q-6 11.5 2 19.5q180 147 278.5 240.5t141.5 167t43 147.5q0 82 -50.5 134t-130.5 52q-162 0 -233 -254q0 -2 -8 -2q-18 0 -17 8l80 312q0 4 8 4q6 0 11.5 -3t3.5 -6q-2 -8 -2 -22q0 -33 30 -33q18 0 62 15q84 27 149 26q104 0 165 -56t61 -147 q0 -72 -46.5 -143.5t-135.5 -152t-248 -203.5q-8 -6 -5 -10.5t13 -4.5q225 0 313 6.5t127 33t53 93.5q0 4 11 5q14 0 14 -7l-31 -208q0 -8 -5 -15.5t-13 -7.5h-625q-10 0 -16 11.5z" />
<glyph unicode="3" horiz-adv-x="796" d="M68 535l75 299q4 4 9 4q6 0 12 -3.5t4 -5.5q-4 -16 -4 -22q0 -35 35 -35q18 0 61 14q84 31 152 31q115 0 178 -68.5t63 -164.5q0 -100 -57 -187.5t-158 -128.5q135 -14 206 -96t71 -190q0 -100 -65.5 -206t-200 -196t-328.5 -143q-8 -2 -13.5 9t3.5 13q246 76 351 215.5 t105 284.5q0 111 -57 186.5t-174 75.5q-57 0 -98 -12q-6 -2 -10.5 10t1.5 14q160 41 226.5 115t66.5 201q0 104 -44 163.5t-134 59.5q-182 0 -252 -244q-2 -2 -8 -2q-18 0 -16 9z" />
<glyph unicode="4" horiz-adv-x="923" d="M43 24.5q-6 8.5 2 16.5l598 770q4 4 12 4q6 0 12.5 -3t6.5 -9v-717q47 0 174 4q8 0 8 -39q0 -16 -3 -32.5t-7 -16.5q-61 4 -172 8v-323q0 -23 -17 -29l-86 -43l-12 -4q-6 0 -6 16v385q-129 4 -494 4q-10 0 -16 8.5zM147 82q3 -4 13 -4q176 0 393 4v526l-403 -516 q-6 -6 -3 -10z" />
<glyph unicode="5" horiz-adv-x="837" d="M119 367l65 364q2 14 6.5 17.5t20.5 5.5q258 31 346 43t113.5 25.5t36.5 43.5q2 6 13 5t9 -9l-41 -151q-8 -23 -19.5 -30t-37.5 -7l-387 -8q-27 0 -31 -29l-43 -236q283 -2 416 -103t133 -280q0 -117 -59.5 -212t-185.5 -184t-335 -185h-2q-8 0 -13 9t3 13 q252 125 354.5 253t102.5 272q0 170 -115 264t-330 94q-10 0 -16 7t-4 18z" />
<glyph unicode="6" horiz-adv-x="952" d="M96 426q0 190 87 374.5t251 330t385 223.5q8 2 12.5 -8.5t-2.5 -14.5q-193 -88 -328.5 -230.5t-204.5 -309t-69 -330.5q0 -193 81 -321t220 -128q100 0 161 70t61 188q0 113 -52.5 182.5t-154.5 69.5q-53 0 -100.5 -22.5t-104.5 -73.5q-2 -2 -6 -2q-6 0 -11.5 6t-3.5 10 q111 139 295 140q138 0 203.5 -74t65.5 -180q0 -96 -55.5 -177t-149.5 -128.5t-205 -47.5q-174 0 -274.5 119t-100.5 334z" />
<glyph unicode="7" horiz-adv-x="878" d="M47 553l72 293q2 4 14 3t10 -5q-2 -8 -2 -21q0 -20 19.5 -26t79.5 -6h542q8 0 15.5 -9.5t3.5 -17.5l-467 -1210q-6 -19 -16.5 -28t-26.5 -22l-105 -67q-4 -2 -10 4t-4 10l547 1221q6 14 -10 14q-303 0 -421 -8t-157 -35t-59 -96q-4 -4 -11 -4q-6 0 -11 3t-3 7z" />
<glyph unicode="8" horiz-adv-x="1001" d="M96 307q0 121 81 227.5t200 167.5q-80 49 -123 102.5t-43 125.5q0 80 49 135t123 83t147 28q82 0 144.5 -32t96.5 -81t34 -102q0 -66 -50 -132.5t-145 -123.5q103 -56 167.5 -102t107.5 -113.5t43 -157.5q0 -100 -58.5 -182t-158 -129.5t-215.5 -47.5q-119 0 -209 46.5 t-140.5 123t-50.5 164.5zM229 360q0 -92 41 -171.5t115 -129t168 -49.5q113 0 185.5 70t72.5 186q0 94 -45 162t-109.5 112t-173.5 101l-77 43q-84 -53 -130.5 -137t-46.5 -187zM324 991q0 -86 65.5 -144.5t198.5 -129.5q51 51 75.5 101t24.5 110q0 96 -56.5 155.5 t-144.5 59.5q-71 0 -117 -41t-46 -111z" />
<glyph unicode="9" horiz-adv-x="952" d="M72 500q0 92 49 163.5t134 112.5t189 41q188 0 300 -131t112 -346q0 -186 -86 -368.5t-250 -325t-387 -209.5q-6 -2 -11 8t3 14q193 78 328 217.5t203.5 303t68.5 319.5q0 109 -31.5 219.5t-102.5 185t-179 74.5q-98 0 -153.5 -63.5t-55.5 -175.5q0 -113 58 -185.5 t167 -72.5q53 0 94 16t92 59q2 2 7 2q6 0 12 -6t4 -10q-102 -119 -275 -119q-147 0 -218.5 84t-71.5 193z" />
<glyph unicode=":" horiz-adv-x="403" d="M113 68q0 39 24.5 61.5t65.5 22.5q43 0 66.5 -23t23.5 -61q0 -41 -23.5 -66t-66.5 -25q-41 0 -65.5 25t-24.5 66zM113 643q0 39 24.5 61.5t65.5 22.5q43 0 66.5 -22.5t23.5 -61.5q0 -41 -23.5 -65.5t-66.5 -24.5q-41 0 -65.5 24.5t-24.5 65.5z" />
<glyph unicode=";" horiz-adv-x="458" d="M117 643q0 39 24.5 61.5t65.5 22.5q43 0 66.5 -22.5t23.5 -61.5q0 -41 -23.5 -65.5t-66.5 -24.5q-41 0 -65.5 24.5t-24.5 65.5zM119 63q0 82 94 82q61 0 96 -46t35 -132q0 -82 -37 -152.5t-108 -140.5q-2 -2 -6 -2q-6 0 -10.5 6.5t-0.5 10.5q100 102 101 241q0 57 -21 84 q-18 -31 -63 -30q-37 0 -58.5 22.5t-21.5 56.5z" />
<glyph unicode="&#x3c;" horiz-adv-x="833" d="M63 389q0 31 11 35l684 301q6 4 10 -6t4 -27q0 -41 -14 -49l-596 -254l596 -254q14 -6 14 -49q0 -41 -14 -35l-684 303q-10 6 -11 35z" />
<glyph unicode="=" horiz-adv-x="958" d="M59 248q0 14 3.5 25.5t5.5 11.5h821q4 0 7 -12.5t3 -26.5t-3 -27.5t-7 -13.5h-819q-4 0 -7.5 13t-3.5 30zM59 535q0 14 3.5 25t5.5 11h821q4 0 7 -12t3 -27q0 -14 -3 -27t-7 -13h-819q-4 0 -7.5 13t-3.5 30z" />
<glyph unicode="&#x3e;" horiz-adv-x="833" d="M61 84q0 16 4.5 31.5t10.5 17.5l596 254l-596 254q-6 2 -10.5 17.5t-4.5 31.5t4.5 27.5t10.5 7.5l684 -303q10 -4 10 -35q0 -29 -10 -35l-684 -301q-6 -2 -10.5 7.5t-4.5 25.5z" />
<glyph unicode="?" horiz-adv-x="673" d="M88 1137q0 59 71.5 101t172.5 42q121 0 199.5 -63.5t78.5 -182.5q0 -61 -22.5 -109t-50 -78t-84.5 -85q-72 -70 -100.5 -126t-28.5 -128q0 -45 12 -113q2 -6 -10.5 -8t-14.5 4q-23 53 -38 126t-15 118q0 63 25.5 106t74.5 93q55 55 83 102t28 123q0 88 -40 141t-103 53 q-50 0 -67 -25.5t-21 -70.5q-8 -41 -24.5 -65.5t-55.5 -24.5q-33 0 -51.5 21.5t-18.5 48.5zM211 68q0 39 24.5 61.5t65.5 22.5q43 0 66.5 -23t23.5 -61q0 -41 -23.5 -66t-66.5 -25q-41 0 -65.5 25t-24.5 66z" />
<glyph unicode="@" horiz-adv-x="1472" d="M152 354q0 186 93 336t245.5 235t324.5 85q152 0 268.5 -63.5t180 -170t63.5 -233.5q0 -115 -51 -215.5t-136 -162t-184 -61.5q-112 0 -112 123q0 37 4 56l20 104q-72 -129 -158.5 -208t-164.5 -79q-47 0 -76 30t-29 93q0 27 2 41q16 109 84 217.5t159 177t171 68.5 q29 0 54.5 -10t41.5 -33q31 27 37 57q4 4 17 4q25 0 20 -6l-84 -458q-8 -45 -8 -64q0 -72 76 -72q57 0 112.5 41t92 118t36.5 179q0 131 -65.5 241t-180 174.5t-255.5 64.5q-156 0 -272 -76t-177 -203t-61 -276q0 -162 70.5 -285t199.5 -190.5t295 -67.5q98 0 173 20.5 t167 73.5h2q4 0 9 -7t1 -9q-178 -141 -418 -142q-166 0 -299 66.5t-210.5 191.5t-77.5 295zM543 264q0 -82 57 -82q53 0 115.5 55.5t114 142.5t69.5 173q2 10 2 31q0 43 -21.5 69.5t-64.5 26.5q-51 0 -107.5 -48t-100.5 -129t-58 -173q-6 -37 -6 -66z" />
<glyph unicode="A" d="M-8 12.5q0 12.5 10 12.5q57 0 97 21.5t76 75.5t79 157l432 1019q4 6 14.5 6.5t12.5 -6.5l483 -1017q70 -152 119 -204t117 -52q8 0 8 -12.5t-8 -12.5q-39 0 -121 4t-119 4q-45 0 -115 -4q-66 -4 -100 -4q-8 0 -8 12.5t8 12.5q76 0 110.5 14t34.5 49q0 29 -26 88l-183 387 h-487l-129 -303q-29 -70 -29 -113q0 -63 50.5 -92.5t150.5 -29.5q10 0 10 -12.5t-10 -12.5q-37 0 -107 4q-78 4 -135 4q-53 0 -123 -4q-61 -4 -102 -4q-10 0 -10 12.5zM442 604h453l-240 506z" />
<glyph unicode="B" horiz-adv-x="1142" d="M84 12.5q0 12.5 4 12.5q76 0 113 11t51 39.5t14 90.5v948q0 61 -13 90t-49 40t-112 11q-6 0 -6 12.5t6 12.5l101 -2q86 -4 139 -4q37 0 68.5 2t54.5 4q63 6 118 6q172 0 258.5 -74.5t86.5 -195.5q0 -98 -63.5 -175t-174.5 -120q162 -12 261 -107.5t99 -236.5 q0 -109 -53 -197t-146 -138t-208 -50q-68 0 -148 6q-29 2 -67.5 4t-85.5 2l-139 -2q-37 -2 -105 -2q-4 0 -4 12.5zM399 166q0 -53 15.5 -82t59.5 -42t128 -13q150 0 222.5 76.5t72.5 220.5q0 156 -91 252t-251 98h-35q-54 0 -121 -4v-506zM399 721l93 -3q150 0 221 77 t71 204q0 115 -62.5 185.5t-191.5 70.5q-53 0 -79.5 -9t-39 -38.5t-12.5 -97.5v-389z" />
<glyph unicode="C" horiz-adv-x="1404" d="M100 649q0 193 96.5 341.5t265.5 230.5t380 82q129 0 217 -18.5t176 -63.5q14 -8 16 -14.5t6 -30.5l25 -244q0 -6 -11 -7t-14 5q-94 342 -421 342q-172 0 -303.5 -76t-203 -216t-71.5 -327q0 -178 79 -326.5t213 -234.5t292 -86q168 0 272.5 82t159.5 250q0 4 10 4 q14 0 14 -6l-20 -225q-2 -25 -6 -31t-17 -14q-106 -51 -199 -72t-214 -21q-215 0 -384 85t-263.5 239t-94.5 352z" />
<glyph unicode="D" horiz-adv-x="1415" d="M68 12.5q0 12.5 4 12.5q78 0 113.5 10t49 39.5t13.5 91.5v948q0 61 -12.5 90t-48 40t-113.5 11q-4 0 -4 12.5t4 12.5l102 -2q86 -4 137 -4q78 0 154 6q90 4 125 4q213 0 378 -82t255 -223t90 -317q0 -199 -93.5 -351.5t-253 -235.5t-347.5 -83q-60 0 -138 6 q-29 2 -72.5 4t-97.5 2l-139 -2q-37 -2 -102 -2q-4 0 -4 12.5zM381 188q0 -61 17.5 -96t65.5 -52t136 -17q164 0 291 68.5t197.5 202.5t70.5 322q0 178 -67.5 323.5t-192.5 229.5t-289 84q-88 0 -136 -10t-70.5 -41t-22.5 -92v-922z" />
<glyph unicode="E" horiz-adv-x="1099" d="M84 12.5q0 12.5 4 12.5q78 0 114 10t49 39.5t13 91.5v948q0 61 -13 90t-49 40t-114 11q-4 0 -4 12.5t4 12.5h823q18 0 19 -18l4 -252q0 -6 -10.5 -7.5t-12.5 5.5q-6 109 -65.5 169t-157.5 60h-125q-72 0 -105.5 -11.5t-47 -39t-13.5 -82.5v-416h250q98 0 140 33t42 110 q0 4 12.5 4.5t12.5 -4.5l-2 -165q0 -59 2 -91l2 -98q0 -4 -12.5 -4t-12.5 4q0 90 -44 129t-146 39h-244v-471q0 -57 12.5 -84t45 -37t102.5 -10h164q98 0 163.5 69.5t88.5 192.5q0 4 8 4q6 0 11 -2t5 -6q-18 -129 -18 -270q0 -16 -7 -23.5t-26 -7.5h-858q-4 0 -4 12.5z" />
<glyph unicode="F" horiz-adv-x="1042" d="M82 12.5q0 12.5 4 12.5q78 0 115 10t50 39.5t13 91.5v948q0 61 -13 90t-49 40t-114 11q-4 0 -4 12.5t4 12.5h823q18 0 19 -18l4 -252q0 -6 -10.5 -7.5t-12.5 5.5q-6 109 -65.5 169t-157.5 60h-125q-70 0 -104.5 -10t-48 -37t-13.5 -78v-448h207q109 0 155 33.5t46 109.5 q0 4 12 4t12 -4l-2 -166q0 -59 2 -90l2 -98q0 -4 -12 -4t-12 4q0 90 -48 129t-161 39h-201v-447q0 -66 17.5 -95.5t69 -41.5t161.5 -12q6 0 6 -12.5t-6 -12.5q-84 0 -131 2l-184 2l-140 -2q-37 -2 -104 -2q-4 0 -4 12.5z" />
<glyph unicode="G" horiz-adv-x="1462" d="M100 647q0 199 100.5 347.5t275.5 228.5t392 80q109 0 205 -20.5t160 -59.5q16 -8 18 -14.5t4 -30.5l25 -242q0 -6 -11.5 -8t-13.5 6q-94 336 -426 336q-162 0 -291.5 -73t-204.5 -207t-75 -312q0 -174 71.5 -327.5t215 -249t346.5 -95.5q145 0 204.5 56.5t59.5 193.5 q0 106 -13.5 148t-59.5 56.5t-160 14.5q-12 0 -13 17q0 6 3 11t8 5q160 -10 258 -10q94 0 202 6q4 0 7.5 -5t3.5 -10q0 -14 -11 -14h-11q-42 0 -59 -13q-20 -16 -26 -62t-6 -164q0 -92 7 -131t7 -50q0 -12 -4 -16t-18 -8q-254 -55 -434 -56q-226 0 -393 90.5t-255 244 t-88 337.5z" />
<glyph unicode="H" horiz-adv-x="1554" d="M68 12.5q0 12.5 4 12.5q78 0 115.5 10t51 39.5t13.5 91.5v948q0 61 -13.5 90t-50 40t-114.5 11q-4 0 -4 12.5t4 12.5l104 -2q86 -4 137 -4q59 0 150 4l98 2q4 0 4 -12.5t-4 -12.5q-78 0 -115.5 -12t-51 -42t-13.5 -91v-422h786v422q0 61 -13 91t-50 42t-117 12 q-6 0 -6 12.5t6 12.5l96 -2q90 -4 152 -4q55 0 141 4l101 2q6 0 6 -12.5t-6 -12.5q-78 0 -115 -11t-50.5 -39.5t-13.5 -90.5v-948q0 -61 13.5 -91t50.5 -40t115 -10q6 0 6 -12.5t-6 -12.5q-63 0 -101 2l-141 2l-152 -2q-35 -2 -96 -2q-6 0 -6 12.5t6 12.5q80 0 117 10 t50 39.5t13 91.5v479h-786v-479q0 -61 13.5 -91t50 -40t116.5 -10q4 0 4 -12.5t-4 -12.5q-63 0 -100 2l-148 2l-141 -2q-37 -2 -102 -2q-4 0 -4 12.5z" />
<glyph unicode="I" horiz-adv-x="679" d="M90 12.5q0 12.5 6 12.5q78 0 114 10t49 39.5t13 91.5v948q0 61 -13 90t-49 40t-114 11q-6 0 -6 12.5t6 12.5l101 -2q86 -4 141 -4q61 0 147 4l97 2q6 0 6 -12.5t-6 -12.5q-76 0 -112 -12t-49 -42t-13 -91v-944q0 -62 12 -91.5t48 -39.5t114 -10q6 0 6 -12.5t-6 -12.5 q-61 0 -99 2l-145 2l-141 -2q-37 -2 -101 -2q-6 0 -6 12.5z" />
<glyph unicode="J" horiz-adv-x="659" d="M-94 -412q0 31 18.5 49.5t50.5 18.5q35 0 53.5 -15.5t39.5 -46.5q18 -29 32.5 -41t40.5 -12q74 0 110 85t36 274v1214q0 61 -14.5 90t-56.5 40t-130 11q-4 0 -4 12.5t4 12.5l119 -2q94 -4 147 -4t131 4l90 2q5 0 5 -12.5t-5 -12.5q-68 0 -98.5 -12t-41.5 -42t-11 -91 v-1167q0 -203 -94.5 -323t-272.5 -120q-70 0 -109.5 23.5t-39.5 64.5z" />
<glyph unicode="K" horiz-adv-x="1331" d="M68 12.5q0 12.5 4 12.5q78 0 113.5 10t49 39.5t13.5 91.5v948q0 61 -12.5 90t-48 40t-113.5 11q-4 0 -4 12.5t4 12.5l102 -2q86 -4 137 -4q59 0 146 4l96 2q6 0 6 -12.5t-6 -12.5q-76 0 -111.5 -12t-49 -42t-13.5 -91v-432l438 436q68 68 68 100q0 41 -121 41 q-4 0 -4 12.5t4 12.5l88 -2q82 -4 150 -4t141 4l76 2q6 0 6 -12.5t-6 -12.5q-84 0 -178.5 -36.5t-176.5 -116.5l-323 -318l295 -376q150 -195 228.5 -275t121.5 -94t125 -14q6 0 6 -12.5t-6 -12.5h-230q-16 0 -58 -1h-1q-42 1 -117 105q-76 106 -145 193l-313 395l-68 -65 v-461q0 -61 12.5 -91t48 -40t113.5 -10q6 0 6 -12.5t-6 -12.5q-61 0 -98 2l-144 2l-139 -2q-37 -2 -102 -2q-4 0 -4 12.5z" />
<glyph unicode="L" horiz-adv-x="1091" d="M68 12.5q0 12.5 4 12.5q78 0 113.5 10t48 39.5t12.5 91.5v948q0 61 -12.5 90t-48 40t-113.5 11q-4 0 -4 12.5t4 12.5l100 -2q86 -4 139 -4q57 0 144 4l98 2q6 0 6 -12.5t-6 -12.5q-76 0 -111.5 -11t-49 -40.5t-13.5 -91.5v-938q0 -59 12 -86t45 -36t107 -9h223 q117 0 186.5 71.5t91.5 198.5q0 6 11.5 5t11.5 -7q-18 -170 -18 -280q0 -16 -6.5 -23.5t-24.5 -7.5h-946q-4 0 -4 12.5z" />
<glyph unicode="M" horiz-adv-x="1712" d="M76 12.5q0 12.5 4 12.5q86 0 124 46t40 152l18 951q-60 81 -165 81h-3q-4 0 -4 12.5t4 12.5l76 -2q20 -2 57 -2t62.5 2t40.5 2q27 0 44 -19.5t50 -86.5l457 -963l446 1018q23 51 62 51q10 0 29.5 -2t51.5 -2l97 2q23 2 67 2q6 0 6 -12.5t-6 -12.5q-102 1 -146 -29 q-42 -28 -42 -105v-7l41 -948q2 -63 15.5 -92t48 -39t112.5 -10q6 0 6 -12.5t-6 -12.5q-63 0 -100 2l-142 2l-131 -2q-33 -2 -92 -2q-4 0 -4 12.5t4 12.5q70 0 104 11q32 12 44 40q9 21 9 60q0 14 -1 30l-37 932l-467 -1084q-4 -8 -16 -8q-10 0 -19 8l-504 1071l-18 -862 v-10q0 -101 37 -143q39 -44 137 -45q4 0 4 -12.5t-4 -12.5q-57 0 -88 2l-111 2l-106 -2q-29 -2 -82 -2q-4 0 -4 12.5z" />
<glyph unicode="N" horiz-adv-x="1488" d="M78 1267.5q0 12.5 6 12.5l76 -2q25 -2 67 -2q45 0 74 2t45 2t23.5 -7t23.5 -32q25 -37 49 -67l789 -969v850q0 106 -36 153t-120 47q-4 0 -4 12.5t4 12.5l80 -2q61 -4 100 -4q37 0 103 4l84 2q6 0 6 -12.5t-6 -12.5q-86 0 -125 -47t-39 -153v-1080q0 -4 -10.5 -6t-14.5 2 l-942 1141l-18 21v-910q0 -106 38 -152t122 -46q6 0 6 -12.5t-6 -12.5q-51 0 -78 2l-103 2l-104 -2q-29 -2 -84 -2q-4 0 -4 12.5t4 12.5q88 0 125 46t37 152v959q-79 73 -160 73h-2q-6 0 -6 12.5z" />
<glyph unicode="O" horiz-adv-x="1568" d="M100 639q0 211 106.5 361.5t273.5 226.5t341 76q195 0 342.5 -91.5t226 -241t78.5 -317.5q0 -186 -98 -341.5t-263 -246t-357 -90.5q-191 0 -339.5 89.5t-229.5 242t-81 332.5zM256 711q0 -193 71.5 -351.5t200.5 -250t293 -91.5q140 0 251.5 68t176 199t64.5 311 q0 193 -72 342t-202 233t-304 84q-225 0 -352 -145t-127 -399z" />
<glyph unicode="P" horiz-adv-x="1112" d="M82 12.5q0 12.5 4 12.5q78 0 114 10t48 39.5t12 91.5v948q0 61 -12 90t-48 40t-114 11q-4 0 -4 12.5t4 12.5l102 -2q86 -4 138 -4q51 0 114 6q25 0 78 3t92 3q188 0 302 -84t114 -256q0 -135 -66.5 -227t-170 -137t-214.5 -45q-61 0 -100 10q-6 0 -6 10q0 6 3 12t7 4 q33 -8 74 -8q135 0 228 88t93 254q0 162 -88 255t-225 93q-74 0 -106.5 -8t-47 -37.5t-14.5 -99.5v-936q0 -65 17.5 -95t67.5 -42t159 -12q6 0 6 -12.5t-6 -12.5q-84 0 -131 2l-178 2l-138 -2q-39 -2 -104 -2q-4 0 -4 12.5z" />
<glyph unicode="Q" horiz-adv-x="1568" d="M100 639q0 211 106.5 361.5t273.5 226.5t341 76q195 0 342.5 -91.5t226 -241t78.5 -317.5q0 -152 -66.5 -286t-183 -228t-264.5 -135q86 -147 228.5 -243.5t269.5 -96.5q47 0 74 6h2q4 0 7 -9t-1 -11q-104 -25 -174 -25q-141 0 -298 93.5t-271 258.5q-14 -2 -41 -2 q-190 0 -339 89.5t-230 242t-81 332.5zM256 711q0 -193 71.5 -351.5t200.5 -250t293 -91.5q139 0 251 68t176.5 199t64.5 311q0 193 -72 342t-202 233t-304 84q-225 0 -352 -145t-127 -399z" />
<glyph unicode="R" horiz-adv-x="1378" d="M84 12.5q0 12.5 4 12.5q78 0 115 10t50 39.5t13 91.5v948q0 61 -12 90t-48 40t-114 11q-6 0 -6 12.5t6 12.5l101 -2q86 -4 139 -4q45 0 84 2t65 4q76 6 137 6q162 0 250 -73.5t88 -196.5q0 -111 -64.5 -200t-170.5 -140q172 -248 289.5 -388.5t209 -201.5t179.5 -61 q4 0 4 -12.5t-4 -12.5h-264q-51 0 -192.5 170t-336.5 467q-55 -12 -114 -12q-12 0 -93 6v-465q0 -63 12.5 -92t48.5 -39t113 -10q6 0 6.5 -12.5t-6.5 -12.5q-63 0 -100 2l-141 2l-139 -2q-37 -2 -105 -2q-4 0 -4 12.5zM399 680q51 -8 121 -8q160 0 228.5 69.5t68.5 214.5 q0 160 -70.5 229.5t-205.5 69.5q-80 0 -111 -28.5t-31 -116.5v-430z" />
<glyph unicode="S" horiz-adv-x="1005" d="M139 365q-2 8 9.5 10t13.5 -6q33 -147 122 -254t236 -107q102 0 173 56.5t71 179.5q0 92 -41 159.5t-99.5 111.5t-158.5 103q-98 59 -154.5 102.5t-95.5 109t-39 153.5q0 102 54.5 175t141.5 109t185 36q121 0 240 -50q31 -10 30 -34l15 -236q0 -8 -10.5 -8t-12.5 8 q-16 106 -88 197.5t-207 91.5q-115 0 -171 -66.5t-56 -165.5q0 -79 39 -138.5t95 -99.5t155 -100q109 -66 167 -108.5t100 -109t42 -158.5q0 -98 -49 -178t-144.5 -126.5t-228.5 -46.5q-158 0 -289 72q-10 6 -13 14.5t-5 24.5z" />
<glyph unicode="T" horiz-adv-x="1298" d="M78 954q8 74 18 193t10 178q0 10 11.5 10t11.5 -10q0 -45 111 -45q174 -6 411 -6q121 0 256 4l140 2q74 0 109.5 10t45.5 41q2 8 12.5 8t10.5 -8q-6 -59 -12.5 -180t-6.5 -197q0 -4 -12 -4t-12 4q-6 160 -65.5 224.5t-196.5 64.5q-92 0 -131 -8t-53.5 -34.5t-14.5 -90.5 v-944q0 -63 14.5 -92t55 -39t129.5 -10q6 0 6 -12.5t-6 -12.5q-68 0 -109 2l-160 2l-153 -2q-41 -2 -113 -2q-4 0 -4 12.5t4 12.5q88 0 129 10t56.5 39.5t15.5 91.5v948q0 63 -14.5 89t-53.5 33t-131 7q-129 0 -193.5 -65.5t-93.5 -223.5q0 -4 -11 -4t-11 4z" />
<glyph unicode="U" horiz-adv-x="1429" d="M55 1267.5q0 12.5 4 12.5l101 -2q86 -4 139 -4q57 0 143 4l99 2q6 0 6 -12.5t-6 -12.5q-76 0 -113 -12t-49 -42t-12 -91v-580q0 -240 109.5 -367.5t305.5 -127.5q184 0 286.5 115.5t102.5 320.5v584q0 200 -178 200q-6 0 -6 12.5t6 12.5l88 -2q74 -4 117 -4q35 0 100 4 l86 2q4 0 4.5 -12.5t-4.5 -12.5q-164 0 -163 -200v-582q0 -236 -131.5 -368t-352.5 -132q-152 0 -265.5 59.5t-176 169t-62.5 257.5v655q0 61 -12 90t-48 40t-114 11q-4 0 -4 12.5z" />
<glyph unicode="V" horiz-adv-x="1363" d="M-8 1267.5q0 12.5 6 12.5l78 -2q57 -4 92 -4q82 0 176 4l84 2q6 0 6 -12.5t-6 -12.5q-127 0 -127 -71q0 -25 18 -66l429 -938l368 924q16 43 17 67q0 43 -39 63.5t-121 20.5q-6 0 -6 12.5t6 12.5l88 -2q70 -4 127 -4q43 0 96 4l86 2q6 0 6 -12.5t-6 -12.5 q-70 0 -121 -36.5t-86 -124.5l-436 -1092q-2 -8 -22 -8q-16 0 -23 8l-510 1108q-35 80 -74 112.5t-100 32.5q-6 0 -6 12.5z" />
<glyph unicode="W" horiz-adv-x="1906" d="M-8 1267.5q0 12.5 6 12.5l78 -2q57 -4 92 -4q74 0 160 4l84 2q6 0 6 -12.5t-6 -12.5q-61 0 -91 -14t-30 -49q0 -31 20 -74l437 -936l184 457l-217 471q-35 78 -72 111.5t-96 33.5q-6 0 -6 12.5t6 12.5l76 -2q57 -4 88 -4q59 0 120 4l58 2q6 0 6 -12.5t-6 -12.5 q-39 0 -54.5 -6t-15.5 -24q0 -27 37 -107l150 -319l120 305q23 61 23 92t-20.5 45t-65.5 14q-6 0 -6 12.5t6 12.5l47 -2q41 -4 86 -4q41 0 94 4l84 2q4 0 4 -12.5t-4 -12.5q-70 0 -119 -35.5t-84 -125.5l-139 -351l260 -561l367 918q16 43 16 71q0 43 -36.5 63.5 t-116.5 20.5q-6 0 -6 12.5t6 12.5l86 -2q66 -4 123 -4q43 0 96 4l86 2q6 0 6 -12.5t-6 -12.5q-68 0 -119 -36.5t-88 -124.5l-436 -1092q-2 -8 -23 -8q-16 0 -22 8l-267 580l-231 -580q-2 -8 -22 -8q-16 0 -23 8l-510 1108q-37 82 -74 113.5t-100 31.5q-6 0 -6 12.5z" />
<glyph unicode="X" horiz-adv-x="1335" d="M29 12.5q0 12.5 6 12.5q68 0 139.5 47t138.5 139l289 395l-330 500q-55 82 -107 115.5t-122 33.5q-4 0 -4 12.5t4 12.5l78 -2q53 -4 78 -4q70 0 168 4l106 2q6 0 6 -12.5t-6 -12.5q-53 0 -78.5 -8t-25.5 -28q0 -16 18 -45l303 -457l240 340q55 78 55 127q0 71 -112 71h-3 q-6 0 -6 12.5t6 12.5l93 -2q78 -4 141 -4q37 0 86 4l76 2q6 0 6 -12.5t-6 -12.5q-68 0 -141.5 -51t-147.5 -151l-268 -367l342 -516q53 -80 109.5 -112.5t139.5 -32.5q5 0 5 -12.5t-5 -12.5q-53 0 -83 2l-113 2l-158 -2q-37 -2 -100 -2q-4 0 -4 12.5t4 12.5q55 0 79.5 8 t24.5 26t-18 45l-311 471l-261 -366q-49 -70 -49 -113q0 -71 118 -71h3q6 0 6 -12.5t-6 -12.5q-61 0 -94 2l-141 2l-86 -2q-23 -2 -76 -2q-6 0 -6 12.5z" />
<glyph unicode="Y" horiz-adv-x="1247" d="M-8 1267.5q0 12.5 6 12.5q25 0 74 -4l71 -2q70 0 176 4l111 2q4 0 4 -12.5t-4 -12.5q-106 0 -106 -43q0 -23 20 -51l330 -483l250 383q45 72 45 121q0 73 -108 73h-3q-4 0 -4 12.5t4 12.5l96 -2q78 -4 144 -4q35 0 84 4l75 2q5 0 5 -12.5t-5 -12.5q-74 0 -149.5 -54 t-134.5 -148l-275 -422v-465q0 -63 12.5 -92t48.5 -39t113 -10q6 0 6.5 -12.5t-6.5 -12.5q-63 0 -98 2l-143 2l-142 -2q-37 -2 -100 -2q-6 0 -6 12.5t6 12.5q78 0 114 10t49 39.5t13 91.5v432l-340 498q-57 90 -108 124.5t-119 34.5q-6 0 -6 12.5z" />
<glyph unicode="Z" horiz-adv-x="1218" d="M106 1022l82 319q0 2 9 2q20 0 16 -6q-2 -6 -2 -16q0 -25 23.5 -33t95.5 -8h747q10 0 15.5 -10t-0.5 -17l-797 -1198q-8 -10 -6 -13t14 -3h522q137 0 209 57.5t94 179.5q2 4 12.5 4.5t10.5 -4.5l-29 -260q0 -6 -5 -13t-13 -7q-305 4 -979 4q-10 0 -14.5 9t2.5 18 l809 1202q6 10 5 13t-16 3q-365 0 -497.5 -11t-186 -54t-96.5 -162q0 -4 -8 -4q-6 0 -12.5 3t-4.5 5z" />
<glyph unicode="[" horiz-adv-x="561" d="M180 -217v1681q0 14 3 17.5t16 3.5h284q6 0 6 -12.5t-6 -12.5q-80 0 -117.5 -12t-51 -42t-13.5 -91v-1385q0 -61 13.5 -90.5t51 -42t117.5 -12.5q6 0 6 -12.5t-6 -12.5h-284q-12 0 -15.5 4.5t-3.5 18.5z" />
<glyph unicode="\" horiz-adv-x="698" d="M53 1470q-4 10 34 21.5t42 3.5l516 -1806q4 -8 -35 -19.5t-43 -3.5z" />
<glyph unicode="]" horiz-adv-x="561" d="M72 -227.5q0 12.5 6 12.5q80 0 117.5 12.5t51 42t13.5 90.5v1385q0 61 -13.5 91t-51 42t-117.5 12q-6 0 -6 12.5t6 12.5h284q12 0 15.5 -3t3.5 -18v-1681q0 -14 -3 -18.5t-16 -4.5h-284q-6 0 -6 12.5z" />
<glyph unicode="^" horiz-adv-x="802" d="M119 778l260 510q2 10 22 10t23 -10l258 -510v-2q0 -4 -8 -8t-10 0l-263 352l-262 -352q-2 -2 -6 -2t-10 5t-4 7z" />
<glyph unicode="_" horiz-adv-x="815" d="M59 -113q0 14 2 26.5t7 12.5h677q4 0 7.5 -13t3.5 -28q0 -14 -3 -27.5t-8 -13.5h-675q-4 0 -7.5 13.5t-3.5 29.5z" />
<glyph unicode="`" horiz-adv-x="436" d="M86 1489q-2 8 16 8q27 0 67 -11t42 -20l104 -491q4 -4 -7 -7t-13 3z" />
<glyph unicode="a" horiz-adv-x="858" d="M115 127q0 61 49 106.5t162 85.5l225 84v140q0 229 -129 229q-70 0 -105.5 -46t-48.5 -105q-6 -37 -22.5 -60.5t-55.5 -23.5q-33 0 -50 18t-17 43q0 49 63.5 98t151.5 82t158 33q84 0 127 -53t43 -154v-383q0 -72 18 -104.5t61 -32.5q39 0 101 27h4q8 0 10 -9.5t-6 -13.5 l-211 -100q-8 -4 -16 -4q-27 0 -47.5 35.5t-26.5 97.5l-107 -70q-51 -33 -90 -47t-82 -14q-76 0 -117.5 40t-41.5 101zM252 178q0 -49 31.5 -83t83.5 -34q41 0 98 33l86 51v11v219l-191 -74q-57 -23 -82.5 -52.5t-25.5 -70.5z" />
<glyph unicode="b" horiz-adv-x="1044" d="M19.5 1345.5q-3.5 10.5 3.5 12.5l256 125l10 2q4 0 11 -5t7 -12v-829q78 82 156 130t176 48q88 0 164 -43t121 -128t45 -208q0 -147 -64.5 -252.5t-168 -159t-218.5 -53.5q-158 0 -278 90l-156 -73h-4q-8 0 -10 8t4 12q66 45 92.5 85t26.5 116v1012q0 74 -15.5 106.5 t-52.5 32.5q-29 0 -92 -27h-4q-6 0 -9.5 10.5zM307 270q0 -90 44 -147t107.5 -84t123.5 -27q118 0 185 92.5t67 264.5q0 184 -72 282.5t-191 98.5q-70 0 -133 -38t-131 -106v-336z" />
<glyph unicode="c" horiz-adv-x="841" d="M74 379q0 131 65.5 228.5t169 149.5t211.5 52q90 0 165 -36t75 -89q0 -27 -19.5 -46.5t-52.5 -19.5q-55 0 -90 68q-27 41 -57.5 61.5t-87.5 20.5q-115 0 -179.5 -89t-64.5 -239q0 -172 86 -282.5t258 -110.5q125 0 209 68h2q6 0 11 -6.5t1 -10.5q-72 -63 -144.5 -93 t-158.5 -30q-133 0 -223 58.5t-133 150.5t-43 195z" />
<glyph unicode="d" horiz-adv-x="1048" d="M74 365q0 145 71.5 247.5t180 153.5t215.5 51q109 0 196 -53v459q0 74 -15 106.5t-52 32.5q-27 0 -95 -29h-4q-8 0 -11 9.5t3 13.5l260 127q4 2 11 2q4 0 11 -5t7 -12v-1243q0 -74 17.5 -106.5t56.5 -32.5q59 0 106 29l4 2q8 0 11.5 -10.5t-3.5 -14.5l-225 -106 q-12 -4 -16 -4q-27 0 -45.5 45t-20.5 125q-76 -80 -158.5 -129.5t-185.5 -49.5q-86 0 -158.5 49.5t-116.5 138.5t-44 204zM207 426q0 -113 34.5 -199t95 -133t136.5 -47q74 0 137.5 36t126.5 101v451q-49 68 -108.5 104.5t-143.5 36.5q-129 0 -203.5 -91t-74.5 -259z" />
<glyph unicode="e" horiz-adv-x="835" d="M74 369q0 121 57 222t156.5 159.5t218.5 58.5q115 0 176 -61.5t61 -172.5q0 -29 -5 -41t-17 -12l-508 -2q-4 -45 -4 -74q0 -178 84 -288.5t235 -110.5q61 0 105.5 16.5t99.5 51.5h2q6 0 11.5 -7.5t1.5 -13.5q-135 -119 -299 -119q-119 0 -203 55.5t-128 145.5t-44 193z M217 547l389 8q0 104 -45 158.5t-123 54.5q-88 0 -145 -58.5t-76 -162.5z" />
<glyph unicode="f" horiz-adv-x="624" d="M51 750.5q0 13.5 6 13.5q84 0 114 19.5t32 72.5q10 332 121.5 481.5t328.5 149.5q105 0 171.5 -32t66.5 -77q0 -31 -21.5 -48t-50.5 -17q-25 0 -43 12t-39 41q-31 43 -66.5 64.5t-88.5 21.5q-119 0 -188.5 -137t-69.5 -416v-131q94 2 262 20q6 0 10 -14t4 -35 q0 -16 -6 -33.5t-14 -15.5q-119 29 -256 33v-557q0 -63 14 -92t55 -39t131 -10q6 0 6 -12.5t-6 -12.5l-131 2q-43 2 -131 2l-115 -2q-29 -2 -81 -2q-6 0 -6.5 12.5t6.5 12.5q61 0 89.5 11t40 39.5t11.5 90.5v461q0 53 -10.5 74.5t-40 28.5t-99.5 7q-6 0 -6 13.5z" />
<glyph unicode="g" horiz-adv-x="911" d="M66 -348q0 152 210 299q-78 10 -118.5 42t-40.5 95q0 61 34.5 109.5t112.5 109.5q-70 35 -108.5 96.5t-38.5 135.5q0 115 91 190.5t234 75.5q133 0 213 -64q55 33 107.5 49.5t111.5 16.5q4 0 7.5 -14.5t3.5 -30.5q0 -25 -5.5 -49.5t-13.5 -20.5q-35 14 -66.5 22.5 t-70.5 8.5q-20 0 -49 -4q70 -76 70 -176q0 -72 -40 -134.5t-114 -99.5t-168 -37q-72 0 -133 23q-41 -35 -58.5 -65.5t-17.5 -67.5q0 -45 27.5 -68.5t91 -34t178.5 -10.5q111 -2 178.5 -11t125 -54t57.5 -144q0 -111 -72 -206t-189.5 -151t-246.5 -56q-141 0 -222 62t-81 163 zM184 -281q0 -106 71 -168.5t198 -62.5q141 0 231 75t90 199q0 82 -40 120t-105.5 48.5t-182.5 10.5q-49 0 -122 4q-68 -43 -104 -95.5t-36 -130.5zM244 588q0 -92 32.5 -156.5t84 -96.5t106.5 -32q70 0 112 48t42 147q0 127 -66 201.5t-162 74.5q-149 0 -149 -186z" />
<glyph unicode="h" horiz-adv-x="1021" d="M8 1345.5q-4 10.5 4 12.5l260 127h7q8 0 13 -5t5 -12v-831q78 90 154.5 132t160.5 42q113 0 174.5 -63.5t61.5 -184.5v-397q0 -59 10 -89t37 -41t82 -11q6 0 6 -12.5t-6 -12.5q-47 0 -76 2l-110 2l-111 -2q-29 -2 -76 -2q-6 0 -6 12.5t6 12.5q55 0 82 11t37 40.5t10 89.5 v326q0 121 -46 179t-142 58q-63 0 -129 -33.5t-119 -93.5v-436q0 -59 10 -89t37 -41t82 -11q6 0 6 -12.5t-6 -12.5q-47 0 -76 2l-110 2l-111 -2q-29 -2 -76 -2q-6 0 -6 12.5t6 12.5q55 0 82 11t37 40.5t10 89.5v1059q0 74 -14 106.5t-51 32.5q-31 0 -94 -29h-5 q-6 0 -10 10.5z" />
<glyph unicode="i" horiz-adv-x="559" d="M65.5 669.5q-4.5 10.5 2.5 14.5l266 123l8 2q4 0 10 -5t6 -11q0 -14 -2 -82t-2 -160v-385q0 -61 10.5 -90t37 -40t81.5 -11q6 0 6 -12.5t-6 -12.5q-47 0 -75 2l-111 2l-111 -2q-29 -2 -77 -2q-5 0 -5 12.5t5 12.5q55 0 82.5 11t38 40.5t10.5 89.5v383q0 74 -15.5 106.5 t-52.5 32.5t-92 -29h-2q-8 0 -12.5 10.5zM190 1135q0 41 24 63.5t67 22.5q41 0 63.5 -22.5t22.5 -63.5t-22.5 -63.5t-63.5 -22.5q-43 0 -67 22.5t-24 63.5z" />
<glyph unicode="j" horiz-adv-x="526" d="M39 -555q100 43 141 137t41 273v694q0 74 -14 106.5t-49 32.5q-37 0 -95 -29h-2q-10 0 -14 10.5t4 14.5l266 123l7 2q8 0 13 -5t5 -11q0 -15 -2 -82.5t-2 -159.5v-649q0 -139 -27.5 -228.5t-89 -149t-172.5 -102.5q-4 -2 -9 9.5t-1 13.5zM172 1135q0 41 23.5 63.5 t66.5 22.5q41 0 63.5 -22.5t22.5 -63.5t-22.5 -63.5t-63.5 -22.5q-43 0 -66.5 22.5t-23.5 63.5z" />
<glyph unicode="k" horiz-adv-x="1005" d="M8 1345.5q-4 10.5 4 12.5l256 125l11 2q6 0 12 -5t6 -12v-1065l274 222q66 51 66 90q0 51 -117 51q-6 0 -6 12.5t6 12.5q55 0 84 -3l150 -2l137 2q27 2 74 3q6 0 6 -12.5t-6 -12.5q-76 0 -168 -37t-185 -111l-118 -94l260 -358q102 -141 235 -141q6 0 6 -12.5t-6 -12.5 q-47 0 -76 2l-110 2l-148 -2q-33 -2 -88 -2q-4 0 -4 12.5t4 12.5q102 0 103 38q0 18 -19 46l-252 342l-102 -80v-205q0 -59 10 -89t37 -41t82 -11q6 0 6 -12.5t-6 -12.5q-47 0 -76 2l-110 2l-111 -2q-29 -2 -76 -2q-6 0 -6 12.5t6 12.5q55 0 82 11t37 40.5t10 89.5v1059 q0 74 -14 106.5t-51 32.5q-31 0 -94 -29h-5q-6 0 -10 10.5z" />
<glyph unicode="l" horiz-adv-x="528" d="M38 1345.5q-3 10.5 3 12.5l262 125q4 2 10 2q4 0 11.5 -5t7.5 -12v-1302q0 -59 9 -88t35.5 -41t82.5 -12q6 0 6 -12.5t-6 -12.5q-45 0 -74 2l-115 2l-110 -2q-29 -2 -78 -2q-6 0 -6 12.5t6 12.5q55 0 81.5 11t37 40.5t10.5 89.5v1059q0 74 -14.5 106.5t-51.5 32.5 q-31 0 -94 -29h-4q-6 0 -9 10.5z" />
<glyph unicode="m" horiz-adv-x="1562" d="M21.5 681q-3.5 9 5.5 13l237 113l12 2q18 0 39 -47t21 -121v-2q74 90 147.5 131t153.5 41q92 0 149.5 -45t71.5 -135q76 92 151.5 136t157.5 44q109 0 167.5 -62.5t58.5 -185.5v-397q0 -61 9 -90t35.5 -40t82.5 -11q8 0 8 -12.5t-8 -12.5q-47 0 -76 2l-111 2l-110 -2 q-29 -2 -76 -2q-6 0 -6 12.5t6 12.5q55 0 81.5 11t37 40.5t10.5 89.5v326q0 121 -43 179t-133 58q-61 0 -124 -33.5t-116 -95.5q2 -10 2 -33v-401q0 -61 10.5 -90t37 -40t81.5 -11q6 0 6 -12.5t-6 -12.5q-47 0 -76 2l-110 2l-113 -2q-27 -2 -74 -2q-6 0 -6 12.5t6 12.5 q55 0 82 11t36 39.5t9 90.5v326q0 121 -43 179t-131 58q-61 0 -122.5 -32.5t-112.5 -92.5v-438q0 -61 9 -90t36 -40t82 -11q6 0 6 -12.5t-6 -12.5q-47 0 -74 2l-110 2l-113 -2q-27 -2 -74 -2q-6 0 -6 12.5t6 12.5q55 0 82 11t36 39.5t9 90.5v405q0 70 -16.5 100.5 t-55.5 30.5q-33 0 -110 -30h-4q-8 0 -11.5 9z" />
<glyph unicode="n" horiz-adv-x="1058" d="M21.5 681q-3.5 9 5.5 13l237 113l12 2q18 0 39 -47t21 -121q78 90 154.5 133t158.5 43q115 0 176.5 -63.5t61.5 -186.5v-401q0 -61 9 -90t35.5 -40t82.5 -11q6 0 6 -12.5t-6 -12.5q-47 0 -74 2l-111 2l-112 -2q-27 -2 -74 -2q-6 0 -6 12.5t6 12.5q55 0 82 11t36 39.5 t9 90.5v332q0 121 -46 178t-142 57q-63 0 -128 -33.5t-118 -93.5v-440q0 -61 9 -90t36 -40t82 -11q6 0 6 -12.5t-6 -12.5q-47 0 -74 2l-110 2l-113 -2q-27 -2 -74 -2q-6 0 -6 12.5t6 12.5q55 0 82 11t36 39.5t9 90.5v405q0 70 -16.5 100.5t-55.5 30.5q-33 0 -110 -30h-4 q-8 0 -11.5 9z" />
<glyph unicode="o" horiz-adv-x="980" d="M74 406q0 133 64.5 226t166 139t205.5 46q121 0 211 -59.5t138 -156.5t48 -206q0 -127 -59.5 -222t-158.5 -147.5t-216 -52.5q-119 0 -210 58.5t-140 158t-49 216.5zM211 469q0 -125 41 -229.5t114.5 -166t165.5 -61.5q113 0 174.5 80t61.5 246q0 127 -42 227.5 t-115.5 156.5t-168.5 56q-111 0 -171 -80t-60 -229z" />
<glyph unicode="p" horiz-adv-x="1046" d="M-3 682q-3 10 3 14l227 109q4 2 15 2q29 0 47 -43t20 -123q174 176 344 176q84 0 156 -45t115 -131t43 -201q0 -154 -70 -259t-171 -156.5t-200 -51.5q-63 0 -113.5 12.5t-103.5 41.5v-424q0 -61 15.5 -90t58.5 -40.5t131 -11.5q4 0 4 -12t-4 -12q-70 0 -111 2l-149 2 l-113 -2q-29 -2 -75 -2q-6 0 -6.5 12t6.5 12q55 0 81.5 11.5t37 40t10.5 90.5v962q0 74 -16.5 105.5t-57.5 31.5q-45 0 -109 -28l-4 -2q-8 0 -11 10zM309 145q57 -63 122 -96t157 -33q108 0 178 95.5t70 265.5q0 172 -76 267t-193 95q-72 0 -133 -34.5t-125 -98.5v-461z" />
<glyph unicode="q" horiz-adv-x="999" d="M74 350q0 162 66.5 266.5t168 152.5t211.5 48q137 0 271 -72l137 50l4 2q6 0 8 -9.5t-4 -11.5q-49 -29 -73.5 -68.5t-24.5 -103.5v-1001q0 -61 10 -90t36.5 -40.5t84.5 -11.5q4 0 4 -12t-4 -12q-51 0 -80 2l-111 2l-121 -2q-35 -2 -96 -2q-4 0 -4 12t4 12 q70 0 103.5 11.5t46 40t12.5 90.5v544q-72 -78 -151.5 -126t-178.5 -48q-86 0 -159.5 45t-116.5 130t-43 202zM209 418q0 -178 69.5 -277.5t184.5 -99.5q69 0 131.5 38t128.5 103v369q0 104 -75 165.5t-191 61.5q-248 0 -248 -360z" />
<glyph unicode="r" horiz-adv-x="745" d="M21.5 681q-3.5 9 5.5 13l237 113l12 2q18 0 39 -47t21 -121v-2q84 98 133 134t94 36t86 -24.5t41 -59.5q0 -27 -17.5 -45t-49.5 -18q-18 0 -31.5 7t-32.5 21q-18 16 -34.5 24.5t-39.5 8.5q-27 0 -56.5 -22.5t-92.5 -96.5v-438q0 -61 15.5 -90t56.5 -40t127 -11 q8 0 8 -12.5t-8 -12.5q-66 0 -105 2l-151 2l-113 -2q-27 -2 -74 -2q-6 0 -6 12.5t6 12.5q55 0 82 11t36 39.5t9 90.5v405q0 70 -16.5 100.5t-55.5 30.5q-33 0 -110 -30h-4q-8 0 -11.5 9z" />
<glyph unicode="s" horiz-adv-x="692" d="M98 223q0 6 11.5 7t13.5 -5q39 -102 101.5 -155.5t144.5 -53.5q69 0 103 33q31 30 30 83v13q-2 78 -48 120t-139 87q-68 33 -107.5 59.5t-67 69.5t-27.5 107q0 111 83 169t195 58q82 0 150 -31q12 -4 15 -9t3 -13q0 -41 -2 -64l-2 -86q0 -4 -12.5 -4t-12.5 4 q0 43 -32.5 81t-81.5 60.5t-99 22.5q-51 0 -80.5 -27.5t-29.5 -82.5q0 -72 47 -114t137 -89q72 -37 112 -63.5t68.5 -69.5t28.5 -105q0 -104 -78 -176t-211 -72q-109 0 -196 62q-12 8 -13 24z" />
<glyph unicode="t" horiz-adv-x="692" d="M76 750.5q0 13.5 8 13.5q82 2 133 44t59 112q0 6 17 6q14 0 14 -6v-152q102 2 285 20q4 0 9 -15t5 -34q0 -16 -7 -33.5t-15 -15.5q-113 29 -277 33v-510q0 -84 42 -125t120 -41q90 0 164 57l4 2q8 0 12 -9t-2 -13q-76 -59 -136 -84t-126 -25q-86 0 -141.5 39t-55.5 129 v482q0 53 -7 75.5t-27.5 29.5t-69.5 7q-8 0 -8 13.5z" />
<glyph unicode="u" horiz-adv-x="1009" d="M10.5 691q-4.5 11 3.5 14l228 102l8 2q6 0 13 -5t7 -11v-490q0 -237 171 -237h1q66 0 133.5 33.5t122.5 93.5v356q0 82 -13 116.5t-48 34.5q-29 0 -70 -20h-2q-8 0 -11 11t5 14l227 102l7 2q6 0 13 -5t7 -11v-574q0 -70 16.5 -100.5t55.5 -30.5q35 0 108 29h4 q8 0 11.5 -9.5t-4.5 -13.5l-240 -112l-8 -2q-20 0 -39 47t-19 123v8q-80 -90 -159.5 -132t-165.5 -42q-102 0 -159.5 64.5t-57.5 187.5v313q0 80 -14.5 115.5t-47.5 35.5q-29 0 -69 -20h-2q-8 0 -12.5 11z" />
<glyph unicode="v" horiz-adv-x="888" d="M-6 778.5q0 12.5 6 12.5q41 0 63 -3l78 -2l133 2q31 2 82 3q6 0 6 -12.5t-6 -12.5q-123 0 -123 -49q0 -14 9 -31l250 -528l192 469q14 39 14 59q0 41 -38.5 60.5t-122.5 19.5q-4 0 -4.5 12.5t4.5 12.5q55 0 84 -3l122 -2l74 2q20 2 66 3q4 0 4 -12.5t-4 -12.5 q-51 0 -88 -34t-70 -116l-256 -614q-4 -10 -23 -10q-18 0 -22 10l-287 619q-41 88 -68.5 116.5t-68.5 28.5q-6 0 -6 12.5z" />
<glyph unicode="w" horiz-adv-x="1374" d="M-6 778.5q0 12.5 6 12.5q41 0 63 -3l78 -2l123 2q31 2 88 3q6 0 6 -12.5t-6 -12.5q-57 0 -88 -11.5t-31 -37.5q0 -14 9 -31l250 -526l161 389l-32 72q-41 88 -68 116.5t-66 28.5q-4 0 -4 12.5t4 12.5q41 0 62 -3l76 -2l133 2q29 2 78 3q6 0 6 -12.5t-6 -12.5 q-117 0 -117 -49q0 -14 8 -31l248 -530l192 471q14 31 15 59q0 41 -39 60.5t-123 19.5q-4 0 -4 12.5t4 12.5q55 0 84 -3l123 -2l73 2q20 2 64 3q6 0 6 -12.5t-6 -12.5q-49 0 -85 -33t-71 -117l-254 -614q-2 -8 -22 -8t-23 8l-231 498l-209 -498q-2 -8 -23 -8q-20 0 -22 8 l-287 619q-41 88 -68.5 116.5t-68.5 28.5q-6 0 -6 12.5z" />
<glyph unicode="x" horiz-adv-x="899" d="M23 12.5q0 12.5 4 12.5q53 0 115.5 38.5t115.5 112.5l139 195l-166 250q-49 76 -102 110.5t-96 34.5q-4 0 -4 12.5t4 12.5q43 0 63 -3l64 -2l131 2q29 2 80 3q4 0 4 -12.5t-4 -12.5q-35 0 -51.5 -5t-16.5 -20q0 -14 27 -55l141 -213l104 154q43 63 43 92q0 25 -27.5 36 t-90.5 11q-4 0 -4 12.5t4 12.5q55 0 84 -3l123 -2l73 2q20 2 66 3q4 0 4 -12.5t-4 -12.5q-55 0 -115.5 -38t-116.5 -114l-125 -170l183 -274q51 -78 105 -111.5t97 -33.5q5 0 5 -12.5t-5 -12.5l-65 2q-23 2 -66 2l-131 -2q-31 -2 -82 -2q-6 0 -6 12.5t6 12.5q37 0 52.5 5 t15.5 19q0 18 -25 55l-155 236l-123 -176q-41 -61 -41 -90q0 -25 27.5 -37t89.5 -12q6 0 6 -12.5t-6 -12.5q-55 0 -82 2l-123 2l-74 -2q-20 -2 -65 -2q-4 0 -4 12.5z" />
<glyph unicode="y" horiz-adv-x="890" d="M-72 -496q0 29 18.5 45.5t45.5 16.5t45 -6t39 -21q4 -2 23.5 -12t47.5 -10q49 0 93.5 43t94.5 144t118 280l-312 637q-47 90 -71.5 117.5t-63.5 27.5q-4 0 -4 12.5t4 12.5l70 -3q25 -2 67 -2l131 2q29 2 80 3q4 0 4 -12.5t-4 -12.5q-118 0 -118 -46q0 -13 10 -34 l270 -555l164 471q16 49 16 78q0 47 -36.5 66.5t-120.5 19.5q-4 0 -4 12.5t4 12.5q55 0 84 -3l122 -2l74 2q20 2 64 3q6 0 6 -12.5t-6 -12.5q-51 0 -88 -37t-70 -121l-250 -665q-76 -199 -142.5 -310.5t-137 -159.5t-162.5 -48q-45 0 -75 20t-30 59z" />
<glyph unicode="z" horiz-adv-x="829" d="M86 25l489 725q8 14 -10 14q-158 0 -246 -14.5t-137 -52.5t-73 -115q0 -4 -9 -4q-6 0 -11 3t-3 5l70 264q2 4 13 3t9 -5q-2 -6 -2 -17q0 -25 22.5 -32.5t77.5 -7.5h435q8 0 14 -8.5t2 -16.5l-483 -721q-8 -14 10 -14q201 0 286 12t123.5 52t69.5 138q2 4 12.5 4.5 t10.5 -4.5l-4 -210q0 -8 -5.5 -15.5t-13.5 -7.5h-633q-8 0 -13 8t-1 17z" />
<glyph unicode="{" horiz-adv-x="591" d="M59 623.5q0 13.5 7 13.5q98 12 129.5 132t31.5 314q0 176 22.5 259t82 113t180.5 30q8 0 8 -12.5t-8 -12.5q-74 0 -114 -56t-42 -161q-4 -250 -16 -352.5t-56 -160.5t-153 -105q106 -49 151.5 -109.5t57.5 -163t16 -350.5q2 -104 42 -160.5t114 -56.5q8 0 8 -12.5 t-8 -12.5q-125 0 -183.5 30t-80 114t-21.5 260q0 197 -31.5 315.5t-129.5 130.5q-7 0 -7 13.5z" />
<glyph unicode="|" horiz-adv-x="344" d="M135 -315v1812q0 14 41 14q39 0 39 -14v-1812q0 -8 -12.5 -12.5t-26.5 -4.5q-16 0 -28.5 4t-12.5 13z" />
<glyph unicode="}" horiz-adv-x="579" d="M59.5 -227.5q-0.5 12.5 8.5 12.5q74 0 113.5 56.5t41.5 160.5q4 248 16.5 350.5t57.5 162.5t152 110q-109 47 -153 105t-56.5 160.5t-16.5 352.5q-2 104 -42 160.5t-113 56.5q-8 0 -8.5 12.5t8.5 12.5q121 0 180 -30t81.5 -112.5t22.5 -259.5q0 -195 32 -314.5 t130 -131.5q6 0 6 -13.5t-6 -13.5q-98 -12 -130 -131t-32 -315q0 -176 -21.5 -260t-79.5 -114t-183 -30q-8 0 -8.5 12.5z" />
<glyph unicode="~" horiz-adv-x="907" d="M98 324q117 156 232 155q47 0 139 -35q55 -18 93 -28t79 -10q57 0 89 19t67 58l4 2q4 0 8 -6t2 -10q-72 -92 -118 -124t-99 -32q-39 0 -74 9.5t-86 27.5q-53 18 -90 27.5t-78 9.5q-49 0 -74.5 -13.5t-47 -35t-31.5 -29.5h-2q-4 0 -9.5 5t-3.5 10z" />
<glyph unicode="&#xa1;" horiz-adv-x="505" d="M160 -545q33 176 49 377t33 506q0 6 16 6q14 0 14 -6q10 -279 25.5 -492t48.5 -391q2 -8 -28.5 -13t-65.5 -5t-65.5 5t-26.5 13zM172 657q0 41 23.5 66t66.5 25q41 0 65.5 -25t24.5 -66q0 -39 -24.5 -61.5t-65.5 -22.5q-43 0 -66.5 22.5t-23.5 61.5z" />
<glyph unicode="&#xa2;" horiz-adv-x="1101" d="M74 483q0 129 63.5 236.5t176 176.5t251.5 83v170q0 8 7.5 12t15.5 4q10 0 16 -4t6 -12v-166h27q78 0 167 -16.5t144 -42.5q14 -6 18.5 -12.5t6.5 -22.5l20 -211q0 -6 -11 -8t-13 6q-37 137 -129 204.5t-230 71.5v-946q12 -2 39 -2q258 0 338 283q0 6 10 6q4 0 9.5 -3 t5.5 -5l-27 -217q-2 -16 -6 -22.5t-23 -14.5q-158 -55 -327 -56h-19v-184q0 -14 -22 -14q-23 0 -23 14v186q-172 14 -282.5 93.5t-159.5 190t-49 222.5zM221 514q0 -115 39 -221.5t117 -182t188 -98.5v938q-100 -6 -178 -64.5t-122 -155.5t-44 -216z" />
<glyph unicode="&#xa3;" horiz-adv-x="884" d="M59 11.5q0 11.5 4 13.5q104 27 142.5 69.5t38.5 118.5q0 68 -10.5 122t-28.5 114h-96q-6 0 -10.5 7t-4.5 15q0 10 4 16.5t11 6.5h81q-16 53 -25 95t-9 91q0 152 100 227.5t248 75.5q94 0 184 -33q31 -8 33 -39l14 -206q0 -8 -10 -9q-12 0 -14 9q-20 102 -78 175.5 t-156 73.5q-102 0 -149 -61.5t-47 -147.5q0 -55 10 -103t22.5 -90t16.5 -58h231q14 0 14 -23t-14 -22h-219q20 -78 20 -148q0 -78 -27.5 -127t-76.5 -88h256q90 0 134 12.5t66.5 47t39.5 108.5q0 4 12 3t12 -5q-18 -102 -18 -221q0 -16 -7.5 -23.5t-23.5 -7.5h-666 q-4 0 -4 11.5z" />
<glyph unicode="&#xa4;" horiz-adv-x="847" d="M102 702l58 52l104 -111q78 43 168 43t160 -47l102 109l45 -46l-100 -102q76 -80 76 -188q0 -104 -74 -183l100 -100l-57 -55l-98 112q-84 -53 -185 -53q-86 0 -151 43l-90 -102l-47 47l90 94q-37 39 -57.5 91t-20.5 108q0 111 80 186zM236 457q0 -113 52 -200t152 -87 q72 0 115 52t43 147q0 113 -57.5 196.5t-155.5 83.5q-70 0 -109.5 -49t-39.5 -143z" />
<glyph unicode="&#xa5;" horiz-adv-x="985" d="M-10 946q0 12 4 12q23 0 67 -4l66 -2q63 0 158 4l100 2q6 0 6 -12t-6 -12q-88 0 -88 -43q0 -20 16 -45l224 -340l141 246q35 57 35 104q0 37 -22.5 57.5t-63.5 20.5q-6 0 -6 12t6 12l86 -2q66 -4 125 -4q31 0 67 4l62 2q6 0 6 -12t-6 -12q-68 0 -130.5 -48t-115.5 -136 l-168 -281v-33h211q14 0 14 -20q0 -23 -14 -23h-553q-14 0 -14 23q0 20 14 20h215v4l-227 348q-53 80 -97.5 113t-107.5 33q-4 0 -4 12zM197 293q0 20 14 20h553q14 0 14 -20q0 -23 -14 -23h-211v-104q0 -63 12.5 -92t48 -39t115.5 -10q4 0 4 -12.5t-4 -12.5q-61 0 -96 2 l-144 2l-135 -2q-39 -2 -106 -2q-4 0 -4 12.5t4 12.5q78 0 114.5 10t50 39.5t13.5 91.5v104h-215q-14 0 -14 23z" />
<glyph unicode="&#xa6;" horiz-adv-x="344" d="M135 -315v757q0 8 12.5 12.5t28.5 4.5q14 0 26.5 -4t12.5 -13v-757q0 -8 -12.5 -12.5t-26.5 -4.5q-16 0 -28.5 4t-12.5 13zM135 737v760q0 14 41 14q39 0 39 -14v-760q0 -6 -12.5 -10t-26.5 -4q-16 0 -28.5 4t-12.5 10z" />
<glyph unicode="&#xa7;" horiz-adv-x="903" d="M147 459q0 78 29 136t111 134q-76 76 -76 172q0 133 91 201.5t216 68.5q106 0 178 -38q23 -10 23 -33l16 -203q0 -4 -11 -4t-13 4q-8 47 -46 100.5t-96.5 90t-124.5 36.5q-59 0 -97 -36.5t-38 -112.5q0 -90 54.5 -149.5t164.5 -131.5q86 -55 138.5 -100t88.5 -110.5 t36 -155.5q0 -78 -29 -135.5t-107 -129.5q84 -78 84 -178q0 -133 -92 -201.5t-219 -68.5q-106 0 -180 37q-23 14 -23 35l-16 200q0 6 12 6.5t12 -6.5q8 -45 47 -98t97.5 -90t124.5 -37q59 0 98 37t39 113q0 90 -55.5 149t-167.5 131q-88 57 -141.5 100.5t-90.5 110 t-37 156.5zM248 528q0 -90 37 -155.5t90 -108.5t141 -100q78 -49 121 -84q55 68 55 176q0 90 -35.5 155.5t-88 108.5t-138.5 101q-82 53 -125 90q-33 -39 -45 -83t-12 -100z" />
<glyph unicode="&#xa8;" horiz-adv-x="659" d="M63 1063q0 39 24 61.5t65 22.5t62.5 -21.5t21.5 -62.5q0 -39 -21.5 -61.5t-62.5 -22.5t-65 22.5t-24 61.5zM422 1063q0 39 23.5 61.5t64.5 22.5t63.5 -21.5t22.5 -62.5t-22.5 -62.5t-63.5 -21.5t-64.5 22.5t-23.5 61.5z" />
<glyph unicode="&#xa9;" horiz-adv-x="1472" d="M152 389q0 182 92 325.5t244.5 224.5t326.5 81q154 0 269.5 -63.5t179 -170t63.5 -233.5q0 -125 -66.5 -234.5t-182 -174t-255.5 -64.5q-125 0 -206.5 46t-120.5 118.5t-39 154.5q0 104 51 183.5t133 121t168 41.5q74 0 133 -28.5t62 -73.5q0 -25 -16.5 -42t-41.5 -17 q-43 0 -74 53q-25 37 -49 55.5t-69 18.5q-90 0 -129 -66.5t-39 -191.5q0 -141 72.5 -230.5t232.5 -89.5q94 0 175 40t131 121t50 200q0 131 -65.5 240.5t-179 174t-250.5 64.5q-160 0 -275 -72t-173 -193.5t-58 -271.5q0 -186 86 -318t217 -197.5t264 -65.5q119 0 208 18 t196 76q4 2 9 -4t-1 -11q-111 -82 -222.5 -112.5t-246.5 -30.5q-146 0 -285 68.5t-229 204t-90 325.5z" />
<glyph unicode="&#xaa;" horiz-adv-x="569" d="M61 616q0 10 2.5 18.5t6.5 8.5h460q5 0 8 -8t3 -19q0 -10 -3 -19t-8 -9h-458q-4 0 -7.5 9t-3.5 19zM72 827q0 33 24.5 54.5t89.5 44.5l179 63v113q0 94 -26 122.5t-71 28.5q-39 0 -64.5 -29.5t-33.5 -74.5q-4 -23 -13.5 -36t-35.5 -13q-20 0 -34.5 13t-14.5 30 q0 31 44 65.5t104.5 58t103.5 23.5q53 0 85.5 -36.5t32.5 -110.5v-240q0 -47 10.5 -67.5t32.5 -20.5q16 0 68 19h2q8 0 11 -7.5t-1 -11.5l-139 -65q-20 -10 -38.5 12t-22.5 72l-84 -46q-43 -25 -67 -32.5t-50 -7.5q-43 0 -67.5 22.5t-24.5 56.5zM166 856q0 -25 16.5 -41 t40.5 -16q23 0 51 12l91 47v111l-144 -58q-33 -12 -44 -23t-11 -32z" />
<glyph unicode="&#xab;" horiz-adv-x="933" d="M113 412q0 14 8 22l362 305q0 2 4 2t8.5 -5t2.5 -7l-250 -317l250 -318q2 -4 -5.5 -11t-9.5 -1l-362 305q-8 8 -8 25zM424 412q0 14 8 22l363 305q4 6 11 0t3 -10l-248 -317l248 -318v-2q0 -6 -5 -10t-9 0l-363 305q-8 8 -8 25z" />
<glyph unicode="&#xac;" horiz-adv-x="808" d="M59 510q0 14 2 26.5t7 12.5h677v-391q0 -4 -13 -7.5t-30 -3.5q-14 0 -26 2.5t-12 6.5v311h-594q-4 0 -7.5 13.5t-3.5 29.5z" />
<glyph unicode="&#xad;" horiz-adv-x="661" d="M55 385q0 39 6 39l535 96q4 2 7 -11t3 -30q0 -41 -10 -45l-530 -96q-5 -2 -8 14.5t-3 32.5z" />
<glyph unicode="&#xae;" horiz-adv-x="1536" d="M152 877q0 174 91 313t242.5 217t323.5 78t304 -76t204 -204t72 -281q0 -176 -86 -323.5t-232.5 -232.5t-318.5 -85q-150 0 -288 70.5t-225 205.5t-87 318zM240 930q0 -182 84 -316.5t215 -204t270 -69.5q152 0 265.5 64.5t174 183.5t60.5 276q0 162 -74 293t-203 206 t-289 75t-274.5 -70t-171.5 -185.5t-57 -252.5zM483 568.5q0 11.5 4 11.5q47 0 67.5 6t28 24.5t7.5 61.5v440q0 57 -18.5 73.5t-84.5 16.5q-4 0 -4 12.5t4 12.5l146 -2q25 0 90 4q57 4 78 4q186 0 186 -135q0 -123 -113 -180q72 -141 111 -205t78 -98.5t92 -41.5q4 0 4 -8 t-4 -8h-162q-20 0 -70.5 85t-134.5 249q-45 -12 -112 -8v-211q0 -43 7 -61.5t28.5 -24.5t68.5 -6q4 0 4 -11.5t-4 -11.5l-147 2l-146 -2q-4 0 -4 11.5zM676 918q41 -7 72 -7q74 0 110.5 33t36.5 107q0 78 -34 116.5t-95 38.5q-39 0 -56.5 -5t-25.5 -25.5t-8 -67.5v-190z" />
<glyph unicode="&#xaf;" horiz-adv-x="706" d="M84 1018q0 29 12 29h514q12 0 13 -29q0 -29 -13 -29h-514q-12 0 -12 29z" />
<glyph unicode="&#xb0;" horiz-adv-x="679" d="M59 1030q0 109 79 184.5t204 75.5t202 -75.5t77 -188.5t-77 -187.5t-202 -74.5t-204 75.5t-79 190.5zM180 1036q0 -117 39 -182.5t137 -65.5q90 0 118 54.5t28 169.5q0 129 -42 192.5t-130 63.5t-119 -59.5t-31 -172.5z" />
<glyph unicode="&#xb1;" horiz-adv-x="815" d="M59 41q0 12 2 23.5t7 11.5h677q5 0 8 -11.5t3 -25.5t-3 -25.5t-8 -11.5h-675q-4 0 -7.5 12.5t-3.5 26.5zM59 520q0 14 3.5 25.5t5.5 11.5h299v299q0 8 41 8t41 -8v-299h296q4 0 7.5 -12.5t3.5 -26.5t-3 -27.5t-8 -13.5h-296v-297q0 -4 -13.5 -7t-29.5 -3q-14 0 -26.5 2 t-12.5 6v299h-297q-4 0 -7.5 13.5t-3.5 29.5z" />
<glyph unicode="&#xb2;" horiz-adv-x="514" d="M57 1337q23 72 69 114t128 42q80 0 122 -41t42 -104q0 -61 -42 -123t-122 -154q-51 -55 -81 -93t-42 -71q0 -6 6 -6q139 0 190.5 6t70 26.5t34.5 78.5q0 4 7 4t7 -4l-2 -178q0 -4 -2 -7.5t-6 -3.5h-366q-4 0 -6.5 4t-0.5 9q13 43 41.5 89t77.5 113q68 98 102.5 163 t34.5 128q0 57 -27.5 89t-74.5 32q-49 0 -86 -34t-49 -85q0 -4 -8 -4q-6 0 -12.5 3t-4.5 7z" />
<glyph unicode="&#xb3;" horiz-adv-x="514" d="M47 952q-2 8 10.5 11.5t14.5 -5.5q12 -43 50 -75.5t99 -32.5q55 0 90 32.5t35 108.5t-43 121t-110 45q-6 0 -6.5 12.5t6.5 12.5q59 0 92.5 46t33.5 101q0 51 -28.5 85t-77.5 34q-45 0 -82 -34t-47 -83q-4 -4 -10 -4t-11.5 3t-3.5 7q18 70 65.5 113t127.5 43q76 0 121 -42 t45 -105q0 -57 -37 -103.5t-96 -68.5q159 -37 159 -160q0 -82 -55 -142.5t-153 -60.5q-78 0 -125.5 39t-63.5 102z" />
<glyph unicode="&#xb4;" horiz-adv-x="434" d="M119 975l106 491q2 8 42 19.5t67 11.5q18 0 16 -8l-209 -518q0 -4 -8 -4q-6 0 -11 3t-3 5z" />
<glyph unicode="&#xb6;" horiz-adv-x="1308" d="M111 791q0 242 146 368.5t405 126.5q63 0 131 -6q25 0 77 -3t97 -3q41 0 118 4l107 2q4 0 4 -12.5t-4 -12.5q-88 0 -135 -43t-47 -122l2 -977q0 -266 -78 -387t-254 -121q-53 0 -87 25.5t-34 62.5q0 31 16.5 50t47.5 19q35 0 49 -14t26 -43q16 -29 29.5 -42t46.5 -13 q57 0 81 84t24 282v240q-74 -6 -162 -6q-156 0 -293 53t-225 174t-88 314z" />
<glyph unicode="&#xb7;" horiz-adv-x="399" d="M109 412q0 39 24.5 61.5t65.5 22.5q43 0 66.5 -22.5t23.5 -61.5q0 -41 -23.5 -65.5t-66.5 -24.5q-41 0 -65.5 24.5t-24.5 65.5z" />
<glyph unicode="&#xb8;" horiz-adv-x="475" d="M63 -485q0 27 18.5 44t43.5 17q23 0 35 -11t24 -34q14 -27 29.5 -40t46.5 -13q70 0 70 78q0 53 -38 95t-138 95q-29 14 -29 27q0 8 10 34q10 27 51 132q4 16 10.5 30.5t10.5 28.5l26 -2q-26 -86 -26 -113q0 -29 17.5 -44t72.5 -48q51 -29 81 -65.5t30 -92.5 q0 -76 -54.5 -136t-158.5 -60q-57 0 -94.5 20.5t-37.5 57.5z" />
<glyph unicode="&#xb9;" horiz-adv-x="536" d="M66.5 1364q-5.5 10 3.5 12l235 113q2 2 6 2q6 0 10.5 -5t4.5 -11v-486q0 -70 8 -97.5t33.5 -35.5t89.5 -8q6 0 6 -12.5t-6 -12.5l-72 2q-61 4 -102 4q-43 0 -109 -4l-78 -2q-4 0 -4 12.5t4 12.5q68 0 95.5 8t36 36t8.5 97v242q0 106 -4.5 135t-30.5 29q-27 0 -119 -41h-2 q-8 0 -13.5 10z" />
<glyph unicode="&#xba;" horiz-adv-x="645" d="M53 1020q0 88 43 148.5t108.5 91t133.5 30.5q78 0 136 -39t90 -102.5t32 -134.5q0 -76 -39 -140.5t-103.5 -101.5t-140.5 -37q-116 0 -188 83t-72 202zM66 616q0 10 2 18.5t6 8.5h497q4 0 7.5 -8t3.5 -19q0 -10 -3.5 -19t-7.5 -9h-495q-4 0 -7 9t-3 19zM143 1059 q0 -119 57.5 -206t143.5 -87q74 0 118 56.5t44 154.5q0 119 -58.5 199.5t-148.5 80.5q-74 0 -115 -52t-41 -146z" />
<glyph unicode="&#xbb;" horiz-adv-x="933" d="M125 94l250 316l-250 319q-2 4 5 10t9 0l363 -305q10 -10 10 -22q0 -14 -10 -25l-363 -305q0 -2 -4 -2t-8 5t-2 9zM436 94l250 316l-250 319q-2 4 5.5 10t9.5 0l362 -305q10 -10 10 -22q0 -14 -10 -25l-362 -305q0 -2 -5 -2q-4 0 -8 5t-2 9z" />
<glyph unicode="&#xbc;" horiz-adv-x="1228" d="M66.5 1171.5q-5.5 10.5 3.5 12.5l235 114h4q6 0 11.5 -5t5.5 -9v-487q0 -70 8 -97.5t33.5 -36t89.5 -8.5q6 0 6 -11t-6 -11q-45 0 -72 2l-102 2l-109 -2q-29 -2 -78 -2q-4 0 -4 11t4 11q68 0 95.5 8.5t36 36t8.5 97.5v243q0 106 -4.5 135t-30.5 29q-16 0 -47 -12t-72 -31 h-2q-8 0 -13.5 10.5zM326 20l573 1264q0 2 4 2q10 0 28.5 -8t16.5 -12l-573 -1266q0 -2 -4 -2q-10 0 -28.5 9t-16.5 13zM733 198q-4 5 0 7l322 457q4 4 10 4t11 -2t5 -7v-426q25 0 90 5q6 0 7 -27q0 -29 -7 -29q-57 4 -90 4v-100q0 -29 4.5 -40t22.5 -16t63 -5 q2 -4 2.5 -12.5t-2.5 -12.5l-124 2l-160 -2q-2 0 -2 12.5t2 12.5q51 0 72.5 4t29.5 16t8 41v104q-139 4 -256 5q-4 0 -8 5zM811 229q-6 -6 4 -6q84 0 182 4v305z" />
<glyph unicode="&#xbd;" horiz-adv-x="1249" d="M66.5 1171.5q-5.5 10.5 3.5 12.5l235 114h4q6 0 11.5 -5t5.5 -9v-487q0 -70 8 -97.5t33.5 -36t89.5 -8.5q6 0 6 -11t-6 -11q-45 0 -72 2l-102 2l-109 -2q-29 -2 -78 -2q-4 0 -4 11t4 11q68 0 95.5 8.5t36 36t8.5 97.5v243q0 106 -4.5 135t-30.5 29q-16 0 -47 -12t-72 -31 h-2q-8 0 -13.5 10.5zM326 20l573 1264q0 2 4 2q10 0 28.5 -8t16.5 -12l-573 -1266q0 -2 -4 -2q-10 0 -28.5 9t-16.5 13zM793 512q23 72 68.5 114t127.5 42q80 0 122 -41t42 -105q0 -59 -43 -122.5t-123 -151.5q-100 -113 -121 -164q0 -6 6 -6q139 0 190.5 5t70 25.5 t34.5 77.5q0 4 7.5 4t7.5 -4l-2 -176q0 -10 -9 -10h-366q-8 0 -6 12q12 43 36.5 83t79.5 118q70 96 105 160.5t35 132.5q0 55 -28 86t-75 31q-49 0 -86 -32t-49 -83q0 -6 -8 -6q-6 0 -12 3t-4 7z" />
<glyph unicode="&#xbe;" horiz-adv-x="1206" d="M47 762q-2 8 10.5 10t14.5 -6q12 -43 50 -76t99 -33q55 0 90 33t35 107q0 78 -43 123t-110 45q-6 0 -6.5 12t6.5 12q59 0 92.5 46t33.5 102q0 51 -28.5 84.5t-77.5 33.5q-45 0 -82 -33.5t-47 -80.5q-2 -6 -10 -6q-6 0 -11.5 3t-3.5 7q18 70 65.5 112.5t127.5 42.5 q76 0 121 -40.5t45 -106.5q0 -55 -38 -102t-95 -70q160 -33 159 -160q0 -82 -55 -141t-153 -59q-78 0 -125.5 38.5t-63.5 102.5zM303 20l574 1264q0 2 4 2q10 0 28.5 -8t16.5 -12l-574 -1266q0 -2 -4 -2q-10 0 -28.5 9t-16.5 13zM711 198q-4 5 0 7l321 457q4 4 10 4t11.5 -2 t5.5 -7v-426q25 0 90 5q6 0 6 -27q0 -29 -6 -29q-57 4 -90 4v-100q0 -29 4 -40t22.5 -16t63.5 -5q2 -4 2 -12.5t-2 -12.5l-125 2l-160 -2q-2 0 -2 12.5t2 12.5q51 0 72.5 4t30 16t8.5 41v104q-139 4 -256 5q-4 0 -8 5zM788 229q-6 -6 5 -6q84 0 182 4v305z" />
<glyph unicode="&#xbf;" horiz-adv-x="669" d="M59 -317q0 61 22.5 109t50.5 78t85 85q72 70 100.5 126t28.5 128q0 45 -12 113q-2 6 10 8t14 -4q23 -53 38.5 -126t15.5 -118q0 -63 -26 -106.5t-75 -92.5q-55 -55 -82.5 -102t-27.5 -123q0 -88 40 -141.5t103 -53.5q49 0 66.5 26t21.5 71q8 41 24.5 65.5t55.5 24.5 q33 0 51.5 -21.5t18.5 -48.5q0 -59 -72 -101t-172 -42q-121 0 -200 63.5t-79 182.5zM279 649q0 41 23.5 65.5t66.5 24.5q41 0 65.5 -24.5t24.5 -65.5q0 -39 -24.5 -61.5t-65.5 -22.5q-43 0 -66.5 22.5t-23.5 61.5z" />
<glyph unicode="&#xc0;" d="M-8 12.5q0 12.5 10 12.5q57 0 97 21.5t76 75.5t79 157l432 1019q4 6 14.5 6.5t12.5 -6.5l483 -1017q70 -152 119 -204t117 -52q8 0 8 -12.5t-8 -12.5q-39 0 -121 4t-119 4q-45 0 -115 -4q-66 -4 -100 -4q-8 0 -8 12.5t8 12.5q76 0 110.5 14t34.5 49q0 29 -26 88l-183 387 h-487l-129 -303q-29 -70 -29 -113q0 -63 50.5 -92.5t150.5 -29.5q10 0 10 -12.5t-10 -12.5q-37 0 -107 4q-78 4 -135 4q-53 0 -123 -4q-61 -4 -102 -4q-10 0 -10 12.5zM442 604h453l-240 506zM444 1548q-14 2 15.5 18.5t69.5 30t49 9.5l59 -37q203 -121 272 -158q4 -2 4 -8 t-4 -10t-8 -2q-231 102 -457 157z" />
<glyph unicode="&#xc1;" d="M-8 12.5q0 12.5 10 12.5q57 0 97 21.5t76 75.5t79 157l432 1019q4 6 14.5 6.5t12.5 -6.5l483 -1017q70 -152 119 -204t117 -52q8 0 8 -12.5t-8 -12.5q-39 0 -121 4t-119 4q-45 0 -115 -4q-66 -4 -100 -4q-8 0 -8 12.5t8 12.5q76 0 110.5 14t34.5 49q0 29 -26 88l-183 387 h-487l-129 -303q-29 -70 -29 -113q0 -63 50.5 -92.5t150.5 -29.5q10 0 10 -12.5t-10 -12.5q-37 0 -107 4q-78 4 -135 4q-53 0 -123 -4q-61 -4 -102 -4q-10 0 -10 12.5zM442 604h453l-240 506zM486.5 1398q-3.5 9 2.5 13q88 45 211 121q82 49 123 72q8 6 48 -7.5t70 -30 t13 -18.5q-242 -61 -454 -159h-2q-8 0 -11.5 9z" />
<glyph unicode="&#xc2;" d="M-8 12.5q0 12.5 10 12.5q57 0 97 21.5t76 75.5t79 157l432 1019q4 6 14.5 6.5t12.5 -6.5l483 -1017q70 -152 119 -204t117 -52q8 0 8 -12.5t-8 -12.5q-39 0 -121 4t-119 4q-45 0 -115 -4q-66 -4 -100 -4q-8 0 -8 12.5t8 12.5q76 0 110.5 14t34.5 49q0 29 -26 88l-183 387 h-487l-129 -303q-29 -70 -29 -113q0 -63 50.5 -92.5t150.5 -29.5q10 0 10 -12.5t-10 -12.5q-37 0 -107 4q-78 4 -135 4q-53 0 -123 -4q-61 -4 -102 -4q-10 0 -10 12.5zM442 604h453l-240 506zM463 1341l211 199q10 10 24 10q12 0 23 -10l209 -199q2 0 2 -4t-5 -8t-7 -2 l-222 117l-223 -117q-4 -2 -10 5t-2 9z" />
<glyph unicode="&#xc3;" d="M-8 12.5q0 12.5 10 12.5q57 0 97 21.5t76 75.5t79 157l432 1019q4 6 14.5 6.5t12.5 -6.5l483 -1017q70 -152 119 -204t117 -52q8 0 8 -12.5t-8 -12.5q-39 0 -121 4t-119 4q-45 0 -115 -4q-66 -4 -100 -4q-8 0 -8 12.5t8 12.5q76 0 110.5 14t34.5 49q0 29 -26 88l-183 387 h-487l-129 -303q-29 -70 -29 -113q0 -63 50.5 -92.5t150.5 -29.5q10 0 10 -12.5t-10 -12.5q-37 0 -107 4q-78 4 -135 4q-53 0 -123 -4q-61 -4 -102 -4q-10 0 -10 12.5zM426 1478q-4 5 0 9q35 47 81 86t93 39q29 0 102 -21q94 -29 154 -28q35 0 55.5 14t44.5 41h2 q6 0 11.5 -5t1.5 -9q-53 -74 -88 -100.5t-74 -26.5q-43 0 -125 24q-8 2 -52 14.5t-91 12.5q-31 0 -48.5 -10.5t-30.5 -24.5t-22 -20h-4q-6 0 -10 5zM442 604h453l-240 506z" />
<glyph unicode="&#xc4;" d="M-8 12.5q0 12.5 10 12.5q57 0 97 21.5t76 75.5t79 157l432 1019q4 6 14.5 6.5t12.5 -6.5l483 -1017q70 -152 119 -204t117 -52q8 0 8 -12.5t-8 -12.5q-39 0 -121 4t-119 4q-45 0 -115 -4q-66 -4 -100 -4q-8 0 -8 12.5t8 12.5q76 0 110.5 14t34.5 49q0 29 -26 88l-183 387 h-487l-129 -303q-29 -70 -29 -113q0 -63 50.5 -92.5t150.5 -29.5q10 0 10 -12.5t-10 -12.5q-37 0 -107 4q-78 4 -135 4q-53 0 -123 -4q-61 -4 -102 -4q-10 0 -10 12.5zM432 1552q0 39 23.5 61.5t64.5 22.5t62.5 -21.5t21.5 -62.5q0 -39 -21.5 -61.5t-62.5 -22.5t-64.5 22.5 t-23.5 61.5zM442 604h453l-240 506zM791 1552q0 39 23.5 61.5t64.5 22.5t63.5 -21.5t22.5 -62.5t-22.5 -62.5t-63.5 -21.5t-64.5 22.5t-23.5 61.5z" />
<glyph unicode="&#xc5;" d="M-8 12.5q0 12.5 10 12.5q57 0 97 21.5t76 75.5t79 157l432 1019q4 6 14.5 6.5t12.5 -6.5l483 -1017q70 -152 119 -204t117 -52q8 0 8 -12.5t-8 -12.5q-39 0 -121 4t-119 4q-45 0 -115 -4q-66 -4 -100 -4q-8 0 -8 12.5t8 12.5q76 0 110.5 14t34.5 49q0 29 -26 88l-183 387 h-487l-129 -303q-29 -70 -29 -113q0 -63 50.5 -92.5t150.5 -29.5q10 0 10 -12.5t-10 -12.5q-37 0 -107 4q-78 4 -135 4q-53 0 -123 -4q-61 -4 -102 -4q-10 0 -10 12.5zM442 604h453l-240 506zM508 1524q0 74 62.5 115.5t138.5 41.5q74 0 127 -47t53 -114q0 -72 -61.5 -116 t-139.5 -44q-82 0 -131 49t-49 115zM600 1565q0 -70 33 -126.5t86 -56.5q39 0 57.5 25t18.5 76q0 72 -37 125t-90 53q-35 0 -51.5 -23.5t-16.5 -72.5z" />
<glyph unicode="&#xc6;" horiz-adv-x="1789" d="M-4 12.5q0 12.5 10 12.5q63 0 141 63.5t160 181.5l621 906q27 37 26 51q0 18 -33.5 23t-123.5 5q-4 0 -4 12.5t4 12.5h807q18 0 18 -18l4 -252q0 -6 -11 -7.5t-11 5.5q-4 96 -66.5 162.5t-155.5 66.5h-110q-70 0 -103.5 -10t-47 -36t-13.5 -79v-424h229q100 0 142.5 33 t42.5 110q0 4 12 4.5t12 -4.5l-2 -165q0 -59 2 -91l2 -98q0 -4 -12 -4t-12 4q0 90 -44 129t-147 39h-225v-471q0 -55 12.5 -83t46 -38t101.5 -10h149q88 0 158 73.5t90 188.5q0 4 8 4q6 0 11.5 -3t5.5 -5q-18 -129 -19 -270q0 -16 -7 -23.5t-26 -7.5h-835q-4 0 -4 12.5 t4 12.5q76 0 111.5 10t49 39.5t13.5 91.5v479h-352l-265 -387q-61 -88 -61 -145q0 -88 160 -88q10 0 10 -12.5t-10 -12.5q-37 0 -111 4q-82 4 -141 4q-49 0 -111 -4q-57 -4 -90 -4q-10 0 -10 12.5zM653 688h324v473z" />
<glyph unicode="&#xc7;" horiz-adv-x="1404" d="M100 649q0 193 96.5 341.5t265.5 230.5t380 82q129 0 217 -18.5t176 -63.5q14 -8 16 -14.5t6 -30.5l25 -244q0 -6 -11 -7t-14 5q-94 342 -421 342q-172 0 -303.5 -76t-203 -216t-71.5 -327q0 -178 79 -326.5t213 -234.5t292 -86q168 0 272.5 82t159.5 250q0 4 10 4 q14 0 14 -6l-20 -225q-2 -25 -6 -31t-17 -14q-106 -51 -199 -72t-214 -21h-4q-18 -61 -19 -90q0 -29 17.5 -45t70.5 -47q51 -29 81 -65.5t30 -92.5q0 -76 -54.5 -136t-158.5 -60q-57 0 -94 20.5t-37 57.5q0 27 18.5 44t42.5 17q23 0 35 -11t25 -34q14 -27 29.5 -40t45.5 -13 q70 0 70 78q0 53 -38 95t-138 95q-29 14 -29 27q0 8 10 34q25 61 64 166q-207 6 -367.5 93.5t-251 238t-90.5 344.5z" />
<glyph unicode="&#xc8;" horiz-adv-x="1099" d="M84 12.5q0 12.5 4 12.5q78 0 114 10t49 39.5t13 91.5v948q0 61 -13 90t-49 40t-114 11q-4 0 -4 12.5t4 12.5h823q18 0 19 -18l4 -252q0 -6 -10.5 -7.5t-12.5 5.5q-6 109 -65.5 169t-157.5 60h-125q-72 0 -105.5 -11.5t-47 -39t-13.5 -82.5v-416h250q98 0 140 33t42 110 q0 4 12.5 4.5t12.5 -4.5l-2 -165q0 -59 2 -91l2 -98q0 -4 -12.5 -4t-12.5 4q0 90 -44 129t-146 39h-244v-471q0 -57 12.5 -84t45 -37t102.5 -10h164q98 0 163.5 69.5t88.5 192.5q0 4 8 4q6 0 11 -2t5 -6q-18 -129 -18 -270q0 -16 -7 -23.5t-26 -7.5h-858q-4 0 -4 12.5z M344 1548q-14 2 15.5 18.5t69.5 30t48 9.5l60 -37q203 -121 272 -158q4 -2 4 -8t-4 -10t-8 -2q-231 102 -457 157z" />
<glyph unicode="&#xc9;" horiz-adv-x="1099" d="M84 12.5q0 12.5 4 12.5q78 0 114 10t49 39.5t13 91.5v948q0 61 -13 90t-49 40t-114 11q-4 0 -4 12.5t4 12.5h823q18 0 19 -18l4 -252q0 -6 -10.5 -7.5t-12.5 5.5q-6 109 -65.5 169t-157.5 60h-125q-72 0 -105.5 -11.5t-47 -39t-13.5 -82.5v-416h250q98 0 140 33t42 110 q0 4 12.5 4.5t12.5 -4.5l-2 -165q0 -59 2 -91l2 -98q0 -4 -12.5 -4t-12.5 4q0 90 -44 129t-146 39h-244v-471q0 -57 12.5 -84t45 -37t102.5 -10h164q98 0 163.5 69.5t88.5 192.5q0 4 8 4q6 0 11 -2t5 -6q-18 -129 -18 -270q0 -16 -7 -23.5t-26 -7.5h-858q-4 0 -4 12.5z M385 1398q-2 9 4 13q68 37 223 127q37 25 65 41t46 27q8 4 48 -9.5t68.5 -30t14.5 -18.5q-127 -31 -232.5 -68.5t-222.5 -88.5l-4 -2q-8 0 -10 9z" />
<glyph unicode="&#xca;" horiz-adv-x="1099" d="M84 12.5q0 12.5 4 12.5q78 0 114 10t49 39.5t13 91.5v948q0 61 -13 90t-49 40t-114 11q-4 0 -4 12.5t4 12.5h823q18 0 19 -18l4 -252q0 -6 -10.5 -7.5t-12.5 5.5q-6 109 -65.5 169t-157.5 60h-125q-72 0 -105.5 -11.5t-47 -39t-13.5 -82.5v-416h250q98 0 140 33t42 110 q0 4 12.5 4.5t12.5 -4.5l-2 -165q0 -59 2 -91l2 -98q0 -4 -12.5 -4t-12.5 4q0 90 -44 129t-146 39h-244v-471q0 -57 12.5 -84t45 -37t102.5 -10h164q98 0 163.5 69.5t88.5 192.5q0 4 8 4q6 0 11 -2t5 -6q-18 -129 -18 -270q0 -16 -7 -23.5t-26 -7.5h-858q-4 0 -4 12.5z M365 1417l210 201q10 10 25 10q12 0 23 -10l208 -201q2 0 3 -4q0 -4 -5.5 -8t-7.5 -2l-221 119l-223 -119q-4 -2 -10.5 5t-1.5 9z" />
<glyph unicode="&#xcb;" horiz-adv-x="1099" d="M84 12.5q0 12.5 4 12.5q78 0 114 10t49 39.5t13 91.5v948q0 61 -13 90t-49 40t-114 11q-4 0 -4 12.5t4 12.5h823q18 0 19 -18l4 -252q0 -6 -10.5 -7.5t-12.5 5.5q-6 109 -65.5 169t-157.5 60h-125q-72 0 -105.5 -11.5t-47 -39t-13.5 -82.5v-416h250q98 0 140 33t42 110 q0 4 12.5 4.5t12.5 -4.5l-2 -165q0 -59 2 -91l2 -98q0 -4 -12.5 -4t-12.5 4q0 90 -44 129t-146 39h-244v-471q0 -57 12.5 -84t45 -37t102.5 -10h164q98 0 163.5 69.5t88.5 192.5q0 4 8 4q6 0 11 -2t5 -6q-18 -129 -18 -270q0 -16 -7 -23.5t-26 -7.5h-858q-4 0 -4 12.5z M332 1552q0 39 23.5 61.5t64.5 22.5t62.5 -21.5t21.5 -62.5q0 -39 -21.5 -61.5t-62.5 -22.5t-64.5 22.5t-23.5 61.5zM690 1552q0 39 23.5 61.5t64.5 22.5t63.5 -21.5t22.5 -62.5t-22.5 -62.5t-63.5 -21.5t-64.5 22.5t-23.5 61.5z" />
<glyph unicode="&#xcc;" horiz-adv-x="679" d="M86 1548q-14 2 15.5 18.5t69.5 30t48 9.5l60 -37q203 -121 272 -158q4 -2 4 -8t-4 -10t-8 -2q-232 102 -457 157zM90 12.5q0 12.5 6 12.5q78 0 114 10t49 39.5t13 91.5v948q0 61 -13 90t-49 40t-114 11q-6 0 -6 12.5t6 12.5l101 -2q86 -4 141 -4q61 0 147 4l97 2 q6 0 6 -12.5t-6 -12.5q-76 0 -112 -12t-49 -42t-13 -91v-944q0 -62 12 -91.5t48 -39.5t114 -10q6 0 6 -12.5t-6 -12.5q-61 0 -99 2l-145 2l-141 -2q-37 -2 -101 -2q-6 0 -6 12.5z" />
<glyph unicode="&#xcd;" horiz-adv-x="679" d="M90 12.5q0 12.5 6 12.5q78 0 114 10t49 39.5t13 91.5v948q0 61 -13 90t-49 40t-114 11q-6 0 -6 12.5t6 12.5l101 -2q86 -4 141 -4q61 0 147 4l97 2q6 0 6 -12.5t-6 -12.5q-76 0 -112 -12t-49 -42t-13 -91v-944q0 -62 12 -91.5t48 -39.5t114 -10q6 0 6 -12.5t-6 -12.5 q-61 0 -99 2l-145 2l-141 -2q-37 -2 -101 -2q-6 0 -6 12.5zM127 1398q-2 9 4 13q68 37 223 127q37 25 64.5 41t46.5 27q8 4 48 -9.5t68.5 -30t14.5 -18.5q-127 -31 -232.5 -68.5t-222.5 -88.5l-4 -2q-8 0 -10 9z" />
<glyph unicode="&#xce;" horiz-adv-x="679" d="M90 12.5q0 12.5 6 12.5q78 0 114 10t49 39.5t13 91.5v948q0 61 -13 90t-49 40t-114 11q-6 0 -6 12.5t6 12.5l101 -2q86 -4 141 -4q61 0 147 4l97 2q6 0 6 -12.5t-6 -12.5q-76 0 -112 -12t-49 -42t-13 -91v-944q0 -62 12 -91.5t48 -39.5t114 -10q6 0 6 -12.5t-6 -12.5 q-61 0 -99 2l-145 2l-141 -2q-37 -2 -101 -2q-6 0 -6 12.5zM106 1417l211 201q10 10 25 10q12 0 23 -10l208 -201q2 0 2 -4t-5 -8t-7 -2l-221 119l-223 -119q-4 -2 -10.5 5t-2.5 9z" />
<glyph unicode="&#xcf;" horiz-adv-x="679" d="M90 12.5q0 12.5 6 12.5q78 0 114 10t49 39.5t13 91.5v948q0 61 -13 90t-49 40t-114 11q-6 0 -6 12.5t6 12.5l101 -2q86 -4 141 -4q61 0 147 4l97 2q6 0 6 -12.5t-6 -12.5q-76 0 -112 -12t-49 -42t-13 -91v-944q0 -62 12 -91.5t48 -39.5t114 -10q6 0 6 -12.5t-6 -12.5 q-61 0 -99 2l-145 2l-141 -2q-37 -2 -101 -2q-6 0 -6 12.5zM106 1552q0 39 24 61.5t65 22.5t63.5 -22.5t22.5 -61.5t-22.5 -61.5t-63.5 -22.5t-65 22.5t-24 61.5zM399 1552q0 39 23.5 61.5t64.5 22.5t62.5 -21.5t21.5 -62.5q0 -39 -21.5 -61.5t-62.5 -22.5t-64.5 22.5 t-23.5 61.5z" />
<glyph unicode="&#xd0;" horiz-adv-x="1415" d="M68 12.5q0 12.5 4 12.5q78 0 113.5 10t49 39.5t13.5 91.5v450h-139q-8 0 -9 21q0 20 9 20h139v457q0 61 -12.5 90t-48 40t-113.5 11q-4 0 -4 12.5t4 12.5l102 -2q86 -4 137 -4q78 0 154 6q90 4 125 4q213 0 378 -82t255 -223t90 -317q0 -199 -93.5 -351.5t-253 -235.5 t-347.5 -83q-59 0 -138 6q-29 2 -72.5 4t-97.5 2l-139 -2q-37 -2 -102 -2q-4 0 -4 12.5zM381 188q0 -61 17.5 -96t65.5 -52t136 -17q164 0 291 68.5t197.5 202.5t70.5 322q0 178 -67.5 323.5t-192.5 229.5t-289 84q-88 0 -136 -10t-70.5 -41t-22.5 -92v-453h278q8 0 9 -20 q0 -20 -9 -21h-278v-428z" />
<glyph unicode="&#xd1;" horiz-adv-x="1488" d="M78 1267.5q0 12.5 6 12.5l76 -2q25 -2 67 -2q45 0 74 2t45 2t23.5 -7t23.5 -32q25 -37 49 -67l789 -969v850q0 106 -36 153t-120 47q-4 0 -4 12.5t4 12.5l80 -2q61 -4 100 -4q37 0 103 4l84 2q6 0 6 -12.5t-6 -12.5q-86 0 -125 -47t-39 -153v-1080q0 -4 -10.5 -6t-14.5 2 l-942 1141l-18 21v-910q0 -106 38 -152t122 -46q6 0 6 -12.5t-6 -12.5q-51 0 -78 2l-103 2l-104 -2q-29 -2 -84 -2q-4 0 -4 12.5t4 12.5q88 0 125 46t37 152v959q-80 74 -162 73q-6 0 -6 12.5zM500 1442q33 49 80 89t94 40q35 0 102 -23q10 -2 58.5 -15t95.5 -13 q35 0 56.5 14t43.5 41h4q6 0 10.5 -5t-0.5 -9q-53 -76 -87.5 -101.5t-73.5 -25.5q-43 0 -125 24q-90 25 -142 25q-33 0 -51 -10.5t-31.5 -24.5t-19.5 -21h-2q-6 0 -11 5.5t-1 9.5z" />
<glyph unicode="&#xd2;" horiz-adv-x="1568" d="M100 639q0 211 106.5 361.5t273.5 226.5t341 76q195 0 342.5 -91.5t226 -241t78.5 -317.5q0 -186 -98 -341.5t-263 -246t-357 -90.5q-191 0 -339.5 89.5t-229.5 242t-81 332.5zM256 711q0 -193 71.5 -351.5t200.5 -250t293 -91.5q140 0 251.5 68t176 199t64.5 311 q0 193 -72 342t-202 233t-304 84q-225 0 -352 -145t-127 -399zM535 1548q-14 2 15.5 18.5t69 30t48.5 9.5l59 -37q203 -121 272 -158q4 -2 5 -8q0 -6 -4.5 -10t-8.5 -2q-231 102 -456 157z" />
<glyph unicode="&#xd3;" horiz-adv-x="1568" d="M100 639q0 211 106.5 361.5t273.5 226.5t341 76q195 0 342.5 -91.5t226 -241t78.5 -317.5q0 -186 -98 -341.5t-263 -246t-357 -90.5q-191 0 -339.5 89.5t-229.5 242t-81 332.5zM256 711q0 -193 71.5 -351.5t200.5 -250t293 -91.5q140 0 251.5 68t176 199t64.5 311 q0 193 -72 342t-202 233t-304 84q-225 0 -352 -145t-127 -399zM575.5 1398q-2.5 9 4.5 13q68 37 223 127q37 25 64.5 41t45.5 27q8 4 48 -9.5t69 -30t14 -18.5q-127 -31 -232 -68.5t-222 -88.5l-4 -2q-8 0 -10.5 9z" />
<glyph unicode="&#xd4;" horiz-adv-x="1568" d="M100 639q0 211 106.5 361.5t273.5 226.5t341 76q195 0 342.5 -91.5t226 -241t78.5 -317.5q0 -186 -98 -341.5t-263 -246t-357 -90.5q-191 0 -339.5 89.5t-229.5 242t-81 332.5zM256 711q0 -193 71.5 -351.5t200.5 -250t293 -91.5q140 0 251.5 68t176 199t64.5 311 q0 193 -72 342t-202 233t-304 84q-225 0 -352 -145t-127 -399zM555 1417l211 201q10 10 25 10q12 0 22 -10l209 -201q2 0 2 -4t-5 -8t-7 -2l-221 119l-224 -119q-4 -2 -10 5t-2 9z" />
<glyph unicode="&#xd5;" horiz-adv-x="1568" d="M100 639q0 211 106.5 361.5t273.5 226.5t341 76q195 0 342.5 -91.5t226 -241t78.5 -317.5q0 -186 -98 -341.5t-263 -246t-357 -90.5q-191 0 -339.5 89.5t-229.5 242t-81 332.5zM256 711q0 -193 71.5 -351.5t200.5 -250t293 -91.5q140 0 251.5 68t176 199t64.5 311 q0 193 -72 342t-202 233t-304 84q-225 0 -352 -145t-127 -399zM518 1442q33 49 80 89t94 40q35 0 103 -23q10 -2 58 -15t95 -13q35 0 56.5 14t44.5 41h4q6 0 10 -5t0 -9q-53 -76 -88 -101.5t-74 -25.5q-43 0 -125 24q-90 25 -141 25q-33 0 -51.5 -10.5t-31.5 -24.5t-20 -21 h-2q-6 0 -11 5.5t-1 9.5z" />
<glyph unicode="&#xd6;" horiz-adv-x="1568" d="M100 639q0 211 106.5 361.5t273.5 226.5t341 76q195 0 342.5 -91.5t226 -241t78.5 -317.5q0 -186 -98 -341.5t-263 -246t-357 -90.5q-191 0 -339.5 89.5t-229.5 242t-81 332.5zM256 711q0 -193 71.5 -351.5t200.5 -250t293 -91.5q140 0 251.5 68t176 199t64.5 311 q0 193 -72 342t-202 233t-304 84q-225 0 -352 -145t-127 -399zM522 1552q0 39 23.5 61.5t64.5 22.5t62.5 -21.5t21.5 -62.5q0 -39 -21.5 -61.5t-62.5 -22.5t-64.5 22.5t-23.5 61.5zM881 1552q0 39 23.5 61.5t64.5 22.5t63.5 -21.5t22.5 -62.5t-22.5 -62.5t-63.5 -21.5 t-64.5 22.5t-23.5 61.5z" />
<glyph unicode="&#xd7;" horiz-adv-x="782" d="M121 176l213 213l-209 211q-8 4 21.5 34t33.5 23l211 -211l209 209q8 6 37 -22.5t22 -36.5l-208 -207l208 -209q6 -8 -22.5 -36.5t-36.5 -22.5l-209 209l-211 -209q-4 -8 -33.5 21.5t-25.5 33.5z" />
<glyph unicode="&#xd8;" horiz-adv-x="1579" d="M100 639q0 211 106.5 361.5t273.5 226.5t341 76q127 0 235.5 -40t192.5 -114l140 141l4 2q10 0 22 -12t6 -16l-141 -146q90 -90 139 -213t49 -252q0 -186 -98 -341.5t-263 -246t-357 -90.5q-129 0 -240 42t-197 120l-149 -151l-4 -2q-8 0 -20.5 13t-6.5 19l150 152 q-88 90 -135.5 212t-47.5 259zM256 711q0 -127 31.5 -241t91.5 -204l784 795q-76 94 -185.5 144t-242.5 50q-225 0 -352 -145t-127 -399zM403 229q76 -100 183.5 -155.5t234.5 -55.5q140 0 251.5 68t176 199t64.5 311q0 125 -32 235.5t-91 196.5z" />
<glyph unicode="&#xd9;" horiz-adv-x="1429" d="M55 1267.5q0 12.5 4 12.5l101 -2q86 -4 139 -4q57 0 143 4l99 2q6 0 6 -12.5t-6 -12.5q-76 0 -113 -12t-49 -42t-12 -91v-580q0 -240 109.5 -367.5t305.5 -127.5q184 0 286.5 115.5t102.5 320.5v584q0 200 -178 200q-6 0 -6 12.5t6 12.5l88 -2q74 -4 117 -4q35 0 100 4 l86 2q4 0 4.5 -12.5t-4.5 -12.5q-164 0 -163 -200v-582q0 -236 -131.5 -368t-352.5 -132q-152 0 -265.5 59.5t-176 169t-62.5 257.5v655q0 61 -12 90t-48 40t-114 11q-4 0 -4 12.5zM512 1548q-14 2 15.5 18.5t69.5 30t48 9.5l60 -37q203 -121 272 -158q4 -2 4 -8t-4 -10 t-8 -2q-232 102 -457 157z" />
<glyph unicode="&#xda;" horiz-adv-x="1429" d="M55 1267.5q0 12.5 4 12.5l101 -2q86 -4 139 -4q57 0 143 4l99 2q6 0 6 -12.5t-6 -12.5q-76 0 -113 -12t-49 -42t-12 -91v-580q0 -240 109.5 -367.5t305.5 -127.5q184 0 286.5 115.5t102.5 320.5v584q0 200 -178 200q-6 0 -6 12.5t6 12.5l88 -2q74 -4 117 -4q35 0 100 4 l86 2q4 0 4.5 -12.5t-4.5 -12.5q-164 0 -163 -200v-582q0 -236 -131.5 -368t-352.5 -132q-152 0 -265.5 59.5t-176 169t-62.5 257.5v655q0 61 -12 90t-48 40t-114 11q-4 0 -4 12.5zM553 1398q-2 9 4 13q68 37 223 127q37 25 64.5 41t46.5 27q8 4 48 -9.5t68.5 -30 t14.5 -18.5q-127 -31 -232.5 -68.5t-222.5 -88.5l-4 -2q-8 0 -10 9z" />
<glyph unicode="&#xdb;" horiz-adv-x="1429" d="M55 1267.5q0 12.5 4 12.5l101 -2q86 -4 139 -4q57 0 143 4l99 2q6 0 6 -12.5t-6 -12.5q-76 0 -113 -12t-49 -42t-12 -91v-580q0 -240 109.5 -367.5t305.5 -127.5q184 0 286.5 115.5t102.5 320.5v584q0 200 -178 200q-6 0 -6 12.5t6 12.5l88 -2q74 -4 117 -4q35 0 100 4 l86 2q4 0 4.5 -12.5t-4.5 -12.5q-164 0 -163 -200v-582q0 -236 -131.5 -368t-352.5 -132q-152 0 -265.5 59.5t-176 169t-62.5 257.5v655q0 61 -12 90t-48 40t-114 11q-4 0 -4 12.5zM532 1417l211 201q10 10 25 10q12 0 23 -10l208 -201q2 0 2 -4t-5 -8t-7 -2l-221 119 l-223 -119q-4 -2 -10.5 5t-2.5 9z" />
<glyph unicode="&#xdc;" horiz-adv-x="1429" d="M55 1267.5q0 12.5 4 12.5l101 -2q86 -4 139 -4q57 0 143 4l99 2q6 0 6 -12.5t-6 -12.5q-76 0 -113 -12t-49 -42t-12 -91v-580q0 -240 109.5 -367.5t305.5 -127.5q184 0 286.5 115.5t102.5 320.5v584q0 200 -178 200q-6 0 -6 12.5t6 12.5l88 -2q74 -4 117 -4q35 0 100 4 l86 2q4 0 4.5 -12.5t-4.5 -12.5q-164 0 -163 -200v-582q0 -236 -131.5 -368t-352.5 -132q-152 0 -265.5 59.5t-176 169t-62.5 257.5v655q0 61 -12 90t-48 40t-114 11q-4 0 -4 12.5zM500 1552q0 39 23.5 61.5t64.5 22.5t62.5 -21.5t21.5 -62.5q0 -39 -21.5 -61.5t-62.5 -22.5 t-64.5 22.5t-23.5 61.5zM858 1552q0 39 23.5 61.5t64.5 22.5t63.5 -21.5t22.5 -62.5t-22.5 -62.5t-63.5 -21.5t-64.5 22.5t-23.5 61.5z" />
<glyph unicode="&#xdd;" horiz-adv-x="1247" d="M-8 1267.5q0 12.5 6 12.5q25 0 74 -4l71 -2q70 0 176 4l111 2q4 0 4 -12.5t-4 -12.5q-106 0 -106 -43q0 -23 20 -51l330 -483l250 383q45 72 45 121q0 74 -111 73q-4 0 -4 12.5t4 12.5l96 -2q78 -4 144 -4q35 0 84 4l75 2q5 0 5 -12.5t-5 -12.5q-74 0 -149.5 -54 t-134.5 -148l-275 -422v-465q0 -63 12.5 -92t48.5 -39t113 -10q6 0 6.5 -12.5t-6.5 -12.5q-63 0 -98 2l-143 2l-142 -2q-37 -2 -100 -2q-6 0 -6 12.5t6 12.5q78 0 114 10t49 39.5t13 91.5v432l-340 498q-57 90 -108 124.5t-119 34.5q-6 0 -6 12.5zM438.5 1398q-2.5 9 3.5 13 q68 37 224 127q37 25 64.5 41t45.5 27q8 4 48 -9.5t69 -30t14 -18.5q-127 -31 -232.5 -68.5t-221.5 -88.5l-4 -2q-8 0 -10.5 9z" />
<glyph unicode="&#xde;" horiz-adv-x="1101" d="M84 12.5q0 12.5 4 12.5q76 0 110.5 10t47 39.5t12.5 91.5v948q0 61 -12.5 90t-47 40t-110.5 11q-4 0 -4 12.5t4 12.5l102 -2q82 -4 136 -4q72 0 178 4l131 2q6 0 6 -12.5t-6 -12.5q-109 0 -159 -12t-67.5 -43t-17.5 -96v-96q92 14 193 14q201 0 321.5 -82t120.5 -266 q0 -133 -67.5 -223.5t-170 -134.5t-208.5 -44q-47 0 -103 11q-4 0 -4 10q0 6 3 12t7 4q49 -8 74 -8q133 0 225 89t92 257q0 164 -94 255t-248 91q-70 0 -141 -16v-803q0 -66 17.5 -95.5t67.5 -41.5t159 -12q6 0 6 -12.5t-6 -12.5q-84 0 -131 2l-178 2l-136 -2 q-37 -2 -102 -2q-4 0 -4 12.5z" />
<glyph unicode="&#xdf;" horiz-adv-x="1042" d="M31 763q0 13 8 13q68 0 95.5 11.5t35.5 37t14 93.5q20 295 121 432t301 137q129 0 192.5 -61.5t63.5 -139.5q0 -68 -31.5 -120t-93.5 -119q-55 -59 -83.5 -104.5t-28.5 -98.5q0 -66 43 -126.5t131 -148.5q96 -98 145 -168.5t49 -152.5q0 -68 -35.5 -130.5t-101 -101.5 t-151.5 -39q-82 0 -130.5 36t-48.5 96q0 27 15.5 44t46.5 17q27 0 44 -17.5t34 -52.5q23 -41 42 -61.5t58 -20.5q53 0 88 38t35 100q0 78 -43 140t-127 144q-88 88 -133 155t-45 150q0 61 23.5 108.5t68.5 109.5q49 66 75.5 121t26.5 130q0 94 -42 168t-140 74 q-121 0 -185.5 -142.5t-64.5 -400.5v-747q0 -61 9.5 -91t37 -40t84.5 -10q4 0 4 -12.5t-4 -12.5l-188 2l-203 -2q-6 0 -6 12.5t6 12.5q61 0 91 10t40 39.5t10 91.5v473q0 53 -9 74.5t-37.5 29t-98.5 7.5q-8 0 -8 13z" />
<glyph unicode="&#xe0;" horiz-adv-x="858" d="M115 127q0 61 49 106.5t162 85.5l225 84v140q0 229 -129 229q-70 0 -105.5 -46t-48.5 -105q-6 -37 -22.5 -60.5t-55.5 -23.5q-33 0 -50 18t-17 43q0 49 63.5 98t151.5 82t158 33q84 0 127 -53t43 -154v-383q0 -72 18 -104.5t61 -32.5q39 0 101 27h4q8 0 10 -9.5t-6 -13.5 l-211 -100q-8 -4 -16 -4q-27 0 -47.5 35.5t-26.5 97.5l-107 -70q-51 -33 -90 -47t-82 -14q-76 0 -117.5 40t-41.5 101zM238 1489q-2 8 16 8q27 0 66.5 -11t41.5 -20l105 -491q4 -4 -7 -7t-14 3zM252 178q0 -49 31.5 -83t83.5 -34q41 0 98 33l86 51v11v219l-191 -74 q-57 -23 -82.5 -52.5t-25.5 -70.5z" />
<glyph unicode="&#xe1;" horiz-adv-x="858" d="M115 127q0 61 49 106.5t162 85.5l225 84v140q0 229 -129 229q-70 0 -105.5 -46t-48.5 -105q-6 -37 -22.5 -60.5t-55.5 -23.5q-33 0 -50 18t-17 43q0 49 63.5 98t151.5 82t158 33q84 0 127 -53t43 -154v-383q0 -72 18 -104.5t61 -32.5q39 0 101 27h4q8 0 10 -9.5t-6 -13.5 l-211 -100q-8 -4 -16 -4q-27 0 -47.5 35.5t-26.5 97.5l-107 -70q-51 -33 -90 -47t-82 -14q-76 0 -117.5 40t-41.5 101zM252 178q0 -49 31.5 -83t83.5 -34q41 0 98 33l86 51v11v219l-191 -74q-57 -23 -82.5 -52.5t-25.5 -70.5zM408 975l106 491q2 8 42 19.5t67 11.5 q18 0 16 -8l-209 -518q0 -4 -8 -4q-6 0 -11 3t-3 5z" />
<glyph unicode="&#xe2;" horiz-adv-x="858" d="M115 127q0 61 49 106.5t162 85.5l225 84v140q0 229 -129 229q-70 0 -105.5 -46t-48.5 -105q-6 -37 -22.5 -60.5t-55.5 -23.5q-33 0 -50 18t-17 43q0 49 63.5 98t151.5 82t158 33q84 0 127 -53t43 -154v-383q0 -72 18 -104.5t61 -32.5q39 0 101 27h4q8 0 10 -9.5t-6 -13.5 l-211 -100q-8 -4 -16 -4q-27 0 -47.5 35.5t-26.5 97.5l-107 -70q-51 -33 -90 -47t-82 -14q-76 0 -117.5 40t-41.5 101zM252 178q0 -49 31.5 -83t83.5 -34q41 0 98 33l86 51v11v219l-191 -74q-57 -23 -82.5 -52.5t-25.5 -70.5zM272 975l140 510q2 10 22 10q23 0 25 -10 l137 -510q4 -4 -7 -7t-14 3l-139 336l-141 -336q0 -4 -8 -4q-6 0 -11.5 3t-3.5 5z" />
<glyph unicode="&#xe3;" horiz-adv-x="858" d="M115 127q0 61 49 106.5t162 85.5l225 84v140q0 229 -129 229q-70 0 -105.5 -46t-48.5 -105q-6 -37 -22.5 -60.5t-55.5 -23.5q-33 0 -50 18t-17 43q0 49 63.5 98t151.5 82t158 33q84 0 127 -53t43 -154v-383q0 -72 18 -104.5t61 -32.5q39 0 101 27h4q8 0 10 -9.5t-6 -13.5 l-211 -100q-8 -4 -16 -4q-27 0 -47.5 35.5t-26.5 97.5l-107 -70q-51 -33 -90 -47t-82 -14q-76 0 -117.5 40t-41.5 101zM162 988q-4 5 0 9q35 47 81 86t93 39q29 0 102 -20q94 -29 154 -29q35 0 55.5 14.5t44.5 40.5h2q6 0 11.5 -5t1.5 -9q-53 -74 -88 -100.5t-74 -26.5 q-43 0 -125 25q-8 2 -52 14t-92 12q-31 0 -48 -10t-30.5 -24.5t-21.5 -20.5h-4q-6 0 -10 5zM252 178q0 -49 31.5 -83t83.5 -34q41 0 98 33l86 51v11v219l-191 -74q-57 -23 -82.5 -52.5t-25.5 -70.5z" />
<glyph unicode="&#xe4;" horiz-adv-x="858" d="M115 127q0 61 49 106.5t162 85.5l225 84v140q0 229 -129 229q-70 0 -105.5 -46t-48.5 -105q-6 -37 -22.5 -60.5t-55.5 -23.5q-33 0 -50 18t-17 43q0 49 63.5 98t151.5 82t158 33q84 0 127 -53t43 -154v-383q0 -72 18 -104.5t61 -32.5q39 0 101 27h4q8 0 10 -9.5t-6 -13.5 l-211 -100q-8 -4 -16 -4q-27 0 -47.5 35.5t-26.5 97.5l-107 -70q-51 -33 -90 -47t-82 -14q-76 0 -117.5 40t-41.5 101zM168 1063q0 39 23.5 61.5t64.5 22.5t62.5 -21.5t21.5 -62.5q0 -39 -21.5 -61.5t-62.5 -22.5t-64.5 22.5t-23.5 61.5zM252 178q0 -49 31.5 -83t83.5 -34 q41 0 98 33l86 51v11v219l-191 -74q-57 -23 -82.5 -52.5t-25.5 -70.5zM526 1063q0 39 23.5 61.5t64.5 22.5t63.5 -21.5t22.5 -62.5t-22.5 -62.5t-63.5 -21.5t-64.5 22.5t-23.5 61.5z" />
<glyph unicode="&#xe5;" horiz-adv-x="858" d="M115 127q0 61 49 106.5t162 85.5l225 84v140q0 229 -129 229q-70 0 -105.5 -46t-48.5 -105q-6 -37 -22.5 -60.5t-55.5 -23.5q-33 0 -50 18t-17 43q0 49 63.5 98t151.5 82t158 33q84 0 127 -53t43 -154v-383q0 -72 18 -104.5t61 -32.5q39 0 101 27h4q8 0 10 -9.5t-6 -13.5 l-211 -100q-8 -4 -16 -4q-27 0 -47.5 35.5t-26.5 97.5l-107 -70q-51 -33 -90 -47t-82 -14q-76 0 -117.5 40t-41.5 101zM236 1120q0 74 62 117t138 43q74 0 127 -48t53 -116q0 -72 -61 -115t-139 -43q-82 0 -131 48.5t-49 113.5zM252 178q0 -49 31.5 -83t83.5 -34q41 0 98 33 l86 51v11v219l-191 -74q-57 -23 -82.5 -52.5t-25.5 -70.5zM328 1161q0 -70 32.5 -126t88.5 -56q74 0 73 100q0 74 -36.5 126t-90.5 52q-35 0 -51 -23.5t-16 -72.5z" />
<glyph unicode="&#xe6;" horiz-adv-x="1212" d="M94 127q0 61 49.5 105t159.5 85l227 86q-4 141 -14 217t-35.5 115t-74.5 39q-80 0 -116 -48t-46 -130q-6 -74 -72 -74q-35 0 -53.5 17.5t-18.5 48.5q0 45 55.5 97t138.5 88t157 36q61 0 109 -38t65 -103q57 68 136 104.5t169 36.5q100 0 155.5 -64.5t55.5 -179.5 q0 -25 -5.5 -34t-19.5 -9l-457 -2q-4 -49 -4 -80q2 -162 56.5 -279.5t216.5 -117.5q68 0 117 16.5t92 55.5h2q6 0 11 -7.5t1 -13.5q-70 -63 -137.5 -91t-149.5 -28q-209 0 -289 166l-137 -94q-51 -33 -93 -47t-85 -14q-80 0 -123 40t-43 101zM233 176q0 -51 30 -84t91 -33 q47 0 101 33l112 70q-29 76 -35 186v29l-194 -76q-57 -25 -81 -54.5t-24 -70.5zM664 549l333 6q2 102 -35.5 157.5t-101.5 55.5q-78 0 -129 -58.5t-67 -160.5z" />
<glyph unicode="&#xe7;" horiz-adv-x="841" d="M74 379q0 131 65.5 228.5t169 149.5t211.5 52q90 0 165 -36t75 -89q0 -27 -19.5 -46.5t-52.5 -19.5q-55 0 -90 68q-27 41 -57.5 61.5t-87.5 20.5q-115 0 -179.5 -89t-64.5 -239q0 -172 86 -282.5t258 -110.5q125 0 209 68h2q6 0 11 -6.5t1 -10.5q-72 -63 -144.5 -93 t-158.5 -30h-14q-20 -61 -21 -92q0 -29 17.5 -44t72.5 -48q51 -29 81 -65.5t30 -92.5q0 -76 -54.5 -136t-158.5 -60q-57 0 -94 20.5t-37 57.5q0 27 18.5 44t42.5 17q23 0 35 -11t25 -34q14 -27 29.5 -40t46.5 -13q70 0 69 78q0 53 -38 95t-138 95q-29 14 -29 27q0 8 11 34 q27 68 63 170q-119 10 -198.5 69.5t-118.5 148t-39 184.5z" />
<glyph unicode="&#xe8;" horiz-adv-x="835" d="M74 369q0 121 57 222t156.5 159.5t218.5 58.5q115 0 176 -61.5t61 -172.5q0 -29 -5 -41t-17 -12l-508 -2q-4 -45 -4 -74q0 -178 84 -288.5t235 -110.5q61 0 105.5 16.5t99.5 51.5h2q6 0 11.5 -7.5t1.5 -13.5q-135 -119 -299 -119q-119 0 -203 55.5t-128 145.5t-44 193z M217 547l389 8q0 104 -45 158.5t-123 54.5q-88 0 -145 -58.5t-76 -162.5zM268 1489q-2 8 17 8q27 0 66.5 -11t41.5 -20l105 -491q4 -4 -7.5 -7t-13.5 3z" />
<glyph unicode="&#xe9;" horiz-adv-x="835" d="M74 369q0 121 57 222t156.5 159.5t218.5 58.5q115 0 176 -61.5t61 -172.5q0 -29 -5 -41t-17 -12l-508 -2q-4 -45 -4 -74q0 -178 84 -288.5t235 -110.5q61 0 105.5 16.5t99.5 51.5h2q6 0 11.5 -7.5t1.5 -13.5q-135 -119 -299 -119q-119 0 -203 55.5t-128 145.5t-44 193z M217 547l389 8q0 104 -45 158.5t-123 54.5q-88 0 -145 -58.5t-76 -162.5zM438 975l107 491q2 8 42 19.5t66 11.5q18 0 17 -8l-209 -518q0 -4 -8 -4q-6 0 -11.5 3t-3.5 5z" />
<glyph unicode="&#xea;" horiz-adv-x="835" d="M74 369q0 121 57 222t156.5 159.5t218.5 58.5q115 0 176 -61.5t61 -172.5q0 -29 -5 -41t-17 -12l-508 -2q-4 -45 -4 -74q0 -178 84 -288.5t235 -110.5q61 0 105.5 16.5t99.5 51.5h2q6 0 11.5 -7.5t1.5 -13.5q-135 -119 -299 -119q-119 0 -203 55.5t-128 145.5t-44 193z M217 547l389 8q0 104 -45 158.5t-123 54.5q-88 0 -145 -58.5t-76 -162.5zM303 975l139 510q2 10 23 10q23 0 24 -10l138 -510q4 -4 -7.5 -7t-13.5 3l-139 336l-141 -336q-1 -4 -9 -4q-6 0 -11 3t-3 5z" />
<glyph unicode="&#xeb;" horiz-adv-x="835" d="M74 369q0 121 57 222t156.5 159.5t218.5 58.5q115 0 176 -61.5t61 -172.5q0 -29 -5 -41t-17 -12l-508 -2q-4 -45 -4 -74q0 -178 84 -288.5t235 -110.5q61 0 105.5 16.5t99.5 51.5h2q6 0 11.5 -7.5t1.5 -13.5q-135 -119 -299 -119q-119 0 -203 55.5t-128 145.5t-44 193z M199 1063q0 39 23.5 61.5t64.5 22.5t62.5 -21.5t21.5 -62.5q0 -39 -21.5 -61.5t-62.5 -22.5t-64.5 22.5t-23.5 61.5zM217 547l389 8q0 104 -45 158.5t-123 54.5q-88 0 -145 -58.5t-76 -162.5zM557 1063q0 39 23.5 61.5t64.5 22.5t63.5 -21.5t22.5 -62.5t-22.5 -62.5 t-63.5 -21.5t-64.5 22.5t-23.5 61.5z" />
<glyph unicode="&#xec;" horiz-adv-x="559" d="M65.5 669.5q-4.5 10.5 2.5 14.5l266 123l8 2q4 0 10 -5t6 -11q0 -14 -2 -82t-2 -160v-385q0 -61 10.5 -90t37 -40t81.5 -11q6 0 6 -12.5t-6 -12.5q-47 0 -75 2l-111 2l-111 -2q-29 -2 -77 -2q-5 0 -5 12.5t5 12.5q55 0 82.5 11t38 40.5t10.5 89.5v383q0 74 -15.5 106.5 t-52.5 32.5t-92 -29h-2q-8 0 -12.5 10.5zM84 1489q-2 8 16 8q27 0 67 -11t42 -20l104 -491q4 -4 -7 -7t-13 3z" />
<glyph unicode="&#xed;" horiz-adv-x="559" d="M65.5 669.5q-4.5 10.5 2.5 14.5l266 123l8 2q4 0 10 -5t6 -11q0 -14 -2 -82t-2 -160v-385q0 -61 10.5 -90t37 -40t81.5 -11q6 0 6 -12.5t-6 -12.5q-47 0 -75 2l-111 2l-111 -2q-29 -2 -77 -2q-5 0 -5 12.5t5 12.5q55 0 82.5 11t38 40.5t10.5 89.5v383q0 74 -15.5 106.5 t-52.5 32.5t-92 -29h-2q-8 0 -12.5 10.5zM254 975l106 491q2 8 42 19.5t67 11.5q18 0 16 -8l-209 -518q0 -4 -8 -4q-6 0 -11 3t-3 5z" />
<glyph unicode="&#xee;" horiz-adv-x="559" d="M65.5 669.5q-4.5 10.5 2.5 14.5l266 123l8 2q4 0 10 -5t6 -11q0 -14 -2 -82t-2 -160v-385q0 -61 10.5 -90t37 -40t81.5 -11q6 0 6 -12.5t-6 -12.5q-47 0 -75 2l-111 2l-111 -2q-29 -2 -77 -2q-5 0 -5 12.5t5 12.5q55 0 82.5 11t38 40.5t10.5 89.5v383q0 74 -15.5 106.5 t-52.5 32.5t-92 -29h-2q-8 0 -12.5 10.5zM119 975l139 510q2 10 23 10q23 0 24 -10l137 -510q4 -4 -7 -7t-13 3l-139 336l-142 -336q0 -4 -8 -4q-6 0 -11 3t-3 5z" />
<glyph unicode="&#xef;" horiz-adv-x="559" d="M47 1063q0 39 23.5 61.5t64.5 22.5t63.5 -22.5t22.5 -61.5t-22.5 -61.5t-63.5 -22.5t-64.5 22.5t-23.5 61.5zM65.5 669.5q-4.5 10.5 2.5 14.5l266 123l8 2q4 0 10 -5t6 -11q0 -14 -2 -82t-2 -160v-385q0 -61 10.5 -90t37 -40t81.5 -11q6 0 6 -12.5t-6 -12.5q-47 0 -75 2 l-111 2l-111 -2q-29 -2 -77 -2q-5 0 -5 12.5t5 12.5q55 0 82.5 11t38 40.5t10.5 89.5v383q0 74 -15.5 106.5t-52.5 32.5t-92 -29h-2q-8 0 -12.5 10.5zM340 1063q0 39 23.5 61.5t64.5 22.5t62.5 -21.5t21.5 -62.5q0 -39 -21.5 -61.5t-62.5 -22.5t-64.5 22.5t-23.5 61.5z" />
<glyph unicode="&#xf0;" horiz-adv-x="962" d="M66 381q0 141 65.5 239.5t163.5 147.5t199 49q119 0 211 -67q-55 193 -175 370l-274 -129h-2q-10 0 -16.5 19.5t2.5 23.5l264 125q-141 195 -320 307q-4 4 -4 7q0 4 5 9t12 3q217 -98 393 -285l211 100h2q10 0 17 -19t-3 -24l-196 -92q133 -153 204.5 -335.5t71.5 -364.5 q0 -248 -124 -370t-316 -122q-117 0 -206 55.5t-137 149.5t-48 203zM203 440q0 -117 39 -214t109.5 -155.5t162.5 -58.5q117 0 180.5 86t63.5 293q0 113 -23 230q-41 76 -110.5 116.5t-155.5 40.5q-117 0 -191.5 -89t-74.5 -249z" />
<glyph unicode="&#xf1;" horiz-adv-x="1058" d="M21.5 681q-3.5 9 5.5 13l237 113l12 2q18 0 39 -47t21 -121q78 90 154.5 133t158.5 43q115 0 176.5 -63.5t61.5 -186.5v-401q0 -61 9 -90t35.5 -40t82.5 -11q6 0 6 -12.5t-6 -12.5q-47 0 -74 2l-111 2l-112 -2q-27 -2 -74 -2q-6 0 -6 12.5t6 12.5q55 0 82 11t36 39.5 t9 90.5v332q0 121 -46 178t-142 57q-63 0 -128 -33.5t-118 -93.5v-440q0 -61 9 -90t36 -40t82 -11q6 0 6 -12.5t-6 -12.5q-47 0 -74 2l-110 2l-113 -2q-27 -2 -74 -2q-6 0 -6 12.5t6 12.5q55 0 82 11t36 39.5t9 90.5v405q0 70 -16.5 100.5t-55.5 30.5q-33 0 -110 -30h-4 q-8 0 -11.5 9zM283 988q-4 5 0 9q35 47 81 86t93 39q29 0 102 -20q94 -29 154 -29q35 0 55 14.5t45 40.5h2q6 0 11 -5t1 -9q-53 -74 -87.5 -100.5t-73.5 -26.5q-43 0 -125 25q-8 2 -52.5 14t-91.5 12q-31 0 -48 -10t-30.5 -24.5t-21.5 -20.5h-4q-6 0 -10 5z" />
<glyph unicode="&#xf2;" horiz-adv-x="980" d="M74 406q0 133 64.5 226t166 139t205.5 46q121 0 211 -59.5t138 -156.5t48 -206q0 -127 -59.5 -222t-158.5 -147.5t-216 -52.5q-119 0 -210 58.5t-140 158t-49 216.5zM211 469q0 -125 41 -229.5t114.5 -166t165.5 -61.5q113 0 174.5 80t61.5 246q0 127 -42 227.5 t-115.5 156.5t-168.5 56q-111 0 -171 -80t-60 -229zM295 1489q-2 8 16 8q27 0 67 -11t42 -20l104 -491q4 -4 -7 -7t-13 3z" />
<glyph unicode="&#xf3;" horiz-adv-x="980" d="M74 406q0 133 64.5 226t166 139t205.5 46q121 0 211 -59.5t138 -156.5t48 -206q0 -127 -59.5 -222t-158.5 -147.5t-216 -52.5q-119 0 -210 58.5t-140 158t-49 216.5zM211 469q0 -125 41 -229.5t114.5 -166t165.5 -61.5q113 0 174.5 80t61.5 246q0 127 -42 227.5 t-115.5 156.5t-168.5 56q-111 0 -171 -80t-60 -229zM465 975l106 491q2 8 42 19.5t67 11.5q18 0 16 -8l-209 -518q0 -4 -8 -4q-6 0 -11 3t-3 5z" />
<glyph unicode="&#xf4;" horiz-adv-x="980" d="M74 406q0 133 64.5 226t166 139t205.5 46q121 0 211 -59.5t138 -156.5t48 -206q0 -127 -59.5 -222t-158.5 -147.5t-216 -52.5q-119 0 -210 58.5t-140 158t-49 216.5zM211 469q0 -125 41 -229.5t114.5 -166t165.5 -61.5q113 0 174.5 80t61.5 246q0 127 -42 227.5 t-115.5 156.5t-168.5 56q-111 0 -171 -80t-60 -229zM330 975l139 510q2 10 23 10q23 0 24 -10l137 -510q4 -4 -7 -7t-13 3l-139 336l-142 -336q0 -4 -8 -4q-6 0 -11 3t-3 5z" />
<glyph unicode="&#xf5;" horiz-adv-x="980" d="M74 406q0 133 64.5 226t166 139t205.5 46q121 0 211 -59.5t138 -156.5t48 -206q0 -127 -59.5 -222t-158.5 -147.5t-216 -52.5q-119 0 -210 58.5t-140 158t-49 216.5zM211 469q0 -125 41 -229.5t114.5 -166t165.5 -61.5q113 0 174.5 80t61.5 246q0 127 -42 227.5 t-115.5 156.5t-168.5 56q-111 0 -171 -80t-60 -229zM219 988q-4 5 0 9q35 47 81 86t93 39q29 0 103 -20q94 -29 153 -29q35 0 55.5 14.5t45.5 40.5h2q6 0 11 -5t1 -9q-53 -74 -88 -100.5t-74 -26.5q-43 0 -125 25q-8 2 -52 14t-91 12q-31 0 -48.5 -10t-30.5 -24.5t-22 -20.5 h-4q-6 0 -10 5z" />
<glyph unicode="&#xf6;" horiz-adv-x="980" d="M74 406q0 133 64.5 226t166 139t205.5 46q121 0 211 -59.5t138 -156.5t48 -206q0 -127 -59.5 -222t-158.5 -147.5t-216 -52.5q-119 0 -210 58.5t-140 158t-49 216.5zM211 469q0 -125 41 -229.5t114.5 -166t165.5 -61.5q113 0 174.5 80t61.5 246q0 127 -42 227.5 t-115.5 156.5t-168.5 56q-111 0 -171 -80t-60 -229zM225 1063q0 39 23.5 61.5t64.5 22.5t62.5 -21.5t21.5 -62.5q0 -39 -21.5 -61.5t-62.5 -22.5t-64.5 22.5t-23.5 61.5zM584 1063q0 39 23.5 61.5t64.5 22.5t63.5 -21.5t22.5 -62.5t-22.5 -62.5t-63.5 -21.5t-64.5 22.5 t-23.5 61.5z" />
<glyph unicode="&#xf7;" horiz-adv-x="815" d="M59 391q0 14 3.5 25.5t5.5 11.5h677q4 0 7.5 -12.5t3.5 -26.5t-3 -27.5t-8 -13.5h-675q-4 0 -7.5 13.5t-3.5 29.5zM315 68q0 39 25 61.5t66 22.5t63.5 -23t22.5 -61q0 -41 -23 -66t-63 -25q-41 0 -66 25t-25 66zM315 725q0 39 25 61.5t66 22.5t63.5 -21.5t22.5 -62.5 t-23 -64.5t-63 -23.5q-41 0 -66 23.5t-25 64.5z" />
<glyph unicode="&#xf8;" horiz-adv-x="976" d="M74 2l102 107q-49 59 -75.5 136t-26.5 161q0 133 64.5 226t166 139t205.5 46q156 0 260 -98l94 98h4q8 0 20.5 -11t6.5 -18l-96 -98q51 -59 79.5 -136t28.5 -159q0 -127 -59.5 -222t-158.5 -147.5t-216 -52.5q-158 0 -266 105l-103 -107l-4 -2q-8 0 -20 13.5t-6 19.5z M211 469q0 -151 57 -266l422 434q-45 68 -108.5 104.5t-139.5 36.5q-111 0 -171 -80t-60 -229zM289 162q45 -72 106.5 -111t136.5 -39q113 0 174.5 80t61.5 246q0 150 -57 260z" />
<glyph unicode="&#xf9;" horiz-adv-x="1009" d="M10.5 691q-4.5 11 3.5 14l228 102l8 2q6 0 13 -5t7 -11v-490q0 -238 172 -237q66 0 133.5 33.5t122.5 93.5v356q0 82 -13 116.5t-48 34.5q-29 0 -70 -20h-2q-8 0 -11 11t5 14l227 102l7 2q6 0 13 -5t7 -11v-574q0 -70 16.5 -100.5t55.5 -30.5q35 0 108 29h4 q8 0 11.5 -9.5t-4.5 -13.5l-240 -112l-8 -2q-20 0 -39 47t-19 123v8q-80 -90 -159.5 -132t-165.5 -42q-102 0 -159.5 64.5t-57.5 187.5v313q0 80 -14.5 115.5t-47.5 35.5q-29 0 -69 -20h-2q-8 0 -12.5 11zM291 1489q-2 8 16 8q27 0 67 -11t42 -20l104 -491q4 -4 -7 -7t-13 3 z" />
<glyph unicode="&#xfa;" horiz-adv-x="1009" d="M10.5 691q-4.5 11 3.5 14l228 102l8 2q6 0 13 -5t7 -11v-490q0 -238 172 -237q66 0 133.5 33.5t122.5 93.5v356q0 82 -13 116.5t-48 34.5q-29 0 -70 -20h-2q-8 0 -11 11t5 14l227 102l7 2q6 0 13 -5t7 -11v-574q0 -70 16.5 -100.5t55.5 -30.5q35 0 108 29h4 q8 0 11.5 -9.5t-4.5 -13.5l-240 -112l-8 -2q-20 0 -39 47t-19 123v8q-80 -90 -159.5 -132t-165.5 -42q-102 0 -159.5 64.5t-57.5 187.5v313q0 80 -14.5 115.5t-47.5 35.5q-29 0 -69 -20h-2q-8 0 -12.5 11zM461 975l106 491q2 8 42 19.5t67 11.5q18 0 16 -8l-209 -518 q0 -4 -8 -4q-6 0 -11 3t-3 5z" />
<glyph unicode="&#xfb;" horiz-adv-x="1009" d="M10.5 691q-4.5 11 3.5 14l228 102l8 2q6 0 13 -5t7 -11v-490q0 -238 172 -237q66 0 133.5 33.5t122.5 93.5v356q0 82 -13 116.5t-48 34.5q-29 0 -70 -20h-2q-8 0 -11 11t5 14l227 102l7 2q6 0 13 -5t7 -11v-574q0 -70 16.5 -100.5t55.5 -30.5q35 0 108 29h4 q8 0 11.5 -9.5t-4.5 -13.5l-240 -112l-8 -2q-20 0 -39 47t-19 123v8q-80 -90 -159.5 -132t-165.5 -42q-102 0 -159.5 64.5t-57.5 187.5v313q0 80 -14.5 115.5t-47.5 35.5q-29 0 -69 -20h-2q-8 0 -12.5 11zM326 975l139 510q2 10 22 10q23 0 25 -10l137 -510q4 -4 -7 -7 t-13 3l-140 336l-141 -336q0 -4 -8 -4q-6 0 -11 3t-3 5z" />
<glyph unicode="&#xfc;" horiz-adv-x="1009" d="M10.5 691q-4.5 11 3.5 14l228 102l8 2q6 0 13 -5t7 -11v-490q0 -238 172 -237q66 0 133.5 33.5t122.5 93.5v356q0 82 -13 116.5t-48 34.5q-29 0 -70 -20h-2q-8 0 -11 11t5 14l227 102l7 2q6 0 13 -5t7 -11v-574q0 -70 16.5 -100.5t55.5 -30.5q35 0 108 29h4 q8 0 11.5 -9.5t-4.5 -13.5l-240 -112l-8 -2q-20 0 -39 47t-19 123v8q-80 -90 -159.5 -132t-165.5 -42q-102 0 -159.5 64.5t-57.5 187.5v313q0 80 -14.5 115.5t-47.5 35.5q-29 0 -69 -20h-2q-8 0 -12.5 11zM221 1063q0 39 23.5 61.5t64.5 22.5t62.5 -21.5t21.5 -62.5 q0 -39 -21.5 -61.5t-62.5 -22.5t-64.5 22.5t-23.5 61.5zM580 1063q0 39 23.5 61.5t64.5 22.5t63.5 -21.5t22.5 -62.5t-22.5 -62.5t-63.5 -21.5t-64.5 22.5t-23.5 61.5z" />
<glyph unicode="&#xfd;" horiz-adv-x="890" d="M-72 -496q0 29 18.5 45.5t45.5 16.5t45 -6t39 -21q4 -2 23.5 -12t47.5 -10q49 0 93.5 43t94.5 144t118 280l-312 637q-47 90 -71.5 117.5t-63.5 27.5q-4 0 -4 12.5t4 12.5l70 -3q25 -2 67 -2l131 2q29 2 80 3q4 0 4 -12.5t-4 -12.5q-119 0 -118 -47q0 -12 10 -33 l270 -555l164 471q16 49 16 78q0 47 -36.5 66.5t-120.5 19.5q-4 0 -4 12.5t4 12.5q55 0 84 -3l122 -2l74 2q20 2 64 3q6 0 6 -12.5t-6 -12.5q-51 0 -88 -37t-70 -121l-250 -665q-76 -199 -142.5 -310.5t-137 -159.5t-162.5 -48q-45 0 -75 20t-30 59zM432 975l107 491 q2 8 42 19.5t66 11.5q18 0 17 -8l-209 -518q-1 -4 -9 -4q-6 0 -11 3t-3 5z" />
<glyph unicode="&#xfe;" horiz-adv-x="1005" d="M-15 1344.5q-3 9.5 3 13.5l258 125q4 2 10 2q4 0 10 -5t6 -12v-829q88 92 173 135t173 43q84 0 156 -45t115 -131t43 -201q0 -154 -69.5 -259t-171 -156.5t-199.5 -51.5q-66 0 -116 12.5t-104 41.5v-424q0 -61 16.5 -90t58.5 -40.5t130 -11.5q6 0 6 -12t-6 -12 q-70 0 -110 2l-150 2l-111 -2q-29 -2 -77 -2q-4 0 -4 12t4 12q55 0 82.5 11.5t38 40t10.5 90.5v1622q0 74 -15.5 106.5t-52.5 32.5q-31 0 -92 -29h-4q-8 0 -11 9.5zM272 147q57 -63 122 -97t157 -34q111 0 180.5 95.5t69.5 265.5q0 172 -77 267t-194 95q-74 0 -134 -34.5 t-124 -100.5v-457z" />
<glyph unicode="&#xff;" horiz-adv-x="890" d="M-72 -496q0 29 18.5 45.5t45.5 16.5t45 -6t39 -21q4 -2 23.5 -12t47.5 -10q49 0 93.5 43t94.5 144t118 280l-312 637q-47 90 -71.5 117.5t-63.5 27.5q-4 0 -4 12.5t4 12.5l70 -3q25 -2 67 -2l131 2q29 2 80 3q4 0 4 -12.5t-4 -12.5q-119 0 -118 -47q0 -12 10 -33 l270 -555l164 471q16 49 16 78q0 47 -36.5 66.5t-120.5 19.5q-4 0 -4 12.5t4 12.5q55 0 84 -3l122 -2l74 2q20 2 64 3q6 0 6 -12.5t-6 -12.5q-51 0 -88 -37t-70 -121l-250 -665q-76 -199 -142.5 -310.5t-137 -159.5t-162.5 -48q-45 0 -75 20t-30 59zM193 1063 q0 39 23.5 61.5t64.5 22.5t62.5 -21.5t21.5 -62.5q0 -39 -21.5 -61.5t-62.5 -22.5t-64.5 22.5t-23.5 61.5zM551 1063q0 39 23.5 61.5t64.5 22.5t63.5 -21.5t22.5 -62.5t-22.5 -62.5t-63.5 -21.5t-64.5 22.5t-23.5 61.5z" />
<glyph unicode="&#x152;" horiz-adv-x="1873" d="M100 616q0 199 95.5 350.5t256 234.5t353.5 83q88 0 139 -2l162 -2h577q20 0 21 -18l4 -252q0 -6 -12.5 -7.5t-12.5 5.5q-4 96 -65.5 162.5t-153.5 66.5h-131q-72 0 -105.5 -10t-46 -36t-12.5 -79v-424h250q100 0 142.5 33t42.5 110q0 4 11 4.5t11 -4.5l-2 -165 q0 -59 2 -91l2 -98q0 -4 -11 -4t-11 4q0 90 -44 129t-149 39h-244v-471q0 -55 12.5 -83t46.5 -38t101 -10h170q88 0 157.5 73.5t90.5 186.5q0 6 11 5t11 -7q-18 -162 -18 -270q0 -16 -6 -23.5t-25 -7.5h-610q-45 0 -143 -4q-102 -4 -152 -4q-207 0 -369.5 82t-254 225 t-91.5 317zM256 662q0 -180 68.5 -326t194.5 -229.5t294 -83.5q88 0 135 10t67.5 41.5t20.5 93.5v926q0 59 -17.5 93t-62.5 50t-131 16q-166 0 -295 -68.5t-201.5 -202.5t-72.5 -320z" />
<glyph unicode="&#x153;" horiz-adv-x="1423" d="M51 406q0 133 62.5 226t158 139t193.5 46q106 0 184 -52t119 -144q59 88 150.5 138t199.5 50q115 0 173.5 -57.5t58.5 -182.5q0 -27 -5.5 -37t-17.5 -10l-510 -2q-8 -41 -8 -96q0 -174 88 -275.5t233 -101.5q57 0 115 16.5t101 51.5h2q6 0 11 -7.5t1 -13.5 q-139 -119 -299 -119q-117 0 -199 45.5t-129 124.5q-51 -82 -132 -127t-175 -45q-109 0 -195 59.5t-133 158t-47 215.5zM184 465q0 -123 39 -227.5t106.5 -166t151.5 -61.5q94 0 148.5 88t54.5 250q0 195 -79 312.5t-208 117.5q-98 0 -155.5 -81t-57.5 -232zM821 547l387 8 q2 115 -40 164t-119 49q-88 0 -146.5 -59.5t-81.5 -161.5z" />
<glyph unicode="&#x178;" horiz-adv-x="1247" d="M-8 1267.5q0 12.5 6 12.5q25 0 74 -4l71 -2q70 0 176 4l111 2q4 0 4 -12.5t-4 -12.5q-106 0 -106 -43q0 -23 20 -51l330 -483l250 383q45 72 45 121q0 74 -111 73q-4 0 -4 12.5t4 12.5l96 -2q78 -4 144 -4q35 0 84 4l75 2q5 0 5 -12.5t-5 -12.5q-74 0 -149.5 -54 t-134.5 -148l-275 -422v-465q0 -63 12.5 -92t48.5 -39t113 -10q6 0 6.5 -12.5t-6.5 -12.5q-63 0 -98 2l-143 2l-142 -2q-37 -2 -100 -2q-6 0 -6 12.5t6 12.5q78 0 114 10t49 39.5t13 91.5v432l-340 498q-57 90 -108 124.5t-119 34.5q-6 0 -6 12.5zM385 1552q0 39 23.5 61.5 t64.5 22.5t62.5 -21.5t21.5 -62.5q0 -39 -21.5 -61.5t-62.5 -22.5t-64.5 22.5t-23.5 61.5zM743 1552q0 39 24 61.5t64 22.5q41 0 64 -21.5t23 -62.5t-23 -62.5t-64 -21.5q-40 0 -64 22.5t-24 61.5z" />
<glyph unicode="&#x2c6;" horiz-adv-x="536" d="M119 975l139 510q2 10 23 10q23 0 24 -10l137 -510q4 -4 -7 -7t-13 3l-139 336l-142 -336q0 -4 -8 -4q-6 0 -11 3t-3 5z" />
<glyph unicode="&#x2dc;" horiz-adv-x="786" d="M123 988q-4 5 0 9q35 47 81 86t93 39q29 0 102 -20q94 -29 154 -29q35 0 55.5 14.5t44.5 40.5h2q6 0 11.5 -5t1.5 -9q-53 -74 -88 -100.5t-74 -26.5q-43 0 -125 25q-8 2 -52 14t-91 12q-31 0 -48.5 -10t-31 -24.5t-21.5 -20.5h-4q-6 0 -10 5z" />
<glyph unicode="&#x2000;" horiz-adv-x="840" />
<glyph unicode="&#x2001;" horiz-adv-x="1681" />
<glyph unicode="&#x2002;" horiz-adv-x="840" />
<glyph unicode="&#x2003;" horiz-adv-x="1681" />
<glyph unicode="&#x2004;" horiz-adv-x="560" />
<glyph unicode="&#x2005;" horiz-adv-x="420" />
<glyph unicode="&#x2006;" horiz-adv-x="280" />
<glyph unicode="&#x2007;" horiz-adv-x="280" />
<glyph unicode="&#x2008;" horiz-adv-x="210" />
<glyph unicode="&#x2009;" horiz-adv-x="336" />
<glyph unicode="&#x200a;" horiz-adv-x="93" />
<glyph unicode="&#x2010;" horiz-adv-x="661" d="M55 385q0 39 6 39l535 96q4 2 7 -11t3 -30q0 -41 -10 -45l-530 -96q-5 -2 -8 14.5t-3 32.5z" />
<glyph unicode="&#x2011;" horiz-adv-x="661" d="M55 385q0 39 6 39l535 96q4 2 7 -11t3 -30q0 -41 -10 -45l-530 -96q-5 -2 -8 14.5t-3 32.5z" />
<glyph unicode="&#x2012;" horiz-adv-x="661" d="M55 385q0 39 6 39l535 96q4 2 7 -11t3 -30q0 -41 -10 -45l-530 -96q-5 -2 -8 14.5t-3 32.5z" />
<glyph unicode="&#x2013;" horiz-adv-x="1054" d="M59 391q0 14 3.5 25.5t5.5 11.5h917q4 0 7 -12.5t3 -26.5t-3 -27.5t-7 -13.5h-915q-4 0 -7.5 13.5t-3.5 29.5z" />
<glyph unicode="&#x2014;" horiz-adv-x="1699" d="M59 391q0 14 3.5 25.5t5.5 11.5h1562q4 0 7 -12.5t3 -26.5t-3 -27.5t-7 -13.5h-1560q-4 0 -7.5 13.5t-3.5 29.5z" />
<glyph unicode="&#x2018;" horiz-adv-x="344" d="M47 1014q0 82 37 152.5t109 140.5q2 2 6 2q6 0 10 -6.5t0 -10.5q-100 -102 -100 -241q0 -57 20 -84q18 31 64 30q36 0 57.5 -22.5t21.5 -56.5q0 -82 -94 -82q-61 0 -96 46t-35 132z" />
<glyph unicode="&#x2019;" horiz-adv-x="319" d="M47 1214q0 82 94 82q62 0 96.5 -46t34.5 -132q0 -82 -36.5 -152.5t-108.5 -140.5q-2 -2 -6 -2q-6 0 -10.5 6.5t0.5 10.5q100 102 100 241q0 57 -21 84q-18 -31 -63 -30q-37 0 -58.5 22.5t-21.5 56.5z" />
<glyph unicode="&#x201a;" horiz-adv-x="319" d="M47 63q0 82 94 82q62 0 96.5 -46t34.5 -132q0 -82 -36.5 -152.5t-108.5 -140.5q-2 -2 -6 -2q-6 0 -10.5 6.5t0.5 10.5q100 102 100 241q0 57 -21 84q-18 -31 -63 -30q-37 0 -58.5 22.5t-21.5 56.5z" />
<glyph unicode="&#x201c;" horiz-adv-x="622" d="M49 1014q0 82 37 152.5t109 140.5q2 2 6 2q6 0 10 -6.5t0 -10.5q-100 -102 -100 -241q0 -57 20 -84q18 31 64 30q36 0 57.5 -22.5t21.5 -56.5q0 -82 -94 -82q-61 0 -96 46t-35 132zM350 1014q0 82 37 152.5t109 140.5q2 2 6 2q6 0 10 -6.5t0 -10.5q-100 -102 -100 -241 q0 -57 20 -84q18 31 64 30q36 0 57.5 -22.5t21.5 -56.5q0 -82 -94 -82q-61 0 -96 46t-35 132z" />
<glyph unicode="&#x201d;" horiz-adv-x="622" d="M47 1214q0 82 94 82q62 0 96.5 -46t34.5 -132q0 -82 -36.5 -152.5t-108.5 -140.5q-2 -2 -6 -2q-6 0 -10.5 6.5t0.5 10.5q100 102 100 241q0 57 -21 84q-18 -31 -63 -30q-37 0 -58.5 22.5t-21.5 56.5zM348 1214q0 82 94 82q62 0 96.5 -46t34.5 -132q0 -82 -36.5 -152.5 t-108.5 -140.5q-2 -2 -6 -2q-6 0 -10 6.5t0 10.5q100 102 100 241q0 57 -20 84q-18 -31 -64 -30q-37 0 -58.5 22.5t-21.5 56.5z" />
<glyph unicode="&#x201e;" horiz-adv-x="626" d="M47 63q0 82 94 82q62 0 96.5 -46t34.5 -132q0 -82 -36.5 -152.5t-108.5 -140.5q-2 -2 -6 -2q-6 0 -10.5 6.5t0.5 10.5q100 102 100 241q0 57 -21 84q-18 -31 -63 -30q-37 0 -58.5 22.5t-21.5 56.5zM348 63q0 82 94 82q62 0 96.5 -46t34.5 -132q0 -82 -36.5 -152.5 t-108.5 -140.5q-2 -2 -6 -2q-6 0 -10 6.5t0 10.5q100 102 100 241q0 57 -20 84q-18 -31 -64 -30q-37 0 -58.5 22.5t-21.5 56.5z" />
<glyph unicode="&#x2022;" horiz-adv-x="626" d="M113 508q0 82 58 139.5t142 57.5q82 0 140.5 -57.5t58.5 -139.5q0 -84 -58.5 -141.5t-140.5 -57.5q-84 0 -142 57.5t-58 141.5z" />
<glyph unicode="&#x2026;" horiz-adv-x="1361" d="M113 68q0 39 24.5 61.5t65.5 22.5q43 0 66.5 -23t23.5 -61q0 -41 -23.5 -66t-66.5 -25q-41 0 -65.5 25t-24.5 66zM592 68q0 39 24.5 61.5t65.5 22.5q43 0 66.5 -23t23.5 -61q0 -41 -23.5 -66t-66.5 -25q-41 0 -65.5 25t-24.5 66zM1071 68q0 39 24.5 61.5t65.5 22.5 q43 0 66.5 -23t23.5 -61q0 -41 -23.5 -66t-66.5 -25q-41 0 -65.5 25t-24.5 66z" />
<glyph unicode="&#x202f;" horiz-adv-x="336" />
<glyph unicode="&#x2039;" horiz-adv-x="622" d="M113 412q0 14 8 22l362 305q0 2 4 2t8.5 -5t2.5 -7l-250 -317l250 -318q2 -4 -5.5 -11t-9.5 -1l-362 305q-8 8 -8 25z" />
<glyph unicode="&#x203a;" horiz-adv-x="622" d="M125 94l250 316l-250 319q-2 4 5 10t9 0l363 -305q10 -10 10 -22q0 -14 -10 -25l-363 -305q0 -2 -4 -2t-8 5t-2 9z" />
<glyph unicode="&#x205f;" horiz-adv-x="420" />
<glyph unicode="&#x20ac;" horiz-adv-x="1202" d="M92 539q0 23 14 22h91q20 123 98 218t198.5 149.5t266.5 54.5q90 0 169 -16.5t132 -51.5q12 -6 22.5 -14t10.5 -18l-4 -17l-78 -176q0 -2 -6 -2t-12.5 3t-4.5 9q8 23 8 50q0 86 -87 145t-197 59q-98 0 -181 -51t-134.5 -140t-59.5 -202h620q8 0 9 -8q0 -12 -9.5 -24.5 t-19.5 -12.5h-832q-14 0 -14 23zM94 391q0 10 4 16.5t11 6.5h794q8 0 8 -11q0 -10 -8 -22t-18 -12h-535q37 -160 138.5 -263.5t256.5 -103.5q125 0 213.5 64.5t128.5 197.5q1 4 9 4q6 0 11 -2t5 -6l-29 -192q-4 -16 -8 -22.5t-20 -14.5q-160 -55 -330 -56q-227 0 -356 114 t-166 280h-94q-6 0 -10.5 7t-4.5 15z" />
<glyph unicode="&#x2122;" horiz-adv-x="1474" d="M59 1124q4 23 8.5 80.5t4.5 100.5q0 6 12 7t12 -7q0 -14 14.5 -18.5t41.5 -4.5l184 -2l164 2q41 0 59.5 5t22.5 24q2 4 13 4t11 -4q-8 -172 -8 -187q0 -4 -11.5 -4t-11.5 4q0 78 -23.5 104.5t-86.5 26.5q-49 0 -64.5 -14t-15.5 -59v-379q0 -45 18.5 -59.5t79.5 -14.5 q4 0 4 -12t-4 -12l-147 2l-143 -2q-2 0 -2.5 12t2.5 12q61 0 79.5 14.5t18.5 59.5v381q0 45 -14.5 58t-65.5 13q-66 0 -92.5 -26.5t-34.5 -104.5q0 -4 -12.5 -4t-12.5 4zM633 717q0 12 2 12q45 0 64.5 24.5t21.5 77.5l12 381q-35 43 -86 43q-4 0 -4 12.5t4 12.5 q16 0 33.5 -2t30.5 -2q20 0 36.5 2t24.5 2q16 0 29.5 -12.5t34.5 -50.5l194 -388l187 418q4 14 15 23.5t23 9.5q6 0 20.5 -2t41.5 -2q29 0 48 2t38 2q4 0 4 -12.5t-4 -12.5q-51 0 -72.5 -16t-19.5 -68l12 -368q2 -45 17.5 -59.5t68.5 -14.5q4 0 4 -12t-4 -12l-131 2l-141 -2 q-2 0 -2 12t2 12q66 0 86 14.5t16 59.5l-12 385l-209 -473q-2 -6 -11.5 -6t-13.5 6l-225 438l-10 -322q-2 -53 13 -77.5t54 -24.5q4 0 4 -12t-4 -12l-92 2l-98 -2q-2 0 -2 12z" />
<glyph unicode="&#x25fc;" horiz-adv-x="788" d="M0 0v788h788v-788h-788z" />
</font>
</defs>
</svg>
