<?xml version="1.0" standalone="no"?>
<!DOCTYPE svg PUBLIC "-//W3C//DTD SVG 1.1//EN" "http://www.w3.org/Graphics/SVG/1.1/DTD/svg11.dtd" >
<svg>
<metadata>
Created by FontForge 20090914 at Sun Nov 14 20:28:30 2021
 By www-data
</metadata>
<defs>
<font id="Aller-Light" horiz-adv-x="600" >
  <font-face 
    font-family="Aller Light"
    font-weight="400"
    font-stretch="normal"
    units-per-em="1000"
    panose-1="2 0 5 3 0 0 0 2 0 4"
    ascent="800"
    descent="-200"
    x-height="509.998"
    cap-height="721"
    bbox="-170 -250.001 1438 956.001"
    underline-thickness="50"
    underline-position="-50"
    unicode-range="U+0020-U+FB04"
  />
<missing-glyph horiz-adv-x="500" 
 />
    <glyph glyph-name="ff" unicode="ff" horiz-adv-x="656" 
d="M124 454h-87.0029c-0.666992 3.33301 -1.16699 7.33301 -1.5 12s-0.5 9.66699 -0.5 15s0.166992 10.666 0.5 15.999s0.833008 9.66602 1.5 12.999h87v40c0 62.667 13.833 109.667 41.5 141s71.5 47 131.5 47c14 0 27.5 -1.16699 40.5 -3.5s23.5 -4.5 31.5 -6.5
c-1.33301 -12.667 -3.5 -23.167 -6.5 -31.5s-6.16699 -16.5 -9.5 -24.5l-23.5 5c-9.66699 2 -20.167 3 -31.5 3c-17.333 0 -32.666 -1.83301 -45.999 -5.5s-24.5 -10.334 -33.5 -20.001s-16 -23.167 -21 -40.5s-7.5 -39.666 -7.5 -66.999v-37h240v45
c0 62.667 13.833 109.667 41.5 141s71.5 47 131.5 47c14 0 26.833 -0.833008 38.5 -2.5s21.5 -3.5 29.5 -5.5c-1.33301 -12.667 -2.83301 -23 -4.5 -31s-3.83398 -16.667 -6.50098 -26c-6 1.33301 -14 2.83301 -24 4.5s-20.667 2.5 -32 2.5
c-17.333 0 -32.666 -1.83301 -45.999 -5.5s-24.5 -10.334 -33.5 -20.001s-16 -23.167 -21 -40.5s-7.5 -39.666 -7.5 -66.999v-42h140c0.666992 -3.33301 1.16699 -7.66602 1.5 -12.999s0.5 -10.666 0.5 -15.999s-0.166992 -10.333 -0.5 -15s-0.833008 -8.66699 -1.5 -12
h-140v-454c-4 -0.666992 -9.5 -1.16699 -16.5 -1.5s-12.5 -0.5 -16.5 -0.5c-3.33301 0 -8.66602 0.166992 -15.999 0.5s-13 0.833008 -17 1.5v454h-240v-454c-4 -0.666992 -9.5 -1.16699 -16.5 -1.5s-12.5 -0.5 -16.5 -0.5c-3.33301 0 -8.66602 0.166992 -15.999 0.5
s-13 0.833008 -17 1.5v454z" />
    <glyph glyph-name="fi" unicode="fi" horiz-adv-x="581" 
d="M124 454l-87.0029 0.00195312c-0.666992 3.33301 -1.16699 7.33301 -1.5 12s-0.5 9.66699 -0.5 15s0.166992 10.666 0.5 15.999s0.833008 9.66602 1.5 12.999h87v45c0 62.667 16.5 109.667 49.5 141s81.833 47 146.5 47c10.667 0 20.5 -0.333008 29.5 -1
s18.333 -1.66699 28 -3s19.834 -3.33301 30.501 -6s23 -6.33398 37 -11.001c0 -10 -1.83301 -19.833 -5.5 -29.5s-7.5 -18.834 -11.5 -27.501l-25.5 9c-7.66699 2.66699 -15.5 4.83398 -23.5 6.50098s-16.333 3 -25 4s-19 1.5 -31 1.5c-21.333 0 -40.333 -1.83301 -57 -5.5
s-30.667 -10.5 -42 -20.5s-19.833 -23.667 -25.5 -41s-8.5 -39.666 -8.5 -66.999v-42h303v-510c-4 -0.666992 -9.5 -1.16699 -16.5 -1.5s-12.5 -0.5 -16.5 -0.5c-3.33301 0 -8.66602 0.166992 -15.999 0.5s-13 0.833008 -17 1.5v454h-237v-454
c-4 -0.666992 -9.5 -1.16699 -16.5 -1.5s-12.5 -0.5 -16.5 -0.5c-3.33301 0 -8.66602 0.166992 -15.999 0.5s-13 0.833008 -17 1.5v454z" />
    <glyph glyph-name="fl" unicode="fl" horiz-adv-x="599" 
d="M124 454h-87.001c-0.666992 3.33301 -1.16699 7.33301 -1.5 12s-0.5 9.66699 -0.5 15s0.166992 10.666 0.5 15.999s0.833008 9.66602 1.5 12.999h87v45c0 62.667 16.333 109.667 49 141s83.334 47 152.001 47c32 0 61.167 -2.16699 87.5 -6.5
s46.833 -8.16602 61.5 -11.499v-607c0 -17.333 2 -30.833 6 -40.5s9 -16.667 15 -21s12.667 -7 20 -8s14 -1.5 20 -1.5c7.33301 0 15 0.5 23 1.5s14.667 2.16699 20 3.5c3.33301 -8 5.66602 -16.667 6.99902 -26s2.33301 -18 3 -26
c-9.33301 -3.33301 -19.833 -5.66602 -31.5 -6.99902s-22.5 -2 -32.5 -2c-14 0 -28 1.5 -42 4.5s-26.5 8.66699 -37.5 17s-19.833 19.666 -26.5 33.999s-10 33.166 -10 56.499v576c-12 2.66699 -25.667 4.66699 -41 6s-30.333 2 -45 2c-21.333 0 -40.333 -1.83301 -57 -5.5
s-30.5 -10.5 -41.5 -20.5s-19.333 -23.833 -25 -41.5s-8.5 -40.167 -8.5 -67.5v-42h130c0.666992 -3.33301 1.16699 -7.66602 1.5 -12.999s0.5 -10.666 0.5 -15.999s-0.166992 -10.333 -0.5 -15s-0.833008 -8.66699 -1.5 -12h-130v-454
c-4 -0.666992 -9.5 -1.16699 -16.5 -1.5s-12.5 -0.5 -16.5 -0.5c-3.33301 0 -8.66602 0.166992 -15.999 0.5s-13 0.833008 -17 1.5v454z" />
    <glyph glyph-name="ffi" unicode="ffi" horiz-adv-x="887" 
d="M430 555c0 62.667 16.4951 109.669 49.4951 141.002s81.833 47 146.5 47c10.667 0 20.5 -0.333008 29.5 -1s18.333 -1.66699 28 -3s19.834 -3.33301 30.501 -6s23 -6.33398 37 -11.001c0 -10 -1.83301 -19.833 -5.5 -29.5s-7.5 -18.834 -11.5 -27.501l-25.5 9
c-7.66699 2.66699 -15.5 4.83398 -23.5 6.50098s-16.333 3 -25 4s-19 1.5 -31 1.5c-21.333 0 -40.333 -1.83301 -57 -5.5s-30.667 -10.5 -42 -20.5s-19.833 -23.667 -25.5 -41s-8.5 -39.666 -8.5 -66.999v-42h303v-510c-4 -0.666992 -9.5 -1.16699 -16.5 -1.5
s-12.5 -0.5 -16.5 -0.5c-3.33301 0 -8.66602 0.166992 -15.999 0.5s-13 0.833008 -17 1.5v454h-237v-454c-4 -0.666992 -9.5 -1.16699 -16.5 -1.5s-12.5 -0.5 -16.5 -0.5c-3.33301 0 -8.66602 0.166992 -15.999 0.5s-13 0.833008 -17 1.5v454h-240v-454
c-4 -0.666992 -9.5 -1.16699 -16.5 -1.5s-12.5 -0.5 -16.5 -0.5c-3.33301 0 -8.66602 0.166992 -15.999 0.5s-13 0.833008 -17 1.5v454h-87c-0.666992 3.33301 -1.16699 7.33301 -1.5 12s-0.5 9.66699 -0.5 15s0.166992 10.666 0.5 15.999s0.833008 9.66602 1.5 12.999h87
v40c0 62.667 13.833 109.667 41.5 141s71.5 47 131.5 47c14 0 27.5 -1.16699 40.5 -3.5s23.5 -4.5 31.5 -6.5c-1.33301 -12.667 -3.5 -23.167 -6.5 -31.5s-6.16699 -16.5 -9.5 -24.5l-23.5 5c-9.66699 2 -20.167 3 -31.5 3c-17.333 0 -32.666 -1.83301 -45.999 -5.5
s-24.5 -10.334 -33.5 -20.001s-16 -23.167 -21 -40.5s-7.5 -39.666 -7.5 -66.999v-37h240v45z" />
    <glyph glyph-name="ffl" unicode="ffl" horiz-adv-x="905" 
d="M430 454h-240.003v-454c-4 -0.666992 -9.5 -1.16699 -16.5 -1.5s-12.5 -0.5 -16.5 -0.5c-3.33301 0 -8.66602 0.166992 -15.999 0.5s-13 0.833008 -17 1.5v454h-87c-0.666992 3.33301 -1.16699 7.33301 -1.5 12s-0.5 9.66699 -0.5 15s0.166992 10.666 0.5 15.999
s0.833008 9.66602 1.5 12.999h87v40c0 62.667 13.833 109.667 41.5 141s71.5 47 131.5 47c14 0 27.5 -1.16699 40.5 -3.5s23.5 -4.5 31.5 -6.5c-1.33301 -12.667 -3.5 -23.167 -6.5 -31.5s-6.16699 -16.5 -9.5 -24.5l-23.5 5c-9.66699 2 -20.167 3 -31.5 3
c-17.333 0 -32.666 -1.83301 -45.999 -5.5s-24.5 -10.334 -33.5 -20.001s-16 -23.167 -21 -40.5s-7.5 -39.666 -7.5 -66.999v-37h240v45c0 62.667 16.333 109.667 49 141s83.334 47 152.001 47c32 0 61.167 -2.16699 87.5 -6.5s46.833 -8.16602 61.5 -11.499v-607
c0 -17.333 2 -30.833 6 -40.5s9 -16.667 15 -21s12.667 -7 20 -8s14 -1.5 20 -1.5c7.33301 0 15 0.5 23 1.5s14.667 2.16699 20 3.5c3.33301 -8 5.66602 -16.667 6.99902 -26s2.33301 -18 3 -26c-9.33301 -3.33301 -19.833 -5.66602 -31.5 -6.99902s-22.5 -2 -32.5 -2
c-14 0 -28 1.5 -42 4.5s-26.5 8.66699 -37.5 17s-19.833 19.666 -26.5 33.999s-10 33.166 -10 56.499v576c-12 2.66699 -25.667 4.66699 -41 6s-30.333 2 -45 2c-21.333 0 -40.333 -1.83301 -57 -5.5s-30.5 -10.5 -41.5 -20.5s-19.333 -23.833 -25 -41.5
s-8.5 -40.167 -8.5 -67.5v-42h130c0.666992 -3.33301 1.16699 -7.66602 1.5 -12.999s0.5 -10.666 0.5 -15.999s-0.166992 -10.333 -0.5 -15s-0.833008 -8.66699 -1.5 -12h-130v-454c-4 -0.666992 -9.5 -1.16699 -16.5 -1.5s-12.5 -0.5 -16.5 -0.5
c-3.33301 0 -8.66602 0.166992 -15.999 0.5s-13 0.833008 -17 1.5v454z" />
    <glyph glyph-name=".notdef" horiz-adv-x="500" 
 />
    <glyph glyph-name="space" unicode=" " horiz-adv-x="250" 
 />
    <glyph glyph-name="exclam" unicode="!" horiz-adv-x="283" 
d="M109 719c5.33301 0.666992 10.666 1.16699 15.999 1.5s10.666 0.5 15.999 0.5c6.66699 0 13.167 -0.166992 19.5 -0.5s12.833 -0.833008 19.5 -1.5l-4 -514c-5.33301 -0.666992 -10.666 -1.16699 -15.999 -1.5s-10.666 -0.5 -15.999 -0.5s-10.5 0.166992 -15.5 0.5
s-10.167 0.833008 -15.5 1.5zM99 0c-2 14 -3 28 -3 42c0 14.667 1 29 3 43c14 2 28 3 42 3c14.667 0 29 -1 43 -3c2 -14 3 -28 3 -42c0 -14.667 -1 -29 -3 -43c-14 -2 -28 -3 -42 -3c-14.667 0 -29 1 -43 3z" />
    <glyph glyph-name="quotedbl" unicode="&#x22;" horiz-adv-x="413" 
d="M75 719c4.66699 0.666992 10.334 1.16699 17.001 1.5s12.667 0.5 18 0.5c6 0 12 -0.166992 18 -0.5s11.333 -0.833008 16 -1.5v-269c-4.66699 -0.666992 -10 -1.16699 -16 -1.5s-12 -0.5 -18 -0.5c-5.33301 0 -11.333 0.166992 -18 0.5s-12.334 0.833008 -17.001 1.5v269
zM269 719c4.66699 0.666992 10.334 1.16699 17.001 1.5s12.667 0.5 18 0.5c6 0 12 -0.166992 18 -0.5s11.333 -0.833008 16 -1.5v-269c-4.66699 -0.666992 -10 -1.16699 -16 -1.5s-12 -0.5 -18 -0.5c-5.33301 0 -11.333 0.166992 -18 0.5s-12.334 0.833008 -17.001 1.5v269z
" />
    <glyph glyph-name="numbersign" unicode="#" horiz-adv-x="736" 
d="M206 213l-132.004 -0.00195312c-0.666992 4 -1.16699 8.16699 -1.5 12.5s-0.5 8.83301 -0.5 13.5c0 5.33301 0.166992 10.666 0.5 15.999s0.833008 10.666 1.5 15.999h137l17 198h-133c-2 8.66699 -3 18 -3 28c0 9.33301 1 19 3 29h138l14 165c6 1.33301 11.833 2 17.5 2
h17.5h15c4.66699 0 9.66699 -0.333008 15 -1l-14 -166h207l14 165c6 1.33301 12 2 18 2h18h15c4.66699 0 9.66699 -0.333008 15 -1l-14 -166h126c0.666992 -4 1.16699 -8 1.5 -12s0.5 -8.33301 0.5 -13c0 -5.33301 -0.166992 -10.666 -0.5 -15.999
s-0.833008 -10.666 -1.5 -15.999h-131l-17 -198h126c0.666992 -4 1.16699 -8.16699 1.5 -12.5s0.5 -8.83301 0.5 -13.5c0 -5.33301 -0.166992 -10.666 -0.5 -15.999s-0.833008 -10.666 -1.5 -15.999h-131l-15 -184c-5.33301 -0.666992 -10.666 -1.16699 -15.999 -1.5
s-10.666 -0.5 -15.999 -0.5s-10.666 0.166992 -15.999 0.5s-10.666 0.833008 -15.999 1.5l15 184h-207l-15 -184c-5.33301 -0.666992 -11 -1.16699 -17 -1.5s-11.667 -0.5 -17 -0.5s-11 0.166992 -17 0.5s-11.667 0.833008 -17 1.5zM483.996 270.998l17 198h-208l-16 -198
h207z" />
    <glyph glyph-name="dollar" unicode="$" 
d="M273 -11c-4 -0.666992 -7.33105 -1.00098 -9.99805 -1.00098h-9c-39.333 0 -72 2.83301 -98 8.5s-50.333 12.167 -73 19.5c1.33301 10 3.66602 20.833 6.99902 32.5s7 22.167 11 31.5c9.33301 -2.66699 19 -5.66699 29 -9s21.167 -6.33301 33.5 -9s26.166 -5 41.499 -7
s33 -3 53 -3c63.333 0 109.833 13.5 139.5 40.5s44.5 61.167 44.5 102.5c0 20 -2.5 37 -7.5 51s-13.667 26.833 -26 38.5s-29.333 22.834 -51 33.501s-48.834 22.334 -81.501 35.001c-23.333 8.66699 -45.5 17.834 -66.5 27.501s-39.5 21.5 -55.5 35.5
s-28.667 30.833 -38 50.5s-14 44.5 -14 74.5c0 46.667 14.5 85.167 43.5 115.5s71.5 49.833 127.5 58.5v90c8.66699 2 18 3 28 3c9.33301 0 19 -1 29 -3v-86c14.667 0 29.5 -0.666992 44.5 -2s29.167 -3 42.5 -5s25.5 -4.33301 36.5 -7s19.833 -5 26.5 -7
c-1.33301 -10 -3.16602 -20.167 -5.49902 -30.5s-5.16602 -20.166 -8.49902 -29.499c-16 5.33301 -36.5 10.166 -61.5 14.499s-49.833 6.5 -74.5 6.5c-55.333 0 -95 -10.833 -119 -32.5s-36 -49.834 -36 -84.501c0 -18 3.66699 -33.5 11 -46.5s17.5 -24.333 30.5 -34
s28.5 -18.5 46.5 -26.5s37.333 -16 58 -24c28 -11.333 54.167 -22.833 78.5 -34.5s45.166 -25.334 62.499 -41.001s31 -34.167 41 -55.5s15 -47.333 15 -78c0 -58 -16.667 -104.5 -50 -139.5s-79.333 -57.5 -138 -67.5v-113c-9.33301 -2 -18.333 -3 -27 -3
c-10 0 -20 1 -30 3v107z" />
    <glyph glyph-name="percent" unicode="%" horiz-adv-x="1050" 
d="M320 0c-6.66699 -1.33301 -13.001 -2 -19.001 -2h-18h-18.5c-6.33301 0 -12.166 0.666992 -17.499 2l484 707c5.33301 0.666992 10.833 1.16699 16.5 1.5s11.167 0.5 16.5 0.5c6.66699 0 13.167 -0.166992 19.5 -0.5s12.833 -0.833008 19.5 -1.5zM408.999 507
c0 -30 -3.83301 -58 -11.5 -84s-19 -48.5 -34 -67.5s-34.167 -33.833 -57.5 -44.5s-50.333 -16 -81 -16s-57.5 5.33301 -80.5 16s-42 25.5 -57 44.5s-26.333 41.5 -34 67.5s-11.5 54 -11.5 84s3.83301 57.833 11.5 83.5s19 48 34 67s34 34 57 45s50.167 16.5 81.5 16.5
c30.667 0 57.5 -5.5 80.5 -16.5s42 -26 57 -45s26.333 -41.333 34 -67s11.5 -53.5 11.5 -83.5zM111.999 507c0 -50 8.83301 -88.333 26.5 -115s46.5 -40 86.5 -40c38.667 0 67.334 13.333 86.001 40s28 65 28 115s-8.83301 88.333 -26.5 115s-46.5 40 -86.5 40
c-38.667 0 -67.334 -13.333 -86.001 -40s-28 -65 -28 -115zM993.999 202c0 -30 -3.83301 -58 -11.5 -84s-19 -48.5 -34 -67.5s-34.167 -33.833 -57.5 -44.5s-50.333 -16 -81 -16s-57.5 5.33301 -80.5 16s-42 25.5 -57 44.5s-26.333 41.5 -34 67.5s-11.5 54 -11.5 84
s3.83301 57.833 11.5 83.5s19 48 34 67s34 34 57 45s50.167 16.5 81.5 16.5c30.667 0 57.5 -5.5 80.5 -16.5s42 -26 57 -45s26.333 -41.333 34 -67s11.5 -53.5 11.5 -83.5zM696.999 202c0 -50 8.83301 -88.333 26.5 -115s46.5 -40 86.5 -40
c38.667 0 67.334 13.333 86.001 40s28 65 28 115s-8.83301 88.333 -26.5 115s-46.5 40 -86.5 40c-38.667 0 -67.334 -13.333 -86.001 -40s-28 -65 -28 -115z" />
    <glyph glyph-name="ampersand" unicode="&#x26;" horiz-adv-x="760" 
d="M552 456l-0.000976562 91l62 60h4v-151h125c0.666992 -4.66699 1.16699 -9.5 1.5 -14.5s0.5 -10.167 0.5 -15.5s-0.166992 -10.5 -0.5 -15.5s-0.833008 -10.167 -1.5 -15.5h-125v-166c0 -40.667 -7 -76 -21 -106s-33.5 -55 -58.5 -75s-54.833 -35 -89.5 -45
s-73 -15 -115 -15c-36.667 0 -71.167 4.16699 -103.5 12.5s-60.666 21.166 -84.999 38.499s-43.5 39.666 -57.5 66.999s-21 60 -21 98c0 20 3 40.833 9 62.5s14.667 42 26 61s25.166 36.167 41.499 51.5s34.833 27 55.5 35c-31.333 11.333 -57.333 29 -78 53
s-31 56.667 -31 98c0 28.667 5.5 53.5 16.5 74.5s26 38.167 45 51.5s41.167 23.333 66.5 30s52 10 80 10c16 0 33.5 -1 52.5 -3s39.167 -6.33301 60.5 -13c-1.33301 -12 -3.16602 -21.667 -5.49902 -29s-5.83301 -15.333 -10.5 -24c-14 3.33301 -28.167 6.33301 -42.5 9
s-30.833 4 -49.5 4c-25.333 0 -47 -3.33301 -65 -10s-32.667 -15.167 -44 -25.5s-19.833 -22.166 -25.5 -35.499s-8.5 -26.666 -8.5 -39.999c0 -36 11.5 -63 34.5 -81s59.5 -27 109.5 -27h248zM551.999 395l-228.001 -0.00195312c-28.667 0 -54.167 -5.16699 -76.5 -15.5
s-41.333 -24.166 -57 -41.499s-27.667 -37 -36 -59s-12.5 -45 -12.5 -69c0 -49.333 16.667 -87.666 50 -114.999s81.333 -41 144 -41c44.667 0 80.834 5.33301 108.501 16s49.167 25 64.5 43s26 38.833 32 62.5s9.66699 48.5 11 74.5v145z" />
    <glyph glyph-name="quotesingle" unicode="'" horiz-adv-x="219" 
d="M75 719c4.66699 0.666992 10.334 1.16699 17.001 1.5s12.667 0.5 18 0.5c6 0 12 -0.166992 18 -0.5s11.333 -0.833008 16 -1.5v-269c-4.66699 -0.666992 -10 -1.16699 -16 -1.5s-12 -0.5 -18 -0.5c-5.33301 0 -11.333 0.166992 -18 0.5s-12.334 0.833008 -17.001 1.5v269
z" />
    <glyph glyph-name="parenleft" unicode="(" horiz-adv-x="290" 
d="M240 -167c-5.33301 -0.666992 -11.3311 -1.16699 -17.998 -1.5s-13 -0.5 -19 -0.5c-4.66699 0 -9.33398 0.166992 -14.001 0.5s-9.33398 0.833008 -14.001 1.5c-14.667 22 -29.5 49.333 -44.5 82s-28.5 69.5 -40.5 110.5s-21.667 85.167 -29 132.5s-11 96 -11 146
s3.66699 98.667 11 146s17 91.5 29 132.5s25.5 78 40.5 111s29.833 60.5 44.5 82.5c5.33301 0.666992 10.5 1.16699 15.5 1.5s10.167 0.5 15.5 0.5c6 0 11.667 -0.166992 17 -0.5s11 -0.833008 17 -1.5l-33 -63c-14 -27.333 -27.667 -61 -41 -101
s-24.833 -85.667 -34.5 -137s-14.5 -108.333 -14.5 -171s4.83301 -119.667 14.5 -171s21.167 -96.833 34.5 -136.5s27 -73.167 41 -100.5z" />
    <glyph glyph-name="parenright" unicode=")" horiz-adv-x="290" 
d="M50 -167l33.002 63c14 27.333 27.667 60.833 41 100.5s24.833 85.167 34.5 136.5s14.5 108.333 14.5 171s-4.83301 119.667 -14.5 171s-21.167 97 -34.5 137s-27 73.667 -41 101l-33 63c6 0.666992 11.667 1.16699 17 1.5s11 0.5 17 0.5
c5.33301 0 10.5 -0.166992 15.5 -0.5s10.167 -0.833008 15.5 -1.5c14.667 -22 29.5 -49.5 44.5 -82.5s28.5 -70 40.5 -111s21.667 -85.167 29 -132.5s11 -96 11 -146s-3.66699 -98.667 -11 -146s-17 -91.5 -29 -132.5s-25.5 -77.833 -40.5 -110.5s-29.833 -60 -44.5 -82
c-4.66699 -0.666992 -9.33398 -1.16699 -14.001 -1.5s-9.33398 -0.5 -14.001 -0.5c-6 0 -12.333 0.166992 -19 0.5s-12.667 0.833008 -18 1.5z" />
    <glyph glyph-name="asterisk" unicode="*" horiz-adv-x="486" 
d="M228 719c8 2 16.334 3 25.001 3c7.33301 0 15.666 -1 24.999 -3l5 -124c-5.33301 -1.33301 -10.333 -2 -15 -2h-15h-15.5c-5 0 -10.167 0.666992 -15.5 2zM192.001 579c-3.33301 -20 -9.33301 -39.333 -18 -58l-117 44c2 17.333 7.33301 33.333 16 48zM187.001 495
c16.667 -8.66699 33.333 -20.333 50 -35l-78 -98c-17.333 8 -31 18 -41 30zM267 460.001c14.667 14 31 26.334 49 37.001l69 -105c-6.66699 -6.66699 -13.167 -12.334 -19.5 -17.001s-13.5 -8.66699 -21.5 -12zM429 613.002c4.66699 -8 8.33301 -15.832 11 -23.499
s4 -15.834 4 -24.501l-116 -43c-4 8.66699 -7.66699 18 -11 28s-6.33301 20 -9 30z" />
    <glyph glyph-name="plus" unicode="+" 
d="M268 318l-171.998 -0.000976562c-1.33301 5.33301 -2 10.833 -2 16.5v16.5v16c0 5.33301 0.666992 10.666 2 15.999h172v185c5.33301 0.666992 10.666 1.16699 15.999 1.5s10.666 0.5 15.999 0.5s10.666 -0.166992 15.999 -0.5s11 -0.833008 17 -1.5v-185h172
c0.666992 -5.33301 1.16699 -10.666 1.5 -15.999s0.5 -10.666 0.5 -15.999s-0.166992 -10.833 -0.5 -16.5s-0.833008 -11.167 -1.5 -16.5h-172v-185c-6 -1.33301 -11.667 -2 -17 -2h-16h-16c-5.33301 0 -10.666 0.666992 -15.999 2v185z" />
    <glyph glyph-name="comma" unicode="," horiz-adv-x="205" 
d="M84 85c5.33301 0.666992 11.001 1.16699 17.001 1.5s11.667 0.5 17 0.5s11 -0.166992 17 -0.5s12 -0.833008 18 -1.5l-54 -198c-6.66699 -1.33301 -12.834 -2 -18.501 -2h-16.5h-17.5c-5.66699 0 -11.167 0.666992 -16.5 2z" />
    <glyph glyph-name="hyphen" unicode="-" horiz-adv-x="353" 
d="M308 318c0.666992 -3.33301 1.16699 -8.5 1.5 -15.5s0.5 -13.167 0.5 -18.5s-0.166992 -11.333 -0.5 -18s-0.833008 -11.667 -1.5 -15h-263c-0.666992 3.33301 -1.16699 8.33301 -1.5 15s-0.5 12.667 -0.5 18s0.166992 11.5 0.5 18.5s0.833008 12.167 1.5 15.5h263z" />
    <glyph glyph-name="period" unicode="." horiz-adv-x="205" 
d="M60 0c-2 14 -3 28 -3 42c0 14.667 1 29 3 43c14 2 28 3 42 3c14.667 0 29 -1 43 -3c2 -14 3 -28 3 -42c0 -14.667 -1 -29 -3 -43c-14 -2 -28 -3 -42 -3c-14.667 0 -29 1 -43 3z" />
    <glyph glyph-name="slash" unicode="/" horiz-adv-x="411" 
d="M295 719c10 2 20 3 30 3c10.667 0 22 -1 34 -3l-244 -719c-10 -2 -21 -3 -33 -3c-10 0 -20 1 -30 3z" />
    <glyph glyph-name="zero" unicode="0" 
d="M54 319c0 48 5.33301 92.333 16 133s26.334 75.667 47.001 105s46.334 52.166 77.001 68.499s66 24.5 106 24.5s75.333 -8.16699 106 -24.5s56.334 -39.166 77.001 -68.499s36.334 -64.333 47.001 -105s16 -85 16 -133s-5.33301 -92.333 -16 -133
s-26.334 -75.667 -47.001 -105s-46.334 -52.166 -77.001 -68.499s-66 -24.5 -106 -24.5s-75.333 8.16699 -106 24.5s-56.334 39.166 -77.001 68.499s-36.334 64.333 -47.001 105s-16 85 -16 133zM300 587c-55.333 0 -98.167 -22.333 -128.5 -67s-45.5 -111.667 -45.5 -201
s15 -156.333 45 -201s73 -67 129 -67c55.333 0 98 22.333 128 67s45 111.667 45 201s-15 156.333 -45 201s-72.667 67 -128 67z" />
    <glyph glyph-name="one" unicode="1" 
d="M138 471c-6 6.66699 -11.001 14.167 -15.001 22.5s-7.66699 17.166 -11 26.499l250 128h5v-588h143c0.666992 -5.33301 1.33398 -10.166 2.00098 -14.499s1 -9.16602 1 -14.499s-0.333008 -10.5 -1 -15.5l-2 -15.5h-365c-1.33301 5.33301 -2 14.666 -2 27.999
c0 6.66699 0.166992 13.167 0.5 19.5s0.833008 10.5 1.5 12.5h154v490z" />
    <glyph glyph-name="two" unicode="2" 
d="M64 0l-4.99805 13l195 208l56.5 62c17.667 20 33 40 46 60s23.333 39.833 31 59.5s11.5 40.167 11.5 61.5c0 42 -12.333 73.167 -37 93.5s-60.334 30.5 -107.001 30.5c-34 0 -63.833 -4.33301 -89.5 -13s-48.5 -17.667 -68.5 -27c-3.33301 8.66699 -6.5 18.167 -9.5 28.5
l-8.5 30.5c18 8.66699 42 18.167 72 28.5s64.333 15.5 103 15.5c32.667 0 62.5 -3.66699 89.5 -11s50 -18.666 69 -33.999s33.667 -34.5 44 -57.5s15.5 -50.167 15.5 -81.5c0 -21.333 -3 -42.333 -9 -63s-15.167 -41.667 -27.5 -63s-27.833 -43.5 -46.5 -66.5
s-40.334 -47.5 -65.001 -73.5l-129 -137h305c0.666992 -5.33301 1.16699 -11 1.5 -17s0.5 -12 0.5 -18c0 -5.33301 -0.166992 -10.333 -0.5 -15s-0.833008 -9.33398 -1.5 -14.001h-436z" />
    <glyph glyph-name="three" unicode="3" 
d="M228 -14c28.667 0 55.5 2.83008 80.5 8.49707s46.667 15.334 65 29.001s32.666 31.834 42.999 54.501s15.5 50.667 15.5 84c0 42 -13.833 74.333 -41.5 97s-67.5 34 -119.5 34c-14.667 0 -29.167 -0.5 -43.5 -1.5s-29.166 -3.16699 -44.499 -6.5l-7 12l191 280h-284
c-1.33301 5.33301 -2 10.333 -2 15v15v16.5c0 5.66699 0.666992 11.167 2 16.5h395l4 -8l-197 -284c3.33301 0.666992 7.16602 1 11.499 1h11.5c35.333 0 65.333 -6 90 -18s44.834 -27.167 60.501 -45.5s27 -38.5 34 -60.5s10.5 -43 10.5 -63
c0 -43.333 -7.5 -80.166 -22.5 -110.499s-35.167 -55.166 -60.5 -74.499s-54.5 -33.5 -87.5 -42.5s-67.833 -13.5 -104.5 -13.5c-14 0 -28.667 0.666992 -44 2s-30.833 3.5 -46.5 6.5s-30.667 6.66699 -45 11s-26.833 9.16602 -37.5 14.499c6 19.333 15.333 39.333 28 60
c18 -8.66699 39.167 -15.667 63.5 -21s51.5 -8 81.5 -8z" />
    <glyph glyph-name="four" unicode="4" 
d="M54 76l-7 10l300 575c8 -1.33301 17 -4 27 -8s20.333 -9 31 -15l-253 -499h246v213c12 2 23.333 3 34 3s21.667 -1 33 -3v-213h107c2 -11.333 3 -22 3 -32c0 -10.667 -1 -21 -3 -31h-107v-136c-6 -1.33301 -11.833 -2 -17.5 -2h-16.5h-16.5
c-5.66699 0 -11.167 0.666992 -16.5 2v136h-344z" />
    <glyph glyph-name="five" unicode="5" 
d="M501 162c0 -43.333 -7.50195 -80.1689 -22.502 -110.502s-35 -55.166 -60 -74.499s-54 -33.5 -87 -42.5s-67.5 -13.5 -103.5 -13.5c-32 0 -61 2.5 -87 7.5s-48.667 11.833 -68 20.5c2 10 4.66699 19.833 8 29.5s8.33301 19.834 15 30.501c18 -7.33301 37 -13 57 -17
s45.667 -6 77 -6c28 0 54 2.83301 78 8.5s44.833 15.167 62.5 28.5s31.667 31.166 42 53.499s15.5 50.166 15.5 83.499c0 20 -2.66699 39.333 -8 58s-14.666 35.334 -27.999 50.001s-31.333 26.5 -54 35.5s-51 13.5 -85 13.5c-21.333 0 -42.5 -1.66699 -63.5 -5l-50.5 -8
l-7 7l13 329h326c1.33301 -5.33301 2 -10.333 2 -15v-15v-16.5c0 -5.66699 -0.666992 -11.167 -2 -16.5h-264l-7 -205c13.333 2.66699 28 4.33398 44 5.00098s26.667 1 32 1c33.333 0 63.833 -5 91.5 -15s51.334 -24.167 71.001 -42.5s35 -40.833 46 -67.5
s16.5 -57 16.5 -91z" />
    <glyph glyph-name="six" unicode="6" 
d="M73 275c0 56.667 6.99805 111.002 20.998 163.002s36 98.5 66 139.5s68.333 75.167 115 102.5s102.667 44.666 168 51.999c2 -6 3.5 -12.667 4.5 -20s1.5 -13.666 1.5 -18.999c0 -10.667 -0.333008 -17.667 -1 -21c-42.667 -4.66699 -80.667 -15 -114 -31
s-62.5 -36.5 -87.5 -61.5s-45.5 -53.833 -61.5 -86.5s-28 -68 -36 -106l-4 -21c-1.33301 -6.66699 -2.33301 -13.667 -3 -21c16.667 32 41.334 58.333 74.001 79s71.334 31 116.001 31c25.333 0 50.666 -4.33301 75.999 -13s48 -22.167 68 -40.5s36.167 -42 48.5 -71
s18.5 -63.833 18.5 -104.5c0 -38.667 -6.66699 -72.834 -20 -102.501s-31 -54.5 -53 -74.5s-47 -35.167 -75 -45.5s-56.333 -15.5 -85 -15.5c-35.333 0 -67.666 5 -96.999 15s-54.333 26.333 -75 49s-36.667 52.167 -48 88.5s-17 81.166 -17 134.499zM315.998 391.002
c-22 0 -42.998 -4.16309 -62.998 -12.4961s-37.667 -20 -53 -35s-27.5 -33.333 -36.5 -55s-13.5 -45.834 -13.5 -72.501c0 -56 13.667 -97.333 41 -124s65.666 -40 114.999 -40c23.333 0 45.166 3.66699 65.499 11s38 18.333 53 33s26.667 32.667 35 54
s12.5 45.666 12.5 72.999c0 30 -4.16699 55.667 -12.5 77s-19.5 38.666 -33.5 51.999s-30.5 23.166 -49.5 29.499s-39.167 9.5 -60.5 9.5z" />
    <glyph glyph-name="seven" unicode="7" 
d="M225 -75c-14 3.33301 -25.832 7.16699 -35.499 11.5s-18.834 10.5 -27.501 18.5l276 622h-367c-0.666992 4 -1.16699 8.66699 -1.5 14s-0.5 10 -0.5 14c0 12 1 23.667 3 35h462l3 -3z" />
    <glyph glyph-name="eight" unicode="8" 
d="M300 -12c-30 0 -59.5 3.5 -88.5 10.5s-54.833 18 -77.5 33s-41 34.667 -55 59s-21 53.833 -21 88.5c0 30 5.16699 56 15.5 78s23.666 41 39.999 57s34.5 29.333 54.5 40s39.333 19.667 58 27c-18.667 7.33301 -36.167 16.166 -52.5 26.499s-30.666 22.5 -42.999 36.5
s-22 30 -29 48s-10.5 38.667 -10.5 62c0 24.667 5.33301 47.167 16 67.5s25.167 37.833 43.5 52.5s40.333 25.834 66 33.501s53.5 11.5 83.5 11.5s57.833 -3.83301 83.5 -11.5s47.667 -18.834 66 -33.501s32.833 -32.167 43.5 -52.5s16 -42.833 16 -67.5
c0 -23.333 -3.5 -44 -10.5 -62s-16.667 -34 -29 -48s-26.666 -26.167 -42.999 -36.5s-33.833 -19.166 -52.5 -26.499c18.667 -7.33301 38 -16.333 58 -27s38.167 -24 54.5 -40s29.666 -35 39.999 -57s15.5 -48 15.5 -78c0 -34.667 -7 -64.167 -21 -88.5s-32.333 -44 -55 -59
s-48.5 -26 -77.5 -33s-58.5 -10.5 -88.5 -10.5zM300 50c54.667 0 95.834 12.333 123.501 37s41.5 58 41.5 100c0 21.333 -4.33301 40.5 -13 57.5s-20.334 32 -35.001 45s-32.167 24.333 -52.5 34s-41.833 18.167 -64.5 25.5c-23.333 -7.33301 -45 -15.833 -65 -25.5
s-37.333 -21.167 -52 -34.5s-26.334 -28.5 -35.001 -45.5s-13 -36.167 -13 -57.5c0 -42 13.833 -75.167 41.5 -99.5s68.834 -36.5 123.501 -36.5zM300 660c-46 0 -80.667 -10.333 -104 -31s-35 -48.667 -35 -84c0 -18.667 4 -35 12 -49s18.5 -26.333 31.5 -37
s27.833 -19.667 44.5 -27s33.667 -13.333 51 -18c17.333 4.66699 34.333 10.667 51 18s31.5 16.333 44.5 27s23.5 23 31.5 37s12 30.333 12 49c0 35.333 -11.667 63.333 -35 84s-58 31 -104 31z" />
    <glyph glyph-name="nine" unicode="9" 
d="M529 360c0 -56.667 -6.99805 -111.001 -20.998 -163.001s-36 -98.5 -66 -139.5s-68.333 -75.167 -115 -102.5s-102.667 -44.666 -168 -51.999c-4 12 -6 26.333 -6 43v9c0 2.66699 0.333008 5.33398 1 8.00098c42.667 4.66699 80.667 15 114 31s62.5 36.5 87.5 61.5
s45.5 53.833 61.5 86.5s28 68 36 106l4 21c1.33301 6.66699 2.33301 13.667 3 21c-16.667 -32 -41.334 -58.333 -74.001 -79s-71.334 -31 -116.001 -31c-25.333 0 -50.666 4.33301 -75.999 13s-48 22.167 -68 40.5s-36.167 42 -48.5 71s-18.5 63.833 -18.5 104.5
c0 38.667 6.66699 72.834 20 102.501s31 54.5 53 74.5s46.833 35.167 74.5 45.5s56.167 15.5 85.5 15.5c35.333 0 67.666 -5 96.999 -15s54.333 -26.333 75 -49s36.667 -52.334 48 -89.001s17 -81.334 17 -134.001zM286.002 243.999c22 0 42.998 4.16211 62.998 12.4951
s37.667 20 53 35s27.5 33.333 36.5 55s13.5 45.834 13.5 72.501c0 56 -13.667 97.333 -41 124s-65.666 40 -114.999 40c-23.333 0 -45.166 -3.83301 -65.499 -11.5s-38 -18.667 -53 -33s-26.667 -32.166 -35 -53.499s-12.5 -45.666 -12.5 -72.999
c0 -30 4.16699 -55.667 12.5 -77s19.5 -38.666 33.5 -51.999s30.5 -23.166 49.5 -29.499s39.167 -9.5 60.5 -9.5z" />
    <glyph glyph-name="colon" unicode=":" horiz-adv-x="205" 
d="M60 0c-2 14 -3 28 -3 42c0 14.667 1 29 3 43c14 2 28 3 42 3c14.667 0 29 -1 43 -3c2 -14 3 -28 3 -42c0 -14.667 -1 -29 -3 -43c-14 -2 -28 -3 -42 -3c-14.667 0 -29 1 -43 3zM60 428c-2 14 -3 28 -3 42c0 14.667 1 29 3 43c14 2 28 3 42 3c14.667 0 29 -1 43 -3
c2 -14 3 -28 3 -42c0 -14.667 -1 -29 -3 -43c-14 -2 -28 -3 -42 -3c-14.667 0 -29 1 -43 3z" />
    <glyph glyph-name="semicolon" unicode=";" horiz-adv-x="222" 
d="M84 85c5.33301 0.666992 11.001 1.16699 17.001 1.5s11.667 0.5 17 0.5s11 -0.166992 17 -0.5s12 -0.833008 18 -1.5l-54 -198c-6.66699 -1.33301 -12.834 -2 -18.501 -2h-16.5h-17.5c-5.66699 0 -11.167 0.666992 -16.5 2zM77.001 428c-2 14 -3 28 -3 42
c0 14.667 1 29 3 43c14 2 28 3 42 3c14.667 0 29 -1 43 -3c2 -14 3 -28 3 -42c0 -14.667 -1 -29 -3 -43c-14 -2 -28 -3 -42 -3c-14.667 0 -29 1 -43 3z" />
    <glyph glyph-name="less" unicode="&#x3c;" 
d="M505 558c2 -11.333 3 -22.334 3 -33.001c0 -16.667 -1 -29 -3 -37l-347 -140l347 -136c2.66699 -10 4 -21.333 4 -34c0 -11.333 -0.333008 -20 -1 -26s-1.66699 -10.667 -3 -14l-418 173c-1.33301 4.66699 -2.33301 9.83398 -3 15.501s-1 13.167 -1 22.5
c0 15.333 1.33301 27.333 4 36z" />
    <glyph glyph-name="equal" unicode="=" 
d="M513 292c0.666992 -3.33301 1.16699 -8.66602 1.5 -15.999s0.5 -13.666 0.5 -18.999s-0.166992 -11.333 -0.5 -18s-0.833008 -11.667 -1.5 -15h-426c-0.666992 3.33301 -1.16699 8.33301 -1.5 15s-0.5 12.667 -0.5 18s0.166992 11.666 0.5 18.999
s0.833008 12.666 1.5 15.999h426zM513 474c0.666992 -3.33301 1.16699 -8.66602 1.5 -15.999s0.5 -13.666 0.5 -18.999s-0.166992 -11.333 -0.5 -18s-0.833008 -11.667 -1.5 -15h-426c-0.666992 3.33301 -1.16699 8.33301 -1.5 15s-0.5 12.667 -0.5 18
s0.166992 11.666 0.5 18.999s0.833008 12.666 1.5 15.999h426z" />
    <glyph glyph-name="greater" unicode="&#x3e;" 
d="M87 138c-2 10.667 -3 21.668 -3 33.001c0 16.667 1 29 3 37l347 140l-347 136c-2.66699 10 -4 21.333 -4 34c0 11.333 0.333008 20 1 26s1.66699 10.667 3 14l418 -173c1.33301 -4.66699 2.33301 -9.83398 3 -15.501s1 -13.167 1 -22.5
c0 -15.333 -1.33301 -27.333 -4 -36z" />
    <glyph glyph-name="question" unicode="?" horiz-adv-x="485" 
d="M189 360l33.999 11c16.667 5.33301 33.5 12.166 50.5 20.499s32.333 18.5 46 30.5s24.667 26.333 33 43s12.5 36 12.5 58c0 45.333 -16 79.5 -48 102.5s-73.667 34.5 -125 34.5c-31.333 0 -56.333 -2.33301 -75 -7s-37 -10 -55 -16
c-4 9.33301 -7.33301 18.666 -10 27.999l-9 32c29.333 9.33301 55.833 15.833 79.5 19.5s50.167 5.5 79.5 5.5c78 0 137 -17.667 177 -53s60 -83.333 60 -144c0 -34 -7.33301 -63.5 -22 -88.5s-32 -45.667 -52 -62s-40.167 -29.166 -60.5 -38.499
s-36.166 -15.666 -47.499 -18.999v-112c-6 -0.666992 -12 -1.16699 -18 -1.5s-11.667 -0.5 -17 -0.5s-11 0.166992 -17 0.5s-11.333 0.833008 -16 1.5v155zM181.999 2c-2 14 -3 28 -3 42c0 14.667 1 29 3 43c14 2 28 3 42 3c14.667 0 29 -1 43 -3c2 -14 3 -28 3 -42
c0 -14.667 -1 -29 -3 -43c-14 -2 -28 -3 -42 -3c-14.667 0 -29 1 -43 3z" />
    <glyph glyph-name="at" unicode="@" horiz-adv-x="1021" 
d="M630 453c-16.667 4.66699 -34.001 7.00098 -52.001 7.00098c-30 0 -58 -6 -84 -18s-48.667 -28.667 -68 -50s-34.666 -46.833 -45.999 -76.5s-17 -61.834 -17 -96.501c0 -37.333 8.16699 -64.833 24.5 -82.5s42.833 -26.5 79.5 -26.5c16 0 31.5 1.83301 46.5 5.5
s32.167 10.5 51.5 20.5zM632.999 130.001c9.33301 -7.33301 20.1689 -11.9932 32.502 -13.9932s23.833 -3 34.5 -3c30 0 56.667 8.66699 80 26s43.166 39.666 59.499 66.999s28.666 57.666 36.999 90.999s12.5 66 12.5 98c0 90 -26.167 158.333 -78.5 205
s-126.166 70 -221.499 70c-72 0 -136.167 -13 -192.5 -39s-103.833 -60.333 -142.5 -103s-68 -91.334 -88 -146.001s-30 -110.334 -30 -167.001c0 -55.333 7.83301 -102.833 23.5 -142.5s37.167 -72.167 64.5 -97.5s59.5 -44 96.5 -56s76.833 -18 119.5 -18
c30.667 0 60.167 2.66699 88.5 8s54.166 12 77.499 20l7.5 -20.5c3 -8.33301 5.5 -19.166 7.5 -32.499c-24 -10 -52.167 -17.833 -84.5 -23.5s-70.166 -8.5 -113.499 -8.5c-50 0 -96.667 7.5 -140 22.5s-81.166 37.667 -113.499 68s-57.833 68.5 -76.5 114.5
s-28 100 -28 162c0 40 4.66699 80.667 14 122s23.5 81.166 42.5 119.499s42.833 74.333 71.5 108s62.667 63 102 88s84 44.833 134 59.5s105.667 22 167 22c50.667 0 98 -6.83301 142 -20.5s82.167 -34.334 114.5 -62.001s57.666 -62.5 75.999 -104.5
s27.5 -91.333 27.5 -148c0 -41.333 -5.83301 -82 -17.5 -122s-28.5 -75.833 -50.5 -107.5s-49.167 -57.334 -81.5 -77.001s-69.5 -29.5 -111.5 -29.5c-44.667 0 -81 9 -109 27c-19.333 -12.667 -41.666 -21.834 -66.999 -27.501s-50.666 -8.5 -75.999 -8.5
c-24.667 0 -46.667 4 -66 12s-35.5 19 -48.5 33s-22.833 30.333 -29.5 49s-10 38.667 -10 60c0 46 7.66699 88.333 23 127s36.166 72 62.499 100s57.166 49.833 92.499 65.5s72.666 23.5 111.999 23.5c24 0 46.333 -1.83301 67 -5.5s42 -8.5 64 -14.5z" />
    <glyph glyph-name="A" unicode="A" horiz-adv-x="602" 
d="M260 719c4.66699 0.666992 11 1.16699 19 1.5s15.333 0.5 22 0.5c7.33301 0 14.833 -0.166992 22.5 -0.5s13.834 -0.833008 18.501 -1.5l240 -719c-4 -0.666992 -9.66699 -1.16699 -17 -1.5s-14.333 -0.5 -21 -0.5c-6 0 -12.333 0.166992 -19 0.5
s-12.334 0.833008 -17.001 1.5l-60 183h-296l-57 -183c-5.33301 -0.666992 -11.5 -1.16699 -18.5 -1.5s-13.5 -0.5 -19.5 -0.5c-6.66699 0 -13.5 0.166992 -20.5 0.5s-12.5 0.833008 -16.5 1.5zM428 247l-129 400l-127 -400h256z" />
    <glyph glyph-name="B" unicode="B" horiz-adv-x="587" 
d="M101 719l28.5 2.99902c12.333 1.33301 25.5 2.66602 39.5 3.99902s28.167 2.33301 42.5 3s27.166 1 38.499 1c78.667 0 139 -15.167 181 -45.5s63 -77.5 63 -141.5c0 -20.667 -3.16699 -39.5 -9.5 -56.5s-14.833 -32.333 -25.5 -46s-23.167 -25.167 -37.5 -34.5
s-29.166 -16.333 -44.499 -21c20.667 -2.66699 40.667 -8.16699 60 -16.5s36.5 -20 51.5 -35s27 -33.667 36 -56s13.5 -49.166 13.5 -80.499c0 -36 -7.16699 -67 -21.5 -93s-34.333 -47.667 -60 -65s-56 -30.166 -91 -38.499s-73.167 -12.5 -114.5 -12.5
c-10.667 0 -22.667 0.333008 -36 1s-26.833 1.5 -40.5 2.5s-27 2.33301 -40 4s-24.167 3.16699 -33.5 4.5v719zM265 412.999c54 0 93.5 11.999 118.5 35.999s37.5 55.333 37.5 94c0 36 -13.167 66.167 -39.5 90.5s-67.833 36.5 -124.5 36.5
c-17.333 0 -33.833 -0.666992 -49.5 -2s-28.167 -2.66602 -37.5 -3.99902v-251h95zM170 55.998c9.33301 -1.33301 21.832 -2.5 37.499 -3.5s32.167 -1.5 49.5 -1.5c26 0 51.5 2.33301 76.5 7s47.167 12.667 66.5 24s34.833 26.333 46.5 45s17.5 42 17.5 70s-5 51.5 -15 70.5
s-23.667 34.5 -41 46.5s-37.666 20.667 -60.999 26s-48.333 8 -75 8h-102v-292z" />
    <glyph glyph-name="C" unicode="C" horiz-adv-x="618" 
d="M549 82c5.33301 -10 9.99707 -19.6699 13.9971 -29.0029s7 -19 9 -29c-22.667 -11.333 -49.667 -20.166 -81 -26.499s-64.333 -9.5 -99 -9.5c-48.667 0 -93.167 8 -133.5 24s-74.833 39.333 -103.5 70s-51 68.667 -67 114s-24 97.333 -24 156
c0 60 7.83301 113.5 23.5 160.5s37.667 86.667 66 119s62.666 57 102.999 74s85.5 25.5 135.5 25.5c42 0 77 -3 105 -9s48.333 -11 61 -15c-1.33301 -12 -3.16602 -22 -5.49902 -30s-5.83301 -17.667 -10.5 -29l-26.5 8c-9 2.66699 -19.167 5 -30.5 7s-24.5 3.66699 -39.5 5
s-32.5 2 -52.5 2c-39.333 0 -74.666 -7.16699 -105.999 -21.5s-58 -35.166 -80 -62.499s-39 -60.666 -51 -99.999s-18 -84 -18 -134c0 -51.333 6.66699 -96 20 -134s31.833 -69.5 55.5 -94.5s51.334 -43.5 83.001 -55.5s65.834 -18 102.501 -18c31.333 0 59.833 3 85.5 9
s47.167 13.667 64.5 23z" />
    <glyph glyph-name="D" unicode="D" horiz-adv-x="699" 
d="M101 719c9.33301 1.33301 20.835 2.66797 34.502 4.00098s28.167 2.5 43.5 3.5s30.666 1.83301 45.999 2.5s29.333 1 42 1c62.667 0 117.167 -8.5 163.5 -25.5s84.666 -41.333 114.999 -73s52.833 -70.334 67.5 -116.001s22 -97.167 22 -154.5
c0 -248.667 -122.667 -373 -368 -373c-14 0 -29 0.333008 -45 1s-31.5 1.5 -46.5 2.5s-29 2.33301 -42 4s-23.833 3.16699 -32.5 4.5v719zM170.002 60.002c12 -1.33301 26.168 -2.66602 42.501 -3.99902s33.166 -2 50.499 -2c46 0 87.5 5 124.5 15s68.5 27 94.5 51
s46 55.833 60 95.5s21 89.167 21 148.5c0 103.333 -26.5 179.166 -79.5 227.499s-126.5 72.5 -220.5 72.5c-15.333 0 -31.833 -0.333008 -49.5 -1s-32.167 -2 -43.5 -4v-599z" />
    <glyph glyph-name="E" unicode="E" horiz-adv-x="540" 
d="M101 719h385c0.666992 -4 1.16699 -8.83301 1.5 -14.5s0.5 -11.167 0.5 -16.5c0 -4.66699 -0.166992 -10.167 -0.5 -16.5s-0.833008 -11.5 -1.5 -15.5h-316v-243h254c0.666992 -4 1.16699 -8.83301 1.5 -14.5s0.5 -11.167 0.5 -16.5
c0 -4.66699 -0.166992 -10.167 -0.5 -16.5s-0.833008 -11.5 -1.5 -15.5h-254v-287h325c0.666992 -4 1.16699 -8.83301 1.5 -14.5s0.5 -11.167 0.5 -16.5c0 -4.66699 -0.166992 -10.167 -0.5 -16.5s-0.833008 -11.5 -1.5 -15.5h-394v719z" />
    <glyph glyph-name="F" unicode="F" horiz-adv-x="502" 
d="M101 719h353c0.666992 -4 1.16699 -8.83301 1.5 -14.5s0.5 -11.167 0.5 -16.5c0 -4.66699 -0.166992 -10.167 -0.5 -16.5s-0.833008 -11.5 -1.5 -15.5h-284v-243h246c0.666992 -4 1.16699 -8.83301 1.5 -14.5s0.5 -11.167 0.5 -16.5
c0 -4.66699 -0.166992 -10.167 -0.5 -16.5s-0.833008 -11.5 -1.5 -15.5h-246v-350c-4.66699 -0.666992 -10 -1.16699 -16 -1.5s-12 -0.5 -18 -0.5c-6.66699 0 -13.167 0.166992 -19.5 0.5s-11.5 0.833008 -15.5 1.5v719z" />
    <glyph glyph-name="G" unicode="G" horiz-adv-x="690" 
d="M533 371c4.66699 0.666992 10.335 1.16699 17.002 1.5s12.667 0.5 18 0.5c6 0 12 -0.166992 18 -0.5s11.333 -0.833008 16 -1.5v-350c-11.333 -6 -24.833 -11 -40.5 -15s-32.334 -7.33301 -50.001 -10s-35.834 -4.66699 -54.501 -6s-37 -2 -55 -2
c-48 0 -92.667 7.66699 -134 23s-77 38.333 -107 69s-53.5 68.667 -70.5 114s-25.5 98 -25.5 158s8.33301 113.5 25 160.5s39.834 86.667 69.501 119s64.667 57 105 74s84.166 25.5 131.499 25.5c42 0 77 -2.83301 105 -8.5s50.667 -11.167 68 -16.5
c-1.33301 -12 -3.16602 -22.333 -5.49902 -31s-5.83301 -18.667 -10.5 -30c-14.667 5.33301 -34.334 10.833 -59.001 16.5s-56 8.5 -94 8.5s-73 -7.16699 -105 -21.5s-59.5 -35.166 -82.5 -62.499s-41 -60.666 -54 -99.999s-19.5 -84 -19.5 -134
c0 -51.333 7 -95.833 21 -133.5s33 -68.834 57 -93.501s52.167 -43 84.5 -55s66.833 -18 103.5 -18c30 0 55.167 1.16699 75.5 3.5s37.833 6.16602 52.5 11.499v304z" />
    <glyph glyph-name="H" unicode="H" horiz-adv-x="694" 
d="M101 719c4.66699 0.666992 10.332 1.16699 16.999 1.5s12.667 0.5 18 0.5c6 0 12 -0.166992 18 -0.5s11.333 -0.833008 16 -1.5v-306h354v306c4.66699 0.666992 10 1.16699 16 1.5s12 0.5 18 0.5c5.33301 0 11.333 -0.166992 18 -0.5s12.334 -0.833008 17.001 -1.5v-719
c-4 -0.666992 -9.16699 -1.16699 -15.5 -1.5s-12.833 -0.5 -19.5 -0.5c-6 0 -12 0.166992 -18 0.5s-11.333 0.833008 -16 1.5v350h-354v-350c-4.66699 -0.666992 -10 -1.16699 -16 -1.5s-12 -0.5 -18 -0.5c-6.66699 0 -13.167 0.166992 -19.5 0.5s-11.5 0.833008 -15.5 1.5
v719z" />
    <glyph glyph-name="I" unicode="I" horiz-adv-x="271" 
d="M101 719c4.66699 0.666992 10.333 1.16699 17 1.5s12.667 0.5 18 0.5c6 0 12 -0.166992 18 -0.5s11.333 -0.833008 16 -1.5v-719c-4.66699 -0.666992 -10 -1.16699 -16 -1.5s-12 -0.5 -18 -0.5c-6.66699 0 -13.167 0.166992 -19.5 0.5s-11.5 0.833008 -15.5 1.5v719z" />
    <glyph glyph-name="J" unicode="J" horiz-adv-x="385" 
d="M221 658l-132 0.000976562c-0.666992 3.33301 -1.16699 7.83301 -1.5 13.5s-0.5 11.167 -0.5 16.5c0 4.66699 0.166992 10.167 0.5 16.5s0.833008 11.166 1.5 14.499h200v-576c0 -29.333 -4.66699 -54 -14 -74s-21.833 -36 -37.5 -48s-33.5 -20.5 -53.5 -25.5
s-40.667 -7.5 -62 -7.5c-20 0 -37.5 1.33301 -52.5 4s-28.167 5.66699 -39.5 9c2 18.667 7.66699 39 17 61c8.66699 -2.66699 18.667 -5.16699 30 -7.5s23.666 -3.5 36.999 -3.5c12 0 24.167 1.16699 36.5 3.5s23.833 7 34.5 14s19.334 17.167 26.001 30.5s10 31 10 53v506z
" />
    <glyph glyph-name="K" unicode="K" horiz-adv-x="593" 
d="M101 719c4.66699 0.666992 10.333 1.16699 17 1.5s12.667 0.5 18 0.5c6 0 12 -0.166992 18 -0.5s11.333 -0.833008 16 -1.5v-719c-4.66699 -0.666992 -10 -1.16699 -16 -1.5s-12 -0.5 -18 -0.5c-6.66699 0 -13.167 0.166992 -19.5 0.5s-11.5 0.833008 -15.5 1.5v719z
M216.999 368l253 351c5.33301 0.666992 10.833 1.16699 16.5 1.5s11.167 0.5 16.5 0.5c7.33301 0 14.333 -0.166992 21 -0.5s13.667 -0.833008 21 -1.5l-246 -344l284 -375c-7.33301 -0.666992 -14.833 -1.16699 -22.5 -1.5s-15.167 -0.5 -22.5 -0.5
c-6 0 -12.167 0.166992 -18.5 0.5s-12.5 0.833008 -18.5 1.5z" />
    <glyph glyph-name="L" unicode="L" horiz-adv-x="497" 
d="M101 719c4 0.666992 9.16699 1.16699 15.5 1.5s12.833 0.5 19.5 0.5c6 0 12 -0.166992 18 -0.5s11.333 -0.833008 16 -1.5v-656h307c0.666992 -4 1.16699 -9.16699 1.5 -15.5s0.5 -11.833 0.5 -16.5c0 -5.33301 -0.166992 -10.833 -0.5 -16.5s-0.833008 -10.5 -1.5 -14.5
h-376v719z" />
    <glyph glyph-name="M" unicode="M" horiz-adv-x="815" 
d="M121 719c4 0.666992 10.3311 1.16699 18.998 1.5s16.667 0.5 24 0.5s15.333 -0.166992 24 -0.5s15.334 -0.833008 20.001 -1.5l201 -479l199 479c4 0.666992 10.5 1.16699 19.5 1.5s16.833 0.5 23.5 0.5s14.334 -0.166992 23.001 -0.5s15.334 -0.833008 20.001 -1.5
l35 -719c-4.66699 -0.666992 -10 -1.16699 -16 -1.5s-12 -0.5 -18 -0.5c-6.66699 0 -13.167 0.166992 -19.5 0.5s-11.5 0.833008 -15.5 1.5l-27 612l-198 -463c-4.66699 -1.33301 -9.33398 -2 -14.001 -2h-14h-13.5c-4.33301 0 -8.83301 0.666992 -13.5 2l-196 464l-29 -613
c-4.66699 -0.666992 -10 -1.16699 -16 -1.5s-12 -0.5 -18 -0.5c-6.66699 0 -13.167 0.166992 -19.5 0.5s-11.5 0.833008 -15.5 1.5z" />
    <glyph glyph-name="N" unicode="N" horiz-adv-x="688" 
d="M101 719c4.66699 0.666992 10.834 1.16699 18.501 1.5s14.167 0.5 19.5 0.5s11.666 -0.166992 18.999 -0.5s13.333 -0.833008 18 -1.5l344 -602v602c4.66699 0.666992 9.83398 1.16699 15.501 1.5s11.5 0.5 17.5 0.5c5.33301 0 11.166 -0.166992 17.499 -0.5
s11.833 -0.833008 16.5 -1.5v-719c-4 -0.666992 -9.83301 -1.16699 -17.5 -1.5s-14.5 -0.5 -20.5 -0.5c-5.33301 0 -11.666 0.166992 -18.999 0.5s-13.333 0.833008 -18 1.5l-344 597v-597c-4.66699 -0.666992 -9.83398 -1.16699 -15.501 -1.5s-11.5 -0.5 -17.5 -0.5
c-6.66699 0 -13 0.166992 -19 0.5s-11 0.833008 -15 1.5v719z" />
    <glyph glyph-name="O" unicode="O" horiz-adv-x="722" 
d="M361 -12c-50 0 -93.667 9.16699 -131 27.5s-68.166 44 -92.499 77s-42.666 72.333 -54.999 118s-18.5 95.5 -18.5 149.5s6.16699 103.667 18.5 149s30.666 84.5 54.999 117.5s55.166 58.667 92.499 77s81 27.5 131 27.5s93.667 -9.16699 131 -27.5s68.166 -44 92.499 -77
s42.666 -72.167 54.999 -117.5s18.5 -95 18.5 -149s-6.16699 -103.833 -18.5 -149.5s-30.666 -85 -54.999 -118s-55.166 -58.667 -92.499 -77s-81 -27.5 -131 -27.5zM361 51c38.667 0 72 7.5 100 22.5s51.333 36.167 70 63.5s32.5 60 41.5 98s13.5 79.667 13.5 125
s-4.5 87 -13.5 125s-22.833 70.5 -41.5 97.5s-42 48 -70 63s-61.333 22.5 -100 22.5s-72.167 -7.5 -100.5 -22.5s-51.666 -36 -69.999 -63s-32 -59.5 -41 -97.5s-13.5 -79.667 -13.5 -125s4.5 -87 13.5 -125s22.667 -70.667 41 -98s41.666 -48.5 69.999 -63.5
s61.833 -22.5 100.5 -22.5z" />
    <glyph glyph-name="P" unicode="P" horiz-adv-x="554" 
d="M170 346c6.66699 -0.666992 12.499 -1.16699 17.499 -1.5l15 -1c5 -0.333008 10.667 -0.666016 17 -0.999023s14.5 -0.5 24.5 -0.5c24 0 47.667 2 71 6s44.5 12.167 63.5 24.5s34.333 29.666 46 51.999s17.5 51.833 17.5 88.5c0 29.333 -4.5 53.833 -13.5 73.5
s-21.833 35.5 -38.5 47.5s-37 20.667 -61 26s-50.667 8 -80 8c-17.333 0 -32.666 -0.5 -45.999 -1.5s-24.333 -2.16699 -33 -3.5v-317zM100.999 719c6.66699 0.666992 15.9961 1.83398 27.9961 3.50098s25.167 3 39.5 4l44 3c15 1 28.5 1.5 40.5 1.5c39.333 0 75 -4 107 -12
s59.5 -20.667 82.5 -38s40.833 -39.833 53.5 -67.5s19 -61.167 19 -100.5c0 -42 -7.16699 -78 -21.5 -108s-33.666 -54.333 -57.999 -73s-52.666 -32.334 -84.999 -41.001s-66.166 -13 -101.499 -13c-15.333 0 -28.666 0.333008 -39.999 1s-24.333 1.66699 -39 3v-282
c-4.66699 -0.666992 -10 -1.16699 -16 -1.5s-12 -0.5 -18 -0.5c-6.66699 0 -13.167 0.166992 -19.5 0.5s-11.5 0.833008 -15.5 1.5v719z" />
    <glyph glyph-name="Q" unicode="Q" horiz-adv-x="722" 
d="M661 -72c0 -11.333 -0.832031 -21.8311 -2.49902 -31.498s-4.83398 -19.834 -9.50098 -30.501l-217 43c0 11.333 1.16699 21.666 3.5 30.999s5.5 19 9.5 29zM361.001 -11.998c-50 0 -93.667 9.16699 -131 27.5s-68.166 44 -92.499 77s-42.666 72.333 -54.999 118
s-18.5 95.5 -18.5 149.5s6.16699 103.667 18.5 149s30.666 84.5 54.999 117.5s55.166 58.667 92.499 77s81 27.5 131 27.5s93.667 -9.16699 131 -27.5s68.166 -44 92.499 -77s42.666 -72.167 54.999 -117.5s18.5 -95 18.5 -149s-6.16699 -103.833 -18.5 -149.5
s-30.666 -85 -54.999 -118s-55.166 -58.667 -92.499 -77s-81 -27.5 -131 -27.5zM361.001 51.002c38.667 0 72 7.5 100 22.5s51.333 36.167 70 63.5s32.5 60 41.5 98s13.5 79.667 13.5 125s-4.5 87 -13.5 125s-22.833 70.5 -41.5 97.5s-42 48 -70 63s-61.333 22.5 -100 22.5
s-72.167 -7.5 -100.5 -22.5s-51.666 -36 -69.999 -63s-32 -59.5 -41 -97.5s-13.5 -79.667 -13.5 -125s4.5 -87 13.5 -125s22.667 -70.667 41 -98s41.666 -48.5 69.999 -63.5s61.833 -22.5 100.5 -22.5z" />
    <glyph glyph-name="R" unicode="R" horiz-adv-x="587" 
d="M101 722l38.5059 3.49805l32 3c10.333 1 21.166 1.66699 32.499 2s24.666 0.5 39.999 0.5c32 0 63.5 -3.33301 94.5 -10s58.833 -18.167 83.5 -34.5s44.5 -38.333 59.5 -66s22.5 -62.5 22.5 -104.5c0 -26 -4.66699 -49.667 -14 -71s-21.5 -40.5 -36.5 -57.5
s-32.333 -31.667 -52 -44s-39.834 -22.5 -60.501 -30.5l-8 -3l229 -310c-6.66699 -1.33301 -13.334 -2 -20.001 -2h-20h-19.5c-6.33301 0 -12.833 0.666992 -19.5 2l-252 333v4l22 6c22.667 6 44.667 13.833 66 23.5s40.166 21.334 56.499 35.001s29.5 29.834 39.5 48.501
s15 40.667 15 66c0 52 -16 91 -48 117s-75.333 39 -130 39c-14 0 -27 -0.333008 -39 -1s-26.333 -2 -43 -4v-667c-4.66699 -0.666992 -10.334 -1.16699 -17.001 -1.5s-12.667 -0.5 -18 -0.5c-6 0 -12 0.166992 -18 0.5s-11.333 0.833008 -16 1.5v722z" />
    <glyph glyph-name="S" unicode="S" horiz-adv-x="541" 
d="M74 80c9.33301 -2.66699 19.0039 -5.66602 29.0039 -8.99902s21.167 -6.33301 33.5 -9s26.166 -5 41.499 -7s33 -3 53 -3c32 0 59.5 3.83301 82.5 11.5s42 18 57 31s26.167 28.333 33.5 46s11 36.834 11 57.501c0 20 -2.5 37.167 -7.5 51.5s-13.667 27.5 -26 39.5
s-29.333 23.5 -51 34.5s-48.834 22.833 -81.501 35.5c-23.333 8.66699 -45.5 18 -66.5 28s-39.5 22.167 -55.5 36.5s-28.667 31.5 -38 51.5s-14 45 -14 75c0 54 19.5 97.667 58.5 131s95.833 50 170.5 50c14.667 0 29.5 -0.666992 44.5 -2s29 -3 42 -5s25 -4.33301 36 -7
s19.833 -5 26.5 -7c-1.33301 -10 -3.16602 -20.167 -5.49902 -30.5s-5.16602 -20.166 -8.49902 -29.499c-16 5.33301 -36.5 10.166 -61.5 14.499s-49.833 6.5 -74.5 6.5c-55.333 0 -95 -11.333 -119 -34s-36 -51.334 -36 -86.001c0 -18 3.66699 -33.667 11 -47
s17.5 -25 30.5 -35s28.5 -19.167 46.5 -27.5s37.333 -16.5 58 -24.5c28 -11.333 54.167 -23 78.5 -35s45.166 -26 62.499 -42s31 -34.833 41 -56.5s15 -47.834 15 -78.501c0 -34.667 -6.16699 -65.5 -18.5 -92.5s-29.833 -49.667 -52.5 -68s-50.334 -32.333 -83.001 -42
s-69.334 -14.5 -110.001 -14.5c-39.333 0 -72 2.83301 -98 8.5s-50.333 12.167 -73 19.5c1.33301 10 3.66602 20.833 6.99902 32.5s7 22.167 11 31.5z" />
    <glyph glyph-name="T" unicode="T" horiz-adv-x="495" 
d="M213 657l-193 -0.000976562c-0.666992 4 -1.16699 8.83301 -1.5 14.5s-0.5 11.167 -0.5 16.5c0 4.66699 0.166992 10 0.5 16s0.833008 11 1.5 15h455c0.666992 -4 1.16699 -8.66699 1.5 -14s0.5 -10.666 0.5 -15.999c0 -4.66699 -0.166992 -10.167 -0.5 -16.5
s-0.833008 -11.5 -1.5 -15.5h-193v-657c-4.66699 -0.666992 -10 -1.16699 -16 -1.5s-12 -0.5 -18 -0.5c-6.66699 0 -13.167 0.166992 -19.5 0.5s-11.5 0.833008 -15.5 1.5v657z" />
    <glyph glyph-name="U" unicode="U" horiz-adv-x="676" 
d="M93 719c4.66699 0.666992 10.332 1.16797 16.999 1.50098s12.667 0.5 18 0.5c6 0 12 -0.166992 18 -0.5s11.333 -0.833008 16 -1.5v-434c0 -42 3.5 -77.5 10.5 -106.5s17.667 -52.833 32 -71.5s32.5 -32.167 54.5 -40.5s48.333 -12.5 79 -12.5
c60.667 0 105.167 17.667 133.5 53s42.5 94.666 42.5 177.999v434c4.66699 0.666992 10 1.16699 16 1.5s12 0.5 18 0.5c5.33301 0 11.333 -0.166992 18 -0.5s12.334 -0.833008 17.001 -1.5v-443c0 -96 -19.667 -168 -59 -216s-101.333 -72 -186 -72s-146.667 24 -186 72
s-59 120 -59 216v443z" />
    <glyph glyph-name="V" unicode="V" horiz-adv-x="617" 
d="M31 719c4 0.666992 9.83203 1.16699 17.499 1.5s14.834 0.5 21.501 0.5c6 0 13 -0.166992 21 -0.5s14.333 -0.833008 19 -1.5l201 -651l198 651c5.33301 0.666992 11.5 1.16699 18.5 1.5s13.5 0.5 19.5 0.5c6.66699 0 13.834 -0.166992 21.501 -0.5
s13.5 -0.833008 17.5 -1.5l-236 -719c-4.66699 -0.666992 -11.334 -1.16699 -20.001 -1.5s-16 -0.5 -22 -0.5c-6.66699 0 -14 0.166992 -22 0.5s-14.333 0.833008 -19 1.5z" />
    <glyph glyph-name="W" unicode="W" horiz-adv-x="921" 
d="M36 719c4 0.666992 10.0049 1.16699 18.0049 1.5s15.333 0.5 22 0.5c6 0 13 -0.166992 21 -0.5s14.333 -0.833008 19 -1.5l139 -642l165 642c4 0.666992 10.5 1.16699 19.5 1.5s16.5 0.5 22.5 0.5c5.33301 0 12.666 -0.166992 21.999 -0.5s16.333 -0.833008 21 -1.5
l164 -642l141 642c5.33301 0.666992 11.166 1.16699 17.499 1.5s12.5 0.5 18.5 0.5c6.66699 0 13.834 -0.166992 21.501 -0.5s13.5 -0.833008 17.5 -1.5l-174 -719c-4.66699 -0.666992 -11.667 -1.16699 -21 -1.5s-17 -0.5 -23 -0.5
c-6.66699 0 -14.834 0.166992 -24.501 0.5s-16.834 0.833008 -21.501 1.5l-161 626l-160 -626c-4.66699 -0.666992 -11.667 -1.16699 -21 -1.5s-17 -0.5 -23 -0.5c-6.66699 0 -14.834 0.166992 -24.501 0.5s-16.834 0.833008 -21.501 1.5z" />
    <glyph glyph-name="X" unicode="X" horiz-adv-x="591" 
d="M99 0c-5.33301 -1.33301 -11.3311 -2 -17.998 -2h-18c-6 0 -12.333 0.166992 -19 0.5s-13 0.833008 -19 1.5l193 377l-167 342c7.33301 0.666992 13.666 1.16699 18.999 1.5s11.666 0.5 18.999 0.5c5.33301 0 11.5 -0.166992 18.5 -0.5s13.167 -0.833008 18.5 -1.5
l165 -340zM299.002 379l166 340c5.33301 0.666992 11.333 1.16699 18 1.5s12.667 0.5 18 0.5c7.33301 0 13.5 -0.166992 18.5 -0.5s11.167 -0.833008 18.5 -1.5l-167 -336l195 -383c-6 -0.666992 -12.5 -1.16699 -19.5 -1.5s-13.5 -0.5 -19.5 -0.5
c-5.33301 0 -11 0.166992 -17 0.5s-12 0.833008 -18 1.5z" />
    <glyph glyph-name="Y" unicode="Y" horiz-adv-x="574" 
d="M255 267l-230.999 452c4 0.666992 9.66699 1.16699 17 1.5s14.333 0.5 21 0.5c6 0 13.167 -0.166992 21.5 -0.5s14.833 -0.833008 19.5 -1.5l188 -380l185 380c5.33301 0.666992 11.166 1.16699 17.499 1.5s12.5 0.5 18.5 0.5c6.66699 0 13.667 -0.166992 21 -0.5
s13 -0.833008 17 -1.5l-226 -452v-267c-4.66699 -0.666992 -10 -1.16699 -16 -1.5s-12 -0.5 -18 -0.5c-6.66699 0 -13.167 0.166992 -19.5 0.5s-11.5 0.833008 -15.5 1.5v267z" />
    <glyph glyph-name="Z" unicode="Z" horiz-adv-x="555" 
d="M14 8l407 648.002h-349c-0.666992 3.33301 -1.16699 8 -1.5 14s-0.5 11.667 -0.5 17s0.166992 11.166 0.5 17.499s0.833008 11.166 1.5 14.499h457l5 -7l-410 -649h377c0.666992 -3.33301 1.16699 -8.33301 1.5 -15s0.5 -12.667 0.5 -18s-0.166992 -10.833 -0.5 -16.5
s-0.833008 -10.167 -1.5 -13.5h-482z" />
    <glyph glyph-name="bracketleft" unicode="[" horiz-adv-x="301" 
d="M50 748h198c0.666992 -4.66699 1.16699 -9.33398 1.5 -14.001s0.5 -9.66699 0.5 -15s-0.166992 -10.5 -0.5 -15.5s-0.833008 -9.16699 -1.5 -12.5h-131v-803h131c0.666992 -4 1.16699 -8.16699 1.5 -12.5s0.5 -9.16602 0.5 -14.499s-0.166992 -10.5 -0.5 -15.5
s-0.833008 -9.5 -1.5 -13.5h-198v916z" />
    <glyph glyph-name="backslash" unicode="\" horiz-adv-x="411" 
d="M353 0c-10 -2 -20 -3 -30 -3c-12 0 -23 1 -33 3l-244 719c12 2 23 3 33 3c10.667 0 21 -1 31 -3z" />
    <glyph glyph-name="bracketright" unicode="]" horiz-adv-x="301" 
d="M53 -168c-1.33301 4 -2 8.49902 -2 13.499v15.5v14.5c0 4.33301 0.666992 8.5 2 12.5h131v803h-131c-1.33301 3.33301 -2 7.5 -2 12.5v15.5v15c0 4.66699 0.666992 9.33398 2 14.001h198v-916h-198z" />
    <glyph glyph-name="asciicircum" unicode="^" horiz-adv-x="551" 
d="M235 719c6 1.33301 12.5 2.16699 19.5 2.5s13.167 0.5 18.5 0.5c14 0 28 -1 42 -3l164 -347h-66l-139 297l-137 -297h-66z" />
    <glyph glyph-name="underscore" unicode="_" horiz-adv-x="506" 
d="M503 -24c2 -9.33301 3 -18.667 3 -28s-1 -18.333 -3 -27h-498c-2.66699 8 -4 17.333 -4 28c0 10 1.33301 19 4 27h498z" />
    <glyph glyph-name="grave" unicode="`" horiz-adv-x="500" 
d="M145 723c7.33301 0.666992 15 1.16699 23 1.5s16 0.5 24 0.5h22.5c7.66699 0 15.167 -0.666992 22.5 -2l117 -130c-12 -2 -23 -3 -33 -3c-15.333 0 -29 1 -41 3z" />
    <glyph glyph-name="a" unicode="a" horiz-adv-x="513" 
d="M369 248c-11.333 1.33301 -25.499 2.83398 -42.499 4.50098s-33.167 2.5 -48.5 2.5c-50 0 -88.667 -9.33301 -116 -28s-41 -45.334 -41 -80.001c0 -22 4.16699 -39.667 12.5 -53s19.166 -23.5 32.499 -30.5s28 -11.667 44 -14s32 -3.5 48 -3.5c20.667 0 40 1 58 3
s35.667 4.66699 53 8v191zM369.001 337.001c0 44 -10.332 76.1689 -30.999 96.502s-51.334 30.5 -92.001 30.5c-26.667 0 -51 -1.83301 -73 -5.5s-41.667 -8.16699 -59 -13.5c-3.33301 6 -6.16602 14.667 -8.49902 26s-3.5 22 -3.5 32
c17.333 5.33301 38.666 9.83301 63.999 13.5s51.333 5.5 78 5.5c64.667 0 112.667 -14.167 144 -42.5s47 -72.833 47 -133.5v-337c-23.333 -4.66699 -51.666 -9.33398 -84.999 -14.001s-65 -7 -95 -7c-62 0 -110.833 12.333 -146.5 37s-53.5 64.667 -53.5 120
c0 26.667 5.16699 50.5 15.5 71.5s24.666 38.667 42.999 53s40.333 25.166 66 32.499s53.834 11 84.501 11c24 0 44.667 -0.833008 62 -2.5s31.666 -3.16699 42.999 -4.5v31z" />
    <glyph glyph-name="b" unicode="b" horiz-adv-x="590" 
d="M154 61c15.333 -5.33301 31.502 -9.16895 48.502 -11.502s35.167 -3.5 54.5 -3.5c26.667 0 52.167 4.33301 76.5 13s45.666 22 63.999 40s33 40.833 44 68.5s16.5 60.834 16.5 99.501c0 60.667 -11.5 108.334 -34.5 143.001s-60.167 52 -111.5 52
c-16 0 -33.333 -2.66699 -52 -8s-35.834 -14.333 -51.501 -27s-28.667 -29.5 -39 -50.5s-15.5 -47.5 -15.5 -79.5v-236zM88.002 734.997c4 0.666992 9.50195 1.16699 16.502 1.5s12.5 0.5 16.5 0.5c3.33301 0 8.66602 -0.166992 15.999 -0.5s13 -0.833008 17 -1.5v-296
c14 21.333 34.167 40.5 60.5 57.5s60.5 25.5 102.5 25.5c31.333 0 60 -4.83301 86 -14.5s48.167 -24.834 66.5 -45.501s32.666 -46.667 42.999 -78s15.5 -69 15.5 -113c0 -88.667 -24.333 -158 -73 -208s-119 -75 -211 -75c-30 0 -59 2.83301 -87 8.5s-51 11.834 -69 18.501
v720z" />
    <glyph glyph-name="c" unicode="c" horiz-adv-x="480" 
d="M426 64c3.33301 -6.66699 6.49609 -15.667 9.49609 -27s5.16699 -20.666 6.5 -27.999c-16.667 -6 -35.667 -11 -57 -15s-45 -6 -71 -6c-83.333 0 -146.666 22.833 -189.999 68.5s-65 111.834 -65 198.501c0 38 5.33301 73.167 16 105.5s26.334 60.5 47.001 84.5
s46.5 42.833 77.5 56.5s66.833 20.5 107.5 20.5c25.333 0 49.5 -1.83301 72.5 -5.5s41.167 -7.83398 54.5 -12.501c0 -8.66699 -1.16699 -18.667 -3.5 -30s-4.83301 -20.333 -7.5 -27c-13.333 4.66699 -30.166 8.66699 -50.499 12s-42.166 5 -65.499 5
c-30 0 -56.167 -5.16699 -78.5 -15.5s-41 -24.833 -56 -43.5s-26.167 -40.667 -33.5 -66s-11 -53.333 -11 -84c0 -72 17.167 -124.833 51.5 -158.5s80.833 -50.5 139.5 -50.5c20 0 39.167 1.66699 57.5 5s34.833 7.66602 49.5 12.999z" />
    <glyph glyph-name="d" unicode="d" horiz-adv-x="585" 
d="M431 735c4 0.666992 9.66895 1.16797 17.002 1.50098s12.666 0.5 15.999 0.5c4 0 9.5 -0.166992 16.5 -0.5s12.5 -0.833008 16.5 -1.5v-723c-20.667 -6.66699 -46.334 -12.334 -77.001 -17.001s-62.667 -7 -96 -7c-36.667 0 -71 4.33301 -103 13s-59.667 23 -83 43
s-41.833 46.333 -55.5 79s-20.5 73 -20.5 121c0 44 6 83.167 18 117.5s29 63.333 51 87s48.5 41.834 79.5 54.501s65.167 19 102.5 19c22 0 43.833 -1.83301 65.5 -5.5s39.167 -7.83398 52.5 -12.501v231zM431.002 442.001c-13.333 5.33301 -30.333 10.168 -51 14.501
s-42 6.5 -64 6.5c-31.333 0 -58.5 -5.33301 -81.5 -16s-42.167 -25.5 -57.5 -44.5s-26.833 -41.833 -34.5 -68.5s-11.5 -56 -11.5 -88c0 -69.333 16.5 -119.833 49.5 -151.5s79.833 -47.5 140.5 -47.5c22 0 43 1.16699 63 3.5s35.667 5.16602 47 8.49902v383z" />
    <glyph glyph-name="e" unicode="e" horiz-adv-x="553" 
d="M130 245c0 -68 15.666 -118 46.999 -150s78.333 -48 141 -48c25.333 0 48.833 2.16699 70.5 6.5s42.834 10.166 63.501 17.499c3.33301 -7.33301 6 -16.333 8 -27s3.33301 -20.334 4 -29.001c-19.333 -8.66699 -42 -15.334 -68 -20.001s-54.333 -7 -85 -7
c-44 0 -81.833 6.5 -113.5 19.5s-57.667 31.167 -78 54.5s-35.333 51.166 -45 83.499s-14.5 67.833 -14.5 106.5c0 37.333 4.5 72.333 13.5 105s22.667 61.334 41 86.001s41.833 44 70.5 58s63 21 103 21c33.333 0 63 -5.66699 89 -17s47.833 -27.166 65.5 -47.499
s31 -44.666 40 -72.999s13.5 -59.166 13.5 -92.499c0 -6 -0.166992 -13.667 -0.5 -23s-0.833008 -17.333 -1.5 -24h-364zM429.999 300c0 20.667 -2.66797 41 -8.00098 61s-13.666 37.5 -24.999 52.5s-26 27.167 -44 36.5s-39.667 14 -65 14c-46.667 0 -83 -14.333 -109 -43
s-41.667 -69 -47 -121h298z" />
    <glyph glyph-name="f" unicode="f" horiz-adv-x="350" 
d="M124 454h-87.001c-0.666992 3.33301 -1.16699 7.33301 -1.5 12s-0.5 9.66699 -0.5 15s0.166992 10.666 0.5 15.999s0.833008 9.66602 1.5 12.999h87v45c0 62.667 13.833 109.667 41.5 141s71.5 47 131.5 47c14 0 26.833 -0.833008 38.5 -2.5s21.5 -3.5 29.5 -5.5
c-1.33301 -12.667 -2.83301 -23 -4.5 -31s-3.83398 -16.667 -6.50098 -26c-6 1.33301 -14 2.83301 -24 4.5s-20.667 2.5 -32 2.5c-17.333 0 -32.666 -1.83301 -45.999 -5.5s-24.5 -10.334 -33.5 -20.001s-16 -23.167 -21 -40.5s-7.5 -39.666 -7.5 -66.999v-42h140
c0.666992 -3.33301 1.16699 -7.66602 1.5 -12.999s0.5 -10.666 0.5 -15.999s-0.166992 -10.333 -0.5 -15s-0.833008 -8.66699 -1.5 -12h-140v-454c-4 -0.666992 -9.5 -1.16699 -16.5 -1.5s-12.5 -0.5 -16.5 -0.5c-3.33301 0 -8.66602 0.166992 -15.999 0.5
s-13 0.833008 -17 1.5v454z" />
    <glyph glyph-name="g" unicode="g" horiz-adv-x="536" 
d="M351 51c58.667 -1.33301 100.505 -13.499 125.505 -36.499s37.5 -53.5 37.5 -91.5c0 -26 -6.66699 -49.5 -20 -70.5s-32 -39 -56 -54s-52.5 -26.667 -85.5 -35s-68.833 -12.5 -107.5 -12.5c-30 0 -57.5 2.33301 -82.5 7s-46.667 12.167 -65 22.5s-32.5 24 -42.5 41
s-15 37.833 -15 62.5c0 25.333 7.33301 49.666 22 72.999s33.667 40.666 57 51.999c-12.667 8 -23.334 18.167 -32.001 30.5s-13 27.5 -13 45.5c0 26 6.16699 47.667 18.5 65s28.833 33 49.5 47c-23.333 14.667 -42 34.334 -56 59.001s-21 54 -21 88
c0 24.667 4.16699 47.834 12.5 69.501s20.833 40.5 37.5 56.5s37.167 28.667 61.5 38s52.5 14 84.5 14c27.333 0 51.666 -3.5 72.999 -10.5s40 -16.167 56 -27.5c6.66699 2.66699 15 5.66699 25 9s21 6.16602 33 8.49902s24.333 4.33301 37 6s25 2.5 37 2.5
c2.66699 -10 4 -21 4 -33c0 -12.667 -1.33301 -24 -4 -34h-95c9.33301 -14.667 16.5 -30.167 21.5 -46.5s7.5 -33.833 7.5 -52.5c0 -28.667 -5 -54 -15 -76s-23.833 -40.5 -41.5 -55.5s-38.334 -26.5 -62.001 -34.5s-49.167 -12 -76.5 -12c-28.667 0 -53.667 3.66699 -75 11
c-18.667 -12 -31.834 -23.5 -39.501 -34.5s-11.5 -23.5 -11.5 -37.5c0 -6.66699 1 -13 3 -19s6.16699 -11.5 12.5 -16.5s15.166 -9 26.499 -12s26 -4.5 44 -4.5zM209.005 -8.99902c-31.333 0.666992 -56.5 -8.16797 -75.5 -26.501s-28.5 -42.5 -28.5 -72.5
c0 -16 3.66699 -29.333 11 -40s17.5 -19 30.5 -25s28.167 -10.167 45.5 -12.5s35.666 -3.5 54.999 -3.5c62 0 110.333 10.5 145 31.5s52 46.167 52 75.5c0 25.333 -8.66699 43.333 -26 54s-45.666 16.334 -84.999 17.001zM135.005 343.999
c0 -34.667 10.167 -63.834 30.5 -87.501s52.166 -35.5 95.499 -35.5s75.333 11.833 96 35.5s31 52.834 31 87.501s-10.333 63.834 -31 87.501s-52.667 35.5 -96 35.5s-75.166 -11.833 -95.499 -35.5s-30.5 -52.834 -30.5 -87.501z" />
    <glyph glyph-name="h" unicode="h" horiz-adv-x="572" 
d="M88 735c4 0.666992 9.49609 1.16602 16.4961 1.49902s12.5 0.5 16.5 0.5c3.33301 0 8.66602 -0.166992 15.999 -0.5s13 -0.833008 17 -1.5v-316c6.66699 12 15.334 24.167 26.001 36.5s23 23.5 37 33.5s29.833 18 47.5 24s37.167 9 58.5 9
c58.667 0 101.834 -17.5 129.501 -52.5s41.5 -84.167 41.5 -147.5v-322c-4 -0.666992 -9.5 -1.16699 -16.5 -1.5s-12.5 -0.5 -16.5 -0.5c-3.33301 0 -8.66602 0.166992 -15.999 0.5s-13 0.833008 -17 1.5v302c0 56.667 -9.33301 97.334 -28 122.001s-45.667 37 -81 37
c-23.333 0 -45.166 -4.33301 -65.499 -13s-37.833 -21.5 -52.5 -38.5s-26.167 -38.333 -34.5 -64s-12.5 -55.167 -12.5 -88.5v-257c-4 -0.666992 -9.5 -1.16699 -16.5 -1.5s-12.5 -0.5 -16.5 -0.5c-3.33301 0 -8.66602 0.166992 -15.999 0.5s-13 0.833008 -17 1.5v735z" />
    <glyph glyph-name="i" unicode="i" horiz-adv-x="273" 
d="M119 454l-64.001 0.00195312c-0.666992 3.33301 -1.16699 7.33301 -1.5 12s-0.5 9.66699 -0.5 15s0.166992 10.666 0.5 15.999s0.833008 9.66602 1.5 12.999h130v-510c-4 -0.666992 -9.5 -1.16699 -16.5 -1.5s-12.5 -0.5 -16.5 -0.5
c-3.33301 0 -8.66602 0.166992 -15.999 0.5s-13 0.833008 -17 1.5v454zM85.999 635.002c-0.666992 6 -1.16699 13.333 -1.5 22s-0.5 16 -0.5 22c0 5.33301 0.166992 12 0.5 20s0.833008 14.667 1.5 20c6 0.666992 13.333 1.16699 22 1.5s16 0.5 22 0.5
c5.33301 0 12 -0.166992 20 -0.5s14.667 -0.833008 20 -1.5c0.666992 -5.33301 1.16699 -12 1.5 -20s0.5 -14.667 0.5 -20c0 -6 -0.166992 -13.333 -0.5 -22s-0.833008 -16 -1.5 -22c-5.33301 -0.666992 -12 -1.16699 -20 -1.5s-14.667 -0.5 -20 -0.5
c-6 0 -13.333 0.166992 -22 0.5s-16 0.833008 -22 1.5z" />
    <glyph glyph-name="j" unicode="j" horiz-adv-x="278" 
d="M124 454h-64.001c-0.666992 3.33301 -1.16699 7.33301 -1.5 12s-0.5 9.66699 -0.5 15s0.166992 10.666 0.5 15.999s0.833008 9.66602 1.5 12.999h130v-553c0 -28 -4 -51 -12 -69s-18.5 -32.167 -31.5 -42.5s-27.833 -17.666 -44.5 -21.999s-33.334 -6.5 -50.001 -6.5
c-20.667 0 -37.667 1.33301 -51 4s-24.666 6 -33.999 10c1.33301 7.33301 3.33301 16.5 6 27.5s5.66699 19.833 9 26.5c15.333 -6.66699 34.666 -10 57.999 -10c6.66699 0 14.834 0.333008 24.501 1s18.834 3.33398 27.501 8.00098s16.167 12 22.5 22s9.5 24.667 9.5 44v504
zM90.999 635c-0.666992 6 -1.16699 13.333 -1.5 22s-0.5 16 -0.5 22c0 5.33301 0.166992 12 0.5 20s0.833008 14.667 1.5 20c6 0.666992 13.333 1.16699 22 1.5s16 0.5 22 0.5c5.33301 0 12 -0.166992 20 -0.5s14.667 -0.833008 20 -1.5
c0.666992 -5.33301 1.16699 -12 1.5 -20s0.5 -14.667 0.5 -20c0 -6 -0.166992 -13.333 -0.5 -22s-0.833008 -16 -1.5 -22c-5.33301 -0.666992 -12 -1.16699 -20 -1.5s-14.667 -0.5 -20 -0.5c-6 0 -13.333 0.166992 -22 0.5s-16 0.833008 -22 1.5z" />
    <glyph glyph-name="k" unicode="k" horiz-adv-x="502" 
d="M88 735c4 0.666992 9.5 1.16699 16.5 1.5s12.5 0.5 16.5 0.5c3.33301 0 8.66602 -0.166992 15.999 -0.5s13 -0.833008 17 -1.5v-735c-4 -0.666992 -9.66699 -1.16699 -17 -1.5s-12.666 -0.5 -15.999 -0.5c-4 0 -9.5 0.166992 -16.5 0.5s-12.5 0.833008 -16.5 1.5v735z
M196 263l182.999 247c10.667 2 22.334 3 35.001 3c14.667 0 28.667 -1 42 -3l-182 -240l215 -270c-12 -2 -24 -3 -36 -3c-14.667 0 -29 1 -43 3z" />
    <glyph glyph-name="l" unicode="l" horiz-adv-x="279" 
d="M88 735c4 0.666992 9.50195 1.16797 16.502 1.50098s12.5 0.5 16.5 0.5c3.33301 0 8.66602 -0.166992 15.999 -0.5s13 -0.833008 17 -1.5v-617c0 -17.333 2 -30.833 6 -40.5s9 -16.667 15 -21s12.667 -7 20 -8s14 -1.5 20 -1.5c7.33301 0 15 0.5 23 1.5
s14.667 2.16699 20 3.5c3.33301 -8 5.66602 -16.667 6.99902 -26s2.33301 -18 3 -26c-9.33301 -3.33301 -19.833 -5.66602 -31.5 -6.99902s-22.5 -2 -32.5 -2c-14 0 -28 1.5 -42 4.5s-26.5 8.66699 -37.5 17s-19.833 19.666 -26.5 33.999s-10 33.166 -10 56.499v632z" />
    <glyph glyph-name="m" unicode="m" horiz-adv-x="836" 
d="M88 510c5.33301 0.666992 10.5 1.16992 15.5 1.50293s9.83301 0.5 14.5 0.5c5.33301 0 10.333 -0.166992 15 -0.5s9.66699 -0.833008 15 -1.5c1.33301 -12 2.33301 -26.333 3 -43s1 -31.667 1 -45c6 12.667 13.667 25 23 37s20.333 22.667 33 32s27.167 16.833 43.5 22.5
s34.833 8.5 55.5 8.5c19.333 0 36 -2.33301 50 -7s26.167 -11.167 36.5 -19.5s19 -18.166 26 -29.499s13.5 -24 19.5 -38c7.33301 10.667 15.666 21.667 24.999 33s20 21.5 32 30.5s25.833 16.333 41.5 22s33.167 8.5 52.5 8.5c59.333 0 102.166 -17 128.499 -51
s39.5 -82.667 39.5 -146v-325c-4 -0.666992 -9.5 -1.16699 -16.5 -1.5s-12.5 -0.5 -16.5 -0.5c-3.33301 0 -8.66602 0.166992 -15.999 0.5s-13 0.833008 -17 1.5v302c0 54 -8.83301 94 -26.5 120s-44.167 39 -79.5 39c-21.333 0 -40 -4.33301 -56 -13
s-29.333 -20.334 -40 -35.001s-18.834 -31.834 -24.501 -51.501s-8.5 -40.5 -8.5 -62.5v-299c-4 -0.666992 -9.5 -1.16699 -16.5 -1.5s-12.5 -0.5 -16.5 -0.5c-3.33301 0 -8.66602 0.166992 -15.999 0.5s-13 0.833008 -17 1.5v315c0 51.333 -8.16699 89.333 -24.5 114
s-39.833 37 -70.5 37c-20.667 0 -39.667 -5.16699 -57 -15.5s-32.333 -24.833 -45 -43.5s-22.5 -40.834 -29.5 -66.501s-10.5 -53.834 -10.5 -84.501v-256c-4 -0.666992 -9.5 -1.16699 -16.5 -1.5s-12.5 -0.5 -16.5 -0.5c-3.33301 0 -8.66602 0.166992 -15.999 0.5
s-13 0.833008 -17 1.5v510z" />
    <glyph glyph-name="n" unicode="n" horiz-adv-x="572" 
d="M88 510c5.33301 0.666992 10.4961 1.16602 15.4961 1.49902s9.83301 0.5 14.5 0.5c5.33301 0 10.333 -0.166992 15 -0.5s9.66699 -0.833008 15 -1.5c1.33301 -12 2.33301 -27 3 -45s1 -33.667 1 -47c6.66699 12 15.334 24.167 26.001 36.5s23.167 23.5 37.5 33.5
s30.833 18.167 49.5 24.5s39 9.5 61 9.5c58.667 0 101.334 -17.5 128.001 -52.5s40 -84.167 40 -147.5v-322c-4 -0.666992 -9.5 -1.16699 -16.5 -1.5s-12.5 -0.5 -16.5 -0.5c-3.33301 0 -8.66602 0.166992 -15.999 0.5s-13 0.833008 -17 1.5v302
c0 56.667 -8.83301 97.334 -26.5 122.001s-44.167 37 -79.5 37c-23.333 0 -45.333 -4.66699 -66 -14s-38.5 -22.833 -53.5 -40.5s-26.833 -39.5 -35.5 -65.5s-13 -55.667 -13 -89v-252c-4 -0.666992 -9.5 -1.16699 -16.5 -1.5s-12.5 -0.5 -16.5 -0.5
c-3.33301 0 -8.66602 0.166992 -15.999 0.5s-13 0.833008 -17 1.5v510z" />
    <glyph glyph-name="o" unicode="o" horiz-adv-x="574" 
d="M287 46c53.333 0 93.166 18.667 119.499 56s39.5 88.333 39.5 153s-13.167 115.667 -39.5 153s-66.166 56 -119.499 56s-93.166 -18.667 -119.499 -56s-39.5 -88.333 -39.5 -153s13.167 -115.667 39.5 -153s66.166 -56 119.499 -56zM287 -12
c-38 0 -71.333 6.83301 -100 20.5s-52.5 32.5 -71.5 56.5s-33.167 52.333 -42.5 85s-14 67.667 -14 105s4.66699 72.333 14 105s23.5 61 42.5 85s42.833 42.833 71.5 56.5s62 20.5 100 20.5s71.167 -6.83301 99.5 -20.5s52 -32.5 71 -56.5s33.333 -52.333 43 -85
s14.5 -67.667 14.5 -105s-4.83301 -72.333 -14.5 -105s-24 -61 -43 -85s-42.667 -42.833 -71 -56.5s-61.5 -20.5 -99.5 -20.5z" />
    <glyph glyph-name="p" unicode="p" horiz-adv-x="589" 
d="M88 510c4 0.666992 9 1.16797 15 1.50098s11 0.5 15 0.5s9 -0.166992 15 -0.5s11 -0.833008 15 -1.5l6 -70c14 21.333 34.167 40.333 60.5 57s60.5 25 102.5 25c31.333 0 60 -4.83301 86 -14.5s48.167 -24.834 66.5 -45.501s32.666 -46.667 42.999 -78
s15.5 -69 15.5 -113s-6 -83.5 -18 -118.5s-29.5 -64.667 -52.5 -89s-51.333 -43 -85 -56s-72.167 -19.5 -115.5 -19.5c-16 0 -33.333 1.33301 -52 4s-35.667 6.66699 -51 12v-240c-4 -0.666992 -9.66699 -1.16699 -17 -1.5s-12.666 -0.5 -15.999 -0.5
c-4 0 -9.5 0.166992 -16.5 0.5s-12.5 0.833008 -16.5 1.5v746zM154 65.001c15.333 -6 31.1699 -10.501 47.5029 -13.501s38.166 -4.5 65.499 -4.5c26 0 50.667 4.16699 74 12.5s43.666 21.5 60.999 39.5s31 40.833 41 68.5s15 60.834 15 99.501
c0 61.333 -11.5 109.333 -34.5 144s-60.167 52 -111.5 52c-16 0 -33.333 -2.66699 -52 -8s-35.834 -14.5 -51.501 -27.5s-28.667 -30 -39 -51s-15.5 -47.5 -15.5 -79.5v-232z" />
    <glyph glyph-name="q" unicode="q" horiz-adv-x="584" 
d="M430 3c-16 -4.66699 -33.3369 -8.33301 -52.0039 -11s-38.667 -4 -60 -4c-35.333 0 -68.666 4 -99.999 12s-58.666 21.833 -81.999 41.5s-41.666 45.667 -54.999 78s-20 72.5 -20 120.5c0 44 6.5 83.333 19.5 118s31.167 64.167 54.5 88.5s51.5 43 84.5 56
s69.5 19.5 109.5 19.5c18.667 0 35.5 -0.5 50.5 -1.5s29 -2.5 42 -4.5s25.5 -4.33301 37.5 -7s24.333 -6 37 -10v-735c-4 -0.666992 -9.66699 -1.16699 -17 -1.5s-12.666 -0.5 -15.999 -0.5c-4 0 -9.5 0.166992 -16.5 0.5s-12.5 0.833008 -16.5 1.5v239zM429.996 454.001
c-20 4 -36.498 6.66504 -49.498 7.99805s-28.833 2 -47.5 2c-34 0 -63.833 -5.66699 -89.5 -17s-46.834 -27.333 -63.501 -48s-29.167 -45 -37.5 -73s-12.5 -59 -12.5 -93c0 -32.667 4.5 -60.667 13.5 -84s21.833 -42.666 38.5 -57.999s36.167 -26.666 58.5 -33.999
s47.166 -11 74.499 -11c22 0 43.333 1.66699 64 5s37.667 7.33301 51 12v391z" />
    <glyph glyph-name="r" unicode="r" horiz-adv-x="350" 
d="M88 510c5.33301 0.666992 10.4971 1.16699 15.4971 1.5s9.83301 0.5 14.5 0.5c5.33301 0 10.333 -0.166992 15 -0.5s9.66699 -0.833008 15 -1.5c1.33301 -12 2.33301 -26.167 3 -42.5s1 -31.166 1 -44.499c13.333 24.667 32 45.5 56 62.5s55.667 25.5 95 25.5h10.5
c3.66699 0 7.83398 -0.333008 12.501 -1c2 -11.333 3 -22 3 -32c0 -10.667 -1 -21 -3 -31c-5.33301 0.666992 -9.5 1 -12.5 1h-9.5c-45.333 0 -81.666 -14.333 -108.999 -43s-41 -76.334 -41 -143.001v-262c-4 -0.666992 -9.5 -1.16699 -16.5 -1.5s-12.5 -0.5 -16.5 -0.5
c-3.33301 0 -8.66602 0.166992 -15.999 0.5s-13 0.833008 -17 1.5v510z" />
    <glyph glyph-name="s" unicode="s" horiz-adv-x="452" 
d="M74 70c14.667 -6 33.6699 -11.1689 57.0029 -15.502s45.666 -6.5 66.999 -6.5c40 0 71.667 8.83301 95 26.5s35 39.5 35 65.5c0 18 -3.5 32.833 -10.5 44.5s-16.333 21.5 -28 29.5s-24.834 14.5 -39.501 19.5l-45 15.5c-16.667 5.33301 -33.167 11.333 -49.5 18
s-30.833 15.167 -43.5 25.5s-22.834 22.833 -30.501 37.5s-11.5 33 -11.5 55c0 40.667 14.833 73.667 44.5 99s75.5 38 137.5 38c26 0 51.167 -2.33301 75.5 -7s43.166 -9.66699 56.499 -15c-3.33301 -19.333 -8 -38.333 -14 -57c-14 4.66699 -31.833 9.33398 -53.5 14.001
s-44.167 7 -67.5 7c-40.667 0 -69.5 -7.16699 -86.5 -21.5s-25.5 -33.166 -25.5 -56.499c0 -12.667 2.83301 -23.5 8.5 -32.5s13.334 -16.667 23.001 -23s20.667 -11.833 33 -16.5s25.5 -9 39.5 -13c18 -6 36.167 -12.5 54.5 -19.5s35 -16.167 50 -27.5
s27.333 -25.666 37 -42.999s14.5 -39 14.5 -65c0 -24 -4.83301 -45.833 -14.5 -65.5s-23.167 -36.334 -40.5 -50.001s-38 -24.167 -62 -31.5s-50.333 -11 -79 -11c-32 0 -60.5 2 -85.5 6s-45.167 9.33301 -60.5 16c4 20 10.333 40 19 60z" />
    <glyph glyph-name="t" unicode="t" horiz-adv-x="339" 
d="M111 454l-86.999 0.000976562c-0.666992 3.33301 -1.16699 7.66602 -1.5 12.999s-0.5 10.666 -0.5 15.999s0.166992 10.333 0.5 15s0.833008 8.66699 1.5 12h87v96l62 61h4v-157h138c0.666992 -3.33301 1.16699 -7.33301 1.5 -12s0.5 -9.66699 0.5 -15
s-0.166992 -10.666 -0.5 -15.999s-0.833008 -9.66602 -1.5 -12.999h-138v-332c0 -16.667 2.16699 -29.834 6.5 -39.501s10 -17.167 17 -22.5s15 -8.83301 24 -10.5s18.167 -2.5 27.5 -2.5c23.333 0 43.666 3 60.999 9c4.66699 -17.333 8 -36 10 -56
c-24 -7.33301 -52 -11 -84 -11c-38 0 -68.833 10.167 -92.5 30.5s-35.5 53.5 -35.5 99.5v335z" />
    <glyph glyph-name="u" unicode="u" horiz-adv-x="575" 
d="M84 510c4 0.666992 9.6709 1.16699 17.0039 1.5s12.666 0.5 15.999 0.5c4 0 9.5 -0.166992 16.5 -0.5s12.5 -0.833008 16.5 -1.5v-287c0 -36 3.66699 -65.5 11 -88.5s18.166 -41 32.499 -54s31.833 -22 52.5 -27s44 -7.5 70 -7.5c22 0 41.667 1.16699 59 3.5
s32.666 5.5 45.999 9.5v451c4 0.666992 9.66699 1.16699 17 1.5s12.666 0.5 15.999 0.5c4 0 9.5 -0.166992 16.5 -0.5s12.5 -0.833008 16.5 -1.5v-497c-24.667 -6.66699 -52.167 -12.5 -82.5 -17.5s-61.5 -7.5 -93.5 -7.5c-31.333 0 -60.833 3 -88.5 9
s-51.667 17.5 -72 34.5s-36.5 40.5 -48.5 70.5s-18 69 -18 117v291z" />
    <glyph glyph-name="v" unicode="v" horiz-adv-x="521" 
d="M26 510c4 0.666992 9.66797 1.16699 17.001 1.5s14.333 0.5 21 0.5c5.33301 0 12 -0.166992 20 -0.5s14 -0.833008 18 -1.5l161 -441l164 441c4 0.666992 9.33301 1.16699 16 1.5s12.667 0.5 18 0.5s11.333 -0.166992 18 -0.5s12 -0.833008 16 -1.5l-203 -510
c-10 -2 -20.333 -3 -31 -3s-21.334 1 -32.001 3z" />
    <glyph glyph-name="w" unicode="w" horiz-adv-x="752" 
d="M33 510c4 0.666992 9.1709 1.16699 15.5039 1.5s12.833 0.5 19.5 0.5c5.33301 0 11.833 -0.166992 19.5 -0.5s13.5 -0.833008 17.5 -1.5l113 -434l126 434c5.33301 0.666992 11.166 1.16699 17.499 1.5s13.166 0.5 20.499 0.5h16.5c5.66699 0 11.167 -0.666992 16.5 -2
l126 -428l113 428c4 0.666992 8.83301 1.16699 14.5 1.5s11.167 0.5 16.5 0.5s11.333 -0.166992 18 -0.5s12 -0.833008 16 -1.5l-147 -510c-12 -2 -23.667 -3 -35 -3c-12.667 0 -24.334 1 -35.001 3l-123 422l-129 -422c-12 -2 -23.667 -3 -35 -3
c-12.667 0 -24.334 1 -35.001 3z" />
    <glyph glyph-name="x" unicode="x" horiz-adv-x="490" 
d="M172 266l-134.001 244c12 2 23.667 3 35 3c12.667 0 26 -1 40 -3l128 -244l-148 -266c-11.333 -2 -22.666 -3 -33.999 -3c-13.333 0 -26.333 1 -39 3zM248.999 266l128 244c14 2 27 3 39 3c10.667 0 22 -1 34 -3l-130 -239l150 -271c-13.333 -2 -26.333 -3 -39 -3
c-12 0 -23.333 1 -34 3z" />
    <glyph glyph-name="y" unicode="y" horiz-adv-x="515" 
d="M257 -2h-19.002c-6 0 -12.833 0.166992 -20.5 0.5s-13.5 0.833008 -17.5 1.5l-184 510c4 0.666992 9.66699 1.16699 17 1.5s14.333 0.5 21 0.5c5.33301 0 12 -0.166992 20 -0.5s14 -0.833008 18 -1.5l169 -496l166 496c4 0.666992 9.33301 1.16699 16 1.5
s12.667 0.5 18 0.5s11.333 -0.166992 18 -0.5s12 -0.833008 16 -1.5l-224 -661c-12 -36.667 -29 -62.334 -51 -77.001s-48 -22 -78 -22c-14 0 -28.167 1.33301 -42.5 4s-26.166 5.33398 -35.499 8.00098c0 20.667 5 39.334 15 56.001c5.33301 -2 13.333 -4.16699 24 -6.5
s22.667 -3.5 36 -3.5c19.333 0 34.833 4.66699 46.5 14s21.834 26.666 30.501 51.999z" />
    <glyph glyph-name="z" unicode="z" horiz-adv-x="465" 
d="M31 16l297 438h-267c-0.666992 3.33301 -1.16699 7.33301 -1.5 12s-0.5 9.66699 -0.5 15s0.166992 10.666 0.5 15.999s0.833008 9.66602 1.5 12.999h368l4 -13l-297 -441h281c0.666992 -3.33301 1.16699 -7.66602 1.5 -12.999s0.5 -10.666 0.5 -15.999
s-0.166992 -10.333 -0.5 -15s-0.833008 -8.66699 -1.5 -12h-383z" />
    <glyph glyph-name="braceleft" unicode="{" horiz-adv-x="396" 
d="M157 109c0 24 -2 44.8369 -6 62.5039s-10.167 33.5 -18.5 47.5s-19.333 26.5 -33 37.5s-30.167 21.833 -49.5 32.5v4c19.333 10.667 35.833 21.5 49.5 32.5s24.667 23.5 33 37.5s14.5 29.833 18.5 47.5s6 38.5 6 62.5v77c0 68 13.833 118.333 41.5 151
s75.834 49 144.501 49c0.666992 -4.66699 1.16699 -9.33398 1.5 -14.001s0.5 -9.66699 0.5 -15s-0.166992 -10.333 -0.5 -15s-0.833008 -8.66699 -1.5 -12c-26.667 0 -48 -3.16699 -64 -9.5s-28.167 -16.5 -36.5 -30.5s-13.833 -31.833 -16.5 -53.5s-4 -47.5 -4 -77.5v-11
c0 -34 -1.33301 -62.833 -4 -86.5s-7.16699 -43.834 -13.5 -60.501s-15 -30.834 -26 -42.501s-24.833 -22.167 -41.5 -31.5c16.667 -9.33301 30.5 -19.833 41.5 -31.5s19.667 -25.834 26 -42.501s10.833 -36.834 13.5 -60.501s4 -52.5 4 -86.5v-11
c0 -30 1.33301 -55.833 4 -77.5s8.16699 -39.5 16.5 -53.5s20.5 -24.167 36.5 -30.5s37.333 -9.5 64 -9.5c0.666992 -4 1.16699 -8.16699 1.5 -12.5s0.5 -9.16602 0.5 -14.499s-0.166992 -10.5 -0.5 -15.5s-0.833008 -9.5 -1.5 -13.5c-68.667 0 -116.834 16.333 -144.501 49
s-41.5 83 -41.5 151v77z" />
    <glyph glyph-name="bar" unicode="|" horiz-adv-x="327" 
d="M130 776c4.66699 0.666992 10.168 1.16699 16.501 1.5s12.166 0.5 17.499 0.5c6 0 11.833 -0.166992 17.5 -0.5s10.834 -0.833008 15.501 -1.5v-944c-4.66699 -0.666992 -9.83398 -1.16699 -15.501 -1.5s-11.5 -0.5 -17.5 -0.5c-6.66699 0 -13 0.166992 -19 0.5
s-11 0.833008 -15 1.5v944z" />
    <glyph glyph-name="braceright" unicode="}" horiz-adv-x="396" 
d="M239 32c0 -68 -13.833 -118.337 -41.5 -151.004s-75.834 -49 -144.501 -49c-0.666992 4 -1.16699 8.5 -1.5 13.5s-0.5 10.167 -0.5 15.5s0.166992 10.166 0.5 14.499s0.833008 8.5 1.5 12.5c26.667 0 47.834 3.16699 63.501 9.5s27.834 16.5 36.501 30.5
s14.334 31.833 17.001 53.5s4 47.5 4 77.5v11c0 34 1.33301 62.833 4 86.5s7.16699 43.834 13.5 60.501s15 30.834 26 42.501s24.833 22.167 41.5 31.5c-16.667 9.33301 -30.5 19.833 -41.5 31.5s-19.667 25.834 -26 42.501s-10.833 36.834 -13.5 60.501s-4 52.5 -4 86.5v11
c0 30 -1.33301 55.833 -4 77.5s-8.33398 39.5 -17.001 53.5s-20.834 24.167 -36.501 30.5s-36.834 9.5 -63.501 9.5c-0.666992 3.33301 -1.16699 7.33301 -1.5 12s-0.5 9.66699 -0.5 15s0.166992 10.333 0.5 15s0.833008 9.33398 1.5 14.001
c68.667 0 116.834 -16.333 144.501 -49s41.5 -83 41.5 -151v-77c0 -24 1.83301 -44.833 5.5 -62.5s9.83398 -33.5 18.501 -47.5s19.834 -26.5 33.501 -37.5s30.167 -21.833 49.5 -32.5v-4c-19.333 -10.667 -35.833 -21.5 -49.5 -32.5s-24.834 -23.5 -33.501 -37.5
s-14.834 -29.833 -18.501 -47.5s-5.5 -38.5 -5.5 -62.5v-77z" />
    <glyph glyph-name="asciitilde" unicode="~" horiz-adv-x="478" 
d="M24 398c6.66699 8 15.0029 15.501 25.0029 22.501s20.833 13.333 32.5 19s23.667 10 36 13s24.166 4.5 35.499 4.5c15.333 0 30.5 -2.16699 45.5 -6.5s30 -9 45 -14s30 -9.5 45 -13.5s30.167 -6 45.5 -6c13.333 0 27.166 2.66699 41.499 8s29.5 15.666 45.5 30.999
c8.66699 -8 15.5 -16.5 20.5 -25.5s9.16699 -18.167 12.5 -27.5c-16.667 -14.667 -34.334 -26.334 -53.001 -35.001s-40.667 -13 -66 -13c-14.667 0 -29.667 2 -45 6s-30.5 8.5 -45.5 13.5s-30 9.66699 -45 14s-29.5 6.5 -43.5 6.5c-16 0 -32.167 -3.16699 -48.5 -9.5
s-32.5 -17.166 -48.5 -32.499c-15.333 10.667 -27 25.667 -35 45z" />
    <glyph glyph-name="uni00A0" unicode="&#xa0;" horiz-adv-x="0" 
 />
    <glyph glyph-name="exclamdown" unicode="&#xa1;" horiz-adv-x="283" 
d="M174 -206c-5.33301 -0.666992 -10.666 -1.16699 -15.999 -1.5s-10.666 -0.5 -15.999 -0.5c-6.66699 0 -13.167 0.166992 -19.5 0.5s-12.833 0.833008 -19.5 1.5l4 514c5.33301 0.666992 10.666 1.16699 15.999 1.5s10.666 0.5 15.999 0.5s10.5 -0.166992 15.5 -0.5
s10.167 -0.833008 15.5 -1.5zM184 513c2 -14 3 -28 3 -42c0 -14.667 -1 -29 -3 -43c-14 -2 -28 -3 -42 -3c-14.667 0 -29 1 -43 3c-2 14 -3 28 -3 42c0 14.667 1 29 3 43c14 2 28 3 42 3c14.667 0 29 -1 43 -3z" />
    <glyph glyph-name="cent" unicode="&#xa2;" 
d="M334 -10c-70.667 7.33301 -124.17 33.4961 -160.503 78.4961s-54.5 107.167 -54.5 186.5c0 34.667 4.5 67.334 13.5 98.001s22.5 57.834 40.5 81.501s40.5 42.834 67.5 57.501s58.167 24 93.5 28v118c18.667 4 37.667 4 57 0v-117
c21.333 -1.33301 41 -3.66602 59 -6.99902s32.667 -6.66602 44 -9.99902c0 -8.66699 -1.16699 -18.667 -3.5 -30s-4.83301 -20.333 -7.5 -27c-13.333 4.66699 -30.166 8.66699 -50.499 12s-42.166 5 -65.499 5c-30 0 -56.167 -5.16699 -78.5 -15.5s-41 -24.833 -56 -43.5
s-26.167 -40.667 -33.5 -66s-11 -53.333 -11 -84c0 -72 17.167 -124.833 51.5 -158.5s80.833 -50.5 139.5 -50.5c20 0 39.167 1.66699 57.5 5s34.833 7.66602 49.5 12.999c3.33301 -6.66699 6.5 -15.667 9.5 -27s5.16699 -20.666 6.5 -27.999
c-15.333 -5.33301 -32.166 -9.83301 -50.499 -13.5s-38.5 -6.16699 -60.5 -7.5v-106c-9.33301 -2.66699 -18.833 -3.83398 -28.5 -3.50098s-19.167 1.5 -28.5 3.5v108z" />
    <glyph glyph-name="sterling" unicode="&#xa3;" 
d="M117 10l23.001 22.999c12.667 12.667 23.334 26.667 32.001 42s15.667 31 21 47s9.16602 31.833 11.499 47.5s3.5 30.5 3.5 44.5c0 17.333 -1.33301 34.5 -4 51.5s-6 34.167 -10 51.5h-84c-0.666992 3.33301 -1.16699 7.33301 -1.5 12s-0.5 9.66699 -0.5 15
s0.166992 10.666 0.5 15.999s0.833008 9.66602 1.5 12.999h70c-5.33301 20.667 -9.66602 41.834 -12.999 63.501s-5 44.167 -5 67.5c0 30 4.16699 58.167 12.5 84.5s21.166 49.333 38.499 69s39.333 35 66 46s58.667 16.5 96 16.5c34 0 62.167 -2.66699 84.5 -8
s40.166 -10.666 53.499 -15.999c-1.33301 -12 -3.16602 -21.833 -5.49902 -29.5s-5.83301 -17.167 -10.5 -28.5c-18.667 8 -37.834 13.667 -57.501 17s-40.834 5 -63.501 5c-26 0 -48 -4 -66 -12s-32.667 -19 -44 -33s-19.666 -30.833 -24.999 -50.5s-8 -40.834 -8 -63.501
c0 -22 1.83301 -43.5 5.5 -64.5s8.16699 -42.167 13.5 -63.5h211c0.666992 -3.33301 1.16699 -7.66602 1.5 -12.999s0.5 -10.666 0.5 -15.999s-0.166992 -10.333 -0.5 -15s-0.833008 -8.66699 -1.5 -12h-198c3.33301 -17.333 6.33301 -34.5 9 -51.5s4 -34.167 4 -51.5
c0 -32 -4.16699 -62 -12.5 -90s-18.833 -48.333 -31.5 -61h282c0.666992 -4 1.16699 -9.16699 1.5 -15.5s0.5 -11.833 0.5 -16.5c0 -5.33301 -0.166992 -10.833 -0.5 -16.5s-0.833008 -10.5 -1.5 -14.5h-396z" />
    <glyph glyph-name="currency" unicode="&#xa4;" 
d="M87 352c0 24 3.83105 46.834 11.498 68.501s18.167 41.5 31.5 59.5l-84 84c5.33301 11.333 12.166 20.666 20.499 27.999s16.833 12.666 25.5 15.999l83 -84c17.333 12 36.5 21.5 57.5 28.5s43.167 10.5 66.5 10.5s45.666 -3.5 66.999 -10.5s40.666 -16.833 57.999 -29.5
l85 85c9.33301 -5.33301 17.833 -11.666 25.5 -18.999s14.167 -15 19.5 -23l-85 -86c13.333 -18 23.833 -37.833 31.5 -59.5s11.5 -44.5 11.5 -68.5c0 -23.333 -3.66699 -45.666 -11 -66.999s-17.666 -40.666 -30.999 -57.999l82 -82
c-5.33301 -9.33301 -11.666 -17.833 -18.999 -25.5s-14.666 -14.167 -21.999 -19.5l-85 83c-17.333 -13.333 -36.833 -23.5 -58.5 -30.5s-44.5 -10.5 -68.5 -10.5s-46.833 3.5 -68.5 10.5s-41.167 17.167 -58.5 30.5l-82 -81c-11.333 5.33301 -20.666 12 -27.999 20
s-12.666 16.333 -15.999 25l81 80c-12.667 17.333 -22.5 36.666 -29.5 57.999s-10.5 43.666 -10.5 66.999zM151.998 352.001c0 -21.333 3.66699 -41.166 11 -59.499s17.5 -34.333 30.5 -48s28.5 -24.5 46.5 -32.5s37.667 -12 59 -12s41 4 59 12s33.667 18.833 47 32.5
s23.666 29.667 30.999 48s11 38.166 11 59.499s-3.66699 41.333 -11 60s-17.666 34.834 -30.999 48.501s-29 24.5 -47 32.5s-37.667 12 -59 12s-41 -4 -59 -12s-33.5 -18.833 -46.5 -32.5s-23.167 -29.834 -30.5 -48.501s-11 -38.667 -11 -60z" />
    <glyph glyph-name="yen" unicode="&#xa5;" 
d="M268 157h-197.999c-2.66699 8 -4 17.333 -4 28c0 11.333 1.33301 21.333 4 30h198v101h-198c-2.66699 8 -4 17.333 -4 28c0 11.333 1.33301 21.333 4 30h163l-196 333c4 0.666992 9.66699 1.16699 17 1.5s14.333 0.5 21 0.5c6 0 13.167 -0.166992 21.5 -0.5
s14.833 -0.833008 19.5 -1.5l188 -320l185 320c5.33301 0.666992 11.166 1.16699 17.499 1.5s12.5 0.5 18.5 0.5c6.66699 0 13.667 -0.166992 21 -0.5s13 -0.833008 17 -1.5l-192 -333h165c2 -9.33301 3 -18.333 3 -27c0 -10.667 -1 -21 -3 -31h-199v-101h199
c2 -9.33301 3 -18.333 3 -27c0 -10.667 -1 -21 -3 -31h-199v-157c-4.66699 -0.666992 -10 -1.16699 -16 -1.5s-12 -0.5 -18 -0.5c-6.66699 0 -13.167 0.166992 -19.5 0.5s-11.5 0.833008 -15.5 1.5v157z" />
    <glyph glyph-name="brokenbar" unicode="&#xa6;" horiz-adv-x="327" 
d="M130 776c4.66699 0.666992 10.168 1.16699 16.501 1.5s12.166 0.5 17.499 0.5c6 0 11.833 -0.166992 17.5 -0.5s10.834 -0.833008 15.501 -1.5v-332c-4.66699 -0.666992 -9.83398 -1.16699 -15.501 -1.5s-11.5 -0.5 -17.5 -0.5c-6.66699 0 -13 0.166992 -19 0.5
s-11 0.833008 -15 1.5v332zM130.001 164c4.66699 0.666992 10.168 1.16699 16.501 1.5s12.166 0.5 17.499 0.5c6 0 11.833 -0.166992 17.5 -0.5s10.834 -0.833008 15.501 -1.5v-332c-4.66699 -0.666992 -9.83398 -1.16699 -15.501 -1.5s-11.5 -0.5 -17.5 -0.5
c-6.66699 0 -13 0.166992 -19 0.5s-11 0.833008 -15 1.5v332z" />
    <glyph glyph-name="section" unicode="&#xa7;" horiz-adv-x="555" 
d="M69 14c3.33301 14 6.00781 24.667 8.00781 32s5.33301 15.666 10 24.999c18.667 -7.33301 40 -13.833 64 -19.5s51.667 -8.5 83 -8.5c51.333 0 91.166 7.83301 119.499 23.5s42.5 36.167 42.5 61.5c0 12 -2.83301 22.333 -8.5 31s-13.334 16.334 -23.001 23.001
s-20.667 12.334 -33 17.001s-25.166 9 -38.499 13l-104 34c-24.667 8 -44.834 16.667 -60.501 26s-27.834 19.166 -36.501 29.499s-14.667 21.5 -18 33.5s-5 24.667 -5 38c0 24 5.16699 45.5 15.5 64.5s22.5 36.5 36.5 52.5c-9.33301 9.33301 -16.833 21.166 -22.5 35.499
s-8.5 30.833 -8.5 49.5c0 20.667 5.16699 39.834 15.5 57.501s24.5 32.834 42.5 45.501s39.667 22.5 65 29.5s53 10.5 83 10.5c34.667 0 63.667 -2.66699 87 -8s46.666 -11.666 69.999 -18.999c0 -10.667 -1.5 -20.334 -4.5 -29.001s-7.16699 -18 -12.5 -28
c-18.667 7.33301 -38 13.833 -58 19.5s-45.333 8.5 -76 8.5c-41.333 0 -75.333 -6.83301 -102 -20.5s-40 -34.834 -40 -63.501c0 -13.333 2.33301 -24.5 7 -33.5s11.167 -16.5 19.5 -22.5s18.166 -11.167 29.499 -15.5s23.666 -8.5 36.999 -12.5l127 -39
c30 -9.33301 55 -22.666 75 -39.999s30 -42.666 30 -75.999c0 -26.667 -5.33301 -50 -16 -70s-23.334 -38 -38.001 -54c9.33301 -10 17.166 -22 23.499 -36s9.5 -30.333 9.5 -49c0 -22 -5.33301 -41.833 -16 -59.5s-26 -32.834 -46 -45.501s-44.167 -22.334 -72.5 -29.001
s-60.5 -10 -96.5 -10c-32 0 -61.833 2.5 -89.5 7.5s-52.5 11.833 -74.5 20.5zM339.008 261c4.66699 -2 9.49902 -3.83301 14.499 -5.5s11.5 -4.16699 19.5 -7.5c4 3.33301 8.5 7.83301 13.5 13.5s9.83301 12 14.5 19s8.66699 14.833 12 23.5s5 18 5 28
c0 17.333 -6.83301 31.333 -20.5 42s-33.167 20 -58.5 28l-124 40l-22 8c-7.33301 2.66699 -13.666 5.33398 -18.999 8.00098c-7.33301 -7.33301 -15.666 -17.833 -24.999 -31.5s-14 -29.167 -14 -46.5c0 -18.667 6.16699 -33.834 18.5 -45.501s31.166 -22.167 56.499 -31.5
z" />
    <glyph glyph-name="dieresis" unicode="&#xa8;" horiz-adv-x="500" 
d="M114 613c-2 14 -3 28 -3 42c0 14.667 1 29 3 43c12.667 2 26 3 40 3s27.667 -1 41 -3c2 -14 3 -28 3 -42c0 -14.667 -1 -29 -3 -43c-13.333 -2 -26.666 -3 -39.999 -3c-14.667 0 -28.334 1 -41.001 3zM305 613c-2 14 -3 28 -3 42c0 14.667 1 29 3 43c12.667 2 26 3 40 3
s27.667 -1 41 -3c2 -14 3 -28 3 -42c0 -14.667 -1 -29 -3 -43c-13.333 -2 -26.666 -3 -39.999 -3c-14.667 0 -28.334 1 -41.001 3z" />
    <glyph glyph-name="copyright" unicode="&#xa9;" horiz-adv-x="864" 
d="M531 220c5.33301 -9.33301 9.33398 -17.5029 12.001 -24.5029s5.66699 -15.5 9 -25.5c-13.333 -6.66699 -29.5 -12.334 -48.5 -17.001s-38.167 -7 -57.5 -7c-30 0 -57.167 5 -81.5 15s-45 24.333 -62 43s-30 40.834 -39 66.501s-13.5 54.167 -13.5 85.5
c0 32 4.66699 61.333 14 88s22.5 49.667 39.5 69s37.5 34.333 61.5 45s50.667 16 80 16c24.667 0 44 -1.33301 58 -4s27.667 -6 41 -10c-1.33301 -11.333 -2.83301 -20.666 -4.5 -27.999s-4.83398 -15.666 -9.50098 -24.999c-14 4 -27.333 6.83301 -40 8.5
s-26.667 2.5 -42 2.5c-45.333 0 -79 -14.667 -101 -44s-33 -68.666 -33 -117.999c0 -50 12 -88.333 36 -115s57.667 -40 101 -40c14 0 28 1.66699 42 5s26.667 8 38 14zM432.001 45.9971c47.333 0 89.666 8.16699 126.999 24.5s69 38.666 95 66.999s46 61.5 60 99.5
s21 78.667 21 122s-7 84 -21 122s-34 71.167 -60 99.5s-57.667 50.666 -95 66.999s-79.666 24.5 -126.999 24.5s-89.666 -8.16699 -126.999 -24.5s-69 -38.666 -95 -66.999s-46 -61.5 -60 -99.5s-21 -78.667 -21 -122s7 -84 21 -122s34 -71.167 60 -99.5
s57.667 -50.666 95 -66.999s79.666 -24.5 126.999 -24.5zM432.001 -13.0029c-55.333 0 -105.833 9.49707 -151.5 28.4971s-84.667 45 -117 78s-57.5 72.167 -75.5 117.5s-27 94.666 -27 147.999c0 52.667 9 101.834 27 147.501s43.167 85 75.5 118s71.333 59 117 78
s96.167 28.5 151.5 28.5s105.833 -9.33301 151.5 -28s84.667 -44.667 117 -78s57.5 -72.666 75.5 -117.999s27 -94.666 27 -147.999s-9 -102.666 -27 -147.999s-43.167 -84.5 -75.5 -117.5s-71.333 -59 -117 -78s-96.167 -28.5 -151.5 -28.5z" />
    <glyph glyph-name="ordfeminine" unicode="&#xaa;" horiz-adv-x="500" 
d="M322 494c-9.33301 1.33301 -20.668 2.5 -34.001 3.5s-25.666 1.5 -36.999 1.5c-40.667 0 -72.334 -7 -95.001 -21s-34 -33.667 -34 -59c0 -16 3.33301 -29 10 -39s15.334 -17.5 26.001 -22.5s22.667 -8.33301 36 -10s26.333 -2.5 39 -2.5c16.667 0 32.167 0.5 46.5 1.5
s28.5 2.83301 42.5 5.5v142zM321.998 568c0 33.333 -8.66992 57.334 -26.0029 72.001s-43.333 22 -78 22c-20 0 -38.833 -1.5 -56.5 -4.5s-34.167 -6.83301 -49.5 -11.5c-3.33301 5.33301 -5.83301 13.833 -7.5 25.5s-2.5 21.5 -2.5 29.5c13.333 4 30.833 7.5 52.5 10.5
s44.167 4.5 67.5 4.5c54 0 94.333 -11.333 121 -34s40 -58.334 40 -107.001v-268c-19.333 -3.33301 -43.166 -6.83301 -71.499 -10.5s-55.166 -5.5 -80.499 -5.5c-57.333 0 -99.833 10 -127.5 30s-41.5 52 -41.5 96s16.333 77.833 49 101.5s75 35.5 127 35.5
c16.667 0 32.334 -0.5 47.001 -1.5s27 -2.16699 37 -3.5v19z" />
    <glyph glyph-name="guillemotleft" unicode="&#xab;" horiz-adv-x="601" 
d="M55 267l175 221c12 2 24.333 3 37 3s25.667 -1 39 -3l-171 -219l171 -223c-12 -2 -24.333 -3 -37 -3c-13.333 0 -26.333 1 -39 3zM297 267l175 221c12 2 24.333 3 37 3s25.667 -1 39 -3l-171 -219l171 -223c-12 -2 -24.333 -3 -37 -3c-13.333 0 -26.333 1 -39 3z" />
    <glyph glyph-name="logicalnot" unicode="&#xac;" 
d="M498 364l-0.00195312 -271.998c-3.33301 -0.666992 -8.33301 -1.16699 -15 -1.5s-12.667 -0.5 -18 -0.5s-11.666 0.166992 -18.999 0.5s-12.666 0.833008 -15.999 1.5v204h-342c-0.666992 3.33301 -1.16699 8.33301 -1.5 15s-0.5 12.667 -0.5 18
s0.166992 11.666 0.5 18.999s0.833008 12.666 1.5 15.999h410z" />
    <glyph glyph-name="uni00AD" unicode="&#xad;" horiz-adv-x="353" 
d="M308 318c0.666992 -3.33301 1.16699 -8.5 1.5 -15.5s0.5 -13.167 0.5 -18.5s-0.166992 -11.333 -0.5 -18s-0.833008 -11.667 -1.5 -15h-263c-0.666992 3.33301 -1.16699 8.33301 -1.5 15s-0.5 12.667 -0.5 18s0.166992 11.5 0.5 18.5s0.833008 12.167 1.5 15.5h263z" />
    <glyph glyph-name="registered" unicode="&#xae;" horiz-adv-x="864" 
d="M317 558c15.333 2 30.8311 3.49805 46.498 4.49805s32.834 1.5 51.501 1.5c18 0 36 -1.83301 54 -5.5s34.5 -10 49.5 -19s27.167 -21 36.5 -36s14 -34.167 14 -57.5c0 -15.333 -2.5 -29 -7.5 -41s-11.167 -22.667 -18.5 -32s-15.666 -17.333 -24.999 -24
s-18.333 -12 -27 -16l117 -160c-9.33301 -1.33301 -16.666 -2 -21.999 -2h-15h-16c-4.66699 0 -9.33398 0.333008 -14.001 1l-132 180l23 9c8 3.33301 16.5 7.33301 25.5 12s17.5 10.334 25.5 17.001s14.5 14.334 19.5 23.001s7.5 18.667 7.5 30
c0 22.667 -8.83301 39.667 -26.5 51s-38.834 17 -63.501 17c-14.667 0 -29.334 -1 -44.001 -3v-336c-3.33301 -0.666992 -7.33301 -1.16699 -12 -1.5s-10.667 -0.5 -18 -0.5s-13.166 0.166992 -17.499 0.5s-8.16602 0.833008 -11.499 1.5v386zM431.998 45.998
c47.333 0 89.666 8.16699 126.999 24.5s69 38.666 95 66.999s46 61.5 60 99.5s21 78.667 21 122s-7 84 -21 122s-34 71.167 -60 99.5s-57.667 50.666 -95 66.999s-79.666 24.5 -126.999 24.5s-89.666 -8.16699 -126.999 -24.5s-69 -38.666 -95 -66.999s-46 -61.5 -60 -99.5
s-21 -78.667 -21 -122s7 -84 21 -122s34 -71.167 60 -99.5s57.667 -50.666 95 -66.999s79.666 -24.5 126.999 -24.5zM431.998 -13.002c-55.333 0 -105.833 9.49707 -151.5 28.4971s-84.667 45 -117 78s-57.5 72.167 -75.5 117.5s-27 94.666 -27 147.999
c0 52.667 9 101.834 27 147.501s43.167 85 75.5 118s71.333 59 117 78s96.167 28.5 151.5 28.5s105.833 -9.33301 151.5 -28s84.667 -44.667 117 -78s57.5 -72.666 75.5 -117.999s27 -94.666 27 -147.999s-9 -102.666 -27 -147.999s-43.167 -84.5 -75.5 -117.5
s-71.333 -59 -117 -78s-96.167 -28.5 -151.5 -28.5z" />
    <glyph glyph-name="macron" unicode="&#xaf;" horiz-adv-x="500" 
d="M387 685c0.666992 -3.33301 1.16699 -7.83301 1.5 -13.5s0.5 -10.5 0.5 -14.5s-0.166992 -8.83301 -0.5 -14.5s-0.833008 -9.83398 -1.5 -12.501h-274c-0.666992 2.66699 -1.16699 6.83398 -1.5 12.501s-0.5 10.5 -0.5 14.5s0.166992 8.83301 0.5 14.5
s0.833008 10.167 1.5 13.5h274z" />
    <glyph glyph-name="degree" unicode="&#xb0;" horiz-adv-x="364" 
d="M42 584c0 20 3.83301 38.667 11.5 56s18 32.333 31 45s28.167 22.667 45.5 30s35.666 11 54.999 11s37.666 -3.66699 54.999 -11s32.5 -17.333 45.5 -30s23.333 -27.667 31 -45s11.5 -36 11.5 -56s-3.83301 -38.667 -11.5 -56s-18 -32.333 -31 -45
s-28.167 -22.667 -45.5 -30s-35.666 -11 -54.999 -11s-37.666 3.66699 -54.999 11s-32.5 17.333 -45.5 30s-23.333 27.667 -31 45s-11.5 36 -11.5 56zM101 584c0 -25.333 7.83301 -46.333 23.5 -63s35.834 -25 60.501 -25s44.834 8.33301 60.501 25s23.5 37.667 23.5 63
s-7.83301 46.333 -23.5 63s-35.834 25 -60.501 25s-44.834 -8.33301 -60.501 -25s-23.5 -37.667 -23.5 -63z" />
    <glyph glyph-name="plusminus" unicode="&#xb1;" 
d="M268 318l-171.998 -0.000976562c-1.33301 5.33301 -2 10.833 -2 16.5v16.5v16c0 5.33301 0.666992 10.666 2 15.999h172v185c5.33301 0.666992 10.666 1.16699 15.999 1.5s10.666 0.5 15.999 0.5s10.666 -0.166992 15.999 -0.5s11 -0.833008 17 -1.5v-185h172
c0.666992 -5.33301 1.16699 -10.666 1.5 -15.999s0.5 -10.666 0.5 -15.999s-0.166992 -10.833 -0.5 -16.5s-0.833008 -11.167 -1.5 -16.5h-172v-185c-6 -1.33301 -11.667 -2 -17 -2h-16h-16c-5.33301 0 -10.666 0.666992 -15.999 2v185zM513.002 69.999
c0.666992 -3.33301 1.16699 -8.66602 1.5 -15.999s0.5 -13.666 0.5 -18.999s-0.166992 -11.333 -0.5 -18s-0.833008 -11.667 -1.5 -15h-426c-0.666992 3.33301 -1.16699 8.33301 -1.5 15s-0.5 12.667 -0.5 18s0.166992 11.666 0.5 18.999s0.833008 12.666 1.5 15.999h426z
" />
    <glyph glyph-name="twosuperior" unicode="&#xb2;" horiz-adv-x="450" 
d="M204 362l173.998 0.000976562v-55h-298l-3 8l124 125c26 26 46.833 52 62.5 78s23.5 48.333 23.5 67c0 23.333 -8.16699 40 -24.5 50s-39.5 15 -69.5 15c-19.333 0 -35.666 -1.66699 -48.999 -5s-25.666 -6.66602 -36.999 -9.99902c-2 4 -4.16699 11.167 -6.5 21.5
s-4.5 21.166 -6.5 32.499c19.333 7.33301 37.333 12.166 54 14.499s34.667 3.5 54 3.5c46 0 82.5 -10 109.5 -30s40.5 -49 40.5 -87c0 -29.333 -7.5 -57.833 -22.5 -85.5s-37.833 -56.5 -68.5 -86.5z" />
    <glyph glyph-name="threesuperior" unicode="&#xb3;" horiz-adv-x="450" 
d="M355 707l5.00098 -9.99902l-101 -148c20.667 -2 38.334 -6.83301 53.001 -14.5s26.667 -17 36 -28s16.166 -22.833 20.499 -35.5s6.5 -24.667 6.5 -36c0 -22 -4.5 -41.667 -13.5 -59s-21.5 -32 -37.5 -44s-34.833 -21.167 -56.5 -27.5s-45.5 -9.5 -71.5 -9.5
c-22 0 -40.833 1.16699 -56.5 3.5s-33.834 6.16602 -54.501 11.499l15 54c32.667 -10 63.667 -15 93 -15c15.333 0 30 1.5 44 4.5s26.167 8 36.5 15s18.5 15.667 24.5 26s9 23.166 9 38.499c0 12.667 -2.83301 23.834 -8.5 33.501s-13 17.5 -22 23.5s-19.5 10.5 -31.5 13.5
s-24.333 4.5 -37 4.5h-18c-4.66699 0 -10 -0.666992 -16 -2l-4 6l95 143h-153v52h243z" />
    <glyph glyph-name="acute" unicode="&#xb4;" horiz-adv-x="500" 
d="M220 593c-12 -2 -25.667 -3 -41 -3c-10 0 -21 1 -33 3l117 130c7.33301 1.33301 14.833 2 22.5 2h22.5c8 0 16 -0.166992 24 -0.5s15.667 -0.833008 23 -1.5z" />
    <glyph glyph-name="mu" unicode="&#xb5;" horiz-adv-x="608" 
d="M88 510c4 0.666992 9.66797 1.16602 17.001 1.49902s12.666 0.5 15.999 0.5c4 0 9.5 -0.166992 16.5 -0.5s12.5 -0.833008 16.5 -1.5v-268c0 -61.333 10.833 -109.166 32.5 -143.499s58.167 -51.5 109.5 -51.5c16 0 33.333 2.66699 52 8s35.834 14.5 51.501 27.5
s28.667 30 39 51s15.5 47.5 15.5 79.5v297c4 0.666992 9.66699 1.16699 17 1.5s12.666 0.5 15.999 0.5c4 0 9.5 -0.166992 16.5 -0.5s12.5 -0.833008 16.5 -1.5v-510c-4 -0.666992 -9 -1.16699 -15 -1.5s-11 -0.5 -15 -0.5h-14.5c-6.33301 0 -11.5 0.666992 -15.5 2
c-2.66699 22 -4.66699 45.333 -6 70c-14 -21.333 -34.167 -40.333 -60.5 -57s-60.5 -25 -102.5 -25c-60.667 0 -106.334 22.333 -137.001 67v-291c-4 -0.666992 -9.66699 -1.16699 -17 -1.5s-12.666 -0.5 -15.999 -0.5c-4 0 -9.5 0.166992 -16.5 0.5
s-12.5 0.833008 -16.5 1.5v746z" />
    <glyph glyph-name="paragraph" unicode="&#xb6;" horiz-adv-x="550" 
d="M284 313l-12.999 0.000976562c-32.667 0 -62.5 4 -89.5 12s-50.333 20 -70 36s-34.834 36.167 -45.501 60.5s-16 53.166 -16 86.499c0 39.333 5.16699 72.833 15.5 100.5s27.166 50.167 50.499 67.5s53.833 29.833 91.5 37.5s83.834 11.5 138.501 11.5v-731
c-14.667 0 -26.5 0.5 -35.5 1.5s-17.833 2.5 -26.5 4.5v313zM430.001 725.001c14.667 0 26.5 -0.5 35.5 -1.5s17.833 -2.5 26.5 -4.5v-719c-8.66699 -2 -17.5 -3.5 -26.5 -4.5s-20.833 -1.5 -35.5 -1.5v731z" />
    <glyph glyph-name="periodcentered" unicode="&#xb7;" horiz-adv-x="205" 
d="M60 234c-2 14 -3 28 -3 42c0 14.667 1 29 3 43c14 2 28 3 42 3c14.667 0 29 -1 43 -3c2 -14 3 -28 3 -42c0 -14.667 -1 -29 -3 -43c-14 -2 -28 -3 -42 -3c-14.667 0 -29 1 -43 3z" />
    <glyph glyph-name="cedilla" unicode="&#xb8;" horiz-adv-x="500" 
d="M237 -61c3.33301 0.666992 6.49805 1 9.49805 1h9.5c34 0 59.167 -8 75.5 -24s24.5 -36.333 24.5 -61c0 -32 -12.333 -56 -37 -72s-58 -24 -100 -24c-8.66699 0 -20.167 0.833008 -34.5 2.5s-27.166 5.16699 -38.499 10.5c0 8.66699 0.666992 17.167 2 25.5
s4.33301 16.166 9 23.499c9.33301 -3.33301 19.333 -6.16602 30 -8.49902s21.334 -3.5 32.001 -3.5c22.667 0 40.667 3.83301 54 11.5s20 19.5 20 35.5c0 14.667 -6.5 25 -19.5 31s-30.167 9 -51.5 9c-9.33301 0 -18.333 -0.666992 -27 -2l-25 -4l-5 4l49 130h58z" />
    <glyph glyph-name="onesuperior" unicode="&#xb9;" horiz-adv-x="450" 
d="M113 584c-6.66699 6 -11.833 13.5 -15.5 22.5s-6.5 17.5 -8.5 25.5l184 79h12v-350h99c0.666992 -4.66699 1.16699 -9.16699 1.5 -13.5s0.5 -8.83301 0.5 -13.5s-0.166992 -9.16699 -0.5 -13.5s-0.833008 -8.83301 -1.5 -13.5h-270c-2 8.66699 -3 17.667 -3 27
c0 8.66699 1 17.667 3 27h106v267z" />
    <glyph glyph-name="ordmasculine" unicode="&#xba;" horiz-adv-x="500" 
d="M251 354c38.667 0 67.5 13.667 86.5 41s28.5 65.333 28.5 114c0 47.333 -9.5 84.666 -28.5 111.999s-47.833 41 -86.5 41c-39.333 0 -68.5 -13.667 -87.5 -41s-28.5 -64.666 -28.5 -111.999c0 -48.667 9.5 -86.667 28.5 -114s48.167 -41 87.5 -41zM251 295
c-30 0 -56.333 5.5 -79 16.5s-41.667 26 -57 45s-27 41.5 -35 67.5s-12 54.333 -12 85c0 29.333 4 56.833 12 82.5s19.667 48 35 67s34.333 33.833 57 44.5s49 16 79 16s56.333 -5.33301 79 -16s41.667 -25.5 57 -44.5s26.833 -41.333 34.5 -67s11.5 -53.167 11.5 -82.5
c0 -30.667 -3.83301 -59 -11.5 -85s-19.167 -48.5 -34.5 -67.5s-34.333 -34 -57 -45s-49 -16.5 -79 -16.5z" />
    <glyph glyph-name="guillemotright" unicode="&#xbb;" 
d="M304 267l-175 -221c-12 -2 -24.333 -3 -37 -3c-13.333 0 -26.333 1 -39 3l171 219l-171 223c12 2 24.333 3 37 3s25.667 -1 39 -3zM545 267l-175 -221c-12 -2 -24.333 -3 -37 -3c-13.333 0 -26.333 1 -39 3l171 219l-171 223c12 2 24.333 3 37 3s25.667 -1 39 -3z" />
    <glyph glyph-name="onequarter" unicode="&#xbc;" horiz-adv-x="1050" 
d="M90 584c-6.66699 6 -11.833 13.5 -15.5 22.5s-6.5 17.5 -8.5 25.5l184 79h12v-350h99c0.666992 -4.66699 1.16699 -9.16699 1.5 -13.5s0.5 -8.83301 0.5 -13.5s-0.166992 -9.16699 -0.5 -13.5s-0.833008 -8.83301 -1.5 -13.5h-270c-2 8.66699 -3 17.667 -3 27
c0 8.66699 1 17.667 3 27h106v267zM333.001 0c-6.66699 -1.33301 -13.001 -2 -19.001 -2h-18h-18.5c-6.33301 0 -12.166 0.666992 -17.499 2l484 707c5.33301 0.666992 10.833 1.16699 16.5 1.5s11.167 0.5 16.5 0.5c6.66699 0 13.167 -0.166992 19.5 -0.5
s12.833 -0.833008 19.5 -1.5zM721 140l126.998 -0.000976562v86c10 2 19.667 3 29 3c8.66699 0 18.667 -1 30 -3v-86h52c2 -7.33301 3 -16.666 3 -27.999c0 -5.33301 -0.166992 -10.5 -0.5 -15.5s-1.16602 -9.16699 -2.49902 -12.5h-52v-82
c-5.33301 -0.666992 -10 -1.16699 -14 -1.5s-8 -0.5 -12 -0.5c-5.33301 0 -10.666 0.166992 -15.999 0.5s-11 0.833008 -17 1.5v82h-212l-6 8l167 324c19.333 -3.33301 38.333 -9.33301 57 -18z" />
    <glyph glyph-name="onehalf" unicode="&#xbd;" horiz-adv-x="1050" 
d="M90 584c-6.66699 6 -11.833 13.5 -15.5 22.5s-6.5 17.5 -8.5 25.5l184 79h12v-350h99c0.666992 -4.66699 1.16699 -9.16699 1.5 -13.5s0.5 -8.83301 0.5 -13.5s-0.166992 -9.16699 -0.5 -13.5s-0.833008 -8.83301 -1.5 -13.5h-270c-2 8.66699 -3 17.667 -3 27
c0 8.66699 1 17.667 3 27h106v267zM786.001 57l173.998 0.000976562v-55h-298l-3 8l124 125c26 26 46.833 52 62.5 78s23.5 48.333 23.5 67c0 23.333 -8.16699 40 -24.5 50s-39.5 15 -69.5 15c-19.333 0 -35.666 -1.66699 -48.999 -5s-25.666 -6.66602 -36.999 -9.99902
c-2 4 -4.16699 11.167 -6.5 21.5s-4.5 21.166 -6.5 32.499c19.333 7.33301 37.333 12.166 54 14.499s34.667 3.5 54 3.5c46 0 82.5 -10 109.5 -30s40.5 -49 40.5 -87c0 -29.333 -7.5 -57.833 -22.5 -85.5s-37.833 -56.5 -68.5 -86.5zM314.999 0.000976562
c-6.66699 -1.33301 -13.001 -2 -19.001 -2h-18h-18.5c-6.33301 0 -12.166 0.666992 -17.499 2l484 707c5.33301 0.666992 10.833 1.16699 16.5 1.5s11.167 0.5 16.5 0.5c6.66699 0 13.167 -0.166992 19.5 -0.5s12.833 -0.833008 19.5 -1.5z" />
    <glyph glyph-name="threequarters" unicode="&#xbe;" horiz-adv-x="1050" 
d="M352 707l5.00098 -9.99902l-101 -148c20.667 -2 38.334 -6.83301 53.001 -14.5s26.667 -17 36 -28s16.166 -22.833 20.499 -35.5s6.5 -24.667 6.5 -36c0 -22 -4.5 -41.667 -13.5 -59s-21.5 -32 -37.5 -44s-34.833 -21.167 -56.5 -27.5s-45.5 -9.5 -71.5 -9.5
c-22 0 -40.833 1.16699 -56.5 3.5s-33.834 6.16602 -54.501 11.499l15 54c32.667 -10 63.667 -15 93 -15c15.333 0 30 1.5 44 4.5s26.167 8 36.5 15s18.5 15.667 24.5 26s9 23.166 9 38.499c0 12.667 -2.83301 23.834 -8.5 33.501s-13 17.5 -22 23.5s-19.5 10.5 -31.5 13.5
s-24.333 4.5 -37 4.5h-18c-4.66699 0 -10 -0.666992 -16 -2l-4 6l95 143h-153v52h243zM735.001 149.001l126.998 -0.000976562v86c10 2 19.667 3 29 3c8.66699 0 18.667 -1 30 -3v-86h52c2 -7.33301 3 -16.666 3 -27.999c0 -5.33301 -0.166992 -10.5 -0.5 -15.5
s-1.16602 -9.16699 -2.49902 -12.5h-52v-82c-5.33301 -0.666992 -10 -1.16699 -14 -1.5s-8 -0.5 -12 -0.5c-5.33301 0 -10.666 0.166992 -15.999 0.5s-11 0.833008 -17 1.5v82h-212l-6 8l167 324c19.333 -3.33301 38.333 -9.33301 57 -18zM341.999 0
c-6.66699 -1.33301 -13.001 -2 -19.001 -2h-18h-18.5c-6.33301 0 -12.166 0.666992 -17.499 2l484 707c5.33301 0.666992 10.833 1.16699 16.5 1.5s11.167 0.5 16.5 0.5c6.66699 0 13.167 -0.166992 19.5 -0.5s12.833 -0.833008 19.5 -1.5z" />
    <glyph glyph-name="questiondown" unicode="&#xbf;" horiz-adv-x="485" 
d="M316 155l-33.998 -11c-17.333 -5.33301 -34.333 -12.166 -51 -20.499s-31.834 -18.5 -45.501 -30.5s-24.667 -26.333 -33 -43s-12.5 -36 -12.5 -58c0 -45.333 16 -79.5 48 -102.5s73.667 -34.5 125 -34.5c31.333 0 56.333 2.33301 75 7s37 10 55 16
c4 -9.33301 7.33301 -18.666 10 -27.999l9 -32c-29.333 -9.33301 -55.833 -15.833 -79.5 -19.5s-50.167 -5.5 -79.5 -5.5c-78 0 -137 17.667 -177 53s-60 83.333 -60 144c0 34 7.33301 63.5 22 88.5s32 45.667 52 62s40.167 29.166 60.5 38.499s36.166 15.666 47.499 18.999
v112c6 0.666992 12 1.16699 18 1.5s11.667 0.5 17 0.5s11 -0.166992 17 -0.5s11.333 -0.833008 16 -1.5v-155zM323.002 513c2 -14 3 -28 3 -42c0 -14.667 -1 -29 -3 -43c-14 -2 -28 -3 -42 -3c-14.667 0 -29 1 -43 3c-2 14 -3 28 -3 42c0 14.667 1 29 3 43c14 2 28 3 42 3
c14.667 0 29 -1 43 -3z" />
    <glyph glyph-name="Agrave" unicode="&#xc0;" horiz-adv-x="602" 
d="M260 719c4.66699 0.666992 11 1.16699 19 1.5s15.333 0.5 22 0.5c7.33301 0 14.833 -0.166992 22.5 -0.5s13.834 -0.833008 18.501 -1.5l240 -719c-4 -0.666992 -9.66699 -1.16699 -17 -1.5s-14.333 -0.5 -21 -0.5c-6 0 -12.333 0.166992 -19 0.5
s-12.334 0.833008 -17.001 1.5l-60 183h-296l-57 -183c-5.33301 -0.666992 -11.5 -1.16699 -18.5 -1.5s-13.5 -0.5 -19.5 -0.5c-6.66699 0 -13.5 0.166992 -20.5 0.5s-12.5 0.833008 -16.5 1.5zM428 247l-129 400l-127 -400h256zM160 889c14.667 2 31 3 49 3
c16 0 31.667 -1 47 -3l111 -111c-12 -2 -23.667 -3 -35 -3c-16.667 0 -31 1 -43 3z" />
    <glyph glyph-name="Aacute" unicode="&#xc1;" horiz-adv-x="602" 
d="M260 719c4.66699 0.666992 11 1.16699 19 1.5s15.333 0.5 22 0.5c7.33301 0 14.833 -0.166992 22.5 -0.5s13.834 -0.833008 18.501 -1.5l240 -719c-4 -0.666992 -9.66699 -1.16699 -17 -1.5s-14.333 -0.5 -21 -0.5c-6 0 -12.333 0.166992 -19 0.5
s-12.334 0.833008 -17.001 1.5l-60 183h-296l-57 -183c-5.33301 -0.666992 -11.5 -1.16699 -18.5 -1.5s-13.5 -0.5 -19.5 -0.5c-6.66699 0 -13.5 0.166992 -20.5 0.5s-12.5 0.833008 -16.5 1.5zM428 247l-129 400l-127 -400h256zM302 778c-12 -2 -26.333 -3 -43 -3
c-11.333 0 -23 1 -35 3l111 111c14.667 2 30.334 3 47.001 3c17.333 0 33.666 -1 48.999 -3z" />
    <glyph glyph-name="Acircumflex" unicode="&#xc2;" horiz-adv-x="602" 
d="M260 719c4.66699 0.666992 11 1.16699 19 1.5s15.333 0.5 22 0.5c7.33301 0 14.833 -0.166992 22.5 -0.5s13.834 -0.833008 18.501 -1.5l240 -719c-4 -0.666992 -9.66699 -1.16699 -17 -1.5s-14.333 -0.5 -21 -0.5c-6 0 -12.333 0.166992 -19 0.5
s-12.334 0.833008 -17.001 1.5l-60 183h-296l-57 -183c-5.33301 -0.666992 -11.5 -1.16699 -18.5 -1.5s-13.5 -0.5 -19.5 -0.5c-6.66699 0 -13.5 0.166992 -20.5 0.5s-12.5 0.833008 -16.5 1.5zM428 247l-129 400l-127 -400h256zM461 778
c-6 -1.33301 -12.5 -2.16504 -19.5 -2.49805s-13.167 -0.5 -18.5 -0.5s-11.833 0.166992 -19.5 0.5s-15.5 1.16602 -23.5 2.49902l-79 70l-80 -70c-16 -2 -30.333 -3 -43 -3c-5.33301 0 -11.666 0.166992 -18.999 0.5s-14.333 1.16602 -21 2.49902l126 111
c12 2 24.333 3 37 3c11.333 0 23.666 -1 36.999 -3z" />
    <glyph glyph-name="Atilde" unicode="&#xc3;" horiz-adv-x="602" 
d="M260 719c4.66699 0.666992 11 1.16699 19 1.5s15.333 0.5 22 0.5c7.33301 0 14.833 -0.166992 22.5 -0.5s13.834 -0.833008 18.501 -1.5l240 -719c-4 -0.666992 -9.66699 -1.16699 -17 -1.5s-14.333 -0.5 -21 -0.5c-6 0 -12.333 0.166992 -19 0.5
s-12.334 0.833008 -17.001 1.5l-60 183h-296l-57 -183c-5.33301 -0.666992 -11.5 -1.16699 -18.5 -1.5s-13.5 -0.5 -19.5 -0.5c-6.66699 0 -13.5 0.166992 -20.5 0.5s-12.5 0.833008 -16.5 1.5zM428 247l-129 400l-127 -400h256zM223 845
c-15.333 0 -27.6689 -3.00098 -37.002 -9.00098s-19.666 -14 -30.999 -24c-11.333 13.333 -19.666 28 -24.999 44c10 10.667 23 21.167 39 31.5s33.667 15.5 53 15.5c14.667 0 29.5 -3 44.5 -9s29.667 -12.5 44 -19.5s28.333 -13.333 42 -19s27.167 -8.5 40.5 -8.5
s24.5 2.83301 33.5 8.5s19.5 14.167 31.5 25.5c5.33301 -7.33301 10 -14.833 14 -22.5s7.66699 -15.5 11 -23.5c-10.667 -10 -23.834 -19.833 -39.501 -29.5s-33.5 -14.5 -53.5 -14.5c-14.667 0 -29.167 2.83301 -43.5 8.5s-28.666 11.834 -42.999 18.501l-41.5 18.5
c-13.333 5.66699 -26.333 8.5 -39 8.5z" />
    <glyph glyph-name="Adieresis" unicode="&#xc4;" horiz-adv-x="602" 
d="M260 719c4.66699 0.666992 11 1.16699 19 1.5s15.333 0.5 22 0.5c7.33301 0 14.833 -0.166992 22.5 -0.5s13.834 -0.833008 18.501 -1.5l240 -719c-4 -0.666992 -9.66699 -1.16699 -17 -1.5s-14.333 -0.5 -21 -0.5c-6 0 -12.333 0.166992 -19 0.5
s-12.334 0.833008 -17.001 1.5l-60 183h-296l-57 -183c-5.33301 -0.666992 -11.5 -1.16699 -18.5 -1.5s-13.5 -0.5 -19.5 -0.5c-6.66699 0 -13.5 0.166992 -20.5 0.5s-12.5 0.833008 -16.5 1.5zM428 247l-129 400l-127 -400h256zM153 788c-2 14.667 -3 29.333 -3 44
s1 29.667 3 45c14.667 2 29 3 43 3c16 0 30.667 -1 44 -3c2 -15.333 3 -30 3 -44c0 -15.333 -1 -30.333 -3 -45c-13.333 -2 -27.666 -3 -42.999 -3c-14.667 0 -29.334 1 -44.001 3zM362 787.999c-2 14.667 -3 29.333 -3 44s1 29.667 3 45c12.667 2 27 3 43 3
c14 0 28.667 -1 44 -3c2 -15.333 3 -30 3 -44c0 -15.333 -1 -30.333 -3 -45c-15.333 -2 -29.666 -3 -42.999 -3c-16.667 0 -31.334 1 -44.001 3z" />
    <glyph glyph-name="Aring" unicode="&#xc5;" horiz-adv-x="602" 
d="M300 936c16.667 0 32.001 -3 46.001 -9s26 -14 36 -24s17.833 -21.833 23.5 -35.5s8.5 -28.5 8.5 -44.5c0 -24.667 -6.5 -46.5 -19.5 -65.5s-30.5 -32.5 -52.5 -40.5l240 -717c-4 -0.666992 -9.66699 -1.16699 -17 -1.5s-14.333 -0.5 -21 -0.5
c-6 0 -12.333 0.166992 -19 0.5s-12.334 0.833008 -17.001 1.5l-60 183h-296l-57 -183c-5.33301 -0.666992 -11.5 -1.16699 -18.5 -1.5s-13.5 -0.5 -19.5 -0.5c-6.66699 0 -13.5 0.166992 -20.5 0.5s-12.5 0.833008 -16.5 1.5l239 716c-22.667 8 -40.5 21.5 -53.5 40.5
s-19.5 41.167 -19.5 66.5c0 16 2.66699 30.833 8 44.5s13 25.5 23 35.5s22 18 36 24s29.667 9 47 9zM428.001 247l-129 400l-127 -400h256zM300.001 890c-19.333 0 -34 -6.33301 -44 -19s-15 -28.667 -15 -48s5 -35.333 15 -48s24.667 -19 44 -19s34 6.33301 44 19
s15 28.667 15 48s-5 35.333 -15 48s-24.667 19 -44 19z" />
    <glyph glyph-name="AE" unicode="&#xc6;" horiz-adv-x="896" 
d="M64 0c-15.333 -2 -29.333 -3 -42 -3c-14 0 -27 1 -39 3l437 719h422c0.666992 -4 1.16699 -8.83301 1.5 -14.5s0.5 -11.167 0.5 -16.5c0 -4.66699 -0.166992 -10.167 -0.5 -16.5s-0.833008 -11.5 -1.5 -15.5h-316v-263h254c0.666992 -4 1.16699 -8.83301 1.5 -14.5
s0.5 -11.167 0.5 -16.5c0 -4.66699 -0.166992 -10.167 -0.5 -16.5s-0.833008 -11.5 -1.5 -15.5h-254v-267h325c0.666992 -4 1.16699 -8.83301 1.5 -14.5s0.5 -11.167 0.5 -16.5c0 -4.66699 -0.166992 -10.167 -0.5 -16.5s-0.833008 -11.5 -1.5 -15.5h-394v184h-285zM457 661
h-4l-244 -414h248v414z" />
    <glyph glyph-name="Ccedilla" unicode="&#xc7;" horiz-adv-x="618" 
d="M549 82c5.33301 -10 9.99316 -19.6699 13.9932 -29.0029s7 -19 9 -29c-22.667 -11.333 -49.667 -20.166 -81 -26.499s-64.666 -9.5 -99.999 -9.5l-19 -48c3.33301 0.666992 6.33301 1 9 1h9c34 0 59.333 -8.16699 76 -24.5s25 -36.833 25 -61.5
c0 -32 -12.5 -56 -37.5 -72s-58.5 -24 -100.5 -24c-8.66699 0 -20.167 0.833008 -34.5 2.5s-27.166 5.16699 -38.499 10.5c0 8 0.666992 16.5 2 25.5s4.33301 17.167 9 24.5c9.33301 -3.33301 19.333 -6.16602 30 -8.49902s21.334 -3.5 32.001 -3.5
c22.667 0 40.667 3.66699 54 11s20 19 20 35c0 14.667 -6.5 25 -19.5 31s-30.167 9 -51.5 9c-9.33301 0 -18.333 -0.666992 -27 -2l-25 -4l-5 4l37 98c-41.333 6 -78.666 18.167 -111.999 36.5s-61.833 42.666 -85.5 72.999s-42 66.333 -55 108s-19.5 89.167 -19.5 142.5
c0 60 7.83301 113.5 23.5 160.5s37.667 86.667 66 119s62.666 57 102.999 74s85.5 25.5 135.5 25.5c42 0 77 -3 105 -9s48.333 -11 61 -15c-1.33301 -12 -3.16602 -22 -5.49902 -30s-5.83301 -17.667 -10.5 -29l-26.5 8c-9 2.66699 -19.167 5 -30.5 7s-24.5 3.66699 -39.5 5
s-32.5 2 -52.5 2c-39.333 0 -74.666 -7.16699 -105.999 -21.5s-58 -35.166 -80 -62.499s-39 -60.666 -51 -99.999s-18 -84 -18 -134c0 -51.333 6.66699 -96 20 -134s31.833 -69.5 55.5 -94.5s51.334 -43.5 83.001 -55.5s65.834 -18 102.501 -18c31.333 0 59.833 3 85.5 9
s47.167 13.667 64.5 23z" />
    <glyph glyph-name="Egrave" unicode="&#xc8;" horiz-adv-x="540" 
d="M101 719h385c0.666992 -4 1.16699 -8.83301 1.5 -14.5s0.5 -11.167 0.5 -16.5c0 -4.66699 -0.166992 -10.167 -0.5 -16.5s-0.833008 -11.5 -1.5 -15.5h-316v-243h254c0.666992 -4 1.16699 -8.83301 1.5 -14.5s0.5 -11.167 0.5 -16.5
c0 -4.66699 -0.166992 -10.167 -0.5 -16.5s-0.833008 -11.5 -1.5 -15.5h-254v-287h325c0.666992 -4 1.16699 -8.83301 1.5 -14.5s0.5 -11.167 0.5 -16.5c0 -4.66699 -0.166992 -10.167 -0.5 -16.5s-0.833008 -11.5 -1.5 -15.5h-394v719zM153 889c14.667 2 31 3 49 3
c16 0 31.667 -1 47 -3l111 -111c-12 -2 -23.667 -3 -35 -3c-16.667 0 -31 1 -43 3z" />
    <glyph glyph-name="Eacute" unicode="&#xc9;" horiz-adv-x="540" 
d="M101 719h385c0.666992 -4 1.16699 -8.83301 1.5 -14.5s0.5 -11.167 0.5 -16.5c0 -4.66699 -0.166992 -10.167 -0.5 -16.5s-0.833008 -11.5 -1.5 -15.5h-316v-243h254c0.666992 -4 1.16699 -8.83301 1.5 -14.5s0.5 -11.167 0.5 -16.5
c0 -4.66699 -0.166992 -10.167 -0.5 -16.5s-0.833008 -11.5 -1.5 -15.5h-254v-287h325c0.666992 -4 1.16699 -8.83301 1.5 -14.5s0.5 -11.167 0.5 -16.5c0 -4.66699 -0.166992 -10.167 -0.5 -16.5s-0.833008 -11.5 -1.5 -15.5h-394v719zM298 778c-12 -2 -26.333 -3 -43 -3
c-11.333 0 -23 1 -35 3l111 111c14.667 2 30.334 3 47.001 3c17.333 0 33.666 -1 48.999 -3z" />
    <glyph glyph-name="Ecircumflex" unicode="&#xca;" horiz-adv-x="540" 
d="M101 719h385c0.666992 -4 1.16699 -8.83301 1.5 -14.5s0.5 -11.167 0.5 -16.5c0 -4.66699 -0.166992 -10.167 -0.5 -16.5s-0.833008 -11.5 -1.5 -15.5h-316v-243h254c0.666992 -4 1.16699 -8.83301 1.5 -14.5s0.5 -11.167 0.5 -16.5
c0 -4.66699 -0.166992 -10.167 -0.5 -16.5s-0.833008 -11.5 -1.5 -15.5h-254v-287h325c0.666992 -4 1.16699 -8.83301 1.5 -14.5s0.5 -11.167 0.5 -16.5c0 -4.66699 -0.166992 -10.167 -0.5 -16.5s-0.833008 -11.5 -1.5 -15.5h-394v719zM452 778
c-6 -1.33301 -12.5 -2.16504 -19.5 -2.49805s-13.167 -0.5 -18.5 -0.5s-11.833 0.166992 -19.5 0.5s-15.5 1.16602 -23.5 2.49902l-79 70l-80 -70c-16 -2 -30.333 -3 -43 -3c-5.33301 0 -11.666 0.166992 -18.999 0.5s-14.333 1.16602 -21 2.49902l126 111
c12 2 24.333 3 37 3c11.333 0 23.666 -1 36.999 -3z" />
    <glyph glyph-name="Edieresis" unicode="&#xcb;" horiz-adv-x="540" 
d="M101 719h385c0.666992 -4 1.16699 -8.83301 1.5 -14.5s0.5 -11.167 0.5 -16.5c0 -4.66699 -0.166992 -10.167 -0.5 -16.5s-0.833008 -11.5 -1.5 -15.5h-316v-243h254c0.666992 -4 1.16699 -8.83301 1.5 -14.5s0.5 -11.167 0.5 -16.5
c0 -4.66699 -0.166992 -10.167 -0.5 -16.5s-0.833008 -11.5 -1.5 -15.5h-254v-287h325c0.666992 -4 1.16699 -8.83301 1.5 -14.5s0.5 -11.167 0.5 -16.5c0 -4.66699 -0.166992 -10.167 -0.5 -16.5s-0.833008 -11.5 -1.5 -15.5h-394v719zM145 788c-2 14.667 -3 29.333 -3 44
s1 29.667 3 45c14.667 2 29 3 43 3c16 0 30.667 -1 44 -3c2 -15.333 3 -30 3 -44c0 -15.333 -1 -30.333 -3 -45c-13.333 -2 -27.666 -3 -42.999 -3c-14.667 0 -29.334 1 -44.001 3zM354 787.999c-2 14.667 -3 29.333 -3 44s1 29.667 3 45c12.667 2 27 3 43 3
c14 0 28.667 -1 44 -3c2 -15.333 3 -30 3 -44c0 -15.333 -1 -30.333 -3 -45c-15.333 -2 -29.666 -3 -42.999 -3c-16.667 0 -31.334 1 -44.001 3z" />
    <glyph glyph-name="Igrave" unicode="&#xcc;" horiz-adv-x="271" 
d="M101 719c4.66699 0.666992 10.333 1.16699 17 1.5s12.667 0.5 18 0.5c6 0 12 -0.166992 18 -0.5s11.333 -0.833008 16 -1.5v-719c-4.66699 -0.666992 -10 -1.16699 -16 -1.5s-12 -0.5 -18 -0.5c-6.66699 0 -13.167 0.166992 -19.5 0.5s-11.5 0.833008 -15.5 1.5v719z
M2.99902 889c14.667 2 31 3 49 3c16 0 31.667 -1 47 -3l111 -111c-12 -2 -23.667 -3 -35 -3c-16.667 0 -31 1 -43 3z" />
    <glyph glyph-name="Iacute" unicode="&#xcd;" horiz-adv-x="271" 
d="M101 719c4.66699 0.666992 10.333 1.16699 17 1.5s12.667 0.5 18 0.5c6 0 12 -0.166992 18 -0.5s11.333 -0.833008 16 -1.5v-719c-4.66699 -0.666992 -10 -1.16699 -16 -1.5s-12 -0.5 -18 -0.5c-6.66699 0 -13.167 0.166992 -19.5 0.5s-11.5 0.833008 -15.5 1.5v719z
M141.999 778c-12 -2 -26.333 -3 -43 -3c-11.333 0 -23 1 -35 3l111 111c14.667 2 30.334 3 47.001 3c17.333 0 33.666 -1 48.999 -3z" />
    <glyph glyph-name="Icircumflex" unicode="&#xce;" horiz-adv-x="271" 
d="M101 719c4.66699 0.666992 10.333 1.16699 17 1.5s12.667 0.5 18 0.5c6 0 12 -0.166992 18 -0.5s11.333 -0.833008 16 -1.5v-719c-4.66699 -0.666992 -10 -1.16699 -16 -1.5s-12 -0.5 -18 -0.5c-6.66699 0 -13.167 0.166992 -19.5 0.5s-11.5 0.833008 -15.5 1.5v719z
M297.999 778c-6 -1.33301 -12.5 -2.16504 -19.5 -2.49805s-13.167 -0.5 -18.5 -0.5s-11.833 0.166992 -19.5 0.5s-15.5 1.16602 -23.5 2.49902l-79 70l-80 -70c-16 -2 -30.333 -3 -43 -3c-5.33301 0 -11.666 0.166992 -18.999 0.5s-14.333 1.16602 -21 2.49902l126 111
c12 2 24.333 3 37 3c11.333 0 23.666 -1 36.999 -3z" />
    <glyph glyph-name="Idieresis" unicode="&#xcf;" horiz-adv-x="271" 
d="M101 719c4.66699 0.666992 10.333 1.16699 17 1.5s12.667 0.5 18 0.5c6 0 12 -0.166992 18 -0.5s11.333 -0.833008 16 -1.5v-719c-4.66699 -0.666992 -10 -1.16699 -16 -1.5s-12 -0.5 -18 -0.5c-6.66699 0 -13.167 0.166992 -19.5 0.5s-11.5 0.833008 -15.5 1.5v719z
M-11.001 788c-2 14.667 -3 29.333 -3 44s1 29.667 3 45c14.667 2 29 3 43 3c16 0 30.667 -1 44 -3c2 -15.333 3 -30 3 -44c0 -15.333 -1 -30.333 -3 -45c-13.333 -2 -27.666 -3 -42.999 -3c-14.667 0 -29.334 1 -44.001 3zM197.999 787.999c-2 14.667 -3 29.333 -3 44
s1 29.667 3 45c12.667 2 27 3 43 3c14 0 28.667 -1 44 -3c2 -15.333 3 -30 3 -44c0 -15.333 -1 -30.333 -3 -45c-15.333 -2 -29.666 -3 -42.999 -3c-16.667 0 -31.334 1 -44.001 3z" />
    <glyph glyph-name="Eth" unicode="&#xd0;" horiz-adv-x="714" 
d="M116 390l0.00195312 329.001c9.33301 1.33301 20.833 2.66602 34.5 3.99902s28.167 2.5 43.5 3.5s30.666 1.83301 45.999 2.5s29.333 1 42 1c62.667 0 117.167 -8.5 163.5 -25.5s84.666 -41.333 114.999 -73s52.833 -70.334 67.5 -116.001s22 -97.167 22 -154.5
c0 -248.667 -122.667 -373 -368 -373c-14 0 -29 0.333008 -45 1s-31.5 1.5 -46.5 2.5s-29 2.33301 -42 4s-23.833 3.16699 -32.5 4.5v335h-93c-0.666992 2.66699 -1.16699 6.83398 -1.5 12.501s-0.5 10.5 -0.5 14.5s0.166992 8.83301 0.5 14.5s0.833008 10.167 1.5 13.5h93z
M185.002 390.001l179.001 0.000976562c0.666992 -3.33301 1.16699 -7.83301 1.5 -13.5s0.5 -10.5 0.5 -14.5s-0.166992 -8.83301 -0.5 -14.5s-0.833008 -9.83398 -1.5 -12.501h-179v-275c12 -1.33301 26.167 -2.66602 42.5 -3.99902s33.166 -2 50.499 -2
c46 0 87.5 5 124.5 15s68.5 27 94.5 51s46 55.833 60 95.5s21 89.167 21 148.5c0 103.333 -26.5 179.166 -79.5 227.499s-126.5 72.5 -220.5 72.5c-15.333 0 -31.833 -0.333008 -49.5 -1s-32.167 -2 -43.5 -4v-269z" />
    <glyph glyph-name="Ntilde" unicode="&#xd1;" horiz-adv-x="688" 
d="M101 719c4.66699 0.666992 10.834 1.16699 18.501 1.5s14.167 0.5 19.5 0.5s11.666 -0.166992 18.999 -0.5s13.333 -0.833008 18 -1.5l344 -602v602c4.66699 0.666992 9.83398 1.16699 15.501 1.5s11.5 0.5 17.5 0.5c5.33301 0 11.166 -0.166992 17.499 -0.5
s11.833 -0.833008 16.5 -1.5v-719c-4 -0.666992 -9.83301 -1.16699 -17.5 -1.5s-14.5 -0.5 -20.5 -0.5c-5.33301 0 -11.666 0.166992 -18.999 0.5s-13.333 0.833008 -18 1.5l-344 597v-597c-4.66699 -0.666992 -9.83398 -1.16699 -15.501 -1.5s-11.5 -0.5 -17.5 -0.5
c-6.66699 0 -13 0.166992 -19 0.5s-11 0.833008 -15 1.5v719zM261 845c-15.333 0 -27.6689 -3.00098 -37.002 -9.00098s-19.666 -14 -30.999 -24c-11.333 13.333 -19.666 28 -24.999 44c10 10.667 23 21.167 39 31.5s33.667 15.5 53 15.5c14.667 0 29.5 -3 44.5 -9
s29.667 -12.5 44 -19.5s28.333 -13.333 42 -19s27.167 -8.5 40.5 -8.5s24.5 2.83301 33.5 8.5s19.5 14.167 31.5 25.5c5.33301 -7.33301 10 -14.833 14 -22.5s7.66699 -15.5 11 -23.5c-10.667 -10 -23.834 -19.833 -39.501 -29.5s-33.5 -14.5 -53.5 -14.5
c-14.667 0 -29.167 2.83301 -43.5 8.5s-28.666 11.834 -42.999 18.501l-41.5 18.5c-13.333 5.66699 -26.333 8.5 -39 8.5z" />
    <glyph glyph-name="Ograve" unicode="&#xd2;" horiz-adv-x="722" 
d="M361 -12c-50 0 -93.667 9.16699 -131 27.5s-68.166 44 -92.499 77s-42.666 72.333 -54.999 118s-18.5 95.5 -18.5 149.5s6.16699 103.667 18.5 149s30.666 84.5 54.999 117.5s55.166 58.667 92.499 77s81 27.5 131 27.5s93.667 -9.16699 131 -27.5s68.166 -44 92.499 -77
s42.666 -72.167 54.999 -117.5s18.5 -95 18.5 -149s-6.16699 -103.833 -18.5 -149.5s-30.666 -85 -54.999 -118s-55.166 -58.667 -92.499 -77s-81 -27.5 -131 -27.5zM361 51c38.667 0 72 7.5 100 22.5s51.333 36.167 70 63.5s32.5 60 41.5 98s13.5 79.667 13.5 125
s-4.5 87 -13.5 125s-22.833 70.5 -41.5 97.5s-42 48 -70 63s-61.333 22.5 -100 22.5s-72.167 -7.5 -100.5 -22.5s-51.666 -36 -69.999 -63s-32 -59.5 -41 -97.5s-13.5 -79.667 -13.5 -125s4.5 -87 13.5 -125s22.667 -70.667 41 -98s41.666 -48.5 69.999 -63.5
s61.833 -22.5 100.5 -22.5zM216 889c14.667 2 31 3 49 3c16 0 31.667 -1 47 -3l111 -111c-12 -2 -23.667 -3 -35 -3c-16.667 0 -31 1 -43 3z" />
    <glyph glyph-name="Oacute" unicode="&#xd3;" horiz-adv-x="722" 
d="M361 -12c-50 0 -93.667 9.16699 -131 27.5s-68.166 44 -92.499 77s-42.666 72.333 -54.999 118s-18.5 95.5 -18.5 149.5s6.16699 103.667 18.5 149s30.666 84.5 54.999 117.5s55.166 58.667 92.499 77s81 27.5 131 27.5s93.667 -9.16699 131 -27.5s68.166 -44 92.499 -77
s42.666 -72.167 54.999 -117.5s18.5 -95 18.5 -149s-6.16699 -103.833 -18.5 -149.5s-30.666 -85 -54.999 -118s-55.166 -58.667 -92.499 -77s-81 -27.5 -131 -27.5zM361 51c38.667 0 72 7.5 100 22.5s51.333 36.167 70 63.5s32.5 60 41.5 98s13.5 79.667 13.5 125
s-4.5 87 -13.5 125s-22.833 70.5 -41.5 97.5s-42 48 -70 63s-61.333 22.5 -100 22.5s-72.167 -7.5 -100.5 -22.5s-51.666 -36 -69.999 -63s-32 -59.5 -41 -97.5s-13.5 -79.667 -13.5 -125s4.5 -87 13.5 -125s22.667 -70.667 41 -98s41.666 -48.5 69.999 -63.5
s61.833 -22.5 100.5 -22.5zM356 778c-12 -2 -26.333 -3 -43 -3c-11.333 0 -23 1 -35 3l111 111c14.667 2 30.334 3 47.001 3c17.333 0 33.666 -1 48.999 -3z" />
    <glyph glyph-name="Ocircumflex" unicode="&#xd4;" horiz-adv-x="722" 
d="M361 -12c-50 0 -93.667 9.16699 -131 27.5s-68.166 44 -92.499 77s-42.666 72.333 -54.999 118s-18.5 95.5 -18.5 149.5s6.16699 103.667 18.5 149s30.666 84.5 54.999 117.5s55.166 58.667 92.499 77s81 27.5 131 27.5s93.667 -9.16699 131 -27.5s68.166 -44 92.499 -77
s42.666 -72.167 54.999 -117.5s18.5 -95 18.5 -149s-6.16699 -103.833 -18.5 -149.5s-30.666 -85 -54.999 -118s-55.166 -58.667 -92.499 -77s-81 -27.5 -131 -27.5zM361 51c38.667 0 72 7.5 100 22.5s51.333 36.167 70 63.5s32.5 60 41.5 98s13.5 79.667 13.5 125
s-4.5 87 -13.5 125s-22.833 70.5 -41.5 97.5s-42 48 -70 63s-61.333 22.5 -100 22.5s-72.167 -7.5 -100.5 -22.5s-51.666 -36 -69.999 -63s-32 -59.5 -41 -97.5s-13.5 -79.667 -13.5 -125s4.5 -87 13.5 -125s22.667 -70.667 41 -98s41.666 -48.5 69.999 -63.5
s61.833 -22.5 100.5 -22.5zM522 778c-6 -1.33301 -12.5 -2.16504 -19.5 -2.49805s-13.167 -0.5 -18.5 -0.5s-11.833 0.166992 -19.5 0.5s-15.5 1.16602 -23.5 2.49902l-79 70l-80 -70c-16 -2 -30.333 -3 -43 -3c-5.33301 0 -11.666 0.166992 -18.999 0.5
s-14.333 1.16602 -21 2.49902l126 111c12 2 24.333 3 37 3c11.333 0 23.666 -1 36.999 -3z" />
    <glyph glyph-name="Otilde" unicode="&#xd5;" horiz-adv-x="722" 
d="M361 -12c-50 0 -93.667 9.16699 -131 27.5s-68.166 44 -92.499 77s-42.666 72.333 -54.999 118s-18.5 95.5 -18.5 149.5s6.16699 103.667 18.5 149s30.666 84.5 54.999 117.5s55.166 58.667 92.499 77s81 27.5 131 27.5s93.667 -9.16699 131 -27.5s68.166 -44 92.499 -77
s42.666 -72.167 54.999 -117.5s18.5 -95 18.5 -149s-6.16699 -103.833 -18.5 -149.5s-30.666 -85 -54.999 -118s-55.166 -58.667 -92.499 -77s-81 -27.5 -131 -27.5zM361 51c38.667 0 72 7.5 100 22.5s51.333 36.167 70 63.5s32.5 60 41.5 98s13.5 79.667 13.5 125
s-4.5 87 -13.5 125s-22.833 70.5 -41.5 97.5s-42 48 -70 63s-61.333 22.5 -100 22.5s-72.167 -7.5 -100.5 -22.5s-51.666 -36 -69.999 -63s-32 -59.5 -41 -97.5s-13.5 -79.667 -13.5 -125s4.5 -87 13.5 -125s22.667 -70.667 41 -98s41.666 -48.5 69.999 -63.5
s61.833 -22.5 100.5 -22.5zM278 845c-15.333 0 -27.6689 -3.00098 -37.002 -9.00098s-19.666 -14 -30.999 -24c-11.333 13.333 -19.666 28 -24.999 44c10 10.667 23 21.167 39 31.5s33.667 15.5 53 15.5c14.667 0 29.5 -3 44.5 -9s29.667 -12.5 44 -19.5
s28.333 -13.333 42 -19s27.167 -8.5 40.5 -8.5s24.5 2.83301 33.5 8.5s19.5 14.167 31.5 25.5c5.33301 -7.33301 10 -14.833 14 -22.5s7.66699 -15.5 11 -23.5c-10.667 -10 -23.834 -19.833 -39.501 -29.5s-33.5 -14.5 -53.5 -14.5c-14.667 0 -29.167 2.83301 -43.5 8.5
s-28.666 11.834 -42.999 18.501l-41.5 18.5c-13.333 5.66699 -26.333 8.5 -39 8.5z" />
    <glyph glyph-name="Odieresis" unicode="&#xd6;" horiz-adv-x="722" 
d="M361 -12c-50 0 -93.667 9.16699 -131 27.5s-68.166 44 -92.499 77s-42.666 72.333 -54.999 118s-18.5 95.5 -18.5 149.5s6.16699 103.667 18.5 149s30.666 84.5 54.999 117.5s55.166 58.667 92.499 77s81 27.5 131 27.5s93.667 -9.16699 131 -27.5s68.166 -44 92.499 -77
s42.666 -72.167 54.999 -117.5s18.5 -95 18.5 -149s-6.16699 -103.833 -18.5 -149.5s-30.666 -85 -54.999 -118s-55.166 -58.667 -92.499 -77s-81 -27.5 -131 -27.5zM361 51c38.667 0 72 7.5 100 22.5s51.333 36.167 70 63.5s32.5 60 41.5 98s13.5 79.667 13.5 125
s-4.5 87 -13.5 125s-22.833 70.5 -41.5 97.5s-42 48 -70 63s-61.333 22.5 -100 22.5s-72.167 -7.5 -100.5 -22.5s-51.666 -36 -69.999 -63s-32 -59.5 -41 -97.5s-13.5 -79.667 -13.5 -125s4.5 -87 13.5 -125s22.667 -70.667 41 -98s41.666 -48.5 69.999 -63.5
s61.833 -22.5 100.5 -22.5zM213 788c-2 14.667 -3 29.333 -3 44s1 29.667 3 45c14.667 2 29 3 43 3c16 0 30.667 -1 44 -3c2 -15.333 3 -30 3 -44c0 -15.333 -1 -30.333 -3 -45c-13.333 -2 -27.666 -3 -42.999 -3c-14.667 0 -29.334 1 -44.001 3zM422 787.999
c-2 14.667 -3 29.333 -3 44s1 29.667 3 45c12.667 2 27 3 43 3c14 0 28.667 -1 44 -3c2 -15.333 3 -30 3 -44c0 -15.333 -1 -30.333 -3 -45c-15.333 -2 -29.666 -3 -42.999 -3c-16.667 0 -31.334 1 -44.001 3z" />
    <glyph glyph-name="multiply" unicode="&#xd7;" 
d="M254 361l-128 129c12.667 16.667 28 32 46 46l128 -129l129 128c18 -14 33.333 -29.333 46 -46l-128 -128l128 -128c-14 -18.667 -29.333 -34 -46 -46l-128 128l-130 -129c-16.667 12.667 -32 28 -46 46z" />
    <glyph glyph-name="Oslash" unicode="&#xd8;" horiz-adv-x="722" 
d="M133 98c-23.333 33.333 -40.667 72.168 -52 116.501s-17 92.833 -17 145.5c0 54 6.16699 103.667 18.5 149s30.666 84.5 54.999 117.5s55.166 58.667 92.499 77s81 27.5 131 27.5c38.667 0 73.5 -5.66699 104.5 -17s58.167 -27.333 81.5 -48l39 53c12 2 23.667 3 35 3
s22.666 -1 33.999 -3l-69 -95c24 -32.667 42 -71.334 54 -116.001s18 -94 18 -148s-6.16699 -103.833 -18.5 -149.5s-30.666 -85 -54.999 -118s-55.166 -58.667 -92.499 -77s-81 -27.5 -131 -27.5c-40 0 -75.667 5.83301 -107 17.5s-59 28.167 -83 49.5l-40 -55
c-11.333 -2 -22.666 -3 -33.999 -3s-23 1 -35 3zM211.999 111.002c18 -19.333 39.333 -34.168 64 -44.501s53 -15.5 85 -15.5c38.667 0 72 7.5 100 22.5s51.333 36.167 70 63.5s32.5 60 41.5 98s13.5 79.667 13.5 125c0 40.667 -3.5 78.334 -10.5 113.001
s-18.167 65 -33.5 91zM506.999 611c-18 18 -39.001 32 -63.001 42s-51.667 15 -83 15c-38.667 0 -72.167 -7.5 -100.5 -22.5s-51.666 -36 -69.999 -63s-32 -59.5 -41 -97.5s-13.5 -79.667 -13.5 -125c0 -40 3.33301 -77 10 -111s17 -64 31 -90z" />
    <glyph glyph-name="Ugrave" unicode="&#xd9;" horiz-adv-x="676" 
d="M93 719c4.66699 0.666992 10.332 1.16797 16.999 1.50098s12.667 0.5 18 0.5c6 0 12 -0.166992 18 -0.5s11.333 -0.833008 16 -1.5v-434c0 -42 3.5 -77.5 10.5 -106.5s17.667 -52.833 32 -71.5s32.5 -32.167 54.5 -40.5s48.333 -12.5 79 -12.5
c60.667 0 105.167 17.667 133.5 53s42.5 94.666 42.5 177.999v434c4.66699 0.666992 10 1.16699 16 1.5s12 0.5 18 0.5c5.33301 0 11.333 -0.166992 18 -0.5s12.334 -0.833008 17.001 -1.5v-443c0 -96 -19.667 -168 -59 -216s-101.333 -72 -186 -72s-146.667 24 -186 72
s-59 120 -59 216v443zM198.998 889.001c14.667 2 31 3 49 3c16 0 31.667 -1 47 -3l111 -111c-12 -2 -23.667 -3 -35 -3c-16.667 0 -31 1 -43 3z" />
    <glyph glyph-name="Uacute" unicode="&#xda;" horiz-adv-x="676" 
d="M93 719c4.66699 0.666992 10.332 1.16797 16.999 1.50098s12.667 0.5 18 0.5c6 0 12 -0.166992 18 -0.5s11.333 -0.833008 16 -1.5v-434c0 -42 3.5 -77.5 10.5 -106.5s17.667 -52.833 32 -71.5s32.5 -32.167 54.5 -40.5s48.333 -12.5 79 -12.5
c60.667 0 105.167 17.667 133.5 53s42.5 94.666 42.5 177.999v434c4.66699 0.666992 10 1.16699 16 1.5s12 0.5 18 0.5c5.33301 0 11.333 -0.166992 18 -0.5s12.334 -0.833008 17.001 -1.5v-443c0 -96 -19.667 -168 -59 -216s-101.333 -72 -186 -72s-146.667 24 -186 72
s-59 120 -59 216v443zM356.998 778.001c-12 -2 -26.333 -3 -43 -3c-11.333 0 -23 1 -35 3l111 111c14.667 2 30.334 3 47.001 3c17.333 0 33.666 -1 48.999 -3z" />
    <glyph glyph-name="Ucircumflex" unicode="&#xdb;" horiz-adv-x="676" 
d="M93 719c4.66699 0.666992 10.332 1.16797 16.999 1.50098s12.667 0.5 18 0.5c6 0 12 -0.166992 18 -0.5s11.333 -0.833008 16 -1.5v-434c0 -42 3.5 -77.5 10.5 -106.5s17.667 -52.833 32 -71.5s32.5 -32.167 54.5 -40.5s48.333 -12.5 79 -12.5
c60.667 0 105.167 17.667 133.5 53s42.5 94.666 42.5 177.999v434c4.66699 0.666992 10 1.16699 16 1.5s12 0.5 18 0.5c5.33301 0 11.333 -0.166992 18 -0.5s12.334 -0.833008 17.001 -1.5v-443c0 -96 -19.667 -168 -59 -216s-101.333 -72 -186 -72s-146.667 24 -186 72
s-59 120 -59 216v443zM498.998 778.001c-6 -1.33301 -12.5 -2.16504 -19.5 -2.49805s-13.167 -0.5 -18.5 -0.5s-11.833 0.166992 -19.5 0.5s-15.5 1.16602 -23.5 2.49902l-79 70l-80 -70c-16 -2 -30.333 -3 -43 -3c-5.33301 0 -11.666 0.166992 -18.999 0.5
s-14.333 1.16602 -21 2.49902l126 111c12 2 24.333 3 37 3c11.333 0 23.666 -1 36.999 -3z" />
    <glyph glyph-name="Udieresis" unicode="&#xdc;" horiz-adv-x="676" 
d="M93 719c4.66699 0.666992 10.332 1.16797 16.999 1.50098s12.667 0.5 18 0.5c6 0 12 -0.166992 18 -0.5s11.333 -0.833008 16 -1.5v-434c0 -42 3.5 -77.5 10.5 -106.5s17.667 -52.833 32 -71.5s32.5 -32.167 54.5 -40.5s48.333 -12.5 79 -12.5
c60.667 0 105.167 17.667 133.5 53s42.5 94.666 42.5 177.999v434c4.66699 0.666992 10 1.16699 16 1.5s12 0.5 18 0.5c5.33301 0 11.333 -0.166992 18 -0.5s12.334 -0.833008 17.001 -1.5v-443c0 -96 -19.667 -168 -59 -216s-101.333 -72 -186 -72s-146.667 24 -186 72
s-59 120 -59 216v443zM189.998 788.001c-2 14.667 -3 29.333 -3 44s1 29.667 3 45c14.667 2 29 3 43 3c16 0 30.667 -1 44 -3c2 -15.333 3 -30 3 -44c0 -15.333 -1 -30.333 -3 -45c-13.333 -2 -27.666 -3 -42.999 -3c-14.667 0 -29.334 1 -44.001 3zM398.998 788
c-2 14.667 -3 29.333 -3 44s1 29.667 3 45c12.667 2 27 3 43 3c14 0 28.667 -1 44 -3c2 -15.333 3 -30 3 -44c0 -15.333 -1 -30.333 -3 -45c-15.333 -2 -29.666 -3 -42.999 -3c-16.667 0 -31.334 1 -44.001 3z" />
    <glyph glyph-name="Yacute" unicode="&#xdd;" horiz-adv-x="574" 
d="M255 267l-230.999 452c4 0.666992 9.66699 1.16699 17 1.5s14.333 0.5 21 0.5c6 0 13.167 -0.166992 21.5 -0.5s14.833 -0.833008 19.5 -1.5l188 -380l185 380c5.33301 0.666992 11.166 1.16699 17.499 1.5s12.5 0.5 18.5 0.5c6.66699 0 13.667 -0.166992 21 -0.5
s13 -0.833008 17 -1.5l-226 -452v-267c-4.66699 -0.666992 -10 -1.16699 -16 -1.5s-12 -0.5 -18 -0.5c-6.66699 0 -13.167 0.166992 -19.5 0.5s-11.5 0.833008 -15.5 1.5v267zM311.001 778c-12 -2 -26.333 -3 -43 -3c-11.333 0 -23 1 -35 3l111 111
c14.667 2 30.334 3 47.001 3c17.333 0 33.666 -1 48.999 -3z" />
    <glyph glyph-name="Thorn" unicode="&#xde;" horiz-adv-x="575" 
d="M170 606c14.667 1.33301 27.667 2.33594 39 3.00293s24.666 1 39.999 1c35.333 0 69.166 -4.33301 101.499 -13s60.666 -22.334 84.999 -41.001s43.666 -43 57.999 -73s21.5 -66 21.5 -108s-7.16699 -77.833 -21.5 -107.5s-33.666 -53.834 -57.999 -72.501
s-52.666 -32.334 -84.999 -41.001s-66.166 -13 -101.499 -13c-15.333 0 -28.666 0.333008 -39.999 1s-24.333 1.66699 -39 3v-145c-4.66699 -0.666992 -10 -1.16699 -16 -1.5s-12 -0.5 -18 -0.5c-6.66699 0 -13.167 0.166992 -19.5 0.5s-11.5 0.833008 -15.5 1.5v719
c4.66699 0.666992 10 1.16699 16 1.5s12 0.5 18 0.5c6.66699 0 13.167 -0.166992 19.5 -0.5s11.5 -0.833008 15.5 -1.5v-113zM244 205.003c24 0 47.666 2.00098 70.999 6.00098s44.5 12.167 63.5 24.5s34.333 29.666 46 51.999s17.5 51.833 17.5 88.5
c0 36 -5.83301 65.167 -17.5 87.5s-27 39.666 -46 51.999s-40.167 20.5 -63.5 24.5s-47 6 -71 6c-9.33301 0 -17.166 -0.166992 -23.499 -0.5s-12 -0.666016 -17 -0.999023s-10.167 -0.833008 -15.5 -1.5s-11.333 -1.33398 -18 -2.00098v-332
c6.66699 -0.666992 12.5 -1.16699 17.5 -1.5l15 -1c5 -0.333008 10.667 -0.666016 17 -0.999023s14.5 -0.5 24.5 -0.5z" />
    <glyph glyph-name="germandbls" unicode="&#xdf;" horiz-adv-x="547" 
d="M88 502c0 36.667 2.66699 69.834 8 99.501s14.666 54.834 27.999 75.501s31.333 36.667 54 48s51.667 17 87 17c54 0 95.167 -13.5 123.5 -40.5s42.5 -63.5 42.5 -109.5c0 -31.333 -4.66699 -57.666 -14 -78.999s-19.833 -40.333 -31.5 -57
s-22.167 -32.834 -31.5 -48.501s-14 -33.5 -14 -53.5c0 -14.667 4 -27.167 12 -37.5s18 -20 30 -29s25 -18.167 39 -27.5s27 -19.833 39 -31.5s22 -25.334 30 -41.001s12 -34.834 12 -57.501c0 -25.333 -4.16699 -47 -12.5 -65s-19.666 -32.667 -33.999 -44
s-31.5 -19.666 -51.5 -24.999s-41.667 -8 -65 -8c-26.667 0 -49.167 2.5 -67.5 7.5s-35.166 10.833 -50.499 17.5c2 9.33301 4.66699 19 8 29s7 19.667 11 29c14.667 -6 29.5 -11.5 44.5 -16.5s32.167 -7.5 51.5 -7.5c12 0 23.833 1 35.5 3s22 5.83301 31 11.5
s16.333 13.667 22 24s8.5 23.833 8.5 40.5c0 18.667 -4 33.834 -12 45.501s-17.833 22 -29.5 31s-24.334 17.5 -38.001 25.5s-26.334 17.333 -38.001 28s-21.5 23.5 -29.5 38.5s-12 33.833 -12 56.5c0 24 4.83301 45.167 14.5 63.5s20.167 36.166 31.5 53.499
s21.833 35.666 31.5 54.999s14.5 42 14.5 68c0 31.333 -9 54.833 -27 70.5s-41.667 23.5 -71 23.5c-24.667 0 -44.5 -3.66699 -59.5 -11s-26.5 -18.5 -34.5 -33.5s-13.333 -34.333 -16 -58s-4 -51.5 -4 -83.5v-499c-4 -0.666992 -9.5 -1.16699 -16.5 -1.5
s-12.5 -0.5 -16.5 -0.5c-3.33301 0 -8.66602 0.166992 -15.999 0.5s-13 0.833008 -17 1.5v502z" />
    <glyph glyph-name="agrave" unicode="&#xe0;" horiz-adv-x="513" 
d="M369 248c-11.333 1.33301 -25.499 2.83398 -42.499 4.50098s-33.167 2.5 -48.5 2.5c-50 0 -88.667 -9.33301 -116 -28s-41 -45.334 -41 -80.001c0 -22 4.16699 -39.667 12.5 -53s19.166 -23.5 32.499 -30.5s28 -11.667 44 -14s32 -3.5 48 -3.5c20.667 0 40 1 58 3
s35.667 4.66699 53 8v191zM369.001 337.001c0 44 -10.332 76.1689 -30.999 96.502s-51.334 30.5 -92.001 30.5c-26.667 0 -51 -1.83301 -73 -5.5s-41.667 -8.16699 -59 -13.5c-3.33301 6 -6.16602 14.667 -8.49902 26s-3.5 22 -3.5 32
c17.333 5.33301 38.666 9.83301 63.999 13.5s51.333 5.5 78 5.5c64.667 0 112.667 -14.167 144 -42.5s47 -72.833 47 -133.5v-337c-23.333 -4.66699 -51.666 -9.33398 -84.999 -14.001s-65 -7 -95 -7c-62 0 -110.833 12.333 -146.5 37s-53.5 64.667 -53.5 120
c0 26.667 5.16699 50.5 15.5 71.5s24.666 38.667 42.999 53s40.333 25.166 66 32.499s53.834 11 84.501 11c24 0 44.667 -0.833008 62 -2.5s31.666 -3.16699 42.999 -4.5v31zM111.002 723.003c7.33301 0.666992 15 1.16699 23 1.5s16 0.5 24 0.5h22.5
c7.66699 0 15.167 -0.666992 22.5 -2l117 -130c-12 -2 -23 -3 -33 -3c-15.333 0 -29 1 -41 3z" />
    <glyph glyph-name="aacute" unicode="&#xe1;" horiz-adv-x="513" 
d="M369 248c-11.333 1.33301 -25.499 2.83398 -42.499 4.50098s-33.167 2.5 -48.5 2.5c-50 0 -88.667 -9.33301 -116 -28s-41 -45.334 -41 -80.001c0 -22 4.16699 -39.667 12.5 -53s19.166 -23.5 32.499 -30.5s28 -11.667 44 -14s32 -3.5 48 -3.5c20.667 0 40 1 58 3
s35.667 4.66699 53 8v191zM369.001 337.001c0 44 -10.332 76.1689 -30.999 96.502s-51.334 30.5 -92.001 30.5c-26.667 0 -51 -1.83301 -73 -5.5s-41.667 -8.16699 -59 -13.5c-3.33301 6 -6.16602 14.667 -8.49902 26s-3.5 22 -3.5 32
c17.333 5.33301 38.666 9.83301 63.999 13.5s51.333 5.5 78 5.5c64.667 0 112.667 -14.167 144 -42.5s47 -72.833 47 -133.5v-337c-23.333 -4.66699 -51.666 -9.33398 -84.999 -14.001s-65 -7 -95 -7c-62 0 -110.833 12.333 -146.5 37s-53.5 64.667 -53.5 120
c0 26.667 5.16699 50.5 15.5 71.5s24.666 38.667 42.999 53s40.333 25.166 66 32.499s53.834 11 84.501 11c24 0 44.667 -0.833008 62 -2.5s31.666 -3.16699 42.999 -4.5v31zM246.002 593.003c-12 -2 -25.667 -3 -41 -3c-10 0 -21 1 -33 3l117 130
c7.33301 1.33301 14.833 2 22.5 2h22.5c8 0 16 -0.166992 24 -0.5s15.667 -0.833008 23 -1.5z" />
    <glyph glyph-name="acircumflex" unicode="&#xe2;" horiz-adv-x="513" 
d="M369 248c-11.333 1.33301 -25.499 2.83398 -42.499 4.50098s-33.167 2.5 -48.5 2.5c-50 0 -88.667 -9.33301 -116 -28s-41 -45.334 -41 -80.001c0 -22 4.16699 -39.667 12.5 -53s19.166 -23.5 32.499 -30.5s28 -11.667 44 -14s32 -3.5 48 -3.5c20.667 0 40 1 58 3
s35.667 4.66699 53 8v191zM369.001 337.001c0 44 -10.332 76.1689 -30.999 96.502s-51.334 30.5 -92.001 30.5c-26.667 0 -51 -1.83301 -73 -5.5s-41.667 -8.16699 -59 -13.5c-3.33301 6 -6.16602 14.667 -8.49902 26s-3.5 22 -3.5 32
c17.333 5.33301 38.666 9.83301 63.999 13.5s51.333 5.5 78 5.5c64.667 0 112.667 -14.167 144 -42.5s47 -72.833 47 -133.5v-337c-23.333 -4.66699 -51.666 -9.33398 -84.999 -14.001s-65 -7 -95 -7c-62 0 -110.833 12.333 -146.5 37s-53.5 64.667 -53.5 120
c0 26.667 5.16699 50.5 15.5 71.5s24.666 38.667 42.999 53s40.333 25.166 66 32.499s53.834 11 84.501 11c24 0 44.667 -0.833008 62 -2.5s31.666 -3.16699 42.999 -4.5v31zM413.002 593.003c-11.333 -2 -22.6689 -3 -34.002 -3c-6 0 -13 0.166992 -21 0.5
s-15.333 1.16602 -22 2.49902l-83 92l-83 -92c-7.33301 -1.33301 -14.833 -2.16602 -22.5 -2.49902s-14.5 -0.5 -20.5 -0.5c-12 0 -23.333 1 -34 3l117 129c6.66699 1.33301 13.834 2.16602 21.501 2.49902s14.834 0.5 21.501 0.5s14 -0.166992 22 -0.5
s15.333 -1.16602 22 -2.49902z" />
    <glyph glyph-name="atilde" unicode="&#xe3;" horiz-adv-x="513" 
d="M369 248c-11.333 1.33301 -25.499 2.83398 -42.499 4.50098s-33.167 2.5 -48.5 2.5c-50 0 -88.667 -9.33301 -116 -28s-41 -45.334 -41 -80.001c0 -22 4.16699 -39.667 12.5 -53s19.166 -23.5 32.499 -30.5s28 -11.667 44 -14s32 -3.5 48 -3.5c20.667 0 40 1 58 3
s35.667 4.66699 53 8v191zM369.001 337.001c0 44 -10.332 76.1689 -30.999 96.502s-51.334 30.5 -92.001 30.5c-26.667 0 -51 -1.83301 -73 -5.5s-41.667 -8.16699 -59 -13.5c-3.33301 6 -6.16602 14.667 -8.49902 26s-3.5 22 -3.5 32
c17.333 5.33301 38.666 9.83301 63.999 13.5s51.333 5.5 78 5.5c64.667 0 112.667 -14.167 144 -42.5s47 -72.833 47 -133.5v-337c-23.333 -4.66699 -51.666 -9.33398 -84.999 -14.001s-65 -7 -95 -7c-62 0 -110.833 12.333 -146.5 37s-53.5 64.667 -53.5 120
c0 26.667 5.16699 50.5 15.5 71.5s24.666 38.667 42.999 53s40.333 25.166 66 32.499s53.834 11 84.501 11c24 0 44.667 -0.833008 62 -2.5s31.666 -3.16699 42.999 -4.5v31zM114.002 616.003c-11.333 15.333 -19.332 30.668 -23.999 46.001c10 11.333 22 21.666 36 30.999
s31 14 51 14c16 0 30.5 -2.66699 43.5 -8s25.5 -11.166 37.5 -17.499s24 -12.166 36 -17.499s25 -8 39 -8c11.333 0 21.666 2.33301 30.999 7s20.666 13 33.999 25c10.667 -15.333 18.667 -31.333 24 -48c-10 -10.667 -22.167 -20.5 -36.5 -29.5
s-31.166 -13.5 -50.499 -13.5c-15.333 0 -29.5 2.66699 -42.5 8s-25.333 11.166 -37 17.499s-23.5 12.166 -35.5 17.499s-24.667 8 -38 8c-14 0 -25.667 -2.66699 -35 -8s-20.333 -13.333 -33 -24z" />
    <glyph glyph-name="adieresis" unicode="&#xe4;" horiz-adv-x="513" 
d="M369 248c-11.333 1.33301 -25.499 2.83398 -42.499 4.50098s-33.167 2.5 -48.5 2.5c-50 0 -88.667 -9.33301 -116 -28s-41 -45.334 -41 -80.001c0 -22 4.16699 -39.667 12.5 -53s19.166 -23.5 32.499 -30.5s28 -11.667 44 -14s32 -3.5 48 -3.5c20.667 0 40 1 58 3
s35.667 4.66699 53 8v191zM369.001 337.001c0 44 -10.332 76.1689 -30.999 96.502s-51.334 30.5 -92.001 30.5c-26.667 0 -51 -1.83301 -73 -5.5s-41.667 -8.16699 -59 -13.5c-3.33301 6 -6.16602 14.667 -8.49902 26s-3.5 22 -3.5 32
c17.333 5.33301 38.666 9.83301 63.999 13.5s51.333 5.5 78 5.5c64.667 0 112.667 -14.167 144 -42.5s47 -72.833 47 -133.5v-337c-23.333 -4.66699 -51.666 -9.33398 -84.999 -14.001s-65 -7 -95 -7c-62 0 -110.833 12.333 -146.5 37s-53.5 64.667 -53.5 120
c0 26.667 5.16699 50.5 15.5 71.5s24.666 38.667 42.999 53s40.333 25.166 66 32.499s53.834 11 84.501 11c24 0 44.667 -0.833008 62 -2.5s31.666 -3.16699 42.999 -4.5v31zM123.002 613.003c-2 14 -3 28 -3 42c0 14.667 1 29 3 43c12.667 2 26 3 40 3s27.667 -1 41 -3
c2 -14 3 -28 3 -42c0 -14.667 -1 -29 -3 -43c-13.333 -2 -26.666 -3 -39.999 -3c-14.667 0 -28.334 1 -41.001 3zM314.002 613.003c-2 14 -3 28 -3 42c0 14.667 1 29 3 43c12.667 2 26 3 40 3s27.667 -1 41 -3c2 -14 3 -28 3 -42c0 -14.667 -1 -29 -3 -43
c-13.333 -2 -26.666 -3 -39.999 -3c-14.667 0 -28.334 1 -41.001 3z" />
    <glyph glyph-name="aring" unicode="&#xe5;" horiz-adv-x="513" 
d="M369 248c-11.333 1.33301 -25.499 2.83398 -42.499 4.50098s-33.167 2.5 -48.5 2.5c-50 0 -88.667 -9.33301 -116 -28s-41 -45.334 -41 -80.001c0 -22 4.16699 -39.667 12.5 -53s19.166 -23.5 32.499 -30.5s28 -11.667 44 -14s32 -3.5 48 -3.5c20.667 0 40 1 58 3
s35.667 4.66699 53 8v191zM369.001 337.001c0 44 -10.332 76.1689 -30.999 96.502s-51.334 30.5 -92.001 30.5c-26.667 0 -51 -1.83301 -73 -5.5s-41.667 -8.16699 -59 -13.5c-3.33301 6 -6.16602 14.667 -8.49902 26s-3.5 22 -3.5 32
c17.333 5.33301 38.666 9.83301 63.999 13.5s51.333 5.5 78 5.5c64.667 0 112.667 -14.167 144 -42.5s47 -72.833 47 -133.5v-337c-23.333 -4.66699 -51.666 -9.33398 -84.999 -14.001s-65 -7 -95 -7c-62 0 -110.833 12.333 -146.5 37s-53.5 64.667 -53.5 120
c0 26.667 5.16699 50.5 15.5 71.5s24.666 38.667 42.999 53s40.333 25.166 66 32.499s53.834 11 84.501 11c24 0 44.667 -0.833008 62 -2.5s31.666 -3.16699 42.999 -4.5v31zM161.002 691.003c0 28.667 9.16797 52.834 27.501 72.501s42.833 29.5 73.5 29.5
c31.333 0 56.166 -9.83301 74.499 -29.5s27.5 -43.834 27.5 -72.501c0 -28 -9 -51.833 -27 -71.5s-43 -29.5 -75 -29.5c-31.333 0 -56 9.83301 -74 29.5s-27 43.5 -27 71.5zM211.003 691.003c0 -17.333 4 -31.166 12 -41.499s21 -15.5 39 -15.5c18.667 0 32 5.16699 40 15.5
s12 24.166 12 41.499s-4 31.333 -12 42s-21.333 16 -40 16c-18 0 -31 -5.33301 -39 -16s-12 -24.667 -12 -42z" />
    <glyph glyph-name="ae" unicode="&#xe6;" horiz-adv-x="849" 
d="M364 337c0 44 -10.5029 76.168 -31.5029 96.501s-51.833 30.5 -92.5 30.5c-26.667 0 -51 -1.83301 -73 -5.5s-41.667 -8.16699 -59 -13.5c-3.33301 6 -6.16602 14.667 -8.49902 26s-3.5 22 -3.5 32c17.333 5.33301 38.666 9.83301 63.999 13.5s51.333 5.5 78 5.5
c44 0 79.333 -7.5 106 -22.5s48.334 -39.5 65.001 -73.5c17.333 29.333 40.833 52.666 70.5 69.999s64.5 26 104.5 26c33.333 0 63 -5.66699 89 -17s47.833 -27.166 65.5 -47.499s31 -44.5 40 -72.5s13.5 -58.667 13.5 -92c0 -6 -0.166992 -13.667 -0.5 -23
s-0.833008 -17.333 -1.5 -24h-364c0 -36 3.66699 -66.667 11 -92s18.5 -46 33.5 -62s34.333 -27.5 58 -34.5s52.167 -10.5 85.5 -10.5c25.333 0 48.833 2.16699 70.5 6.5s42.834 10.166 63.501 17.499c3.33301 -7.33301 6 -16.333 8 -27s3.33301 -20.334 4 -29.001
c-19.333 -8.66699 -42 -15.334 -68 -20.001s-54.333 -7 -85 -7c-36 0 -69.167 4 -99.5 12s-56.5 21.667 -78.5 41c-20.667 -14 -48 -26.333 -82 -37s-69.333 -16 -106 -16c-29.333 0 -55.666 3 -78.999 9s-43.5 15.333 -60.5 28s-30 29 -39 49s-13.5 43.667 -13.5 71
c0 26.667 5.16699 50.334 15.5 71.001s24.666 38 42.999 52s40.333 24.667 66 32s53.834 11 84.501 11c23.333 0 44 -0.666992 62 -2s32.667 -2.66602 44 -3.99902v32zM361.997 247.001c-11.333 1.33301 -25.4961 2.66895 -42.4961 4.00195s-32.833 2 -47.5 2
c-50 0 -88.667 -9 -116 -27s-41 -44.333 -41 -79c0 -22 4.16699 -39.667 12.5 -53s18.666 -23.5 30.999 -30.5s26 -11.667 41 -14s29.167 -3.5 42.5 -3.5c10.667 0 22.667 0.5 36 1.5s26.666 3 39.999 6s26.666 7.16699 39.999 12.5s25.666 12.333 36.999 21
c-11.333 17.333 -19.5 38.666 -24.5 63.999s-7.5 50.666 -7.5 75.999zM726.001 301.004c0 20.667 -2.66797 40.833 -8.00098 60.5s-13.666 37.167 -24.999 52.5s-26 27.5 -44 36.5s-39.667 13.5 -65 13.5c-46.667 0 -83 -14.167 -109 -42.5s-41.667 -68.5 -47 -120.5h298z
" />
    <glyph glyph-name="ccedilla" unicode="&#xe7;" horiz-adv-x="480" 
d="M426 64c3.33301 -6.66699 6.49512 -15.666 9.49512 -26.999s5.16699 -20.666 6.5 -27.999c-16.667 -6 -35.667 -11 -57 -15s-45 -6 -71 -6h-12l-20 -49c3.33301 0.666992 6.5 1 9.5 1h9.5c34 0 59.167 -8 75.5 -24s24.5 -36.333 24.5 -61c0 -32 -12.333 -56 -37 -72
s-58 -24 -100 -24c-8.66699 0 -20.167 0.833008 -34.5 2.5s-27.166 5.16699 -38.499 10.5c0 8.66699 0.666992 17.167 2 25.5s4.33301 16.166 9 23.499c9.33301 -3.33301 19.333 -6.16602 30 -8.49902s21.334 -3.5 32.001 -3.5c22.667 0 40.667 3.83301 54 11.5
s20 19.5 20 35.5c0 14.667 -6.5 25 -19.5 31s-30.167 9 -51.5 9c-9.33301 0 -18.333 -0.666992 -27 -2l-25 -4l-5 4l37 100c-62 11.333 -108.833 39 -140.5 83s-47.5 103.333 -47.5 178c0 38 5.33301 73.167 16 105.5s26.334 60.5 47.001 84.5s46.5 42.833 77.5 56.5
s66.833 20.5 107.5 20.5c25.333 0 49.5 -1.83301 72.5 -5.5s41.167 -7.83398 54.5 -12.501c0 -8.66699 -1.16699 -18.667 -3.5 -30s-4.83301 -20.333 -7.5 -27c-13.333 4.66699 -30.166 8.66699 -50.499 12s-42.166 5 -65.499 5c-30 0 -56.167 -5.16699 -78.5 -15.5
s-41 -24.833 -56 -43.5s-26.167 -40.667 -33.5 -66s-11 -53.333 -11 -84c0 -72 17.167 -124.833 51.5 -158.5s80.833 -50.5 139.5 -50.5c20 0 39.167 1.66699 57.5 5s34.833 7.66602 49.5 12.999z" />
    <glyph glyph-name="egrave" unicode="&#xe8;" horiz-adv-x="553" 
d="M130 245c0 -68 15.666 -118 46.999 -150s78.333 -48 141 -48c25.333 0 48.833 2.16699 70.5 6.5s42.834 10.166 63.501 17.499c3.33301 -7.33301 6 -16.333 8 -27s3.33301 -20.334 4 -29.001c-19.333 -8.66699 -42 -15.334 -68 -20.001s-54.333 -7 -85 -7
c-44 0 -81.833 6.5 -113.5 19.5s-57.667 31.167 -78 54.5s-35.333 51.166 -45 83.499s-14.5 67.833 -14.5 106.5c0 37.333 4.5 72.333 13.5 105s22.667 61.334 41 86.001s41.833 44 70.5 58s63 21 103 21c33.333 0 63 -5.66699 89 -17s47.833 -27.166 65.5 -47.499
s31 -44.666 40 -72.999s13.5 -59.166 13.5 -92.499c0 -6 -0.166992 -13.667 -0.5 -23s-0.833008 -17.333 -1.5 -24h-364zM429.999 300c0 20.667 -2.66797 41 -8.00098 61s-13.666 37.5 -24.999 52.5s-26 27.167 -44 36.5s-39.667 14 -65 14c-46.667 0 -83 -14.333 -109 -43
s-41.667 -69 -47 -121h298zM156.998 723c7.33301 0.666992 15 1.16699 23 1.5s16 0.5 24 0.5h22.5c7.66699 0 15.167 -0.666992 22.5 -2l117 -130c-12 -2 -23 -3 -33 -3c-15.333 0 -29 1 -41 3z" />
    <glyph glyph-name="eacute" unicode="&#xe9;" horiz-adv-x="553" 
d="M130 245c0 -68 15.666 -118 46.999 -150s78.333 -48 141 -48c25.333 0 48.833 2.16699 70.5 6.5s42.834 10.166 63.501 17.499c3.33301 -7.33301 6 -16.333 8 -27s3.33301 -20.334 4 -29.001c-19.333 -8.66699 -42 -15.334 -68 -20.001s-54.333 -7 -85 -7
c-44 0 -81.833 6.5 -113.5 19.5s-57.667 31.167 -78 54.5s-35.333 51.166 -45 83.499s-14.5 67.833 -14.5 106.5c0 37.333 4.5 72.333 13.5 105s22.667 61.334 41 86.001s41.833 44 70.5 58s63 21 103 21c33.333 0 63 -5.66699 89 -17s47.833 -27.166 65.5 -47.499
s31 -44.666 40 -72.999s13.5 -59.166 13.5 -92.499c0 -6 -0.166992 -13.667 -0.5 -23s-0.833008 -17.333 -1.5 -24h-364zM429.999 300c0 20.667 -2.66797 41 -8.00098 61s-13.666 37.5 -24.999 52.5s-26 27.167 -44 36.5s-39.667 14 -65 14c-46.667 0 -83 -14.333 -109 -43
s-41.667 -69 -47 -121h298zM284.998 593c-12 -2 -25.667 -3 -41 -3c-10 0 -21 1 -33 3l117 130c7.33301 1.33301 14.833 2 22.5 2h22.5c8 0 16 -0.166992 24 -0.5s15.667 -0.833008 23 -1.5z" />
    <glyph glyph-name="ecircumflex" unicode="&#xea;" horiz-adv-x="553" 
d="M130 245c0 -68 15.666 -118 46.999 -150s78.333 -48 141 -48c25.333 0 48.833 2.16699 70.5 6.5s42.834 10.166 63.501 17.499c3.33301 -7.33301 6 -16.333 8 -27s3.33301 -20.334 4 -29.001c-19.333 -8.66699 -42 -15.334 -68 -20.001s-54.333 -7 -85 -7
c-44 0 -81.833 6.5 -113.5 19.5s-57.667 31.167 -78 54.5s-35.333 51.166 -45 83.499s-14.5 67.833 -14.5 106.5c0 37.333 4.5 72.333 13.5 105s22.667 61.334 41 86.001s41.833 44 70.5 58s63 21 103 21c33.333 0 63 -5.66699 89 -17s47.833 -27.166 65.5 -47.499
s31 -44.666 40 -72.999s13.5 -59.166 13.5 -92.499c0 -6 -0.166992 -13.667 -0.5 -23s-0.833008 -17.333 -1.5 -24h-364zM429.999 300c0 20.667 -2.66797 41 -8.00098 61s-13.666 37.5 -24.999 52.5s-26 27.167 -44 36.5s-39.667 14 -65 14c-46.667 0 -83 -14.333 -109 -43
s-41.667 -69 -47 -121h298zM444.998 593c-11.333 -2 -22.6689 -3 -34.002 -3c-6 0 -13 0.166992 -21 0.5s-15.333 1.16602 -22 2.49902l-83 92l-83 -92c-7.33301 -1.33301 -14.833 -2.16602 -22.5 -2.49902s-14.5 -0.5 -20.5 -0.5c-12 0 -23.333 1 -34 3l117 129
c6.66699 1.33301 13.834 2.16602 21.501 2.49902s14.834 0.5 21.501 0.5s14 -0.166992 22 -0.5s15.333 -1.16602 22 -2.49902z" />
    <glyph glyph-name="edieresis" unicode="&#xeb;" horiz-adv-x="553" 
d="M130 245c0 -68 15.666 -118 46.999 -150s78.333 -48 141 -48c25.333 0 48.833 2.16699 70.5 6.5s42.834 10.166 63.501 17.499c3.33301 -7.33301 6 -16.333 8 -27s3.33301 -20.334 4 -29.001c-19.333 -8.66699 -42 -15.334 -68 -20.001s-54.333 -7 -85 -7
c-44 0 -81.833 6.5 -113.5 19.5s-57.667 31.167 -78 54.5s-35.333 51.166 -45 83.499s-14.5 67.833 -14.5 106.5c0 37.333 4.5 72.333 13.5 105s22.667 61.334 41 86.001s41.833 44 70.5 58s63 21 103 21c33.333 0 63 -5.66699 89 -17s47.833 -27.166 65.5 -47.499
s31 -44.666 40 -72.999s13.5 -59.166 13.5 -92.499c0 -6 -0.166992 -13.667 -0.5 -23s-0.833008 -17.333 -1.5 -24h-364zM429.999 300c0 20.667 -2.66797 41 -8.00098 61s-13.666 37.5 -24.999 52.5s-26 27.167 -44 36.5s-39.667 14 -65 14c-46.667 0 -83 -14.333 -109 -43
s-41.667 -69 -47 -121h298zM146.998 613c-2 14 -3 28 -3 42c0 14.667 1 29 3 43c12.667 2 26 3 40 3s27.667 -1 41 -3c2 -14 3 -28 3 -42c0 -14.667 -1 -29 -3 -43c-13.333 -2 -26.666 -3 -39.999 -3c-14.667 0 -28.334 1 -41.001 3zM337.998 613c-2 14 -3 28 -3 42
c0 14.667 1 29 3 43c12.667 2 26 3 40 3s27.667 -1 41 -3c2 -14 3 -28 3 -42c0 -14.667 -1 -29 -3 -43c-13.333 -2 -26.666 -3 -39.999 -3c-14.667 0 -28.334 1 -41.001 3z" />
    <glyph glyph-name="igrave" unicode="&#xec;" horiz-adv-x="273" 
d="M119 454l-64.001 0.00195312c-0.666992 3.33301 -1.16699 7.33301 -1.5 12s-0.5 9.66699 -0.5 15s0.166992 10.666 0.5 15.999s0.833008 9.66602 1.5 12.999h130v-510c-4 -0.666992 -9.5 -1.16699 -16.5 -1.5s-12.5 -0.5 -16.5 -0.5
c-3.33301 0 -8.66602 0.166992 -15.999 0.5s-13 0.833008 -17 1.5v454zM14.999 723.002c7.33301 0.666992 15 1.16699 23 1.5s16 0.5 24 0.5h22.5c7.66699 0 15.167 -0.666992 22.5 -2l117 -130c-12 -2 -23 -3 -33 -3c-15.333 0 -29 1 -41 3z" />
    <glyph glyph-name="iacute" unicode="&#xed;" horiz-adv-x="273" 
d="M119 454l-64.001 0.00195312c-0.666992 3.33301 -1.16699 7.33301 -1.5 12s-0.5 9.66699 -0.5 15s0.166992 10.666 0.5 15.999s0.833008 9.66602 1.5 12.999h130v-510c-4 -0.666992 -9.5 -1.16699 -16.5 -1.5s-12.5 -0.5 -16.5 -0.5
c-3.33301 0 -8.66602 0.166992 -15.999 0.5s-13 0.833008 -17 1.5v454zM126.999 593.002c-12 -2 -25.667 -3 -41 -3c-10 0 -21 1 -33 3l117 130c7.33301 1.33301 14.833 2 22.5 2h22.5c8 0 16 -0.166992 24 -0.5s15.667 -0.833008 23 -1.5z" />
    <glyph glyph-name="icircumflex" unicode="&#xee;" horiz-adv-x="273" 
d="M119 454l-64.001 0.00195312c-0.666992 3.33301 -1.16699 7.33301 -1.5 12s-0.5 9.66699 -0.5 15s0.166992 10.666 0.5 15.999s0.833008 9.66602 1.5 12.999h130v-510c-4 -0.666992 -9.5 -1.16699 -16.5 -1.5s-12.5 -0.5 -16.5 -0.5
c-3.33301 0 -8.66602 0.166992 -15.999 0.5s-13 0.833008 -17 1.5v454zM297.999 593.002c-11.333 -2 -22.6689 -3 -34.002 -3c-6 0 -13 0.166992 -21 0.5s-15.333 1.16602 -22 2.49902l-83 92l-83 -92c-7.33301 -1.33301 -14.833 -2.16602 -22.5 -2.49902
s-14.5 -0.5 -20.5 -0.5c-12 0 -23.333 1 -34 3l117 129c6.66699 1.33301 13.834 2.16602 21.501 2.49902s14.834 0.5 21.501 0.5s14 -0.166992 22 -0.5s15.333 -1.16602 22 -2.49902z" />
    <glyph glyph-name="idieresis" unicode="&#xef;" horiz-adv-x="273" 
d="M119 454l-64.001 0.00195312c-0.666992 3.33301 -1.16699 7.33301 -1.5 12s-0.5 9.66699 -0.5 15s0.166992 10.666 0.5 15.999s0.833008 9.66602 1.5 12.999h130v-510c-4 -0.666992 -9.5 -1.16699 -16.5 -1.5s-12.5 -0.5 -16.5 -0.5
c-3.33301 0 -8.66602 0.166992 -15.999 0.5s-13 0.833008 -17 1.5v454zM1.99902 613.002c-2 14 -3 28 -3 42c0 14.667 1 29 3 43c12.667 2 26 3 40 3s27.667 -1 41 -3c2 -14 3 -28 3 -42c0 -14.667 -1 -29 -3 -43c-13.333 -2 -26.666 -3 -39.999 -3
c-14.667 0 -28.334 1 -41.001 3zM192.999 613.002c-2 14 -3 28 -3 42c0 14.667 1 29 3 43c12.667 2 26 3 40 3s27.667 -1 41 -3c2 -14 3 -28 3 -42c0 -14.667 -1 -29 -3 -43c-13.333 -2 -26.666 -3 -39.999 -3c-14.667 0 -28.334 1 -41.001 3z" />
    <glyph glyph-name="eth" unicode="&#xf0;" horiz-adv-x="588" 
d="M282 645c-18 9.33301 -37.001 16.667 -57.001 22s-41 10 -63 14c-0.666992 3.33301 -1 10.666 -1 21.999c0 4.66699 0.666992 10.5 2 17.5s3 12.5 5 16.5c67.333 -7.33301 125 -25.666 173 -54.999l94 56c7.33301 -5.33301 13.666 -12.5 18.999 -21.5l14 -24.5l-78 -46
c44.667 -40.667 79 -92 103 -154s36 -132.333 36 -211c0 -91.333 -19 -163 -57 -215s-97.333 -78 -178 -78c-40 0 -74.667 6.16699 -104 18.5s-53.833 29.5 -73.5 51.5s-34.167 48.333 -43.5 79s-14 64.334 -14 101.001c0 35.333 4.66699 68.333 14 99
s23.5 57.167 42.5 79.5s42.5 39.833 70.5 52.5s61 19 99 19c24.667 0 50 -3.66699 76 -11s47.667 -18.333 65 -33c3.33301 -3.33301 6.5 -6.66602 9.5 -9.99902s6.16699 -6.66602 9.5 -9.99902c-1.33301 5.33301 -2.83301 10.666 -4.5 15.999s-3.5 10.666 -5.5 15.999
c-12.667 36 -27.167 66.667 -43.5 92s-35.166 46.666 -56.499 63.999l-104 -63c-8 7.33301 -14.167 15 -18.5 23s-8.16602 16 -11.499 24zM293.999 49.001c55.333 0 95.833 17 121.5 51s38.5 80 38.5 138c0 62.667 -13 109.667 -39 141s-66.333 47 -121 47
c-49.333 0 -88.333 -15.667 -117 -47s-43 -78.333 -43 -141c0 -58 13 -104 39 -138s66.333 -51 121 -51z" />
    <glyph glyph-name="ntilde" unicode="&#xf1;" horiz-adv-x="572" 
d="M88 510c5.33301 0.666992 10.4961 1.16602 15.4961 1.49902s9.83301 0.5 14.5 0.5c5.33301 0 10.333 -0.166992 15 -0.5s9.66699 -0.833008 15 -1.5c1.33301 -12 2.33301 -27 3 -45s1 -33.667 1 -47c6.66699 12 15.334 24.167 26.001 36.5s23.167 23.5 37.5 33.5
s30.833 18.167 49.5 24.5s39 9.5 61 9.5c58.667 0 101.334 -17.5 128.001 -52.5s40 -84.167 40 -147.5v-322c-4 -0.666992 -9.5 -1.16699 -16.5 -1.5s-12.5 -0.5 -16.5 -0.5c-3.33301 0 -8.66602 0.166992 -15.999 0.5s-13 0.833008 -17 1.5v302
c0 56.667 -8.83301 97.334 -26.5 122.001s-44.167 37 -79.5 37c-23.333 0 -45.333 -4.66699 -66 -14s-38.5 -22.833 -53.5 -40.5s-26.833 -39.5 -35.5 -65.5s-13 -55.667 -13 -89v-252c-4 -0.666992 -9.5 -1.16699 -16.5 -1.5s-12.5 -0.5 -16.5 -0.5
c-3.33301 0 -8.66602 0.166992 -15.999 0.5s-13 0.833008 -17 1.5v510zM143.996 615.999c-11.333 15.333 -19.332 30.668 -23.999 46.001c10 11.333 22 21.666 36 30.999s31 14 51 14c16 0 30.5 -2.66699 43.5 -8s25.5 -11.166 37.5 -17.499s24 -12.166 36 -17.499
s25 -8 39 -8c11.333 0 21.666 2.33301 30.999 7s20.666 13 33.999 25c10.667 -15.333 18.667 -31.333 24 -48c-10 -10.667 -22.167 -20.5 -36.5 -29.5s-31.166 -13.5 -50.499 -13.5c-15.333 0 -29.5 2.66699 -42.5 8s-25.333 11.166 -37 17.499s-23.5 12.166 -35.5 17.499
s-24.667 8 -38 8c-14 0 -25.667 -2.66699 -35 -8s-20.333 -13.333 -33 -24z" />
    <glyph glyph-name="ograve" unicode="&#xf2;" horiz-adv-x="574" 
d="M287 46c53.333 0 93.166 18.667 119.499 56s39.5 88.333 39.5 153s-13.167 115.667 -39.5 153s-66.166 56 -119.499 56s-93.166 -18.667 -119.499 -56s-39.5 -88.333 -39.5 -153s13.167 -115.667 39.5 -153s66.166 -56 119.499 -56zM287 -12
c-38 0 -71.333 6.83301 -100 20.5s-52.5 32.5 -71.5 56.5s-33.167 52.333 -42.5 85s-14 67.667 -14 105s4.66699 72.333 14 105s23.5 61 42.5 85s42.833 42.833 71.5 56.5s62 20.5 100 20.5s71.167 -6.83301 99.5 -20.5s52 -32.5 71 -56.5s33.333 -52.333 43 -85
s14.5 -67.667 14.5 -105s-4.83301 -72.333 -14.5 -105s-24 -61 -43 -85s-42.667 -42.833 -71 -56.5s-61.5 -20.5 -99.5 -20.5zM156 723c7.33301 0.666992 15 1.16699 23 1.5s16 0.5 24 0.5h22.5c7.66699 0 15.167 -0.666992 22.5 -2l117 -130c-12 -2 -23 -3 -33 -3
c-15.333 0 -29 1 -41 3z" />
    <glyph glyph-name="oacute" unicode="&#xf3;" horiz-adv-x="574" 
d="M287 46c53.333 0 93.166 18.667 119.499 56s39.5 88.333 39.5 153s-13.167 115.667 -39.5 153s-66.166 56 -119.499 56s-93.166 -18.667 -119.499 -56s-39.5 -88.333 -39.5 -153s13.167 -115.667 39.5 -153s66.166 -56 119.499 -56zM287 -12
c-38 0 -71.333 6.83301 -100 20.5s-52.5 32.5 -71.5 56.5s-33.167 52.333 -42.5 85s-14 67.667 -14 105s4.66699 72.333 14 105s23.5 61 42.5 85s42.833 42.833 71.5 56.5s62 20.5 100 20.5s71.167 -6.83301 99.5 -20.5s52 -32.5 71 -56.5s33.333 -52.333 43 -85
s14.5 -67.667 14.5 -105s-4.83301 -72.333 -14.5 -105s-24 -61 -43 -85s-42.667 -42.833 -71 -56.5s-61.5 -20.5 -99.5 -20.5zM276 593c-12 -2 -25.667 -3 -41 -3c-10 0 -21 1 -33 3l117 130c7.33301 1.33301 14.833 2 22.5 2h22.5c8 0 16 -0.166992 24 -0.5
s15.667 -0.833008 23 -1.5z" />
    <glyph glyph-name="ocircumflex" unicode="&#xf4;" horiz-adv-x="574" 
d="M287 46c53.333 0 93.166 18.667 119.499 56s39.5 88.333 39.5 153s-13.167 115.667 -39.5 153s-66.166 56 -119.499 56s-93.166 -18.667 -119.499 -56s-39.5 -88.333 -39.5 -153s13.167 -115.667 39.5 -153s66.166 -56 119.499 -56zM287 -12
c-38 0 -71.333 6.83301 -100 20.5s-52.5 32.5 -71.5 56.5s-33.167 52.333 -42.5 85s-14 67.667 -14 105s4.66699 72.333 14 105s23.5 61 42.5 85s42.833 42.833 71.5 56.5s62 20.5 100 20.5s71.167 -6.83301 99.5 -20.5s52 -32.5 71 -56.5s33.333 -52.333 43 -85
s14.5 -67.667 14.5 -105s-4.83301 -72.333 -14.5 -105s-24 -61 -43 -85s-42.667 -42.833 -71 -56.5s-61.5 -20.5 -99.5 -20.5zM447 593c-11.333 -2 -22.6689 -3 -34.002 -3c-6 0 -13 0.166992 -21 0.5s-15.333 1.16602 -22 2.49902l-83 92l-83 -92
c-7.33301 -1.33301 -14.833 -2.16602 -22.5 -2.49902s-14.5 -0.5 -20.5 -0.5c-12 0 -23.333 1 -34 3l117 129c6.66699 1.33301 13.834 2.16602 21.501 2.49902s14.834 0.5 21.501 0.5s14 -0.166992 22 -0.5s15.333 -1.16602 22 -2.49902z" />
    <glyph glyph-name="otilde" unicode="&#xf5;" horiz-adv-x="574" 
d="M287 46c53.333 0 93.166 18.667 119.499 56s39.5 88.333 39.5 153s-13.167 115.667 -39.5 153s-66.166 56 -119.499 56s-93.166 -18.667 -119.499 -56s-39.5 -88.333 -39.5 -153s13.167 -115.667 39.5 -153s66.166 -56 119.499 -56zM287 -12
c-38 0 -71.333 6.83301 -100 20.5s-52.5 32.5 -71.5 56.5s-33.167 52.333 -42.5 85s-14 67.667 -14 105s4.66699 72.333 14 105s23.5 61 42.5 85s42.833 42.833 71.5 56.5s62 20.5 100 20.5s71.167 -6.83301 99.5 -20.5s52 -32.5 71 -56.5s33.333 -52.333 43 -85
s14.5 -67.667 14.5 -105s-4.83301 -72.333 -14.5 -105s-24 -61 -43 -85s-42.667 -42.833 -71 -56.5s-61.5 -20.5 -99.5 -20.5zM145 616c-11.333 15.333 -19.332 30.668 -23.999 46.001c10 11.333 22 21.666 36 30.999s31 14 51 14c16 0 30.5 -2.66699 43.5 -8
s25.5 -11.166 37.5 -17.499s24 -12.166 36 -17.499s25 -8 39 -8c11.333 0 21.666 2.33301 30.999 7s20.666 13 33.999 25c10.667 -15.333 18.667 -31.333 24 -48c-10 -10.667 -22.167 -20.5 -36.5 -29.5s-31.166 -13.5 -50.499 -13.5c-15.333 0 -29.5 2.66699 -42.5 8
s-25.333 11.166 -37 17.499s-23.5 12.166 -35.5 17.499s-24.667 8 -38 8c-14 0 -25.667 -2.66699 -35 -8s-20.333 -13.333 -33 -24z" />
    <glyph glyph-name="odieresis" unicode="&#xf6;" horiz-adv-x="574" 
d="M287 46c53.333 0 93.166 18.667 119.499 56s39.5 88.333 39.5 153s-13.167 115.667 -39.5 153s-66.166 56 -119.499 56s-93.166 -18.667 -119.499 -56s-39.5 -88.333 -39.5 -153s13.167 -115.667 39.5 -153s66.166 -56 119.499 -56zM287 -12
c-38 0 -71.333 6.83301 -100 20.5s-52.5 32.5 -71.5 56.5s-33.167 52.333 -42.5 85s-14 67.667 -14 105s4.66699 72.333 14 105s23.5 61 42.5 85s42.833 42.833 71.5 56.5s62 20.5 100 20.5s71.167 -6.83301 99.5 -20.5s52 -32.5 71 -56.5s33.333 -52.333 43 -85
s14.5 -67.667 14.5 -105s-4.83301 -72.333 -14.5 -105s-24 -61 -43 -85s-42.667 -42.833 -71 -56.5s-61.5 -20.5 -99.5 -20.5zM151 613c-2 14 -3 28 -3 42c0 14.667 1 29 3 43c12.667 2 26 3 40 3s27.667 -1 41 -3c2 -14 3 -28 3 -42c0 -14.667 -1 -29 -3 -43
c-13.333 -2 -26.666 -3 -39.999 -3c-14.667 0 -28.334 1 -41.001 3zM342 613c-2 14 -3 28 -3 42c0 14.667 1 29 3 43c12.667 2 26 3 40 3s27.667 -1 41 -3c2 -14 3 -28 3 -42c0 -14.667 -1 -29 -3 -43c-13.333 -2 -26.666 -3 -39.999 -3c-14.667 0 -28.334 1 -41.001 3z" />
    <glyph glyph-name="divide" unicode="&#xf7;" 
d="M237 517c0 16 5.5 29.833 16.5 41.5s24.833 17.5 41.5 17.5c16 0 29.833 -5.83301 41.5 -17.5s17.5 -25.5 17.5 -41.5c0 -16.667 -5.83301 -30.5 -17.5 -41.5s-25.5 -16.5 -41.5 -16.5c-16.667 0 -30.5 5.5 -41.5 16.5s-16.5 24.833 -16.5 41.5zM237 189
c0 16 5.5 29.833 16.5 41.5s24.833 17.5 41.5 17.5c16 0 29.833 -5.83301 41.5 -17.5s17.5 -25.5 17.5 -41.5c0 -16.667 -5.83301 -30.5 -17.5 -41.5s-25.5 -16.5 -41.5 -16.5c-16.667 0 -30.5 5.5 -41.5 16.5s-16.5 24.833 -16.5 41.5zM513 386
c0.666992 -3.33301 1.16699 -8.66602 1.5 -15.999s0.5 -13.666 0.5 -18.999s-0.166992 -11.333 -0.5 -18s-0.833008 -11.667 -1.5 -15h-426c-0.666992 3.33301 -1.16699 8.33301 -1.5 15s-0.5 12.667 -0.5 18s0.166992 11.666 0.5 18.999s0.833008 12.666 1.5 15.999h426z
" />
    <glyph glyph-name="oslash" unicode="&#xf8;" horiz-adv-x="574" 
d="M116 64c-19.333 24 -33.668 52.333 -43.001 85s-14 68 -14 106c0 37.333 4.66699 72.333 14 105s23.5 61 42.5 85s42.833 42.833 71.5 56.5s62 20.5 100 20.5c30.667 0 58.334 -4.66699 83.001 -14s46 -22.333 64 -39l32 41c8 2 18 3 30 3c10.667 0 21 -1 31 -3l-61 -77
c32.667 -48 49 -107.333 49 -178c0 -37.333 -4.83301 -72.333 -14.5 -105s-24 -61 -43 -85s-42.667 -42.833 -71 -56.5s-61.5 -20.5 -99.5 -20.5c-54.667 0 -100 14 -136 42l-24 -30c-9.33301 -2 -19.333 -3 -30 -3c-12 0 -22.333 1 -31 3zM395.998 420
c-13.333 14 -29.001 24.833 -47.001 32.5s-38.667 11.5 -62 11.5c-53.333 0 -93.166 -18.667 -119.499 -56s-39.5 -88.333 -39.5 -153c0 -57.333 10 -103.333 30 -138zM188.997 79c24.667 -22 57.334 -33 98.001 -33c53.333 0 93.166 18.667 119.499 56
s39.5 88.333 39.5 153c0 48 -7.66699 89 -23 123z" />
    <glyph glyph-name="ugrave" unicode="&#xf9;" horiz-adv-x="575" 
d="M84 510c4 0.666992 9.6709 1.16699 17.0039 1.5s12.666 0.5 15.999 0.5c4 0 9.5 -0.166992 16.5 -0.5s12.5 -0.833008 16.5 -1.5v-287c0 -36 3.66699 -65.5 11 -88.5s18.166 -41 32.499 -54s31.833 -22 52.5 -27s44 -7.5 70 -7.5c22 0 41.667 1.16699 59 3.5
s32.666 5.5 45.999 9.5v451c4 0.666992 9.66699 1.16699 17 1.5s12.666 0.5 15.999 0.5c4 0 9.5 -0.166992 16.5 -0.5s12.5 -0.833008 16.5 -1.5v-497c-24.667 -6.66699 -52.167 -12.5 -82.5 -17.5s-61.5 -7.5 -93.5 -7.5c-31.333 0 -60.833 3 -88.5 9
s-51.667 17.5 -72 34.5s-36.5 40.5 -48.5 70.5s-18 69 -18 117v291zM146.004 723c7.33301 0.666992 15 1.16699 23 1.5s16 0.5 24 0.5h22.5c7.66699 0 15.167 -0.666992 22.5 -2l117 -130c-12 -2 -23 -3 -33 -3c-15.333 0 -29 1 -41 3z" />
    <glyph glyph-name="uacute" unicode="&#xfa;" horiz-adv-x="575" 
d="M84 510c4 0.666992 9.6709 1.16699 17.0039 1.5s12.666 0.5 15.999 0.5c4 0 9.5 -0.166992 16.5 -0.5s12.5 -0.833008 16.5 -1.5v-287c0 -36 3.66699 -65.5 11 -88.5s18.166 -41 32.499 -54s31.833 -22 52.5 -27s44 -7.5 70 -7.5c22 0 41.667 1.16699 59 3.5
s32.666 5.5 45.999 9.5v451c4 0.666992 9.66699 1.16699 17 1.5s12.666 0.5 15.999 0.5c4 0 9.5 -0.166992 16.5 -0.5s12.5 -0.833008 16.5 -1.5v-497c-24.667 -6.66699 -52.167 -12.5 -82.5 -17.5s-61.5 -7.5 -93.5 -7.5c-31.333 0 -60.833 3 -88.5 9
s-51.667 17.5 -72 34.5s-36.5 40.5 -48.5 70.5s-18 69 -18 117v291zM301.004 593c-12 -2 -25.667 -3 -41 -3c-10 0 -21 1 -33 3l117 130c7.33301 1.33301 14.833 2 22.5 2h22.5c8 0 16 -0.166992 24 -0.5s15.667 -0.833008 23 -1.5z" />
    <glyph glyph-name="ucircumflex" unicode="&#xfb;" horiz-adv-x="575" 
d="M84 510c4 0.666992 9.6709 1.16699 17.0039 1.5s12.666 0.5 15.999 0.5c4 0 9.5 -0.166992 16.5 -0.5s12.5 -0.833008 16.5 -1.5v-287c0 -36 3.66699 -65.5 11 -88.5s18.166 -41 32.499 -54s31.833 -22 52.5 -27s44 -7.5 70 -7.5c22 0 41.667 1.16699 59 3.5
s32.666 5.5 45.999 9.5v451c4 0.666992 9.66699 1.16699 17 1.5s12.666 0.5 15.999 0.5c4 0 9.5 -0.166992 16.5 -0.5s12.5 -0.833008 16.5 -1.5v-497c-24.667 -6.66699 -52.167 -12.5 -82.5 -17.5s-61.5 -7.5 -93.5 -7.5c-31.333 0 -60.833 3 -88.5 9
s-51.667 17.5 -72 34.5s-36.5 40.5 -48.5 70.5s-18 69 -18 117v291zM447.004 593c-11.333 -2 -22.6689 -3 -34.002 -3c-6 0 -13 0.166992 -21 0.5s-15.333 1.16602 -22 2.49902l-83 92l-83 -92c-7.33301 -1.33301 -14.833 -2.16602 -22.5 -2.49902s-14.5 -0.5 -20.5 -0.5
c-12 0 -23.333 1 -34 3l117 129c6.66699 1.33301 13.834 2.16602 21.501 2.49902s14.834 0.5 21.501 0.5s14 -0.166992 22 -0.5s15.333 -1.16602 22 -2.49902z" />
    <glyph glyph-name="udieresis" unicode="&#xfc;" horiz-adv-x="575" 
d="M84 510c4 0.666992 9.6709 1.16699 17.0039 1.5s12.666 0.5 15.999 0.5c4 0 9.5 -0.166992 16.5 -0.5s12.5 -0.833008 16.5 -1.5v-287c0 -36 3.66699 -65.5 11 -88.5s18.166 -41 32.499 -54s31.833 -22 52.5 -27s44 -7.5 70 -7.5c22 0 41.667 1.16699 59 3.5
s32.666 5.5 45.999 9.5v451c4 0.666992 9.66699 1.16699 17 1.5s12.666 0.5 15.999 0.5c4 0 9.5 -0.166992 16.5 -0.5s12.5 -0.833008 16.5 -1.5v-497c-24.667 -6.66699 -52.167 -12.5 -82.5 -17.5s-61.5 -7.5 -93.5 -7.5c-31.333 0 -60.833 3 -88.5 9
s-51.667 17.5 -72 34.5s-36.5 40.5 -48.5 70.5s-18 69 -18 117v291zM156.004 613c-2 14 -3 28 -3 42c0 14.667 1 29 3 43c12.667 2 26 3 40 3s27.667 -1 41 -3c2 -14 3 -28 3 -42c0 -14.667 -1 -29 -3 -43c-13.333 -2 -26.666 -3 -39.999 -3c-14.667 0 -28.334 1 -41.001 3z
M347.004 613c-2 14 -3 28 -3 42c0 14.667 1 29 3 43c12.667 2 26 3 40 3s27.667 -1 41 -3c2 -14 3 -28 3 -42c0 -14.667 -1 -29 -3 -43c-13.333 -2 -26.666 -3 -39.999 -3c-14.667 0 -28.334 1 -41.001 3z" />
    <glyph glyph-name="yacute" unicode="&#xfd;" horiz-adv-x="515" 
d="M257 -2h-19.002c-6 0 -12.833 0.166992 -20.5 0.5s-13.5 0.833008 -17.5 1.5l-184 510c4 0.666992 9.66699 1.16699 17 1.5s14.333 0.5 21 0.5c5.33301 0 12 -0.166992 20 -0.5s14 -0.833008 18 -1.5l169 -496l166 496c4 0.666992 9.33301 1.16699 16 1.5
s12.667 0.5 18 0.5s11.333 -0.166992 18 -0.5s12 -0.833008 16 -1.5l-224 -661c-12 -36.667 -29 -62.334 -51 -77.001s-48 -22 -78 -22c-14 0 -28.167 1.33301 -42.5 4s-26.166 5.33398 -35.499 8.00098c0 20.667 5 39.334 15 56.001c5.33301 -2 13.333 -4.16699 24 -6.5
s22.667 -3.5 36 -3.5c19.333 0 34.833 4.66699 46.5 14s21.834 26.666 30.501 51.999zM259.998 593c-12 -2 -25.667 -3 -41 -3c-10 0 -21 1 -33 3l117 130c7.33301 1.33301 14.833 2 22.5 2h22.5c8 0 16 -0.166992 24 -0.5s15.667 -0.833008 23 -1.5z" />
    <glyph glyph-name="thorn" unicode="&#xfe;" horiz-adv-x="589" 
d="M88 735c4 0.666992 9.5 1.16797 16.5 1.50098s12.5 0.5 16.5 0.5s9.5 -0.166992 16.5 -0.5s12.5 -0.833008 16.5 -1.5v-295c14 21.333 34.167 40.333 60.5 57s60.5 25 102.5 25c31.333 0 60 -4.83301 86 -14.5s48.167 -24.834 66.5 -45.501s32.666 -46.667 42.999 -78
s15.5 -69 15.5 -113s-6 -83.5 -18 -118.5s-29.5 -64.667 -52.5 -89s-51.333 -43 -85 -56s-72.167 -19.5 -115.5 -19.5c-16 0 -33.333 1.33301 -52 4s-35.667 6.66699 -51 12v-240c-4 -0.666992 -9.66699 -1.16699 -17 -1.5s-12.666 -0.5 -15.999 -0.5
c-4 0 -9.5 0.166992 -16.5 0.5s-12.5 0.833008 -16.5 1.5v971zM154 65.001c15.333 -6 31.1699 -10.501 47.5029 -13.501s38.166 -4.5 65.499 -4.5c26 0 50.667 4.16699 74 12.5s43.666 21.5 60.999 39.5s31 40.833 41 68.5s15 60.834 15 99.501
c0 61.333 -11.5 109.333 -34.5 144s-60.167 52 -111.5 52c-16 0 -33.333 -2.66699 -52 -8s-35.834 -14.5 -51.501 -27.5s-28.667 -30 -39 -51s-15.5 -47.5 -15.5 -79.5v-232z" />
    <glyph glyph-name="ydieresis" unicode="&#xff;" horiz-adv-x="515" 
d="M257 -2h-19.002c-6 0 -12.833 0.166992 -20.5 0.5s-13.5 0.833008 -17.5 1.5l-184 510c4 0.666992 9.66699 1.16699 17 1.5s14.333 0.5 21 0.5c5.33301 0 12 -0.166992 20 -0.5s14 -0.833008 18 -1.5l169 -496l166 496c4 0.666992 9.33301 1.16699 16 1.5
s12.667 0.5 18 0.5s11.333 -0.166992 18 -0.5s12 -0.833008 16 -1.5l-224 -661c-12 -36.667 -29 -62.334 -51 -77.001s-48 -22 -78 -22c-14 0 -28.167 1.33301 -42.5 4s-26.166 5.33398 -35.499 8.00098c0 20.667 5 39.334 15 56.001c5.33301 -2 13.333 -4.16699 24 -6.5
s22.667 -3.5 36 -3.5c19.333 0 34.833 4.66699 46.5 14s21.834 26.666 30.501 51.999zM120.998 613c-2 14 -3 28 -3 42c0 14.667 1 29 3 43c12.667 2 26 3 40 3s27.667 -1 41 -3c2 -14 3 -28 3 -42c0 -14.667 -1 -29 -3 -43c-13.333 -2 -26.666 -3 -39.999 -3
c-14.667 0 -28.334 1 -41.001 3zM311.998 613c-2 14 -3 28 -3 42c0 14.667 1 29 3 43c12.667 2 26 3 40 3s27.667 -1 41 -3c2 -14 3 -28 3 -42c0 -14.667 -1 -29 -3 -43c-13.333 -2 -26.666 -3 -39.999 -3c-14.667 0 -28.334 1 -41.001 3z" />
    <glyph glyph-name="Amacron" unicode="&#x100;" horiz-adv-x="602" 
d="M260 719c4.66699 0.666992 11 1.16699 19 1.5s15.333 0.5 22 0.5c7.33301 0 14.833 -0.166992 22.5 -0.5s13.834 -0.833008 18.501 -1.5l240 -719c-4 -0.666992 -9.66699 -1.16699 -17 -1.5s-14.333 -0.5 -21 -0.5c-6 0 -12.333 0.166992 -19 0.5
s-12.334 0.833008 -17.001 1.5l-60 183h-296l-57 -183c-5.33301 -0.666992 -11.5 -1.16699 -18.5 -1.5s-13.5 -0.5 -19.5 -0.5c-6.66699 0 -13.5 0.166992 -20.5 0.5s-12.5 0.833008 -16.5 1.5zM428 247l-129 400l-127 -400h256zM458 854
c0.666992 -3.33301 1.16699 -7.83301 1.5 -13.5s0.5 -10.5 0.5 -14.5s-0.166992 -8.83301 -0.5 -14.5s-0.833008 -9.83398 -1.5 -12.501h-314c-0.666992 2.66699 -1.16699 6.83398 -1.5 12.501s-0.5 10.5 -0.5 14.5s0.166992 8.83301 0.5 14.5s0.833008 10.167 1.5 13.5h314
z" />
    <glyph glyph-name="amacron" unicode="&#x101;" horiz-adv-x="513" 
d="M369 248c-11.333 1.33301 -25.499 2.83398 -42.499 4.50098s-33.167 2.5 -48.5 2.5c-50 0 -88.667 -9.33301 -116 -28s-41 -45.334 -41 -80.001c0 -22 4.16699 -39.667 12.5 -53s19.166 -23.5 32.499 -30.5s28 -11.667 44 -14s32 -3.5 48 -3.5c20.667 0 40 1 58 3
s35.667 4.66699 53 8v191zM369.001 337.001c0 44 -10.332 76.1689 -30.999 96.502s-51.334 30.5 -92.001 30.5c-26.667 0 -51 -1.83301 -73 -5.5s-41.667 -8.16699 -59 -13.5c-3.33301 6 -6.16602 14.667 -8.49902 26s-3.5 22 -3.5 32
c17.333 5.33301 38.666 9.83301 63.999 13.5s51.333 5.5 78 5.5c64.667 0 112.667 -14.167 144 -42.5s47 -72.833 47 -133.5v-337c-23.333 -4.66699 -51.666 -9.33398 -84.999 -14.001s-65 -7 -95 -7c-62 0 -110.833 12.333 -146.5 37s-53.5 64.667 -53.5 120
c0 26.667 5.16699 50.5 15.5 71.5s24.666 38.667 42.999 53s40.333 25.166 66 32.499s53.834 11 84.501 11c24 0 44.667 -0.833008 62 -2.5s31.666 -3.16699 42.999 -4.5v31zM392.002 685.003c0.666992 -3.33301 1.16699 -7.83301 1.5 -13.5s0.5 -10.5 0.5 -14.5
s-0.166992 -8.83301 -0.5 -14.5s-0.833008 -9.83398 -1.5 -12.501h-274c-0.666992 2.66699 -1.16699 6.83398 -1.5 12.501s-0.5 10.5 -0.5 14.5s0.166992 8.83301 0.5 14.5s0.833008 10.167 1.5 13.5h274z" />
    <glyph glyph-name="Abreve" unicode="&#x102;" horiz-adv-x="602" 
d="M260 719c4.66699 0.666992 11 1.16699 19 1.5s15.333 0.5 22 0.5c7.33301 0 14.833 -0.166992 22.5 -0.5s13.834 -0.833008 18.501 -1.5l240 -719c-4 -0.666992 -9.66699 -1.16699 -17 -1.5s-14.333 -0.5 -21 -0.5c-6 0 -12.333 0.166992 -19 0.5
s-12.334 0.833008 -17.001 1.5l-60 183h-296l-57 -183c-5.33301 -0.666992 -11.5 -1.16699 -18.5 -1.5s-13.5 -0.5 -19.5 -0.5c-6.66699 0 -13.5 0.166992 -20.5 0.5s-12.5 0.833008 -16.5 1.5zM428 247l-129 400l-127 -400h256zM301 774
c-14 0 -29.8301 1.66602 -47.4971 4.99902s-34.5 9.16602 -50.5 17.499s-29.833 20 -41.5 35s-18.834 34.167 -21.501 57.5c10.667 2 21.334 3 32.001 3c11.333 0 23 -1 35 -3c2.66699 -17.333 11.167 -32 25.5 -44s37.166 -18 68.499 -18s54.166 6 68.499 18
s22.833 26.667 25.5 44c10.667 2 22 3 34 3c6 0 11.5 -0.166992 16.5 -0.5s10.5 -1.16602 16.5 -2.49902c-2.66699 -23.333 -9.83398 -42.5 -21.501 -57.5s-25.5 -26.667 -41.5 -35s-32.833 -14.166 -50.5 -17.499s-33.5 -5 -47.5 -5z" />
    <glyph glyph-name="abreve" unicode="&#x103;" horiz-adv-x="513" 
d="M369 248c-11.333 1.33301 -25.499 2.83398 -42.499 4.50098s-33.167 2.5 -48.5 2.5c-50 0 -88.667 -9.33301 -116 -28s-41 -45.334 -41 -80.001c0 -22 4.16699 -39.667 12.5 -53s19.166 -23.5 32.499 -30.5s28 -11.667 44 -14s32 -3.5 48 -3.5c20.667 0 40 1 58 3
s35.667 4.66699 53 8v191zM369.001 337.001c0 44 -10.332 76.1689 -30.999 96.502s-51.334 30.5 -92.001 30.5c-26.667 0 -51 -1.83301 -73 -5.5s-41.667 -8.16699 -59 -13.5c-3.33301 6 -6.16602 14.667 -8.49902 26s-3.5 22 -3.5 32
c17.333 5.33301 38.666 9.83301 63.999 13.5s51.333 5.5 78 5.5c64.667 0 112.667 -14.167 144 -42.5s47 -72.833 47 -133.5v-337c-23.333 -4.66699 -51.666 -9.33398 -84.999 -14.001s-65 -7 -95 -7c-62 0 -110.833 12.333 -146.5 37s-53.5 64.667 -53.5 120
c0 26.667 5.16699 50.5 15.5 71.5s24.666 38.667 42.999 53s40.333 25.166 66 32.499s53.834 11 84.501 11c24 0 44.667 -0.833008 62 -2.5s31.666 -3.16699 42.999 -4.5v31zM264.002 590.003c-14 0 -29.333 1.83301 -46 5.5s-32.667 10.334 -48 20.001s-29 23 -41 40
s-20 39.167 -24 66.5c10 2 22 3 36 3c10.667 0 21.667 -1 33 -3c1.33301 -10 3.83301 -19.667 7.5 -29s9.16699 -17.666 16.5 -24.999s16.333 -13.166 27 -17.499s23.667 -6.5 39 -6.5s28.333 2.16699 39 6.5s19.667 10.166 27 17.499s12.833 15.666 16.5 24.999
s6.16699 19 7.5 29c10.667 2 21.667 3 33 3c14 0 26 -1 36 -3c-4 -27.333 -12 -49.5 -24 -66.5s-25.667 -30.333 -41 -40s-31.333 -16.334 -48 -20.001s-32 -5.5 -46 -5.5z" />
    <glyph glyph-name="Aogonek" unicode="&#x104;" horiz-adv-x="602" 
d="M448 183l-296.001 -0.00390625l-57 -183c-5.33301 -0.666992 -11.5 -1.16699 -18.5 -1.5s-13.5 -0.5 -19.5 -0.5c-6.66699 0 -13.5 0.166992 -20.5 0.5s-12.5 0.833008 -16.5 1.5l240 719c4.66699 0.666992 11 1.16699 19 1.5s15.333 0.5 22 0.5
c7.33301 0 14.833 -0.166992 22.5 -0.5s13.834 -0.833008 18.501 -1.5l240 -719c-7.33301 -4 -15.833 -10.5 -25.5 -19.5s-19 -19.333 -28 -31s-16.5 -24.167 -22.5 -37.5s-9 -26.666 -9 -39.999c0 -17.333 5.5 -31.166 16.5 -41.499s27.833 -15.5 50.5 -15.5
c7.33301 0 15.666 0.5 24.999 1.5s19 3.16699 29 6.5c3.33301 -8 6 -17.167 8 -27.5s3.33301 -19.5 4 -27.5c-10.667 -3.33301 -22 -5.83301 -34 -7.5s-27.667 -2.5 -47 -2.5c-15.333 0 -30.166 2 -44.499 6s-27.333 10 -39 18s-21 18.333 -28 31s-10.5 27.667 -10.5 45
c0 10.667 1.83301 22.334 5.5 35.001s9 25.334 16 38.001s15.5 25 25.5 37s21.333 22.667 34 32zM427.999 246.996l-129 400l-127 -400h256z" />
    <glyph glyph-name="aogonek" unicode="&#x105;" horiz-adv-x="513" 
d="M369 337c0 44 -10.333 76.1699 -31 96.5029s-51.334 30.5 -92.001 30.5c-26.667 0 -51 -1.83301 -73 -5.5s-41.667 -8.16699 -59 -13.5c-3.33301 6 -6.16602 14.667 -8.49902 26s-3.5 22 -3.5 32c17.333 5.33301 38.666 9.83301 63.999 13.5s51.333 5.5 78 5.5
c64.667 0 112.667 -14.167 144 -42.5s47 -72.833 47 -133.5v-337l-19 -5c-17.333 -4.66699 -32.5 -12 -45.5 -22s-24 -21.333 -33 -34s-15.667 -25.834 -20 -39.501s-6.5 -25.834 -6.5 -36.501c0 -17.333 5.33301 -31.5 16 -42.5s27 -16.5 49 -16.5
c7.33301 0 15.333 0.5 24 1.5s18 3.16699 28 6.5c3.33301 -8 5.83301 -16.833 7.5 -26.5s2.83398 -18.5 3.50098 -26.5c-10 -3.33301 -21.333 -5.83301 -34 -7.5s-26 -2.5 -40 -2.5c-15.333 0 -30.166 2 -44.499 6s-27.166 10 -38.499 18s-20.333 18.333 -27 31
s-10 27.667 -10 45c0 20 5.66699 42.333 17 67s27.666 46.667 48.999 66c-19.333 -2 -38 -3 -56 -3c-62 0 -110.833 12.333 -146.5 37s-53.5 64.667 -53.5 120c0 26.667 5.16699 50.5 15.5 71.5s24.666 38.667 42.999 53s40.333 25.166 66 32.499s53.834 11 84.501 11
c24 0 44.667 -0.833008 62 -2.5s31.666 -3.16699 42.999 -4.5v31zM369 248.003c-11.333 1.33301 -25.499 2.83398 -42.499 4.50098s-33.167 2.5 -48.5 2.5c-50 0 -88.667 -9.33301 -116 -28s-41 -45.334 -41 -80.001c0 -22 4.16699 -39.667 12.5 -53
s19.166 -23.5 32.499 -30.5s28 -11.667 44 -14s32 -3.5 48 -3.5c20.667 0 40 1 58 3s35.667 4.66699 53 8v191z" />
    <glyph glyph-name="Cacute" unicode="&#x106;" horiz-adv-x="618" 
d="M549 82c5.33301 -10 9.99707 -19.6699 13.9971 -29.0029s7 -19 9 -29c-22.667 -11.333 -49.667 -20.166 -81 -26.499s-64.333 -9.5 -99 -9.5c-48.667 0 -93.167 8 -133.5 24s-74.833 39.333 -103.5 70s-51 68.667 -67 114s-24 97.333 -24 156
c0 60 7.83301 113.5 23.5 160.5s37.667 86.667 66 119s62.666 57 102.999 74s85.5 25.5 135.5 25.5c42 0 77 -3 105 -9s48.333 -11 61 -15c-1.33301 -12 -3.16602 -22 -5.49902 -30s-5.83301 -17.667 -10.5 -29l-26.5 8c-9 2.66699 -19.167 5 -30.5 7s-24.5 3.66699 -39.5 5
s-32.5 2 -52.5 2c-39.333 0 -74.666 -7.16699 -105.999 -21.5s-58 -35.166 -80 -62.499s-39 -60.666 -51 -99.999s-18 -84 -18 -134c0 -51.333 6.66699 -96 20 -134s31.833 -69.5 55.5 -94.5s51.334 -43.5 83.001 -55.5s65.834 -18 102.501 -18c31.333 0 59.833 3 85.5 9
s47.167 13.667 64.5 23zM375.997 777.997c-12 -2 -26.333 -3 -43 -3c-11.333 0 -23 1 -35 3l111 111c14.667 2 30.334 3 47.001 3c17.333 0 33.666 -1 48.999 -3z" />
    <glyph glyph-name="cacute" unicode="&#x107;" horiz-adv-x="480" 
d="M426 64c3.33301 -6.66699 6.49609 -15.667 9.49609 -27s5.16699 -20.666 6.5 -27.999c-16.667 -6 -35.667 -11 -57 -15s-45 -6 -71 -6c-83.333 0 -146.666 22.833 -189.999 68.5s-65 111.834 -65 198.501c0 38 5.33301 73.167 16 105.5s26.334 60.5 47.001 84.5
s46.5 42.833 77.5 56.5s66.833 20.5 107.5 20.5c25.333 0 49.5 -1.83301 72.5 -5.5s41.167 -7.83398 54.5 -12.501c0 -8.66699 -1.16699 -18.667 -3.5 -30s-4.83301 -20.333 -7.5 -27c-13.333 4.66699 -30.166 8.66699 -50.499 12s-42.166 5 -65.499 5
c-30 0 -56.167 -5.16699 -78.5 -15.5s-41 -24.833 -56 -43.5s-26.167 -40.667 -33.5 -66s-11 -53.333 -11 -84c0 -72 17.167 -124.833 51.5 -158.5s80.833 -50.5 139.5 -50.5c20 0 39.167 1.66699 57.5 5s34.833 7.66602 49.5 12.999zM292.996 593c-12 -2 -25.667 -3 -41 -3
c-10 0 -21 1 -33 3l117 130c7.33301 1.33301 14.833 2 22.5 2h22.5c8 0 16 -0.166992 24 -0.5s15.667 -0.833008 23 -1.5z" />
    <glyph glyph-name="Ccircumflex" unicode="&#x108;" horiz-adv-x="618" 
d="M549 82c5.33301 -10 9.99707 -19.6699 13.9971 -29.0029s7 -19 9 -29c-22.667 -11.333 -49.667 -20.166 -81 -26.499s-64.333 -9.5 -99 -9.5c-48.667 0 -93.167 8 -133.5 24s-74.833 39.333 -103.5 70s-51 68.667 -67 114s-24 97.333 -24 156
c0 60 7.83301 113.5 23.5 160.5s37.667 86.667 66 119s62.666 57 102.999 74s85.5 25.5 135.5 25.5c42 0 77 -3 105 -9s48.333 -11 61 -15c-1.33301 -12 -3.16602 -22 -5.49902 -30s-5.83301 -17.667 -10.5 -29l-26.5 8c-9 2.66699 -19.167 5 -30.5 7s-24.5 3.66699 -39.5 5
s-32.5 2 -52.5 2c-39.333 0 -74.666 -7.16699 -105.999 -21.5s-58 -35.166 -80 -62.499s-39 -60.666 -51 -99.999s-18 -84 -18 -134c0 -51.333 6.66699 -96 20 -134s31.833 -69.5 55.5 -94.5s51.334 -43.5 83.001 -55.5s65.834 -18 102.501 -18c31.333 0 59.833 3 85.5 9
s47.167 13.667 64.5 23zM543.997 777.997c-6 -1.33301 -12.5 -2.16504 -19.5 -2.49805s-13.167 -0.5 -18.5 -0.5s-11.833 0.166992 -19.5 0.5s-15.5 1.16602 -23.5 2.49902l-79 70l-80 -70c-16 -2 -30.333 -3 -43 -3c-5.33301 0 -11.666 0.166992 -18.999 0.5
s-14.333 1.16602 -21 2.49902l126 111c12 2 24.333 3 37 3c11.333 0 23.666 -1 36.999 -3z" />
    <glyph glyph-name="ccircumflex" unicode="&#x109;" horiz-adv-x="480" 
d="M426 64c3.33301 -6.66699 6.49609 -15.667 9.49609 -27s5.16699 -20.666 6.5 -27.999c-16.667 -6 -35.667 -11 -57 -15s-45 -6 -71 -6c-83.333 0 -146.666 22.833 -189.999 68.5s-65 111.834 -65 198.501c0 38 5.33301 73.167 16 105.5s26.334 60.5 47.001 84.5
s46.5 42.833 77.5 56.5s66.833 20.5 107.5 20.5c25.333 0 49.5 -1.83301 72.5 -5.5s41.167 -7.83398 54.5 -12.501c0 -8.66699 -1.16699 -18.667 -3.5 -30s-4.83301 -20.333 -7.5 -27c-13.333 4.66699 -30.166 8.66699 -50.499 12s-42.166 5 -65.499 5
c-30 0 -56.167 -5.16699 -78.5 -15.5s-41 -24.833 -56 -43.5s-26.167 -40.667 -33.5 -66s-11 -53.333 -11 -84c0 -72 17.167 -124.833 51.5 -158.5s80.833 -50.5 139.5 -50.5c20 0 39.167 1.66699 57.5 5s34.833 7.66602 49.5 12.999zM452.996 593
c-11.333 -2 -22.6689 -3 -34.002 -3c-6 0 -13 0.166992 -21 0.5s-15.333 1.16602 -22 2.49902l-83 92l-83 -92c-7.33301 -1.33301 -14.833 -2.16602 -22.5 -2.49902s-14.5 -0.5 -20.5 -0.5c-12 0 -23.333 1 -34 3l117 129c6.66699 1.33301 13.834 2.16602 21.501 2.49902
s14.834 0.5 21.501 0.5s14 -0.166992 22 -0.5s15.333 -1.16602 22 -2.49902z" />
    <glyph glyph-name="Cdotaccent" unicode="&#x10a;" horiz-adv-x="618" 
d="M549 82c5.33301 -10 9.99707 -19.6699 13.9971 -29.0029s7 -19 9 -29c-22.667 -11.333 -49.667 -20.166 -81 -26.499s-64.333 -9.5 -99 -9.5c-48.667 0 -93.167 8 -133.5 24s-74.833 39.333 -103.5 70s-51 68.667 -67 114s-24 97.333 -24 156
c0 60 7.83301 113.5 23.5 160.5s37.667 86.667 66 119s62.666 57 102.999 74s85.5 25.5 135.5 25.5c42 0 77 -3 105 -9s48.333 -11 61 -15c-1.33301 -12 -3.16602 -22 -5.49902 -30s-5.83301 -17.667 -10.5 -29l-26.5 8c-9 2.66699 -19.167 5 -30.5 7s-24.5 3.66699 -39.5 5
s-32.5 2 -52.5 2c-39.333 0 -74.666 -7.16699 -105.999 -21.5s-58 -35.166 -80 -62.499s-39 -60.666 -51 -99.999s-18 -84 -18 -134c0 -51.333 6.66699 -96 20 -134s31.833 -69.5 55.5 -94.5s51.334 -43.5 83.001 -55.5s65.834 -18 102.501 -18c31.333 0 59.833 3 85.5 9
s47.167 13.667 64.5 23zM342.997 788.997c-2.66699 13.333 -4 28.333 -4 45c0 7.33301 0.333008 15 1 23s1.66699 15.667 3 23c13.333 2.66699 28.333 4 45 4c7.33301 0 15 -0.333008 23 -1s15.667 -1.66699 23 -3c2.66699 -13.333 4 -28.333 4 -45
c0 -7.33301 -0.333008 -15 -1 -23s-1.66699 -15.667 -3 -23c-13.333 -2.66699 -28.333 -4 -45 -4c-7.33301 0 -15 0.333008 -23 1s-15.667 1.66699 -23 3z" />
    <glyph glyph-name="cdotaccent" unicode="&#x10b;" horiz-adv-x="480" 
d="M426 64c3.33301 -6.66699 6.49609 -15.667 9.49609 -27s5.16699 -20.666 6.5 -27.999c-16.667 -6 -35.667 -11 -57 -15s-45 -6 -71 -6c-83.333 0 -146.666 22.833 -189.999 68.5s-65 111.834 -65 198.501c0 38 5.33301 73.167 16 105.5s26.334 60.5 47.001 84.5
s46.5 42.833 77.5 56.5s66.833 20.5 107.5 20.5c25.333 0 49.5 -1.83301 72.5 -5.5s41.167 -7.83398 54.5 -12.501c0 -8.66699 -1.16699 -18.667 -3.5 -30s-4.83301 -20.333 -7.5 -27c-13.333 4.66699 -30.166 8.66699 -50.499 12s-42.166 5 -65.499 5
c-30 0 -56.167 -5.16699 -78.5 -15.5s-41 -24.833 -56 -43.5s-26.167 -40.667 -33.5 -66s-11 -53.333 -11 -84c0 -72 17.167 -124.833 51.5 -158.5s80.833 -50.5 139.5 -50.5c20 0 39.167 1.66699 57.5 5s34.833 7.66602 49.5 12.999zM252.996 610
c-2.66699 13.333 -4 28.333 -4 45c0 7.33301 0.333008 15 1 23s1.66699 15.667 3 23c13.333 2.66699 28.333 4 45 4c7.33301 0 15 -0.333008 23 -1s15.667 -1.66699 23 -3c2.66699 -13.333 4 -28.333 4 -45c0 -7.33301 -0.333008 -15 -1 -23s-1.66699 -15.667 -3 -23
c-13.333 -2.66699 -28.333 -4 -45 -4c-7.33301 0 -15 0.333008 -23 1s-15.667 1.66699 -23 3z" />
    <glyph glyph-name="Ccaron" unicode="&#x10c;" horiz-adv-x="618" 
d="M549 82c5.33301 -10 9.99707 -19.6699 13.9971 -29.0029s7 -19 9 -29c-22.667 -11.333 -49.667 -20.166 -81 -26.499s-64.333 -9.5 -99 -9.5c-48.667 0 -93.167 8 -133.5 24s-74.833 39.333 -103.5 70s-51 68.667 -67 114s-24 97.333 -24 156
c0 60 7.83301 113.5 23.5 160.5s37.667 86.667 66 119s62.666 57 102.999 74s85.5 25.5 135.5 25.5c42 0 77 -3 105 -9s48.333 -11 61 -15c-1.33301 -12 -3.16602 -22 -5.49902 -30s-5.83301 -17.667 -10.5 -29l-26.5 8c-9 2.66699 -19.167 5 -30.5 7s-24.5 3.66699 -39.5 5
s-32.5 2 -52.5 2c-39.333 0 -74.666 -7.16699 -105.999 -21.5s-58 -35.166 -80 -62.499s-39 -60.666 -51 -99.999s-18 -84 -18 -134c0 -51.333 6.66699 -96 20 -134s31.833 -69.5 55.5 -94.5s51.334 -43.5 83.001 -55.5s65.834 -18 102.501 -18c31.333 0 59.833 3 85.5 9
s47.167 13.667 64.5 23zM233.997 888.997c6 1.33301 12.501 2.16504 19.501 2.49805s13.167 0.5 18.5 0.5s11.833 -0.166992 19.5 -0.5s15.5 -1.16602 23.5 -2.49902l79 -70l80 70c16 2 30.333 3 43 3c5.33301 0 11.666 -0.166992 18.999 -0.5s14.333 -1.16602 21 -2.49902
l-126 -111c-12 -2 -24.333 -3 -37 -3c-12 0 -24.333 1 -37 3z" />
    <glyph glyph-name="ccaron" unicode="&#x10d;" horiz-adv-x="480" 
d="M426 64c3.33301 -6.66699 6.49609 -15.667 9.49609 -27s5.16699 -20.666 6.5 -27.999c-16.667 -6 -35.667 -11 -57 -15s-45 -6 -71 -6c-83.333 0 -146.666 22.833 -189.999 68.5s-65 111.834 -65 198.501c0 38 5.33301 73.167 16 105.5s26.334 60.5 47.001 84.5
s46.5 42.833 77.5 56.5s66.833 20.5 107.5 20.5c25.333 0 49.5 -1.83301 72.5 -5.5s41.167 -7.83398 54.5 -12.501c0 -8.66699 -1.16699 -18.667 -3.5 -30s-4.83301 -20.333 -7.5 -27c-13.333 4.66699 -30.166 8.66699 -50.499 12s-42.166 5 -65.499 5
c-30 0 -56.167 -5.16699 -78.5 -15.5s-41 -24.833 -56 -43.5s-26.167 -40.667 -33.5 -66s-11 -53.333 -11 -84c0 -72 17.167 -124.833 51.5 -158.5s80.833 -50.5 139.5 -50.5c20 0 39.167 1.66699 57.5 5s34.833 7.66602 49.5 12.999zM145.996 722
c10.667 2 22.0029 3 34.0029 3c6 0 13 -0.166992 21 -0.5s15.333 -1.16602 22 -2.49902l83 -92l83 92c7.33301 1.33301 14.833 2.16602 22.5 2.49902s14.5 0.5 20.5 0.5c11.333 0 22.666 -1 33.999 -3l-117 -129c-6.66699 -1.33301 -13.834 -2.16602 -21.501 -2.49902
s-14.834 -0.5 -21.501 -0.5s-14 0.166992 -22 0.5s-15.333 1.16602 -22 2.49902z" />
    <glyph glyph-name="Dcaron" unicode="&#x10e;" horiz-adv-x="699" 
d="M101 719c9.33301 1.33301 20.835 2.66797 34.502 4.00098s28.167 2.5 43.5 3.5s30.666 1.83301 45.999 2.5s29.333 1 42 1c62.667 0 117.167 -8.5 163.5 -25.5s84.666 -41.333 114.999 -73s52.833 -70.334 67.5 -116.001s22 -97.167 22 -154.5
c0 -248.667 -122.667 -373 -368 -373c-14 0 -29 0.333008 -45 1s-31.5 1.5 -46.5 2.5s-29 2.33301 -42 4s-23.833 3.16699 -32.5 4.5v719zM170.002 60.002c12 -1.33301 26.168 -2.66602 42.501 -3.99902s33.166 -2 50.499 -2c46 0 87.5 5 124.5 15s68.5 27 94.5 51
s46 55.833 60 95.5s21 89.167 21 148.5c0 103.333 -26.5 179.166 -79.5 227.499s-126.5 72.5 -220.5 72.5c-15.333 0 -31.833 -0.333008 -49.5 -1s-32.167 -2 -43.5 -4v-599zM129.003 889.002c6 1.33301 12.501 2.16504 19.501 2.49805s13.167 0.5 18.5 0.5
s11.833 -0.166992 19.5 -0.5s15.5 -1.16602 23.5 -2.49902l79 -70l80 70c16 2 30.333 3 43 3c5.33301 0 11.666 -0.166992 18.999 -0.5s14.333 -1.16602 21 -2.49902l-126 -111c-12 -2 -24.333 -3 -37 -3c-12 0 -24.333 1 -37 3z" />
    <glyph glyph-name="dcaron" unicode="&#x10f;" horiz-adv-x="623" 
d="M431 735c4 0.666992 9.66895 1.16797 17.002 1.50098s12.666 0.5 15.999 0.5c4 0 9.5 -0.166992 16.5 -0.5s12.5 -0.833008 16.5 -1.5v-723c-20.667 -6.66699 -46.334 -12.334 -77.001 -17.001s-62.667 -7 -96 -7c-36.667 0 -71 4.33301 -103 13s-59.667 23 -83 43
s-41.833 46.333 -55.5 79s-20.5 73 -20.5 121c0 44 6 83.167 18 117.5s29 63.333 51 87s48.5 41.834 79.5 54.501s65.167 19 102.5 19c22 0 43.833 -1.83301 65.5 -5.5s39.167 -7.83398 52.5 -12.501v231zM431.002 442.001c-13.333 5.33301 -30.333 10.168 -51 14.501
s-42 6.5 -64 6.5c-31.333 0 -58.5 -5.33301 -81.5 -16s-42.167 -25.5 -57.5 -44.5s-26.833 -41.833 -34.5 -68.5s-11.5 -56 -11.5 -88c0 -69.333 16.5 -119.833 49.5 -151.5s79.833 -47.5 140.5 -47.5c22 0 43 1.16699 63 3.5s35.667 5.16602 47 8.49902v383z
M576.002 735.003c4 0.666992 8.50098 1.16699 13.501 1.5s12.5 0.5 22.5 0.5c6.66699 0 12.667 -0.166992 18 -0.5s10.666 -0.833008 15.999 -1.5l-7 -202c-11.333 -2 -21.333 -3 -30 -3c-10 0 -21 1 -33 3v202z" />
    <glyph glyph-name="Dcroat" unicode="&#x110;" horiz-adv-x="714" 
d="M116 390l0.00195312 329.001c9.33301 1.33301 20.833 2.66602 34.5 3.99902s28.167 2.5 43.5 3.5s30.666 1.83301 45.999 2.5s29.333 1 42 1c62.667 0 117.167 -8.5 163.5 -25.5s84.666 -41.333 114.999 -73s52.833 -70.334 67.5 -116.001s22 -97.167 22 -154.5
c0 -248.667 -122.667 -373 -368 -373c-14 0 -29 0.333008 -45 1s-31.5 1.5 -46.5 2.5s-29 2.33301 -42 4s-23.833 3.16699 -32.5 4.5v335h-93c-0.666992 2.66699 -1.16699 6.83398 -1.5 12.501s-0.5 10.5 -0.5 14.5s0.166992 8.83301 0.5 14.5s0.833008 10.167 1.5 13.5h93z
M185.002 390.001l179.001 0.000976562c0.666992 -3.33301 1.16699 -7.83301 1.5 -13.5s0.5 -10.5 0.5 -14.5s-0.166992 -8.83301 -0.5 -14.5s-0.833008 -9.83398 -1.5 -12.501h-179v-275c12 -1.33301 26.167 -2.66602 42.5 -3.99902s33.166 -2 50.499 -2
c46 0 87.5 5 124.5 15s68.5 27 94.5 51s46 55.833 60 95.5s21 89.167 21 148.5c0 103.333 -26.5 179.166 -79.5 227.499s-126.5 72.5 -220.5 72.5c-15.333 0 -31.833 -0.333008 -49.5 -1s-32.167 -2 -43.5 -4v-269z" />
    <glyph glyph-name="dcroat" unicode="&#x111;" horiz-adv-x="597" 
d="M431 588l-157.998 0.000976562c-0.666992 2.66699 -1.16699 6.83398 -1.5 12.501s-0.5 10.5 -0.5 14.5s0.166992 8.83301 0.5 14.5s0.833008 10.167 1.5 13.5h158v92c4 0.666992 9.66699 1.16699 17 1.5s12.666 0.5 15.999 0.5c4 0 9.5 -0.166992 16.5 -0.5
s12.5 -0.833008 16.5 -1.5v-92h83c0.666992 -3.33301 1.16699 -7.83301 1.5 -13.5s0.5 -10.5 0.5 -14.5s-0.166992 -8.83301 -0.5 -14.5s-0.833008 -9.83398 -1.5 -12.501h-83v-576c-20.667 -6.66699 -46.334 -12.334 -77.001 -17.001s-62.667 -7 -96 -7
c-36.667 0 -71 4.33301 -103 13s-59.667 23 -83 43s-41.833 46.333 -55.5 79s-20.5 73 -20.5 121c0 44 6 83.167 18 117.5s29 63.333 51 87s48.5 41.834 79.5 54.501s65.167 19 102.5 19c22 0 43.833 -1.83301 65.5 -5.5s39.167 -7.83398 52.5 -12.501v84zM431.002 442.001
c-13.333 5.33301 -30.333 10.168 -51 14.501s-42 6.5 -64 6.5c-31.333 0 -58.5 -5.33301 -81.5 -16s-42.167 -25.5 -57.5 -44.5s-26.833 -41.833 -34.5 -68.5s-11.5 -56 -11.5 -88c0 -69.333 16.5 -119.833 49.5 -151.5s79.833 -47.5 140.5 -47.5c22 0 43 1.16699 63 3.5
s35.667 5.16602 47 8.49902v383z" />
    <glyph glyph-name="Emacron" unicode="&#x112;" horiz-adv-x="540" 
d="M101 719h385c0.666992 -4 1.16699 -8.83301 1.5 -14.5s0.5 -11.167 0.5 -16.5c0 -4.66699 -0.166992 -10.167 -0.5 -16.5s-0.833008 -11.5 -1.5 -15.5h-316v-243h254c0.666992 -4 1.16699 -8.83301 1.5 -14.5s0.5 -11.167 0.5 -16.5
c0 -4.66699 -0.166992 -10.167 -0.5 -16.5s-0.833008 -11.5 -1.5 -15.5h-254v-287h325c0.666992 -4 1.16699 -8.83301 1.5 -14.5s0.5 -11.167 0.5 -16.5c0 -4.66699 -0.166992 -10.167 -0.5 -16.5s-0.833008 -11.5 -1.5 -15.5h-394v719zM447 854
c0.666992 -3.33301 1.16699 -7.83301 1.5 -13.5s0.5 -10.5 0.5 -14.5s-0.166992 -8.83301 -0.5 -14.5s-0.833008 -9.83398 -1.5 -12.501h-314c-0.666992 2.66699 -1.16699 6.83398 -1.5 12.501s-0.5 10.5 -0.5 14.5s0.166992 8.83301 0.5 14.5s0.833008 10.167 1.5 13.5h314
z" />
    <glyph glyph-name="emacron" unicode="&#x113;" horiz-adv-x="553" 
d="M130 245c0 -68 15.666 -118 46.999 -150s78.333 -48 141 -48c25.333 0 48.833 2.16699 70.5 6.5s42.834 10.166 63.501 17.499c3.33301 -7.33301 6 -16.333 8 -27s3.33301 -20.334 4 -29.001c-19.333 -8.66699 -42 -15.334 -68 -20.001s-54.333 -7 -85 -7
c-44 0 -81.833 6.5 -113.5 19.5s-57.667 31.167 -78 54.5s-35.333 51.166 -45 83.499s-14.5 67.833 -14.5 106.5c0 37.333 4.5 72.333 13.5 105s22.667 61.334 41 86.001s41.833 44 70.5 58s63 21 103 21c33.333 0 63 -5.66699 89 -17s47.833 -27.166 65.5 -47.499
s31 -44.666 40 -72.999s13.5 -59.166 13.5 -92.499c0 -6 -0.166992 -13.667 -0.5 -23s-0.833008 -17.333 -1.5 -24h-364zM429.999 300c0 20.667 -2.66797 41 -8.00098 61s-13.666 37.5 -24.999 52.5s-26 27.167 -44 36.5s-39.667 14 -65 14c-46.667 0 -83 -14.333 -109 -43
s-41.667 -69 -47 -121h298zM419.998 685c0.666992 -3.33301 1.16699 -7.83301 1.5 -13.5s0.5 -10.5 0.5 -14.5s-0.166992 -8.83301 -0.5 -14.5s-0.833008 -9.83398 -1.5 -12.501h-274c-0.666992 2.66699 -1.16699 6.83398 -1.5 12.501s-0.5 10.5 -0.5 14.5
s0.166992 8.83301 0.5 14.5s0.833008 10.167 1.5 13.5h274z" />
    <glyph glyph-name="Ebreve" unicode="&#x114;" horiz-adv-x="540" 
d="M101 719h385c0.666992 -4 1.16699 -8.83301 1.5 -14.5s0.5 -11.167 0.5 -16.5c0 -4.66699 -0.166992 -10.167 -0.5 -16.5s-0.833008 -11.5 -1.5 -15.5h-316v-243h254c0.666992 -4 1.16699 -8.83301 1.5 -14.5s0.5 -11.167 0.5 -16.5
c0 -4.66699 -0.166992 -10.167 -0.5 -16.5s-0.833008 -11.5 -1.5 -15.5h-254v-287h325c0.666992 -4 1.16699 -8.83301 1.5 -14.5s0.5 -11.167 0.5 -16.5c0 -4.66699 -0.166992 -10.167 -0.5 -16.5s-0.833008 -11.5 -1.5 -15.5h-394v719zM298 774
c-14 0 -29.8301 1.66602 -47.4971 4.99902s-34.5 9.16602 -50.5 17.499s-29.833 20 -41.5 35s-18.834 34.167 -21.501 57.5c10.667 2 21.334 3 32.001 3c11.333 0 23 -1 35 -3c2.66699 -17.333 11.167 -32 25.5 -44s37.166 -18 68.499 -18s54.166 6 68.499 18
s22.833 26.667 25.5 44c10.667 2 22 3 34 3c6 0 11.5 -0.166992 16.5 -0.5s10.5 -1.16602 16.5 -2.49902c-2.66699 -23.333 -9.83398 -42.5 -21.501 -57.5s-25.5 -26.667 -41.5 -35s-32.833 -14.166 -50.5 -17.499s-33.5 -5 -47.5 -5z" />
    <glyph glyph-name="ebreve" unicode="&#x115;" horiz-adv-x="553" 
d="M130 245c0 -68 15.666 -118 46.999 -150s78.333 -48 141 -48c25.333 0 48.833 2.16699 70.5 6.5s42.834 10.166 63.501 17.499c3.33301 -7.33301 6 -16.333 8 -27s3.33301 -20.334 4 -29.001c-19.333 -8.66699 -42 -15.334 -68 -20.001s-54.333 -7 -85 -7
c-44 0 -81.833 6.5 -113.5 19.5s-57.667 31.167 -78 54.5s-35.333 51.166 -45 83.499s-14.5 67.833 -14.5 106.5c0 37.333 4.5 72.333 13.5 105s22.667 61.334 41 86.001s41.833 44 70.5 58s63 21 103 21c33.333 0 63 -5.66699 89 -17s47.833 -27.166 65.5 -47.499
s31 -44.666 40 -72.999s13.5 -59.166 13.5 -92.499c0 -6 -0.166992 -13.667 -0.5 -23s-0.833008 -17.333 -1.5 -24h-364zM429.999 300c0 20.667 -2.66797 41 -8.00098 61s-13.666 37.5 -24.999 52.5s-26 27.167 -44 36.5s-39.667 14 -65 14c-46.667 0 -83 -14.333 -109 -43
s-41.667 -69 -47 -121h298zM286.998 590c-14 0 -29.333 1.83301 -46 5.5s-32.667 10.334 -48 20.001s-29 23 -41 40s-20 39.167 -24 66.5c10 2 22 3 36 3c10.667 0 21.667 -1 33 -3c1.33301 -10 3.83301 -19.667 7.5 -29s9.16699 -17.666 16.5 -24.999
s16.333 -13.166 27 -17.499s23.667 -6.5 39 -6.5s28.333 2.16699 39 6.5s19.667 10.166 27 17.499s12.833 15.666 16.5 24.999s6.16699 19 7.5 29c10.667 2 21.667 3 33 3c14 0 26 -1 36 -3c-4 -27.333 -12 -49.5 -24 -66.5s-25.667 -30.333 -41 -40
s-31.333 -16.334 -48 -20.001s-32 -5.5 -46 -5.5z" />
    <glyph glyph-name="Edotaccent" unicode="&#x116;" horiz-adv-x="540" 
d="M101 719h385c0.666992 -4 1.16699 -8.83301 1.5 -14.5s0.5 -11.167 0.5 -16.5c0 -4.66699 -0.166992 -10.167 -0.5 -16.5s-0.833008 -11.5 -1.5 -15.5h-316v-243h254c0.666992 -4 1.16699 -8.83301 1.5 -14.5s0.5 -11.167 0.5 -16.5
c0 -4.66699 -0.166992 -10.167 -0.5 -16.5s-0.833008 -11.5 -1.5 -15.5h-254v-287h325c0.666992 -4 1.16699 -8.83301 1.5 -14.5s0.5 -11.167 0.5 -16.5c0 -4.66699 -0.166992 -10.167 -0.5 -16.5s-0.833008 -11.5 -1.5 -15.5h-394v719zM253 789
c-2.66699 13.333 -4 28.333 -4 45c0 7.33301 0.333008 15 1 23s1.66699 15.667 3 23c13.333 2.66699 28.333 4 45 4c7.33301 0 15 -0.333008 23 -1s15.667 -1.66699 23 -3c2.66699 -13.333 4 -28.333 4 -45c0 -7.33301 -0.333008 -15 -1 -23s-1.66699 -15.667 -3 -23
c-13.333 -2.66699 -28.333 -4 -45 -4c-7.33301 0 -15 0.333008 -23 1s-15.667 1.66699 -23 3z" />
    <glyph glyph-name="edotaccent" unicode="&#x117;" horiz-adv-x="553" 
d="M130 245c0 -68 15.666 -118 46.999 -150s78.333 -48 141 -48c25.333 0 48.833 2.16699 70.5 6.5s42.834 10.166 63.501 17.499c3.33301 -7.33301 6 -16.333 8 -27s3.33301 -20.334 4 -29.001c-19.333 -8.66699 -42 -15.334 -68 -20.001s-54.333 -7 -85 -7
c-44 0 -81.833 6.5 -113.5 19.5s-57.667 31.167 -78 54.5s-35.333 51.166 -45 83.499s-14.5 67.833 -14.5 106.5c0 37.333 4.5 72.333 13.5 105s22.667 61.334 41 86.001s41.833 44 70.5 58s63 21 103 21c33.333 0 63 -5.66699 89 -17s47.833 -27.166 65.5 -47.499
s31 -44.666 40 -72.999s13.5 -59.166 13.5 -92.499c0 -6 -0.166992 -13.667 -0.5 -23s-0.833008 -17.333 -1.5 -24h-364zM429.999 300c0 20.667 -2.66797 41 -8.00098 61s-13.666 37.5 -24.999 52.5s-26 27.167 -44 36.5s-39.667 14 -65 14c-46.667 0 -83 -14.333 -109 -43
s-41.667 -69 -47 -121h298zM245.998 610c-2.66699 13.333 -4 28.333 -4 45c0 7.33301 0.333008 15 1 23s1.66699 15.667 3 23c13.333 2.66699 28.333 4 45 4c7.33301 0 15 -0.333008 23 -1s15.667 -1.66699 23 -3c2.66699 -13.333 4 -28.333 4 -45
c0 -7.33301 -0.333008 -15 -1 -23s-1.66699 -15.667 -3 -23c-13.333 -2.66699 -28.333 -4 -45 -4c-7.33301 0 -15 0.333008 -23 1s-15.667 1.66699 -23 3z" />
    <glyph glyph-name="Eogonek" unicode="&#x118;" horiz-adv-x="540" 
d="M101 719l385 -0.00488281c0.666992 -4 1.16699 -8.83301 1.5 -14.5s0.5 -11.167 0.5 -16.5c0 -4.66699 -0.166992 -10.167 -0.5 -16.5s-0.833008 -11.5 -1.5 -15.5h-316v-243h254c0.666992 -4 1.16699 -8.83301 1.5 -14.5s0.5 -11.167 0.5 -16.5
c0 -4.66699 -0.166992 -10.167 -0.5 -16.5s-0.833008 -11.5 -1.5 -15.5h-254v-287h325c0.666992 -4 1.16699 -8.83301 1.5 -14.5s0.5 -11.167 0.5 -16.5c0 -4.66699 -0.166992 -10.167 -0.5 -16.5s-0.833008 -11.5 -1.5 -15.5h-52
c-22 -17.333 -40.833 -37.666 -56.5 -60.999s-23.5 -45.666 -23.5 -66.999c0 -17.333 5.5 -31.166 16.5 -41.499s27.833 -15.5 50.5 -15.5c7.33301 0 15.666 0.5 24.999 1.5s19 3.16699 29 6.5c3.33301 -8 6 -17.167 8 -27.5s3.33301 -19.5 4 -27.5
c-10.667 -3.33301 -22 -5.83301 -34 -7.5s-27.667 -2.5 -47 -2.5c-15.333 0 -30.166 2 -44.499 6s-27.333 10 -39 18s-21 18.333 -28 31s-10.5 27.667 -10.5 45c0 10.667 1.83301 22.334 5.5 35.001s9 25.334 16 38.001s15.5 25 25.5 37s21.333 22.667 34 32h-273v719z" />
    <glyph glyph-name="eogonek" unicode="&#x119;" horiz-adv-x="553" 
d="M130 245c0 -68 15.6621 -118.002 46.9951 -150.002s78.333 -48 141 -48c25.333 0 48.833 2.16699 70.5 6.5s42.834 10.166 63.501 17.499c3.33301 -7.33301 6 -16.166 8 -26.499s3.33301 -19.833 4 -28.5l-20 -7c-14.667 -5.33301 -26.167 -11 -34.5 -17
s-17.166 -13 -26.499 -21c-12 -12 -22.667 -27.167 -32 -45.5s-14 -36.166 -14 -53.499s5.33301 -31.5 16 -42.5s27 -16.5 49 -16.5c7.33301 0 15.333 0.5 24 1.5s18 3.16699 28 6.5c3.33301 -8 5.83301 -16.833 7.5 -26.5s2.83398 -18.5 3.50098 -26.5
c-10 -3.33301 -21.333 -5.83301 -34 -7.5s-26 -2.5 -40 -2.5c-15.333 0 -30.166 2 -44.499 6s-27.166 10 -38.499 18s-20.333 18.333 -27 31s-10 27.667 -10 45c0 19.333 5.5 41.166 16.5 65.499s26.5 46.166 46.5 65.499c-3.33301 -0.666992 -7 -1 -11 -1h-12
c-44 0 -81.833 6.5 -113.5 19.5s-57.667 31.167 -78 54.5s-35.333 51.166 -45 83.499s-14.5 67.833 -14.5 106.5c0 37.333 4.5 72.333 13.5 105s22.667 61.334 41 86.001s41.833 44 70.5 58s63 21 103 21c33.333 0 63 -5.66699 89 -17s47.833 -27.166 65.5 -47.499
s31 -44.666 40 -72.999s13.5 -59.166 13.5 -92.499c0 -6 -0.166992 -13.667 -0.5 -23s-0.833008 -17.333 -1.5 -24h-364zM429.995 299.998c0 20.667 -2.66797 41 -8.00098 61s-13.666 37.5 -24.999 52.5s-26 27.167 -44 36.5s-39.667 14 -65 14
c-46.667 0 -83 -14.333 -109 -43s-41.667 -69 -47 -121h298z" />
    <glyph glyph-name="Ecaron" unicode="&#x11a;" horiz-adv-x="540" 
d="M101 719h385c0.666992 -4 1.16699 -8.83301 1.5 -14.5s0.5 -11.167 0.5 -16.5c0 -4.66699 -0.166992 -10.167 -0.5 -16.5s-0.833008 -11.5 -1.5 -15.5h-316v-243h254c0.666992 -4 1.16699 -8.83301 1.5 -14.5s0.5 -11.167 0.5 -16.5
c0 -4.66699 -0.166992 -10.167 -0.5 -16.5s-0.833008 -11.5 -1.5 -15.5h-254v-287h325c0.666992 -4 1.16699 -8.83301 1.5 -14.5s0.5 -11.167 0.5 -16.5c0 -4.66699 -0.166992 -10.167 -0.5 -16.5s-0.833008 -11.5 -1.5 -15.5h-394v719zM145 889
c6 1.33301 12.501 2.16504 19.501 2.49805s13.167 0.5 18.5 0.5s11.833 -0.166992 19.5 -0.5s15.5 -1.16602 23.5 -2.49902l79 -70l80 70c16 2 30.333 3 43 3c5.33301 0 11.666 -0.166992 18.999 -0.5s14.333 -1.16602 21 -2.49902l-126 -111c-12 -2 -24.333 -3 -37 -3
c-12 0 -24.333 1 -37 3z" />
    <glyph glyph-name="ecaron" unicode="&#x11b;" horiz-adv-x="553" 
d="M130 245c0 -68 15.666 -118 46.999 -150s78.333 -48 141 -48c25.333 0 48.833 2.16699 70.5 6.5s42.834 10.166 63.501 17.499c3.33301 -7.33301 6 -16.333 8 -27s3.33301 -20.334 4 -29.001c-19.333 -8.66699 -42 -15.334 -68 -20.001s-54.333 -7 -85 -7
c-44 0 -81.833 6.5 -113.5 19.5s-57.667 31.167 -78 54.5s-35.333 51.166 -45 83.499s-14.5 67.833 -14.5 106.5c0 37.333 4.5 72.333 13.5 105s22.667 61.334 41 86.001s41.833 44 70.5 58s63 21 103 21c33.333 0 63 -5.66699 89 -17s47.833 -27.166 65.5 -47.499
s31 -44.666 40 -72.999s13.5 -59.166 13.5 -92.499c0 -6 -0.166992 -13.667 -0.5 -23s-0.833008 -17.333 -1.5 -24h-364zM429.999 300c0 20.667 -2.66797 41 -8.00098 61s-13.666 37.5 -24.999 52.5s-26 27.167 -44 36.5s-39.667 14 -65 14c-46.667 0 -83 -14.333 -109 -43
s-41.667 -69 -47 -121h298zM127.998 722c10.667 2 22.0029 3 34.0029 3c6 0 13 -0.166992 21 -0.5s15.333 -1.16602 22 -2.49902l83 -92l83 92c7.33301 1.33301 14.833 2.16602 22.5 2.49902s14.5 0.5 20.5 0.5c11.333 0 22.666 -1 33.999 -3l-117 -129
c-6.66699 -1.33301 -13.834 -2.16602 -21.501 -2.49902s-14.834 -0.5 -21.501 -0.5s-14 0.166992 -22 0.5s-15.333 1.16602 -22 2.49902z" />
    <glyph glyph-name="Gcircumflex" unicode="&#x11c;" horiz-adv-x="690" 
d="M533 371c4.66699 0.666992 10.335 1.16699 17.002 1.5s12.667 0.5 18 0.5c6 0 12 -0.166992 18 -0.5s11.333 -0.833008 16 -1.5v-350c-11.333 -6 -24.833 -11 -40.5 -15s-32.334 -7.33301 -50.001 -10s-35.834 -4.66699 -54.501 -6s-37 -2 -55 -2
c-48 0 -92.667 7.66699 -134 23s-77 38.333 -107 69s-53.5 68.667 -70.5 114s-25.5 98 -25.5 158s8.33301 113.5 25 160.5s39.834 86.667 69.501 119s64.667 57 105 74s84.166 25.5 131.499 25.5c42 0 77 -2.83301 105 -8.5s50.667 -11.167 68 -16.5
c-1.33301 -12 -3.16602 -22.333 -5.49902 -31s-5.83301 -18.667 -10.5 -30c-14.667 5.33301 -34.334 10.833 -59.001 16.5s-56 8.5 -94 8.5s-73 -7.16699 -105 -21.5s-59.5 -35.166 -82.5 -62.499s-41 -60.666 -54 -99.999s-19.5 -84 -19.5 -134
c0 -51.333 7 -95.833 21 -133.5s33 -68.834 57 -93.501s52.167 -43 84.5 -55s66.833 -18 103.5 -18c30 0 55.167 1.16699 75.5 3.5s37.833 6.16602 52.5 11.499v304zM557.001 778c-6 -1.33301 -12.5 -2.16504 -19.5 -2.49805s-13.167 -0.5 -18.5 -0.5
s-11.833 0.166992 -19.5 0.5s-15.5 1.16602 -23.5 2.49902l-79 70l-80 -70c-16 -2 -30.333 -3 -43 -3c-5.33301 0 -11.666 0.166992 -18.999 0.5s-14.333 1.16602 -21 2.49902l126 111c12 2 24.333 3 37 3c11.333 0 23.666 -1 36.999 -3z" />
    <glyph glyph-name="gcircumflex" unicode="&#x11d;" horiz-adv-x="536" 
d="M351 51c58.667 -1.33301 100.505 -13.499 125.505 -36.499s37.5 -53.5 37.5 -91.5c0 -26 -6.66699 -49.5 -20 -70.5s-32 -39 -56 -54s-52.5 -26.667 -85.5 -35s-68.833 -12.5 -107.5 -12.5c-30 0 -57.5 2.33301 -82.5 7s-46.667 12.167 -65 22.5s-32.5 24 -42.5 41
s-15 37.833 -15 62.5c0 25.333 7.33301 49.666 22 72.999s33.667 40.666 57 51.999c-12.667 8 -23.334 18.167 -32.001 30.5s-13 27.5 -13 45.5c0 26 6.16699 47.667 18.5 65s28.833 33 49.5 47c-23.333 14.667 -42 34.334 -56 59.001s-21 54 -21 88
c0 24.667 4.16699 47.834 12.5 69.501s20.833 40.5 37.5 56.5s37.167 28.667 61.5 38s52.5 14 84.5 14c27.333 0 51.666 -3.5 72.999 -10.5s40 -16.167 56 -27.5c6.66699 2.66699 15 5.66699 25 9s21 6.16602 33 8.49902s24.333 4.33301 37 6s25 2.5 37 2.5
c2.66699 -10 4 -21 4 -33c0 -12.667 -1.33301 -24 -4 -34h-95c9.33301 -14.667 16.5 -30.167 21.5 -46.5s7.5 -33.833 7.5 -52.5c0 -28.667 -5 -54 -15 -76s-23.833 -40.5 -41.5 -55.5s-38.334 -26.5 -62.001 -34.5s-49.167 -12 -76.5 -12c-28.667 0 -53.667 3.66699 -75 11
c-18.667 -12 -31.834 -23.5 -39.501 -34.5s-11.5 -23.5 -11.5 -37.5c0 -6.66699 1 -13 3 -19s6.16699 -11.5 12.5 -16.5s15.166 -9 26.499 -12s26 -4.5 44 -4.5zM209.005 -8.99902c-31.333 0.666992 -56.5 -8.16797 -75.5 -26.501s-28.5 -42.5 -28.5 -72.5
c0 -16 3.66699 -29.333 11 -40s17.5 -19 30.5 -25s28.167 -10.167 45.5 -12.5s35.666 -3.5 54.999 -3.5c62 0 110.333 10.5 145 31.5s52 46.167 52 75.5c0 25.333 -8.66699 43.333 -26 54s-45.666 16.334 -84.999 17.001zM135.005 343.999
c0 -34.667 10.167 -63.834 30.5 -87.501s52.166 -35.5 95.499 -35.5s75.333 11.833 96 35.5s31 52.834 31 87.501s-10.333 63.834 -31 87.501s-52.667 35.5 -96 35.5s-75.166 -11.833 -95.499 -35.5s-30.5 -52.834 -30.5 -87.501zM423.005 592.999
c-11.333 -2 -22.6689 -3 -34.002 -3c-6 0 -13 0.166992 -21 0.5s-15.333 1.16602 -22 2.49902l-83 92l-83 -92c-7.33301 -1.33301 -14.833 -2.16602 -22.5 -2.49902s-14.5 -0.5 -20.5 -0.5c-12 0 -23.333 1 -34 3l117 129c6.66699 1.33301 13.834 2.16602 21.501 2.49902
s14.834 0.5 21.501 0.5s14 -0.166992 22 -0.5s15.333 -1.16602 22 -2.49902z" />
    <glyph glyph-name="Gbreve" unicode="&#x11e;" horiz-adv-x="690" 
d="M533 371c4.66699 0.666992 10.335 1.16699 17.002 1.5s12.667 0.5 18 0.5c6 0 12 -0.166992 18 -0.5s11.333 -0.833008 16 -1.5v-350c-11.333 -6 -24.833 -11 -40.5 -15s-32.334 -7.33301 -50.001 -10s-35.834 -4.66699 -54.501 -6s-37 -2 -55 -2
c-48 0 -92.667 7.66699 -134 23s-77 38.333 -107 69s-53.5 68.667 -70.5 114s-25.5 98 -25.5 158s8.33301 113.5 25 160.5s39.834 86.667 69.501 119s64.667 57 105 74s84.166 25.5 131.499 25.5c42 0 77 -2.83301 105 -8.5s50.667 -11.167 68 -16.5
c-1.33301 -12 -3.16602 -22.333 -5.49902 -31s-5.83301 -18.667 -10.5 -30c-14.667 5.33301 -34.334 10.833 -59.001 16.5s-56 8.5 -94 8.5s-73 -7.16699 -105 -21.5s-59.5 -35.166 -82.5 -62.499s-41 -60.666 -54 -99.999s-19.5 -84 -19.5 -134
c0 -51.333 7 -95.833 21 -133.5s33 -68.834 57 -93.501s52.167 -43 84.5 -55s66.833 -18 103.5 -18c30 0 55.167 1.16699 75.5 3.5s37.833 6.16602 52.5 11.499v304zM383.001 774c-14 0 -29.8301 1.66602 -47.4971 4.99902s-34.5 9.16602 -50.5 17.499s-29.833 20 -41.5 35
s-18.834 34.167 -21.501 57.5c10.667 2 21.334 3 32.001 3c11.333 0 23 -1 35 -3c2.66699 -17.333 11.167 -32 25.5 -44s37.166 -18 68.499 -18s54.166 6 68.499 18s22.833 26.667 25.5 44c10.667 2 22 3 34 3c6 0 11.5 -0.166992 16.5 -0.5s10.5 -1.16602 16.5 -2.49902
c-2.66699 -23.333 -9.83398 -42.5 -21.501 -57.5s-25.5 -26.667 -41.5 -35s-32.833 -14.166 -50.5 -17.499s-33.5 -5 -47.5 -5z" />
    <glyph glyph-name="gbreve" unicode="&#x11f;" horiz-adv-x="536" 
d="M351 51c58.667 -1.33301 100.505 -13.499 125.505 -36.499s37.5 -53.5 37.5 -91.5c0 -26 -6.66699 -49.5 -20 -70.5s-32 -39 -56 -54s-52.5 -26.667 -85.5 -35s-68.833 -12.5 -107.5 -12.5c-30 0 -57.5 2.33301 -82.5 7s-46.667 12.167 -65 22.5s-32.5 24 -42.5 41
s-15 37.833 -15 62.5c0 25.333 7.33301 49.666 22 72.999s33.667 40.666 57 51.999c-12.667 8 -23.334 18.167 -32.001 30.5s-13 27.5 -13 45.5c0 26 6.16699 47.667 18.5 65s28.833 33 49.5 47c-23.333 14.667 -42 34.334 -56 59.001s-21 54 -21 88
c0 24.667 4.16699 47.834 12.5 69.501s20.833 40.5 37.5 56.5s37.167 28.667 61.5 38s52.5 14 84.5 14c27.333 0 51.666 -3.5 72.999 -10.5s40 -16.167 56 -27.5c6.66699 2.66699 15 5.66699 25 9s21 6.16602 33 8.49902s24.333 4.33301 37 6s25 2.5 37 2.5
c2.66699 -10 4 -21 4 -33c0 -12.667 -1.33301 -24 -4 -34h-95c9.33301 -14.667 16.5 -30.167 21.5 -46.5s7.5 -33.833 7.5 -52.5c0 -28.667 -5 -54 -15 -76s-23.833 -40.5 -41.5 -55.5s-38.334 -26.5 -62.001 -34.5s-49.167 -12 -76.5 -12c-28.667 0 -53.667 3.66699 -75 11
c-18.667 -12 -31.834 -23.5 -39.501 -34.5s-11.5 -23.5 -11.5 -37.5c0 -6.66699 1 -13 3 -19s6.16699 -11.5 12.5 -16.5s15.166 -9 26.499 -12s26 -4.5 44 -4.5zM209.005 -8.99902c-31.333 0.666992 -56.5 -8.16797 -75.5 -26.501s-28.5 -42.5 -28.5 -72.5
c0 -16 3.66699 -29.333 11 -40s17.5 -19 30.5 -25s28.167 -10.167 45.5 -12.5s35.666 -3.5 54.999 -3.5c62 0 110.333 10.5 145 31.5s52 46.167 52 75.5c0 25.333 -8.66699 43.333 -26 54s-45.666 16.334 -84.999 17.001zM135.005 343.999
c0 -34.667 10.167 -63.834 30.5 -87.501s52.166 -35.5 95.499 -35.5s75.333 11.833 96 35.5s31 52.834 31 87.501s-10.333 63.834 -31 87.501s-52.667 35.5 -96 35.5s-75.166 -11.833 -95.499 -35.5s-30.5 -52.834 -30.5 -87.501zM266.005 589.999
c-14 0 -29.333 1.83301 -46 5.5s-32.667 10.334 -48 20.001s-29 23 -41 40s-20 39.167 -24 66.5c10 2 22 3 36 3c10.667 0 21.667 -1 33 -3c1.33301 -10 3.83301 -19.667 7.5 -29s9.16699 -17.666 16.5 -24.999s16.333 -13.166 27 -17.499s23.667 -6.5 39 -6.5
s28.333 2.16699 39 6.5s19.667 10.166 27 17.499s12.833 15.666 16.5 24.999s6.16699 19 7.5 29c10.667 2 21.667 3 33 3c14 0 26 -1 36 -3c-4 -27.333 -12 -49.5 -24 -66.5s-25.667 -30.333 -41 -40s-31.333 -16.334 -48 -20.001s-32 -5.5 -46 -5.5z" />
    <glyph glyph-name="Gdotaccent" unicode="&#x120;" horiz-adv-x="690" 
d="M533 371c4.66699 0.666992 10.335 1.16699 17.002 1.5s12.667 0.5 18 0.5c6 0 12 -0.166992 18 -0.5s11.333 -0.833008 16 -1.5v-350c-11.333 -6 -24.833 -11 -40.5 -15s-32.334 -7.33301 -50.001 -10s-35.834 -4.66699 -54.501 -6s-37 -2 -55 -2
c-48 0 -92.667 7.66699 -134 23s-77 38.333 -107 69s-53.5 68.667 -70.5 114s-25.5 98 -25.5 158s8.33301 113.5 25 160.5s39.834 86.667 69.501 119s64.667 57 105 74s84.166 25.5 131.499 25.5c42 0 77 -2.83301 105 -8.5s50.667 -11.167 68 -16.5
c-1.33301 -12 -3.16602 -22.333 -5.49902 -31s-5.83301 -18.667 -10.5 -30c-14.667 5.33301 -34.334 10.833 -59.001 16.5s-56 8.5 -94 8.5s-73 -7.16699 -105 -21.5s-59.5 -35.166 -82.5 -62.499s-41 -60.666 -54 -99.999s-19.5 -84 -19.5 -134
c0 -51.333 7 -95.833 21 -133.5s33 -68.834 57 -93.501s52.167 -43 84.5 -55s66.833 -18 103.5 -18c30 0 55.167 1.16699 75.5 3.5s37.833 6.16602 52.5 11.499v304zM351.001 789c-2.66699 13.333 -4 28.333 -4 45c0 7.33301 0.333008 15 1 23s1.66699 15.667 3 23
c13.333 2.66699 28.333 4 45 4c7.33301 0 15 -0.333008 23 -1s15.667 -1.66699 23 -3c2.66699 -13.333 4 -28.333 4 -45c0 -7.33301 -0.333008 -15 -1 -23s-1.66699 -15.667 -3 -23c-13.333 -2.66699 -28.333 -4 -45 -4c-7.33301 0 -15 0.333008 -23 1
s-15.667 1.66699 -23 3z" />
    <glyph glyph-name="gdotaccent" unicode="&#x121;" horiz-adv-x="536" 
d="M351 51c58.667 -1.33301 100.505 -13.499 125.505 -36.499s37.5 -53.5 37.5 -91.5c0 -26 -6.66699 -49.5 -20 -70.5s-32 -39 -56 -54s-52.5 -26.667 -85.5 -35s-68.833 -12.5 -107.5 -12.5c-30 0 -57.5 2.33301 -82.5 7s-46.667 12.167 -65 22.5s-32.5 24 -42.5 41
s-15 37.833 -15 62.5c0 25.333 7.33301 49.666 22 72.999s33.667 40.666 57 51.999c-12.667 8 -23.334 18.167 -32.001 30.5s-13 27.5 -13 45.5c0 26 6.16699 47.667 18.5 65s28.833 33 49.5 47c-23.333 14.667 -42 34.334 -56 59.001s-21 54 -21 88
c0 24.667 4.16699 47.834 12.5 69.501s20.833 40.5 37.5 56.5s37.167 28.667 61.5 38s52.5 14 84.5 14c27.333 0 51.666 -3.5 72.999 -10.5s40 -16.167 56 -27.5c6.66699 2.66699 15 5.66699 25 9s21 6.16602 33 8.49902s24.333 4.33301 37 6s25 2.5 37 2.5
c2.66699 -10 4 -21 4 -33c0 -12.667 -1.33301 -24 -4 -34h-95c9.33301 -14.667 16.5 -30.167 21.5 -46.5s7.5 -33.833 7.5 -52.5c0 -28.667 -5 -54 -15 -76s-23.833 -40.5 -41.5 -55.5s-38.334 -26.5 -62.001 -34.5s-49.167 -12 -76.5 -12c-28.667 0 -53.667 3.66699 -75 11
c-18.667 -12 -31.834 -23.5 -39.501 -34.5s-11.5 -23.5 -11.5 -37.5c0 -6.66699 1 -13 3 -19s6.16699 -11.5 12.5 -16.5s15.166 -9 26.499 -12s26 -4.5 44 -4.5zM209.005 -8.99902c-31.333 0.666992 -56.5 -8.16797 -75.5 -26.501s-28.5 -42.5 -28.5 -72.5
c0 -16 3.66699 -29.333 11 -40s17.5 -19 30.5 -25s28.167 -10.167 45.5 -12.5s35.666 -3.5 54.999 -3.5c62 0 110.333 10.5 145 31.5s52 46.167 52 75.5c0 25.333 -8.66699 43.333 -26 54s-45.666 16.334 -84.999 17.001zM135.005 343.999
c0 -34.667 10.167 -63.834 30.5 -87.501s52.166 -35.5 95.499 -35.5s75.333 11.833 96 35.5s31 52.834 31 87.501s-10.333 63.834 -31 87.501s-52.667 35.5 -96 35.5s-75.166 -11.833 -95.499 -35.5s-30.5 -52.834 -30.5 -87.501zM214.005 609.999
c-2.66699 13.333 -4 28.333 -4 45c0 7.33301 0.333008 15 1 23s1.66699 15.667 3 23c13.333 2.66699 28.333 4 45 4c7.33301 0 15 -0.333008 23 -1s15.667 -1.66699 23 -3c2.66699 -13.333 4 -28.333 4 -45c0 -7.33301 -0.333008 -15 -1 -23s-1.66699 -15.667 -3 -23
c-13.333 -2.66699 -28.333 -4 -45 -4c-7.33301 0 -15 0.333008 -23 1s-15.667 1.66699 -23 3z" />
    <glyph glyph-name="Gcommaaccent" unicode="&#x122;" horiz-adv-x="690" 
d="M533 371c4.66699 0.666992 10.335 1.16699 17.002 1.5s12.667 0.5 18 0.5c6 0 12 -0.166992 18 -0.5s11.333 -0.833008 16 -1.5v-350c-11.333 -6 -24.833 -11 -40.5 -15s-32.334 -7.33301 -50.001 -10s-35.834 -4.66699 -54.501 -6s-37 -2 -55 -2
c-48 0 -92.667 7.66699 -134 23s-77 38.333 -107 69s-53.5 68.667 -70.5 114s-25.5 98 -25.5 158s8.33301 113.5 25 160.5s39.834 86.667 69.501 119s64.667 57 105 74s84.166 25.5 131.499 25.5c42 0 77 -2.83301 105 -8.5s50.667 -11.167 68 -16.5
c-1.33301 -12 -3.16602 -22.333 -5.49902 -31s-5.83301 -18.667 -10.5 -30c-14.667 5.33301 -34.334 10.833 -59.001 16.5s-56 8.5 -94 8.5s-73 -7.16699 -105 -21.5s-59.5 -35.166 -82.5 -62.499s-41 -60.666 -54 -99.999s-19.5 -84 -19.5 -134
c0 -51.333 7 -95.833 21 -133.5s33 -68.834 57 -93.501s52.167 -43 84.5 -55s66.833 -18 103.5 -18c30 0 55.167 1.16699 75.5 3.5s37.833 6.16602 52.5 11.499v304zM407.001 -240c-11.333 -2 -22.6641 -3 -33.9971 -3c-10.667 0 -21.334 1 -32.001 3l46 176
c5.33301 1.33301 11.333 2.16602 18 2.49902s13 0.5 19 0.5c7.33301 0 14.166 -0.166992 20.499 -0.5s13.166 -1.16602 20.499 -2.49902z" />
    <glyph glyph-name="gcommaaccent" unicode="&#x123;" horiz-adv-x="536" 
d="M351 51c58.667 -1.33301 100.505 -13.499 125.505 -36.499s37.5 -53.5 37.5 -91.5c0 -26 -6.66699 -49.5 -20 -70.5s-32 -39 -56 -54s-52.5 -26.667 -85.5 -35s-68.833 -12.5 -107.5 -12.5c-30 0 -57.5 2.33301 -82.5 7s-46.667 12.167 -65 22.5s-32.5 24 -42.5 41
s-15 37.833 -15 62.5c0 25.333 7.33301 49.666 22 72.999s33.667 40.666 57 51.999c-12.667 8 -23.334 18.167 -32.001 30.5s-13 27.5 -13 45.5c0 26 6.16699 47.667 18.5 65s28.833 33 49.5 47c-23.333 14.667 -42 34.334 -56 59.001s-21 54 -21 88
c0 24.667 4.16699 47.834 12.5 69.501s20.833 40.5 37.5 56.5s37.167 28.667 61.5 38s52.5 14 84.5 14c27.333 0 51.666 -3.5 72.999 -10.5s40 -16.167 56 -27.5c6.66699 2.66699 15 5.66699 25 9s21 6.16602 33 8.49902s24.333 4.33301 37 6s25 2.5 37 2.5
c2.66699 -10 4 -21 4 -33c0 -12.667 -1.33301 -24 -4 -34h-95c9.33301 -14.667 16.5 -30.167 21.5 -46.5s7.5 -33.833 7.5 -52.5c0 -28.667 -5 -54 -15 -76s-23.833 -40.5 -41.5 -55.5s-38.334 -26.5 -62.001 -34.5s-49.167 -12 -76.5 -12c-28.667 0 -53.667 3.66699 -75 11
c-18.667 -12 -31.834 -23.5 -39.501 -34.5s-11.5 -23.5 -11.5 -37.5c0 -6.66699 1 -13 3 -19s6.16699 -11.5 12.5 -16.5s15.166 -9 26.499 -12s26 -4.5 44 -4.5zM209.005 -8.99902c-31.333 0.666992 -56.5 -8.16797 -75.5 -26.501s-28.5 -42.5 -28.5 -72.5
c0 -16 3.66699 -29.333 11 -40s17.5 -19 30.5 -25s28.167 -10.167 45.5 -12.5s35.666 -3.5 54.999 -3.5c62 0 110.333 10.5 145 31.5s52 46.167 52 75.5c0 25.333 -8.66699 43.333 -26 54s-45.666 16.334 -84.999 17.001zM135.005 343.999
c0 -34.667 10.167 -63.834 30.5 -87.501s52.166 -35.5 95.499 -35.5s75.333 11.833 96 35.5s31 52.834 31 87.501s-10.333 63.834 -31 87.501s-52.667 35.5 -96 35.5s-75.166 -11.833 -95.499 -35.5s-30.5 -52.834 -30.5 -87.501zM292.005 576.999c-13.333 -2 -25 -3 -35 -3
c-13.333 0 -28.333 1 -45 3l80 147c6 0.666992 12 1.16699 18 1.5s12.333 0.5 19 0.5c6 0 12.167 -0.166992 18.5 -0.5s12.833 -0.833008 19.5 -1.5z" />
    <glyph glyph-name="Hcircumflex" unicode="&#x124;" horiz-adv-x="694" 
d="M101 719c4.66699 0.666992 10.332 1.16699 16.999 1.5s12.667 0.5 18 0.5c6 0 12 -0.166992 18 -0.5s11.333 -0.833008 16 -1.5v-306h354v306c4.66699 0.666992 10 1.16699 16 1.5s12 0.5 18 0.5c5.33301 0 11.333 -0.166992 18 -0.5s12.334 -0.833008 17.001 -1.5v-719
c-4 -0.666992 -9.16699 -1.16699 -15.5 -1.5s-12.833 -0.5 -19.5 -0.5c-6 0 -12 0.166992 -18 0.5s-11.333 0.833008 -16 1.5v350h-354v-350c-4.66699 -0.666992 -10 -1.16699 -16 -1.5s-12 -0.5 -18 -0.5c-6.66699 0 -13.167 0.166992 -19.5 0.5s-11.5 0.833008 -15.5 1.5
v719zM507.998 778c-6 -1.33301 -12.5 -2.16504 -19.5 -2.49805s-13.167 -0.5 -18.5 -0.5s-11.833 0.166992 -19.5 0.5s-15.5 1.16602 -23.5 2.49902l-79 70l-80 -70c-16 -2 -30.333 -3 -43 -3c-5.33301 0 -11.666 0.166992 -18.999 0.5s-14.333 1.16602 -21 2.49902l126 111
c12 2 24.333 3 37 3c11.333 0 23.666 -1 36.999 -3z" />
    <glyph glyph-name="hcircumflex" unicode="&#x125;" horiz-adv-x="572" 
d="M88 735c4 0.666992 9.49609 1.16602 16.4961 1.49902s12.5 0.5 16.5 0.5c3.33301 0 8.66602 -0.166992 15.999 -0.5s13 -0.833008 17 -1.5v-316c6.66699 12 15.334 24.167 26.001 36.5s23 23.5 37 33.5s29.833 18 47.5 24s37.167 9 58.5 9
c58.667 0 101.834 -17.5 129.501 -52.5s41.5 -84.167 41.5 -147.5v-322c-4 -0.666992 -9.5 -1.16699 -16.5 -1.5s-12.5 -0.5 -16.5 -0.5c-3.33301 0 -8.66602 0.166992 -15.999 0.5s-13 0.833008 -17 1.5v302c0 56.667 -9.33301 97.334 -28 122.001s-45.667 37 -81 37
c-23.333 0 -45.166 -4.33301 -65.499 -13s-37.833 -21.5 -52.5 -38.5s-26.167 -38.333 -34.5 -64s-12.5 -55.167 -12.5 -88.5v-257c-4 -0.666992 -9.5 -1.16699 -16.5 -1.5s-12.5 -0.5 -16.5 -0.5c-3.33301 0 -8.66602 0.166992 -15.999 0.5s-13 0.833008 -17 1.5v735z
M403.996 783.999c-6 -1.33301 -12.5 -2.16504 -19.5 -2.49805s-13.167 -0.5 -18.5 -0.5s-11.833 0.166992 -19.5 0.5s-15.5 1.16602 -23.5 2.49902l-79 70l-80 -70c-16 -2 -30.333 -3 -43 -3c-5.33301 0 -11.666 0.166992 -18.999 0.5s-14.333 1.16602 -21 2.49902l126 111
c12 2 24.333 3 37 3c11.333 0 23.666 -1 36.999 -3z" />
    </font>
</defs>
</svg>
