<?xml version="1.0" standalone="no"?>
<!DOCTYPE svg PUBLIC "-//W3C//DTD SVG 1.1//EN" "http://www.w3.org/Graphics/SVG/1.1/DTD/svg11.dtd" >
<svg>
<metadata>
Created by FontForge 20090914 at Wed Nov 17 20:22:34 2021
 By www-data
Copyright 2020 The Jost Project Authors (https://github.com/indestructible-type/Jost)
</metadata>
<defs>
<font id="Jost-Italic" horiz-adv-x="553" >
  <font-face 
    font-family="Jost"
    font-weight="400"
    font-style="italic"
    font-stretch="normal"
    units-per-em="1000"
    panose-1="0 0 0 0 0 0 0 0 0 0"
    ascent="800"
    descent="-200"
    x-height="460"
    cap-height="700"
    bbox="-164.002 -349 1433.8 1030"
    underline-thickness="50"
    underline-position="-75"
    slope="-5"
    unicode-range="U+000D-U+FF19"
  />
<missing-glyph horiz-adv-x="500" 
 />
    <glyph glyph-name=".notdef" horiz-adv-x="500" 
 />
    <glyph glyph-name="uni0000" horiz-adv-x="301" 
 />
    <glyph glyph-name="uni0000" horiz-adv-x="301" 
 />
    <glyph glyph-name="uni000D" unicode="&#xd;" horiz-adv-x="301" 
 />
    <glyph glyph-name="space" unicode=" " horiz-adv-x="301" 
 />
    <glyph glyph-name="exclam" unicode="!" horiz-adv-x="291" 
d="M188 700l-64 -499h60l104 499h-100zM71 40c0 -14.667 5.5 -27.5 16.5 -38.5s23.833 -16.5 38.5 -16.5c15.333 0 28.333 5.5 39 16.5s16 23.833 16 38.5c0 15.333 -5.33301 28.333 -16 39s-23.667 16 -39 16c-14.667 0 -27.5 -5.33301 -38.5 -16s-16.5 -23.667 -16.5 -39z
" />
    <glyph glyph-name="quotedbl" unicode="&#x22;" horiz-adv-x="451" 
d="M216 700l-94 -299h55l135 299h-96zM390 700l-94 -299h55l135 299h-96z" />
    <glyph glyph-name="numbersign" unicode="#" horiz-adv-x="587" 
d="M121 441l134 -1h13h187h13l134 1l11 64h-482zM41 201h482l10 64h-127h-20h-194h-15h-126zM532 700l-90 -222l-6 -16l-87 -216l-8 -18l-93 -228h75l286 700h-77zM328 700l-282 -700h73l93 226l7 18l90 222l7 16l89 218h-77z" />
    <glyph glyph-name="dollar" unicode="$" horiz-adv-x="563" 
d="M360 818l-23 -149h72l24 149h-73zM242 48l-25 -159h72l25 159h-72zM491 514l73.0068 45.001c-7.33301 26 -19.5 50.5 -36.5 73.5s-38.167 41.667 -63.5 56s-55.333 21.5 -90 21.5c-35.333 0 -69 -7.33301 -101 -22s-58.833 -34.667 -80.5 -60
s-34.834 -54.333 -39.501 -87c-4.66699 -36.667 -0.333984 -68.167 12.999 -94.5s31.833 -48.166 55.5 -65.499s48.167 -31.666 73.5 -42.999c24 -10 47 -21.5 69 -34.5s39.333 -29.167 52 -48.5s16.667 -43.333 12 -72c-3.33301 -22 -11 -41.5 -23 -58.5
s-27.667 -30.167 -47 -39.5s-41.333 -14 -66 -14c-28.667 0 -52.667 7.16699 -72 21.5s-35.333 33.166 -48 56.499s-23.334 49 -32.001 77l-76 -42c10 -36 24.667 -68.5 44 -97.5s43.333 -52.167 72 -69.5s62 -26 100 -26c43.333 0 81.666 8.33301 114.999 25
s60.5 40.167 81.5 70.5s34.167 64.833 39.5 103.5c4.66699 37.333 0.166992 69.166 -13.5 95.499s-32.167 48.5 -55.5 66.5s-48 32.667 -74 44c-18 7.33301 -35.5 15.166 -52.5 23.499s-32.167 17.666 -45.5 27.999s-23.333 22.666 -30 36.999s-8.66699 30.833 -6 49.5
c3.33301 20 10.666 37.167 21.999 51.5s26.166 25.333 44.499 33s39.166 11.167 62.499 10.5c24 0 43.667 -5.66699 59 -17s28 -25.666 38 -42.999s18.667 -35.666 26 -54.999z" />
    <glyph glyph-name="percent" unicode="%" horiz-adv-x="729" 
d="M100 551c-4 -28 -1.33203 -54.167 8.00098 -78.5s24.333 -44 45 -59s46.334 -22.5 77.001 -22.5s58.667 7.33301 84 22s46.5 34 63.5 58s27.5 50.333 31.5 79c4 28 1.33301 54.167 -8 78.5s-24.333 44 -45 59s-46.334 22.5 -77.001 22.5s-58.834 -7.33301 -84.501 -22
s-46.667 -34 -63 -58s-26.833 -50.333 -31.5 -79zM170.001 550c2.66699 16 8.83398 31.333 18.501 46s21.834 26.667 36.501 36s30.667 13.666 48 12.999c18 -0.666992 32.167 -5.66699 42.5 -15s17.5 -21.166 21.5 -35.499s4.66699 -29.166 2 -44.499
c-2.66699 -16 -8.83398 -31.333 -18.501 -46s-21.667 -26.5 -36 -35.5s-30.5 -13.167 -48.5 -12.5c-17.333 0.666992 -31.333 5.66699 -42 15s-17.834 21.166 -21.501 35.499s-4.5 28.833 -2.5 43.5zM386.001 151c-4 -28 -1.33203 -54.167 8.00098 -78.5s24.333 -44 45 -59
s46.334 -22.5 77.001 -22.5s58.667 7.33301 84 22s46.333 34 63 58s27 50.333 31 79c4 28 1.5 54.167 -7.5 78.5s-23.833 44 -44.5 59s-46.334 22.5 -77.001 22.5s-58.834 -7.33301 -84.501 -22s-46.667 -34 -63 -58s-26.833 -50.333 -31.5 -79zM456.002 150
c2.66699 16 8.83398 31.333 18.501 46s21.834 26.667 36.501 36s30.667 13.666 48 12.999s31.333 -5.66699 42 -15s18 -21.166 22 -35.499s4.66699 -29.166 2 -44.499c-2.66699 -16 -8.83398 -31.333 -18.501 -46s-21.667 -26.5 -36 -35.5s-30.5 -13.167 -48.5 -12.5
c-17.333 0.666992 -31.333 5.66699 -42 15s-17.834 21.166 -21.501 35.499s-4.5 28.833 -2.5 43.5zM637.002 700l-555 -700h75l558 700h-78z" />
    <glyph glyph-name="ampersand" unicode="&#x26;" horiz-adv-x="655" 
d="M260 384l267.996 -384.002h90l-294 425l-30.5 43c-10.333 14 -18.5 28.333 -24.5 43s-7.66699 29.667 -5 45c2.66699 16 8.5 30.333 17.5 43s20.667 22.834 35 30.501s29.833 11.167 46.5 10.5c17.333 0 31.5 -4 42.5 -12s18.833 -18.333 23.5 -31s5.66699 -27 3 -43
c-3.33301 -18.667 -12 -36.167 -26 -52.5s-31 -31.5 -51 -45.5s-41.333 -27 -64 -39l-56.5 -29c-20.333 -10 -40.666 -21.333 -60.999 -34s-39.166 -27 -56.499 -43s-32.166 -34.5 -44.499 -55.5s-20.166 -45.167 -23.499 -72.5c-4.66699 -38 1.5 -71.333 18.5 -100
s41.167 -51 72.5 -67s65.333 -24.333 102 -25c46 -0.666992 88.833 7.66602 128.5 24.999s77 40 112 68s68 58.833 99 92.5l89.5 99.5l-57 39l-78 -86.5c-27.333 -29.667 -56.166 -57 -86.499 -82s-61.833 -45 -94.5 -60s-66.667 -22.167 -102 -21.5
c-24.667 0.666992 -46.667 6.16699 -66 16.5s-33.833 24.666 -43.5 42.999s-12.834 39.5 -9.50098 63.5c4 25.333 13.167 47 27.5 65s31.833 33.833 52.5 47.5s42.334 26 65.001 37s43.667 21.833 63 32.5c28 16 54.167 33.333 78.5 52s44.666 38.834 60.999 60.501
s26.5 45.5 30.5 71.5c4 28 0.666992 53.833 -10 77.5s-27.334 42.834 -50.001 57.501s-50 22 -82 22c-31.333 0 -60.666 -6.5 -87.999 -19.5s-50 -31 -68 -54s-29 -49.833 -33 -80.5c-2.66699 -24 0.5 -46.167 9.5 -66.5s20.167 -39.166 33.5 -56.499s25.333 -34 36 -50z
" />
    <glyph glyph-name="quotesingle" unicode="'" horiz-adv-x="277" 
d="M216 700l-94 -299h55l135 299h-96z" />
    <glyph glyph-name="parenleft" unicode="(" horiz-adv-x="301" 
d="M301 779c-49.333 -73.333 -89.5 -151.333 -120.5 -234s-53.167 -167.667 -66.5 -255c-12 -82 -15.333 -164.5 -10 -247.5s21.333 -163.833 48 -242.5h73c-22.667 79.333 -35 160.333 -37 243s3 165 15 247c14 86.667 35.167 171.167 63.5 253.5s64.5 160.833 108.5 235.5
h-74z" />
    <glyph glyph-name="parenright" unicode=")" horiz-adv-x="301" 
d="M56 -199c49.333 73.333 89.333 151.499 120 234.499s52.667 167.833 66 254.5c12 82.667 15.5 165.5 10.5 248.5s-21.167 163.833 -48.5 242.5h-73c22.667 -78.667 35.167 -159.5 37.5 -242.5s-2.83398 -165.833 -15.501 -248.5
c-13.333 -86 -34.166 -170.167 -62.499 -252.5s-64.833 -161.166 -109.5 -236.499h75z" />
    <glyph glyph-name="asterisk" unicode="*" horiz-adv-x="575" 
d="M532 599l-189 -69l8 -48l191 50zM462 367l-95 153l-43 -29l77 -164zM234 328l130 160l-36 31l-145 -149zM160 533l176 -51l23 47l-168 69zM346 700l-24 -194h49l44 194h-69z" />
    <glyph glyph-name="plus" unicode="+" horiz-adv-x="597" 
d="M73 216l472 -1l14 80h-473zM314 500l-82 -489l82 -1l86 490h-86z" />
    <glyph glyph-name="comma" unicode="," horiz-adv-x="299" 
d="M134 109l-129 -257l55 -21l150 247z" />
    <glyph glyph-name="hyphen" unicode="-" horiz-adv-x="204" 
d="M12 201h196l13 74h-196z" />
    <glyph glyph-name="period" unicode="." horiz-adv-x="291" 
d="M71 40c0 -14.667 5.33301 -27.334 16 -38.001s23.334 -16 38.001 -16c15.333 0 28.333 5.33301 39 16s16 23.334 16 38.001c0 15.333 -5.33301 28.333 -16 39s-23.667 16 -39 16c-14.667 0 -27.334 -5.33301 -38.001 -16s-16 -23.667 -16 -39z" />
    <glyph glyph-name="slash" unicode="/" horiz-adv-x="500" 
d="M498 700l-536 -849h79l539 849h-82z" />
    <glyph glyph-name="zero" unicode="0" horiz-adv-x="582" 
d="M155 350c4.66699 34 13 67.666 25 100.999s27.333 63.5 46 90.5s40.5 48.5 65.5 64.5s52.833 24 83.5 24c24.667 -0.666992 45 -6.66699 61 -18s28.5 -26.666 37.5 -45.999s15.333 -41.166 19 -65.499s5.33398 -49.333 5.00098 -75s-1.83301 -50.834 -4.5 -75.501
c-4.66699 -34 -13 -67.667 -25 -101s-27.333 -63.5 -46 -90.5s-40.5 -48.5 -65.5 -64.5s-52.833 -23.667 -83.5 -23c-24.667 0 -45 5.83301 -61 17.5s-28.5 27.167 -37.5 46.5s-15.333 41 -19 65s-5.33398 49 -5.00098 75s1.83301 51 4.5 75zM71 349.999
c-4 -33.333 -5.33301 -66.999 -4 -100.999s6 -66.5 14 -97.5s20 -58.5 36 -82.5s36.167 -43 60.5 -57s53.833 -21 88.5 -21c42 0 80.667 10 116 30s66.5 47.167 93.5 81.5s49.167 72.833 66.5 115.5s29 86.667 35 132c4 33.333 5.33301 67.166 4 101.499s-6 66.833 -14 97.5
s-20 58.167 -36 82.5s-36.167 43.5 -60.5 57.5s-53.833 21 -88.5 21c-42 0 -80.667 -10 -116 -30s-66.5 -47.167 -93.5 -81.5s-49.167 -73 -66.5 -116s-29 -87.167 -35 -132.5z" />
    <glyph glyph-name="one" unicode="1" horiz-adv-x="437" 
d="M145 562l159 45l-104 -607h84l122 711l-245 -60z" />
    <glyph glyph-name="two" unicode="2" horiz-adv-x="552" 
d="M2 0l481 0.000976562l13 80l-309 1l251 226c29.333 27.333 55.333 58.333 78 93s36.667 71 42 109c5.33301 32 1.33301 63.5 -12 94.5s-34.833 56.667 -64.5 77s-66.834 30.5 -111.501 30.5c-48.667 0 -90.834 -11.333 -126.501 -34s-64.5 -52.834 -86.5 -90.501
s-37 -79.5 -45 -125.5h83c6 30.667 16.167 59 30.5 85s33 46.833 56 62.5s50.167 23.167 81.5 22.5c26 0 47.667 -6.16699 65 -18.5s29.833 -28 37.5 -47s9.83398 -38.833 6.50098 -59.5c-2.66699 -19.333 -8.66699 -37.833 -18 -55.5s-20.666 -34.5 -33.999 -50.5
s-28 -31.667 -44 -47z" />
    <glyph glyph-name="three" unicode="3" horiz-adv-x="530" 
d="M282 346c31.333 1.33301 61.002 6.16895 89.002 14.502s53.167 20 75.5 35s41 33.333 56 55s24.5 46.167 28.5 73.5c4.66699 32.667 1 63 -11 91s-31 50.833 -57 68.5s-57.667 26.5 -95 26.5c-38 0 -72.167 -8 -102.5 -24s-55.333 -37.833 -75 -65.5
s-32.834 -58.834 -39.501 -93.501h80c5.33301 19.333 14.166 37 26.499 53s27.5 29 45.5 39s38 14.667 60 14c22 0 39.667 -5.33301 53 -16s22.5 -24.334 27.5 -41.001s5.83301 -35 2.5 -55c-4 -23.333 -13.333 -43.833 -28 -61.5s-33 -31.5 -55 -41.5s-46.667 -16 -74 -18z
M259.002 -8.99707c40 0 77.165 8.16895 111.498 24.502s63 39 86 68s37.167 62.833 42.5 101.5c4.66699 33.333 2.16699 62.166 -7.5 86.499s-24.667 44.333 -45 60s-44.333 27.5 -72 35.5s-57.167 12.333 -88.5 13l-8 -55c20.667 -1.33301 40 -4.83301 58 -10.5
s33.5 -13.667 46.5 -24s22.5 -23.333 28.5 -39s7.33301 -34.5 4 -56.5c-3.33301 -24 -12 -45.333 -26 -64s-31.5 -33.334 -52.5 -44.001s-44.5 -16 -70.5 -16c-25.333 0 -46.666 5 -63.999 15s-30.166 23.5 -38.499 40.5s-11.833 36.5 -10.5 58.5h-84
c-2.66699 -36.667 3 -69.667 17 -99s35.833 -52.5 65.5 -69.5s65.5 -25.5 107.5 -25.5z" />
    <glyph glyph-name="four" unicode="4" horiz-adv-x="566" 
d="M17 141l518 -1l13 75h-143h-17l-221 1l239 290l-54 -319l-2 -11l-31 -176h84l120 700l-36 -1z" />
    <glyph glyph-name="five" unicode="5" horiz-adv-x="547" 
d="M528 230c5.33301 40.667 2.16406 78.835 -9.50293 114.502s-31 64.834 -58 87.501s-61.167 34 -102.5 34c-18 0 -35.667 -2.5 -53 -7.5s-34.333 -11.167 -51 -18.5l78 185h254l13 75h-323l-145 -372c32.667 20 63.334 35.667 92.001 47s59.667 16.333 93 15
c30 -0.666992 55 -8.33398 75 -23.001s34.5 -33.834 43.5 -57.501s11.167 -50.167 6.5 -79.5c-4.66699 -30 -15 -57 -31 -81s-36.5 -43 -61.5 -57s-53.833 -21 -86.5 -21c-36.667 0 -68 11.5 -94 34.5s-45.667 49.833 -59 80.5l-76 -48
c19.333 -42.667 47 -77.834 83 -105.501s82.333 -41.5 139 -41.5c34.667 0 67.334 5.66699 98.001 17s58.334 27.5 83.001 48.5s45 46.167 61 75.5s26.333 62 31 98z" />
    <glyph glyph-name="six" unicode="6" horiz-adv-x="559" 
d="M146 230c4.66699 30 15.5 57.501 32.5 82.501s38.333 45 64 60s53.5 22.5 83.5 22.5s55 -8 75 -24s34.333 -36.333 43 -61s10.667 -51.334 6 -80.001c-4.66699 -29.333 -15.5 -56.5 -32.5 -81.5s-38.167 -44.667 -63.5 -59s-53.333 -21.5 -84 -21.5
c-29.333 0 -54 7.66699 -74 23s-34.333 35.333 -43 60s-11 51 -7 79zM409 700.001l-279.004 -325.003c-16 -19.333 -29.667 -41.333 -41 -66s-19 -51 -23 -79c-5.33301 -43.333 -0.666016 -83.166 14.001 -119.499s37.834 -65.333 69.501 -87s69.834 -32.5 114.501 -32.5
c45.333 0 87 10.5 125 31.5s69.5 49.667 94.5 86s40.5 76.833 46.5 121.5c4.66699 38.667 0.833984 75.167 -11.499 109.5s-31.833 62.333 -58.5 84s-59.667 32.834 -99 33.501c-21.333 0 -41 -3.16699 -59 -9.5s-34.667 -16.166 -50 -29.499l7 -6l259 288h-109z" />
    <glyph glyph-name="seven" unicode="7" horiz-adv-x="509" 
d="M106 620h352l-384 -620h90l434 700h-479z" />
    <glyph glyph-name="eight" unicode="8" horiz-adv-x="530" 
d="M141 532c-4 -26 -2.99609 -49.666 3.00391 -70.999s16.167 -39.833 30.5 -55.5s32.333 -27.834 54 -36.501s46.167 -13 73.5 -13s53.166 4.16699 77.499 12.5s46.166 20.166 65.499 35.499s35.166 33.833 47.499 55.5s20.5 45.5 24.5 71.5
c3.33301 24 1.83301 46.667 -4.5 68s-16.833 40.333 -31.5 57s-32.667 29.834 -54 39.501s-45 14.5 -71 14.5c-35.333 0 -68.333 -8 -99 -24s-56.334 -37.5 -77.001 -64.5s-33.667 -56.833 -39 -89.5zM218.004 521.001c4 20.667 12.1641 39.667 24.4971 57
s27.833 31.333 46.5 42s38.667 15.667 60 15c21.333 0 39 -5.5 53 -16.5s24 -25 30 -42s7.33301 -35.5 4 -55.5s-11.666 -38.5 -24.999 -55.5s-29.166 -30.333 -47.499 -40s-37.833 -14.5 -58.5 -14.5c-20 0.666992 -37 6 -51 16s-24.167 23.333 -30.5 40
s-8.16602 34.667 -5.49902 54zM58.001 191.001c-4 -26.667 -2.33203 -51.999 5.00098 -75.999s19.166 -45.333 35.499 -64s36.5 -33.334 60.5 -44.001s50.667 -16 80 -16c30 0 58.833 5 86.5 15s52.5 24.167 74.5 42.5s40.167 39.666 54.5 63.999s23.833 50.166 28.5 77.499
c4 29.333 2.33301 56.333 -5 81s-19.5 45.834 -36.5 63.501s-37.333 31.334 -61 41.001s-49.834 14.5 -78.501 14.5c-29.333 0 -57.666 -4.66699 -84.999 -14s-52.166 -22.833 -74.499 -40.5s-40.833 -38.667 -55.5 -63s-24.334 -51.5 -29.001 -81.5zM139.002 200.002
c4.66699 24 15.002 46.3291 31.002 66.9961s35.333 37.334 58 50.001s46 18.667 70 18c24 0 44.667 -6.5 62 -19.5s30.166 -29.667 38.499 -50s10.5 -42.166 6.5 -65.499c-4 -26 -14 -49.167 -30 -69.5s-35.333 -36.166 -58 -47.499s-46.334 -17 -71.001 -17
c-24 0.666992 -44.667 6.83398 -62 18.501s-30 27.667 -38 48s-10.333 42.833 -7 67.5z" />
    <glyph glyph-name="nine" unicode="9" horiz-adv-x="559" 
d="M487 470c-4.66699 -29.333 -15.5 -56.5 -32.5 -81.5s-38.167 -45 -63.5 -60s-53.333 -22.5 -84 -22.5c-30 0 -55 7.83301 -75 23.5s-34.167 36 -42.5 61s-10.5 51.5 -6.5 79.5c4.66699 30 15.5 57.333 32.5 82s38.333 44.334 64 59.001s53.5 22 83.5 22
s55 -7.66699 75 -23s34.333 -35.333 43 -60s10.667 -51.334 6 -80.001zM224 0l279 325.002c16 19.333 29.667 41.5 41 66.5s19 51.167 23 78.5c6 44 1.5 84.167 -13.5 120.5s-38.167 65.333 -69.5 87s-69.666 32.5 -114.999 32.5c-44.667 0 -86.167 -10.5 -124.5 -31.5
s-70 -49.667 -95 -86s-40.5 -77.166 -46.5 -122.499c-4.66699 -38 -0.833984 -74.167 11.499 -108.5s32 -62.333 59 -84s59.833 -32.834 98.5 -33.501c21.333 -0.666992 41 2.16602 59 8.49902s34.667 16.166 50 29.499l-7 7l-259 -289h109z" />
    <glyph glyph-name="colon" unicode=":" horiz-adv-x="291" 
d="M71 40c0 -14.667 5.33301 -27.334 16 -38.001s23.334 -16 38.001 -16c15.333 0 28.333 5.33301 39 16s16 23.334 16 38.001c0 15.333 -5.33301 28.333 -16 39s-23.667 16 -39 16c-14.667 0 -27.334 -5.33301 -38.001 -16s-16 -23.667 -16 -39zM136 420
c0 -14.667 5.33301 -27.334 16 -38.001s23.334 -16 38.001 -16c15.333 0 28.333 5.33301 39 16s16 23.334 16 38.001c0 15.333 -5.33301 28.333 -16 39s-23.667 16 -39 16c-14.667 0 -27.334 -5.33301 -38.001 -16s-16 -23.667 -16 -39z" />
    <glyph glyph-name="semicolon" unicode=";" horiz-adv-x="320" 
d="M165 420c0 -14.667 5.5 -27.334 16.5 -38.001s23.833 -16 38.5 -16c15.333 0 28.166 5.33301 38.499 16s15.5 23.334 15.5 38.001c0 15.333 -5.16699 28.333 -15.5 39s-23.166 16 -38.499 16c-14.667 0 -27.5 -5.33301 -38.5 -16s-16.5 -23.667 -16.5 -39zM134 109
l-129 -257l55 -21l150 247z" />
    <glyph glyph-name="less" unicode="&#x3c;" horiz-adv-x="621" 
d="M209 259l395 159l15 83l-536 -221l-7 -44l459 -220l13 75z" />
    <glyph glyph-name="equal" unicode="=" horiz-adv-x="597" 
d="M61 141l471 -1l13 75h-472zM86 291l472 -1l13 75h-473z" />
    <glyph glyph-name="greater" unicode="&#x3e;" horiz-adv-x="621" 
d="M446 257l-395 -159l-14 -84l535 221l7 45l-458 219l-14 -75z" />
    <glyph glyph-name="question" unicode="?" horiz-adv-x="541" 
d="M462 500c-6 -28 -19.167 -53.665 -39.5 -76.998s-45.666 -41.833 -75.999 -55.5s-63.5 -21.167 -99.5 -22.5h-24l-9 -174h59l29 119c38 4.66699 74.167 16.167 108.5 34.5s63.333 42.5 87 72.5s38.5 64.333 44.5 103c4 28 2.66699 54.667 -4 80s-18 47.666 -34 66.999
s-36.167 34.666 -60.5 45.999s-51.5 17 -81.5 17c-53.333 0.666992 -98 -10 -134 -32s-68 -49.667 -96 -83l59 -42c19.333 22.667 41.666 42 66.999 58s54.333 24 87 24c28.667 0 52.334 -5.83301 71.001 -17.5s32.167 -27.5 40.5 -47.5s10.166 -43.333 5.49902 -70z
M168 40.002c0 -14.667 5.16699 -27.334 15.5 -38.001s23.5 -16 39.5 -16c15.333 0 28.166 5.33301 38.499 16s15.5 23.334 15.5 38.001c0 14 -5.16699 26.667 -15.5 38s-23.166 17 -38.499 17s-28.333 -5.33301 -39 -16s-16 -23.667 -16 -39z" />
    <glyph glyph-name="at" unicode="@" horiz-adv-x="747" 
d="M286 320c3.33301 24.667 11.665 47.666 24.998 68.999s29.833 38.666 49.5 51.999s39.834 19.666 60.501 18.999c16.667 0 30.334 -4.16699 41.001 -12.5s18.167 -19.166 22.5 -32.499s5.5 -28.333 3.5 -45c-3.33301 -28 -12.333 -52.667 -27 -74
s-32.167 -37.666 -52.5 -48.999s-40.833 -16.666 -61.5 -15.999c-17.333 0.666992 -30.833 5 -40.5 13s-16 18.667 -19 32s-3.5 28 -1.5 44zM210.999 317.999c-3.33301 -28 -1.16699 -53.8369 6.5 -77.5039s20.334 -42.667 38.001 -57s39.5 -21.833 65.5 -22.5
c34.667 -0.666992 66.334 8.33301 95.001 27s52.5 43.834 71.5 75.501s30.833 67.167 35.5 106.5c3.33301 24 2.83301 48.167 -1.5 72.5s-13.833 44.833 -28.5 61.5s-36.334 25.334 -65.001 26.001c-32.667 1.33301 -64.834 -7.66699 -96.501 -27
s-58.5 -45.166 -80.5 -77.499s-35.333 -68.166 -40 -107.499zM60.998 319.995c-6.66699 -46 -6.16797 -88.8389 1.49902 -128.506s22.834 -74.5 45.501 -104.5s52.5 -53.5 89.5 -70.5s80.833 -25.5 131.5 -25.5c49.333 -0.666992 92.666 4.33301 129.999 15
s72.666 25 105.999 43l-26 58c-32.667 -17.333 -66 -30.333 -100 -39s-69 -12.667 -105 -12c-51.333 0.666992 -93.5 12.834 -126.5 36.501s-56 55.5 -69 95.5s-15.833 84 -8.5 132c7.33301 43.333 21.333 84.666 42 123.999s46.834 74.166 78.501 104.499s67.667 54 108 71
s83.833 25.5 130.5 25.5c39.333 -0.666992 72.666 -8.16699 99.999 -22.5s49 -33.666 65 -57.999s26.5 -51.5 31.5 -81.5s4.83301 -61 -0.5 -93c-2 -22 -7.5 -43.667 -16.5 -65s-19.833 -40.666 -32.5 -57.999s-25.834 -30.666 -39.501 -39.999
s-26.834 -12.666 -39.501 -9.99902c-9.33301 1.33301 -16.166 4.16602 -20.499 8.49902s-6.83301 9.83301 -7.5 16.5s-0.666992 13.334 0 20.001c0.666992 4.66699 1.66699 9.33398 3 14.001s2.66602 9 3.99902 13l81 231h-75l-77 -249h7
c-4 -19.333 -4.66699 -38.166 -2 -56.499s9.66699 -33.333 21 -45s28 -18.167 50 -19.5c24.667 -0.666992 48.834 4.83301 72.501 16.5s45.334 28.5 65.001 50.5s36.167 47.833 49.5 77.5s22 61.5 26 95.5c6.66699 39.333 6 78 -2 116s-23 72.333 -45 103
s-50.667 55.167 -86 73.5s-77.666 27.5 -126.999 27.5c-56 0 -108.333 -10.167 -157 -30.5s-92.167 -48.666 -130.5 -84.999s-70.166 -78 -95.499 -125s-42 -96.833 -50 -149.5z" />
    <glyph glyph-name="A" unicode="A" horiz-adv-x="640" 
d="M152 210h360l-16 80h-303zM388 542l67 -282l4 -20l58 -240h91l-189 737l-444 -737h96l144 246l11 18z" />
    <glyph glyph-name="B" unicode="B" horiz-adv-x="542" 
d="M179 371l112.004 -0.00585938c38 0.666992 73.167 6.66699 105.5 18s59.333 28.333 81 51s35.167 51 40.5 85c4.66699 28.667 3.5 53.834 -3.5 75.501s-18.667 39.834 -35 54.501s-36.166 25.834 -59.499 33.501s-49.333 11.5 -78 11.5h-172l-120 -700h188
c44 0 84.667 7.83301 122 23.5s68.666 38.834 93.999 69.501s41.333 68 48 112c4.66699 31.333 2.5 58.5 -6.5 81.5s-23 42.167 -42 57.5s-41.833 26.833 -68.5 34.5s-55.334 11.5 -86.001 11.5h-117l-8 -46l122 -1c28 0 52 -5.33301 72 -16s34.667 -26 44 -46
s11.666 -43.667 6.99902 -71s-15.334 -51.166 -32.001 -71.499s-37.167 -35.833 -61.5 -46.5s-51.166 -16 -80.499 -16l-98 -1l94 550h94c32 -0.666992 57.667 -10.5 77 -29.5s26.333 -44.167 21 -75.5c-3.33301 -21.333 -11.833 -39.666 -25.5 -54.999
s-30.334 -27 -50.001 -35s-40.834 -12.333 -63.501 -13h-108z" />
    <glyph glyph-name="C" unicode="C" horiz-adv-x="665" 
d="M160 350c6 38 18.1709 73.499 36.5039 106.499s41.166 62.167 68.499 87.5s57.666 45.166 90.999 59.499s68.333 21.5 105 21.5c44.667 0 83.667 -9.16699 117 -27.5s60.666 -43.833 81.999 -76.5l18 112c-28 26.667 -58.5 46.334 -91.5 59.001s-71.833 18.667 -116.5 18
c-50 0 -97.333 -9.5 -142 -28.5s-85 -45 -121 -78s-65.833 -71.167 -89.5 -114.5s-39.167 -89.666 -46.5 -138.999c-6.66699 -46.667 -5 -91.667 5 -135s27.333 -81.833 52 -115.5s56.167 -60.334 94.5 -80.001s81.833 -29.5 130.5 -29.5c47.333 0 89.333 6.66699 126 20
s71.334 32.333 104.001 57l17 111c-30.667 -28.667 -66 -53 -106 -73s-84.333 -29.667 -133 -29c-36 0 -67.667 7.66699 -95 23s-49.833 35.833 -67.5 61.5s-29.834 54.834 -36.501 87.501s-7.33398 66.667 -2.00098 102z" />
    <glyph glyph-name="D" unicode="D" horiz-adv-x="660" 
d="M169 700l-118 -700h82l121 700h-85zM258 0c51.333 0 99.333 8.83301 144 26.5s84.5 42.167 119.5 73.5s64 68.333 87 111s38.5 89 46.5 139c7.33301 48 6 93.167 -4 135.5s-27.5 79.5 -52.5 111.5s-56.667 57.167 -95 75.5s-82.5 27.5 -132.5 27.5h-156l-15 -85h162
c38.667 0 72.334 -6.83301 101.001 -20.5s52 -32.667 70 -57s30.333 -52.5 37 -84.5s7 -66.333 1 -103c-8.66699 -51.333 -27.167 -97 -55.5 -137s-63.833 -71.333 -106.5 -94s-90.334 -34 -143.001 -34h-156l-15 -85h163z" />
    <glyph glyph-name="E" unicode="E" horiz-adv-x="534" 
d="M97 0h344l13 80h-344zM203 620h343l14 80h-344zM155 341h324l14 79h-325zM169 700l-118 -700h82l121 700h-85z" />
    <glyph glyph-name="F" unicode="F" horiz-adv-x="485" 
d="M203 620h305l13 80h-305zM155 341l295 -1l14 80h-296zM169 700l-118 -700h82l121 700h-85z" />
    <glyph glyph-name="G" unicode="G" horiz-adv-x="752" 
d="M412 275l223.002 0.000976562c-11.333 -26 -25.333 -51 -42 -75s-36.167 -45.333 -58.5 -64s-47.5 -33.334 -75.5 -44.001s-59 -16 -93 -16c-37.333 0 -70.166 7.5 -98.499 22.5s-51.333 35.333 -69 61s-29.834 54.834 -36.501 87.501s-7.33398 67 -2.00098 103
c6 38 18.167 73.667 36.5 107s41.333 62.5 69 87.5s58.5 44.667 92.5 59s70 21.5 108 21.5c48 0 89.333 -10.167 124 -30.5s61 -49.5 79 -87.5l66 53c-24.667 49.333 -59.334 86.833 -104.001 112.5s-96.667 38.167 -156 37.5c-51.333 0 -99.833 -9.33301 -145.5 -28
s-86.5 -44.334 -122.5 -77.001s-65.667 -70.834 -89 -114.501s-39 -90.5 -47 -140.5c-6.66699 -47.333 -5.16699 -92.666 4.5 -135.999s27.167 -81.833 52.5 -115.5s57.333 -60.167 96 -79.5s83.334 -29 134.001 -29c53.333 0 101.666 10 144.999 30s81.333 47.167 114 81.5
s59.5 73.333 80.5 117s35.833 89.167 44.5 136.5h-316z" />
    <glyph glyph-name="H" unicode="H" horiz-adv-x="694" 
d="M155 341h467l13 79h-467zM625 700l-118 -700h82l122 700h-86zM169 700l-118 -700h82l121 700h-85z" />
    <glyph glyph-name="I" unicode="I" horiz-adv-x="238" 
d="M169 700l-118 -700h82l121 700h-85z" />
    <glyph glyph-name="J" unicode="J" horiz-adv-x="233" 
d="M-112 -104l-52.002 -65c10.667 -12.667 25.5 -24.167 44.5 -34.5s40.5 -15.5 64.5 -15.5c32 0 60 6.5 84 19.5s43.833 31.5 59.5 55.5s26.167 52 31.5 84l129 760h-79l-129 -750c-3.33301 -26.667 -13.166 -48 -29.499 -64s-34.166 -24.667 -53.499 -26
c-16 -0.666992 -29.833 2.5 -41.5 9.5s-21.167 15.833 -28.5 26.5z" />
    <glyph glyph-name="K" unicode="K" horiz-adv-x="548" 
d="M169 700l-118 -700h82l121 700h-85zM517 700l-346 -327l245 -373h99l-244 370l353 330h-107z" />
    <glyph glyph-name="L" unicode="L" horiz-adv-x="437" 
d="M170 700l-120 -700h351l14 80h-267l106 620h-84z" />
    <glyph glyph-name="M" unicode="M" horiz-adv-x="786" 
d="M227 473l151 -409l289 405l-30 -469h83l46 739l-362 -509l-184 506l-210 -736h85z" />
    <glyph glyph-name="N" unicode="N" horiz-adv-x="752" 
d="M684 700l-90 -521l-419 555l-126 -734h85l90 522l418 -556l126 734h-84z" />
    <glyph glyph-name="O" unicode="O" horiz-adv-x="767" 
d="M160 350c6 37.333 17.999 72.667 35.999 106s40.667 62.666 68 87.999s58.166 45.166 92.499 59.499s70.833 21.5 109.5 21.5c38 0 71.167 -7.66699 99.5 -23s51.5 -36 69.5 -62s30.167 -55.333 36.5 -88s6.83301 -66.667 1.5 -102
c-6 -37.333 -18.167 -72.5 -36.5 -105.5s-41.166 -62.167 -68.499 -87.5s-58.166 -45.166 -92.499 -59.499s-70.833 -21.5 -109.5 -21.5c-38 0 -71.167 7.66699 -99.5 23s-51.333 35.833 -69 61.5s-29.667 54.834 -36 87.501s-6.83301 66.667 -1.5 102zM70.999 350.001
c-6.66699 -46.667 -5.16504 -91.5039 4.50195 -134.504s27.167 -81.333 52.5 -115s57.333 -60.5 96 -80.5s83.334 -30 134.001 -30c51.333 0 99.666 9.5 144.999 28.5s86 45 122 78s65.833 71.333 89.5 115s39.5 89.834 47.5 138.501c6.66699 47.333 5 92.5 -5 135.5
s-27.667 81.333 -53 115s-57.333 60.334 -96 80.001s-83.334 29.5 -134.001 29.5s-98.834 -9.33301 -144.501 -28s-86.5 -44.667 -122.5 -78s-65.833 -71.666 -89.5 -114.999s-39.167 -89.666 -46.5 -138.999z" />
    <glyph glyph-name="P" unicode="P" horiz-adv-x="532" 
d="M169 700l-118 -700h82l121 700h-85zM201 620l143.001 -0.00390625c28 0 52 -5.16699 72 -15.5s34.667 -25.166 44 -44.499s11.666 -42.666 6.99902 -69.999s-15.334 -50.666 -32.001 -69.999s-37.167 -34 -61.5 -44s-50.833 -15.333 -79.5 -16h-137l-14 -80h143
c44 0 84.833 8.66699 122.5 26s69.167 41.833 94.5 73.5s41.333 68.5 48 110.5c6.66699 41.333 1.83398 77.833 -14.499 109.5s-40.5 56.334 -72.5 74.001s-69.333 26.5 -112 26.5h-137z" />
    <glyph glyph-name="Q" unicode="Q" horiz-adv-x="767" 
d="M160 350c6 37.333 17.999 72.667 35.999 106s40.667 62.666 68 87.999s58.166 45.166 92.499 59.499s70.833 21.5 109.5 21.5c38 0 71.167 -7.66699 99.5 -23s51.5 -36 69.5 -62s30.167 -55.333 36.5 -88s6.83301 -66.667 1.5 -102
c-6 -37.333 -18.167 -72.5 -36.5 -105.5s-41.166 -62.167 -68.499 -87.5s-58.166 -45.166 -92.499 -59.499s-70.833 -21.5 -109.5 -21.5c-38 0 -71.167 7.66699 -99.5 23s-51.333 35.833 -69 61.5s-29.667 54.834 -36 87.501s-6.83301 66.667 -1.5 102zM70.999 350.001
c-6.66699 -46.667 -5.16895 -91.5039 4.49805 -134.504s27.167 -81.333 52.5 -115s57.333 -60.5 96 -80.5s83.334 -30 134.001 -30c51.333 0 99.666 9.5 144.999 28.5s86 45 122 78s65.833 71.333 89.5 115s39.5 89.834 47.5 138.501c6.66699 47.333 5 92.5 -5 135.5
s-27.667 81.333 -53 115s-57.333 60.334 -96 80.001s-83 29.5 -133 29.5c-51.333 0 -99.666 -9.33301 -144.999 -28s-86.166 -44.667 -122.499 -78s-66.333 -71.666 -90 -114.999s-39.167 -89.666 -46.5 -138.999zM393.997 299.997l240 -300h103l-240 300h-103z" />
    <glyph glyph-name="R" unicode="R" horiz-adv-x="543" 
d="M231 345l176 -345h99l-184 345h-91zM169 700l-118 -700h82l121 700h-85zM202 625l143 -0.00195312c28 0 51.833 -5.66699 71.5 -17s34.167 -27 43.5 -47s11.666 -43.667 6.99902 -71s-15.334 -51.166 -32.001 -71.499s-37.167 -36 -61.5 -47s-51.166 -16.5 -80.499 -16.5
h-137l-13 -75h143c44 0 84.833 8.66699 122.5 26s69.167 41.833 94.5 73.5s41.333 68.5 48 110.5c6.66699 41.333 1.83398 77.833 -14.499 109.5s-40.5 56.334 -72.5 74.001s-69.333 26.5 -112 26.5h-137z" />
    <glyph glyph-name="S" unicode="S" horiz-adv-x="532" 
d="M106 212l-68.002 -46.001c12 -30.667 28.667 -59.5 50 -86.5s47.166 -48.667 77.499 -65s64.5 -24.5 102.5 -24.5c42 0 80.833 9.83301 116.5 29.5s64.334 46.167 86.001 79.5s32.5 70.333 32.5 111c0 37.333 -7.83301 68 -23.5 92s-35.167 43.5 -58.5 58.5
s-46.666 27.167 -69.999 36.5c-22 8.66699 -41.167 17.667 -57.5 27s-30.166 19.333 -41.499 30s-19.833 22.334 -25.5 35.001s-8.5 26.334 -8.5 41.001c0 18.667 4.33301 35.5 13 50.5s21.5 27 38.5 36s38.167 13.5 63.5 13.5c29.333 0 53.333 -5.33301 72 -16
s33.834 -24.334 45.501 -41.001s21.167 -33.667 28.5 -51l73 39c-10 26 -24.167 50.333 -42.5 73s-41.166 41 -68.499 55s-60 21 -98 21c-42.667 0 -80 -8.66699 -112 -26s-56.833 -40.5 -74.5 -69.5s-26.5 -60.833 -26.5 -95.5c0 -26.667 5.16699 -50 15.5 -70
s23.5 -37 39.5 -51s32.833 -26 50.5 -36s34.167 -18.333 49.5 -25c24 -10.667 45.833 -21.5 65.5 -32.5s35.5 -24.5 47.5 -40.5s18 -37.333 18 -64c0 -21.333 -5.83301 -42 -17.5 -62s-28.334 -36.333 -50.001 -49s-47.5 -19 -77.5 -19c-28 0 -52 6 -72 18
s-37.333 28.667 -52 50s-28.334 46 -41.001 74z" />
    <glyph glyph-name="T" unicode="T" horiz-adv-x="451" 
d="M87 620h176l-107 -620h84l107 620h174l14 80h-433z" />
    <glyph glyph-name="U" unicode="U" horiz-adv-x="608" 
d="M165 700l-79.9961 -469.999c-6.66699 -42.667 -3.33398 -82.167 9.99902 -118.5s35.666 -65.5 66.999 -87.5s70.333 -33 117 -33c53.333 0 98.666 10.667 135.999 32s67 50.166 89 86.499s36.667 76.5 44 120.5l81 470h-84l-81 -470c-4.66699 -30 -14.167 -57 -28.5 -81
s-33.833 -43 -58.5 -57s-55 -21 -91 -21c-32 0 -57.333 7.33301 -76 22s-31.334 34.167 -38.001 58.5s-8 50.5 -4 78.5l81 470h-84z" />
    <glyph glyph-name="V" unicode="V" horiz-adv-x="640" 
d="M326 158l-139 542h-91l202 -736l431 736h-96z" />
    <glyph glyph-name="W" unicode="W" horiz-adv-x="961" 
d="M690 183l-113 554l-286 -554l-98 517h-92l153 -737l289 544l119 -544l382 737h-95z" />
    <glyph glyph-name="X" unicode="X" horiz-adv-x="539" 
d="M507 700l-185 -257l-101 257h-95l145 -331l-281 -369h101l210 292l115 -292h95l-158 365l255 335h-101z" />
    <glyph glyph-name="Y" unicode="Y" horiz-adv-x="544" 
d="M538 700l-230 -322l-119 322h-91l158 -396l-53 -304h84l51 300l297 400h-97z" />
    <glyph glyph-name="Z" unicode="Z" horiz-adv-x="529" 
d="M112 620h337l-464 -620h479l14 80l-337 1l463 619h-478z" />
    <glyph glyph-name="bracketleft" unicode="[" horiz-adv-x="291" 
d="M267 705l98 1l11 74h-176l-155 -1000h177l12 75h-99z" />
    <glyph glyph-name="backslash" unicode="\" horiz-adv-x="500" 
d="M106 701l272 -701h79l-268 700z" />
    <glyph glyph-name="bracketright" unicode="]" horiz-adv-x="291" 
d="M77 -145h-98l-12 -75h177l154 1000h-176l-12 -75h98z" />
    <glyph glyph-name="asciicircum" unicode="^" horiz-adv-x="495" 
d="M329 621l78 -161h76l-123 250h-40l-208 -249h82z" />
    <glyph glyph-name="underscore" unicode="_" horiz-adv-x="485" 
d="M-50 -132h487l8 54h-486z" />
    <glyph glyph-name="grave" unicode="`" horiz-adv-x="364" 
d="M157 661l154 -150l47 28l-123 161z" />
    <glyph glyph-name="a" unicode="a" 
d="M463 460l-77 -460h73l80 460h-76zM45 230c-6 -43.333 -2.33496 -83.1689 10.998 -119.502s34.833 -65.333 64.5 -87s66.167 -32.5 109.5 -32.5c30.667 0 58.834 6.16699 84.501 18.5s48.167 29.5 67.5 51.5s35.333 47.5 48 76.5s21.334 59.833 26.001 92.5
c4 31.333 4.16699 61.166 0.5 89.499s-11.5 53.833 -23.5 76.5s-28.5 40.667 -49.5 54s-46.833 20 -77.5 20c-43.333 0.666992 -83.5 -9.66602 -120.5 -30.999s-68 -50.166 -93 -86.499s-40.833 -77.166 -47.5 -122.499zM124.998 229.997
c5.33301 31.333 16.833 59.668 34.5 85.001s39.5 45.166 65.5 59.499s53.667 21.166 83 20.499c20 -0.666992 37.5 -5.5 52.5 -14.5s27.5 -21.167 37.5 -36.5s17 -32.666 21 -51.999s4.33301 -40 1 -62c-4 -22.667 -11.5 -44 -22.5 -64s-24.5 -37.5 -40.5 -52.5
s-33.5 -26.667 -52.5 -35s-38.5 -12.5 -58.5 -12.5c-29.333 0 -53.833 7.5 -73.5 22.5s-33.5 35 -41.5 60s-10 52.167 -6 81.5z" />
    <glyph glyph-name="b" unicode="b" 
d="M253 780h-79l-134 -780h79zM532 230c6 43.333 2.50195 83.168 -10.498 119.501s-34.333 65.5 -64 87.5s-66.167 33 -109.5 33c-30.667 0 -58.834 -6.33301 -84.501 -19s-48.167 -30 -67.5 -52s-35.333 -47.5 -48 -76.5s-21.334 -59.833 -26.001 -92.5
c-4 -30.667 -4.16699 -60.334 -0.5 -89.001s11.5 -54.334 23.5 -77.001s28.5 -40.667 49.5 -54s46.833 -20 77.5 -20c43.333 0 83.5 10.5 120.5 31.5s68 49.833 93 86.5s40.5 77.334 46.5 122.001zM453.002 230.002c-4.66699 -31.333 -15.999 -59.501 -33.999 -84.501
s-39.833 -44.667 -65.5 -59s-53.5 -21.166 -83.5 -20.499c-20 0.666992 -37.5 5.33398 -52.5 14.001s-27.5 20.667 -37.5 36s-16.833 32.666 -20.5 51.999s-4.16699 40 -1.5 62c4 23.333 11.5 45 22.5 65s24.5 37.5 40.5 52.5s33.5 26.667 52.5 35s38.5 12.5 58.5 12.5
c29.333 0 53.833 -7.5 73.5 -22.5s33.667 -35 42 -60s10.166 -52.5 5.49902 -82.5z" />
    <glyph glyph-name="c" unicode="c" horiz-adv-x="464" 
d="M127 230c4.66699 30.667 15.3262 58.332 31.9932 82.999s37.834 44.5 63.501 59.5s53.834 22.5 84.501 22.5c33.333 0 62.5 -7.66699 87.5 -23s42.833 -35.666 53.5 -60.999l14 100c-17.333 19.333 -39.166 34 -65.499 44s-54.166 15 -83.499 15
c-45.333 0 -87 -10.833 -125 -32.5s-69.5 -50.5 -94.5 -86.5s-40.5 -76.333 -46.5 -121c-5.33301 -42.667 -0.666016 -82.167 14.001 -118.5s37.834 -65.5 69.501 -87.5s69.5 -33 113.5 -33c31.333 0 61.166 5.16699 89.499 15.5s52.833 24.5 73.5 42.5l14 99
c-17.333 -22 -41.166 -41.333 -71.499 -58s-63.166 -24.667 -98.499 -24c-30 0.666992 -55 8.66699 -75 24s-34.167 35.5 -42.5 60.5s-10.5 51.5 -6.5 79.5z" />
    <glyph glyph-name="d" unicode="d" 
d="M512 780l-131 -780h77l135 780h-81zM45 230c-6 -43.333 -2.33496 -83.1689 10.998 -119.502s34.833 -65.333 64.5 -87s66.167 -32.5 109.5 -32.5c30.667 0 58.834 6.16699 84.501 18.5s48.167 29.5 67.5 51.5s35.333 47.5 48 76.5s21.334 59.833 26.001 92.5
c4 31.333 4.16699 61.166 0.5 89.499s-11.5 53.833 -23.5 76.5s-28.5 40.667 -49.5 54s-46.833 20 -77.5 20c-43.333 0.666992 -83.5 -9.66602 -120.5 -30.999s-68 -50.166 -93 -86.499s-40.833 -77.166 -47.5 -122.499zM124.998 229.997
c5.33301 31.333 16.833 59.668 34.5 85.001s39.5 45.166 65.5 59.499s53.667 21.166 83 20.499c20 -0.666992 37.5 -5.5 52.5 -14.5s27.5 -21.167 37.5 -36.5s17 -32.666 21 -51.999s4.33301 -40 1 -62c-4 -22.667 -11.5 -44 -22.5 -64s-24.5 -37.5 -40.5 -52.5
s-33.5 -26.667 -52.5 -35s-38.5 -12.5 -58.5 -12.5c-29.333 0 -53.833 7.5 -73.5 22.5s-33.5 35 -41.5 60s-10 52.167 -6 81.5z" />
    <glyph glyph-name="e" unicode="e" horiz-adv-x="500" 
d="M238 -10c49.333 0 92.6699 11.001 130.003 33.001s68 50 92 84l-63 41c-16.667 -24 -37.834 -43.833 -63.501 -59.5s-54.167 -23.5 -85.5 -23.5c-28 0 -51 5.83301 -69 17.5s-31.333 28.167 -40 49.5s-13 45.666 -13 72.999c0 26 4.16699 50.833 12.5 74.5
s20.166 44.5 35.499 62.5s33.5 32.167 54.5 42.5s44.167 15.5 69.5 15.5c24.667 0 45 -4.66699 61 -14s28.167 -22.5 36.5 -39.5s12.5 -37.5 12.5 -61.5c0 -9.33301 -1.33301 -18.5 -4 -27.5s-5.66699 -17.5 -9 -25.5l31 46h-330v-68h383c2.66699 5.33301 5.16699 14 7.5 26
s3.5 23 3.5 33c0 44 -7.66699 80.833 -23 110.5s-36.833 52.167 -64.5 67.5s-60.834 23 -99.501 23c-36.667 0 -70.5 -7.33301 -101.5 -22s-58 -34.5 -81 -59.5s-41 -53.667 -54 -86s-19.5 -66.5 -19.5 -102.5c0 -44 8 -81.667 24 -113s38.333 -55.333 67 -72
s62 -25 100 -25z" />
    <glyph glyph-name="f" unicode="f" horiz-adv-x="278" 
d="M90 460l-14 -75h225l14 75h-225zM346 685l52.9971 63.998c-8.66699 11.333 -19.667 20.833 -33 28.5s-29.666 11.834 -48.999 12.501c-29.333 0.666992 -54.666 -5.83301 -75.999 -19.5s-38.666 -32.667 -51.999 -57s-22.333 -51.833 -27 -82.5l-108 -631h80l106 620
c2.66699 16.667 6.66699 31.834 12 45.501s12.333 24.667 21 33s19 12.5 31 12.5c8.66699 0 16.5 -2.16699 23.5 -6.5s13.167 -10.833 18.5 -19.5z" />
    <glyph glyph-name="g" unicode="g" 
d="M10 -30c-4 -38.667 1.66504 -73.001 16.998 -103.001s38.5 -53.5 69.5 -70.5s67.833 -25.5 110.5 -25.5c44 0 83.833 10.167 119.5 30.5s65.334 48.5 89.001 84.5s38.834 77.333 45.501 124l77 450h-79l-78 -450c-4.66699 -32.667 -15.5 -61.5 -32.5 -86.5
s-37.833 -44.167 -62.5 -57.5s-50.667 -20 -78 -20c-28 0 -51.167 5.66699 -69.5 17s-31.5 26.333 -39.5 45s-11.333 39.334 -10 62.001h-79zM44.998 229.999c-6 -43.333 -2.33496 -83.1689 10.998 -119.502s34.833 -65.333 64.5 -87s66.167 -32.5 109.5 -32.5
c30.667 0 58.834 6.16699 84.501 18.5s48.167 29.5 67.5 51.5s35.333 47.5 48 76.5s21.334 59.833 26.001 92.5c4 31.333 4.16699 61.166 0.5 89.499s-11.5 53.833 -23.5 76.5s-28.5 40.667 -49.5 54s-46.833 20 -77.5 20c-43.333 0.666992 -83.5 -9.66602 -120.5 -30.999
s-68 -50.166 -93 -86.499s-40.833 -77.166 -47.5 -122.499zM124.996 229.996c5.33301 31.333 16.833 59.668 34.5 85.001s39.5 45.166 65.5 59.499s53.667 21.166 83 20.499c20 -0.666992 37.5 -5.5 52.5 -14.5s27.5 -21.167 37.5 -36.5s17 -32.666 21 -51.999
s4.33301 -40 1 -62c-4 -22.667 -11.5 -44 -22.5 -64s-24.5 -37.5 -40.5 -52.5s-33.5 -26.667 -52.5 -35s-38.5 -12.5 -58.5 -12.5c-29.333 0 -53.833 7.5 -73.5 22.5s-33.5 35 -41.5 60s-10 52.167 -6 81.5z" />
    <glyph glyph-name="h" unicode="h" horiz-adv-x="509" 
d="M258 780h-79l-134 -780h79zM380 280l-47.9951 -279.999h78l50 290c4 34 2.33301 64.5 -5 91.5s-21 48.5 -41 64.5s-46.667 24 -80 24s-63.166 -8.83301 -89.499 -26.5s-47.833 -40.834 -64.5 -69.501s-28.334 -59.667 -35.001 -93h27
c5.33301 20.667 14.166 39.667 26.499 57s27.666 31.333 45.999 42s39.166 15.667 62.499 15c22 -0.666992 38.667 -6.16699 50 -16.5s18.666 -24 21.999 -41s3.66602 -36.167 0.999023 -57.5z" />
    <glyph glyph-name="i" unicode="i" horiz-adv-x="252" 
d="M156 650c0 -14.667 5.33301 -27.334 16 -38.001s23.334 -16 38.001 -16c15.333 0 28.333 5.33301 39 16s16 23.334 16 38.001c0 15.333 -5.33301 28.333 -16 39s-23.667 16 -39 16c-14.667 0 -27.334 -5.33301 -38.001 -16s-16 -23.667 -16 -39zM137 460l-76 -460h79
l78 460h-81z" />
    <glyph glyph-name="j" unicode="j" horiz-adv-x="243" 
d="M144 650c0 -14.667 5.33301 -27.334 16 -38.001s23.334 -16 38.001 -16c15.333 0 28.166 5.33301 38.499 16s15.5 23.334 15.5 38.001c0 15.333 -5.16699 28.166 -15.5 38.499s-23.166 15.5 -38.499 15.5c-14.667 0 -27.334 -5.16699 -38.001 -15.5
s-16 -23.166 -16 -38.499zM-65 -114l-51.998 -63.9971c10.667 -12.667 23.167 -22.667 37.5 -30s30.833 -11 49.5 -11c29.333 -0.666992 54.333 6.16602 75 20.499s37.167 33.666 49.5 57.999s20.833 51.166 25.5 80.499l88 520h-79l-88 -510
c-1.33301 -15.333 -4.66602 -30 -9.99902 -44s-12.333 -25.333 -21 -34s-19.334 -12.667 -32.001 -12c-8.66699 0 -16.834 2.5 -24.501 7.5s-13.834 11.167 -18.501 18.5z" />
    <glyph glyph-name="k" unicode="k" horiz-adv-x="427" 
d="M173 780l-132 -780h78l135 780h-81zM360 460l-224 -187l168 -273h95l-169 264l232 196h-102z" />
    <glyph glyph-name="l" unicode="l" horiz-adv-x="223" 
d="M178 780l-132 -780h77l135 780h-80z" />
    <glyph glyph-name="m" unicode="m" horiz-adv-x="757" 
d="M707 290c4 32 3.16699 61.668 -2.5 89.001s-17.667 49.333 -36 66s-44.166 25 -77.499 25c-32.667 0 -61.667 -8 -87 -24s-47 -37.667 -65 -65c-4 18 -10.833 33.667 -20.5 47s-22.334 23.666 -38.001 30.999s-34.5 11 -56.5 11c-18.667 0 -36 -3 -52 -9
s-30.5 -14.5 -43.5 -25.5s-24.833 -24.167 -35.5 -39.5l10 64h-79l-80 -460h80l50 285c3.33301 21.333 10.5 40.166 21.5 56.499s25.333 29.166 43 38.499s37.5 14 59.5 14c21.333 0 36.833 -5.16699 46.5 -15.5s15.5 -24.166 17.5 -41.499s1.66699 -36.333 -1 -57l-48 -280
h77l49 282c3.33301 21.333 10.5 40.333 21.5 57s25.333 30 43 40s37.834 15 60.501 15c21.333 0 36.833 -5.16699 46.5 -15.5s15.667 -24.166 18 -41.499s2.16602 -36.333 -0.500977 -57l-50 -280h80z" />
    <glyph glyph-name="n" unicode="n" horiz-adv-x="509" 
d="M380 280l-47.9971 -280.001h78l50 290c4.66699 32 3.16699 61.667 -4.5 89s-21.334 49.333 -41.001 66s-46.5 25 -80.5 25c-30.667 0 -57.667 -6.83301 -81 -20.5s-43.666 -33.167 -60.999 -58.5l11 69h-79l-80 -460h80l50 284c3.33301 21.333 11.166 40.333 23.499 57
s28 29.834 47 39.501s39.833 14.5 62.5 14.5c22 0 38.667 -5.33301 50 -16s18.666 -24.667 21.999 -42s3.66602 -36.333 0.999023 -57z" />
    <glyph glyph-name="o" unicode="o" horiz-adv-x="530" 
d="M52 230c-5.33301 -42.667 -0.667969 -82.166 13.999 -118.499s37.834 -65.5 69.501 -87.5s69.5 -33 113.5 -33c45.333 0 87 10.833 125 32.5s69.5 50.5 94.5 86.5s40.5 76 46.5 120c6 42.667 1.5 82.167 -13.5 118.5s-38.167 65.666 -69.5 87.999s-69.333 33.5 -114 33.5
s-86.167 -10.833 -124.5 -32.5s-70 -50.5 -95 -86.5s-40.5 -76.333 -46.5 -121zM130.998 230.001c4.66699 30 15.502 57.5 32.502 82.5s38.333 45 64 60s53.5 22.5 83.5 22.5s55 -8 75 -24s34.333 -36.333 43 -61s11 -51.334 7 -80.001
c-4.66699 -29.333 -15.5 -56.666 -32.5 -81.999s-38.333 -45.333 -64 -60s-53.834 -22 -84.501 -22c-30 0 -54.833 7.83301 -74.5 23.5s-33.834 36 -42.501 61s-11 51.5 -7 79.5z" />
    <glyph glyph-name="p" unicode="p" 
d="M83 -219l114 679h-77l-118 -680zM532 230c6 43.333 2.50195 83.168 -10.498 119.501s-34.333 65.5 -64 87.5s-66.167 33 -109.5 33c-30.667 0 -58.834 -6.33301 -84.501 -19s-48.167 -30 -67.5 -52s-35.333 -47.5 -48 -76.5s-21.334 -59.833 -26.001 -92.5
c-4 -30.667 -4.16699 -60.334 -0.5 -89.001s11.5 -54.334 23.5 -77.001s28.5 -40.667 49.5 -54s46.833 -20 77.5 -20c43.333 0 83.5 10.5 120.5 31.5s68 49.833 93 86.5s40.5 77.334 46.5 122.001zM453.002 230.002c-4.66699 -31.333 -15.999 -59.501 -33.999 -84.501
s-39.833 -44.667 -65.5 -59s-53.5 -21.166 -83.5 -20.499c-20 0.666992 -37.5 5.33398 -52.5 14.001s-27.5 20.667 -37.5 36s-16.833 32.666 -20.5 51.999s-4.16699 40 -1.5 62c4 23.333 11.5 45 22.5 65s24.5 37.5 40.5 52.5s33.5 26.667 52.5 35s38.5 12.5 58.5 12.5
c29.333 0 53.833 -7.5 73.5 -22.5s33.667 -35 42 -60s10.166 -52.5 5.49902 -82.5z" />
    <glyph glyph-name="q" unicode="q" 
d="M342 -220h79l117 680h-79zM45 230c-6 -43.333 -2.33496 -83.1689 10.998 -119.502s34.833 -65.333 64.5 -87s66.167 -32.5 109.5 -32.5c30.667 0 58.834 6.16699 84.501 18.5s48.167 29.5 67.5 51.5s35.333 47.5 48 76.5s21.334 59.833 26.001 92.5
c4 31.333 4.16699 61.166 0.5 89.499s-11.5 53.833 -23.5 76.5s-28.5 40.667 -49.5 54s-46.833 20 -77.5 20c-43.333 0.666992 -83.5 -9.66602 -120.5 -30.999s-68 -50.166 -93 -86.499s-40.833 -77.166 -47.5 -122.499zM124.998 229.997
c5.33301 31.333 16.833 59.668 34.5 85.001s39.5 45.166 65.5 59.499s53.667 21.166 83 20.499c20 -0.666992 37.5 -5.5 52.5 -14.5s27.5 -21.167 37.5 -36.5s17 -32.666 21 -51.999s4.33301 -40 1 -62c-4 -22.667 -11.5 -44 -22.5 -64s-24.5 -37.5 -40.5 -52.5
s-33.5 -26.667 -52.5 -35s-38.5 -12.5 -58.5 -12.5c-29.333 0 -53.833 7.5 -73.5 22.5s-33.5 35 -41.5 60s-10 52.167 -6 81.5z" />
    <glyph glyph-name="r" unicode="r" horiz-adv-x="333" 
d="M203 460h-79l-80 -460h80zM324 373l52.999 64.0049c-12 11.333 -24.5 19.666 -37.5 24.999s-27.5 8 -43.5 8c-26.667 0 -51.167 -9.33301 -73.5 -28s-41 -42.334 -56 -71.001s-25.5 -58.667 -31.5 -90h37c4 19.333 9.5 37.666 16.5 54.999s17 31.666 30 42.999
s29.5 16.666 49.5 15.999c11.333 0 21.333 -2 30 -6s17.334 -9.33301 26.001 -16z" />
    <glyph glyph-name="s" unicode="s" horiz-adv-x="391" 
d="M96 139l-65.0029 -37.001c8.66699 -18 21.334 -35.667 38.001 -53s37.167 -31.5 61.5 -42.5s51.833 -16.5 82.5 -16.5c31.333 0 59 6.5 83 19.5s42.833 30.5 56.5 52.5s20.5 46.333 20.5 73c0 27.333 -5.83301 49.5 -17.5 66.5s-27.167 31.167 -46.5 42.5
s-40.333 22 -63 32c-14.667 6.66699 -28.167 13.334 -40.5 20.001s-22.166 14.5 -29.499 23.5s-11 19.5 -11 31.5c0 15.333 6.16699 27.666 18.5 36.999s28.833 14 49.5 14c21.333 0 40.833 -5.83301 58.5 -17.5s32.834 -26.167 45.501 -43.5l59 40
c-14 25.333 -34.667 46.5 -62 63.5s-59.333 25.5 -96 25.5c-24.667 0 -48.5 -4.66699 -71.5 -14s-41.833 -23.5 -56.5 -42.5s-22 -43.167 -22 -72.5c0 -25.333 6 -46.166 18 -62.499s27 -29.666 45 -39.999s35.667 -18.833 53 -25.5c14 -6 28 -12.833 42 -20.5
s25.667 -16.834 35 -27.501s14 -23.667 14 -39c0 -18 -7 -33.167 -21 -45.5s-32.333 -18.5 -55 -18.5c-18.667 0 -35.667 3.5 -51 10.5s-28.833 16.333 -40.5 28s-22.167 24.5 -31.5 38.5z" />
    <glyph glyph-name="t" unicode="t" horiz-adv-x="233" 
d="M58 460l-14 -75h225l13 75h-224zM155 620l-104 -620h77l108 620h-81z" />
    <glyph glyph-name="u" unicode="u" horiz-adv-x="509" 
d="M154 180l47.998 280.001h-77l-51 -290c-4.66699 -31.333 -3.33398 -60.666 3.99902 -87.999s21.166 -49.333 41.499 -66s47.166 -25 80.499 -25c30.667 0 57.834 7 81.501 21s43.834 33.333 60.501 58l-11 -70h79l80 460h-80l-50 -284
c-3.33301 -20.667 -11.166 -39.334 -23.499 -56.001s-27.833 -29.834 -46.5 -39.501s-39.667 -14.5 -63 -14.5c-22 0 -38.667 5.33301 -50 16s-18.666 24.667 -21.999 42s-3.66602 36 -0.999023 56z" />
    <glyph glyph-name="v" unicode="v" horiz-adv-x="427" 
d="M54 460l137 -496l292 496h-91l-175 -322l-76 322h-87z" />
    <glyph glyph-name="w" unicode="w" horiz-adv-x="660" 
d="M57 460l109 -497l186 335l76 -335l281 497h-91l-164 -298l-71 335l-180 -333l-59 296h-87z" />
    <glyph glyph-name="x" unicode="x" horiz-adv-x="408" 
d="M363 460l-130 -160l-83 160h-86l118 -218l-202 -242h92l143 176l89 -176h86l-123 233l188 227h-92z" />
    <glyph glyph-name="y" unicode="y" horiz-adv-x="427" 
d="M481 460h-91l-198 -355l32 -5l-84 360h-88l104 -392l-174 -287h91z" />
    <glyph glyph-name="z" unicode="z" horiz-adv-x="446" 
d="M328 385l-343 -385h401l14 75h-257l343 385h-391l-14 -75h247z" />
    <glyph glyph-name="braceleft" unicode="{" horiz-adv-x="302" 
d="M258 660c2.66699 14.667 8.66602 26.666 17.999 35.999s21.666 14 36.999 14h34l10 70h-60c-19.333 0 -37.666 -6 -54.999 -18s-31.833 -28.333 -43.5 -49s-19.5 -44.667 -23.5 -72l-32 -211c-4 -30.667 -11 -54.334 -21 -71.001s-24 -29.667 -42 -39l-9 -60
c15.333 -10.667 25 -24.167 29 -40.5s4.33301 -39.5 1 -69.5l-32 -210c-2.66699 -25.333 -1.33398 -48.666 3.99902 -69.999s14.5 -38.333 27.5 -51s29.167 -19 48.5 -19h58l10 71h-35c-10 0 -18.167 2.16699 -24.5 6.5s-10.666 10.333 -12.999 18
s-2.83301 15.834 -1.5 24.501l27 170c3.33301 21.333 5.83301 43.333 7.5 66s0.833984 44.334 -2.49902 65.001s-11.5 38 -24.5 52s-32.5 23 -58.5 27l-3 -19c27.333 3.33301 49.5 11.5 66.5 24.5s30.333 29.5 40 49.5s17.167 41.667 22.5 65s10 46.666 14 69.999z" />
    <glyph glyph-name="bar" unicode="|" horiz-adv-x="266" 
d="M200 785l-153 -999h73l153 999h-73z" />
    <glyph glyph-name="braceright" unicode="}" horiz-adv-x="302" 
d="M108 -80c-2.66699 -14.667 -8.66602 -26.6689 -17.999 -36.002s-21.666 -14 -36.999 -14h-33l-11 -69h61c19.333 0 37.5 6 54.5 18s31.5 28.5 43.5 49.5s19.667 44.833 23 71.5l32 210c4 31.333 11 55.333 21 72s24 29.334 42 38.001l9 60c-15.333 11.333 -25 25 -29 41
s-4.33301 39 -1 69l32 210c3.33301 26 2.16602 49.5 -3.50098 70.5s-15 37.833 -28 50.5s-29.167 19 -48.5 19h-58l-10 -70h35c10 0 18.167 -2.33301 24.5 -7s10.666 -10.5 12.999 -17.5s2.83301 -15.167 1.5 -24.5l-27 -171c-2.66699 -20.667 -5 -42.5 -7 -65.5
s-1.33301 -44.667 2 -65s11.5 -37.666 24.5 -51.999s32.5 -23.5 58.5 -27.5l3 20c-26.667 -2.66699 -48.667 -10.834 -66 -24.501s-30.833 -30.5 -40.5 -50.5s-17.167 -41.667 -22.5 -65s-10 -46.666 -14 -69.999z" />
    <glyph glyph-name="asciitilde" unicode="~" horiz-adv-x="558" 
d="M149 176c-0.666992 4 -0.996094 7.83301 -0.996094 11.5s0.333008 7.16699 1 10.5c3.33301 16 10.5 29 21.5 39s24.833 15.333 41.5 16c8.66699 0 17.334 -1.33301 26.001 -4s17.5 -6.5 26.5 -11.5s17.5 -10.833 25.5 -17.5c17.333 -13.333 34.666 -24.5 51.999 -33.5
s35 -13.5 53 -13.5c18 -0.666992 35.5 3.16602 52.5 11.499s31.833 19.833 44.5 34.5c8.66699 10.667 15.667 22.334 21 35.001s8.66602 24.667 9.99902 36c1.33301 4.66699 1.83301 9.5 1.5 14.5s-0.833008 9.5 -1.5 13.5l-77 5
c1.33301 -4.66699 2.16602 -9.33398 2.49902 -14.001s-0.166992 -9 -1.5 -13c-2.66699 -13.333 -8.33398 -24.666 -17.001 -33.999s-19.667 -14 -33 -14c-10 -0.666992 -20.5 2.16602 -31.5 8.49902s-22.167 13.833 -33.5 22.5c-18 14.667 -36.333 26.334 -55 35.001
s-38 13 -58 13c-20.667 0 -40.5 -4.66699 -59.5 -14s-35.5 -22 -49.5 -38c-8.66699 -10.667 -15.834 -22 -21.501 -34s-9.5 -23.667 -11.5 -35c-0.666992 -4.66699 -1 -9 -1 -13s0.333008 -8 1 -12z" />
    <glyph glyph-name="uni00A0" unicode="&#xa0;" horiz-adv-x="301" 
 />
    <glyph glyph-name="exclamdown" unicode="&#xa1;" horiz-adv-x="291" 
d="M127 -245l65 500h-60l-105 -500h100zM243 414c1.33301 14 -2.33398 26.6689 -11.001 38.002s-20 17.333 -34 18s-27.5 -4.83301 -40.5 -16.5s-20.167 -24.167 -21.5 -37.5c-1.33301 -14 2.33398 -26.5 11.001 -37.5s20 -16.833 34 -17.5s27.5 4.66602 40.5 15.999
s20.167 23.666 21.5 36.999z" />
    <glyph glyph-name="cent" unicode="&#xa2;" horiz-adv-x="563" 
d="M251 38l-26 -149h63l26 149h-63zM170 230c5.33301 30 16.665 57.498 33.998 82.498s39 45 65 60s54 22.5 84 22.5c33.333 0 62.333 -7.66699 87 -23s42 -35.666 52 -60.999l16 100c-16.667 19.333 -38.167 34 -64.5 44s-54.166 15 -83.499 15
c-45.333 0 -87.166 -10.833 -125.499 -32.5s-70.333 -50.5 -96 -86.5s-41.834 -76.333 -48.501 -121c-6 -42 -1.83301 -81.167 12.5 -117.5s37 -65.666 68 -87.999s68.833 -33.5 113.5 -33.5c31.333 0 61.333 5.16699 90 15.5s53.334 24.5 74.001 42.5l15 99
c-18 -22 -42.167 -41.333 -72.5 -58s-63.5 -24.667 -99.5 -24c-30 0.666992 -54.833 8.66699 -74.5 24s-33.5 35.5 -41.5 60.5s-9.66699 51.5 -5 79.5zM342.999 577.998l-26 -149h63l26 149h-63z" />
    <glyph glyph-name="sterling" unicode="&#xa3;" horiz-adv-x="563" 
d="M101 370l-14 -75h351l14 75h-351zM492 480l74.0029 27.999c1.33301 22 -0.666992 44.667 -6 68s-14.5 45.166 -27.5 65.499s-30.167 36.833 -51.5 49.5s-47.333 19 -78 19c-28.667 0 -56 -4.5 -82 -13.5s-49.333 -22.167 -70 -39.5s-37.834 -37.666 -51.501 -60.999
s-22.5 -49 -26.5 -77c-3.33301 -28.667 -2 -54.5 4 -77.5s13.667 -44.833 23 -65.5s17 -41.167 23 -61.5s7 -42.166 3 -65.499c-6 -32.667 -18.5 -62.334 -37.5 -89.001s-41.833 -52.667 -68.5 -78l-85 -82h440l15 80h-355l-6 -29c21.333 7.33301 41.833 17.5 61.5 30.5
s37.667 28.833 54 47.5s30 39.334 41 62.001s18.5 47 22.5 73c3.33301 24.667 2 47.334 -4 68.001s-13.333 40.667 -22 60s-15.667 39.333 -21 60s-6 43.334 -2 68.001c4 22.667 12.667 42 26 58s29.666 28.167 48.999 36.5s39.333 12.166 60 11.499
c21.333 -0.666992 38.5 -5.33398 51.5 -14.001s23.167 -20.167 30.5 -34.5s12.166 -30 14.499 -47s2.83301 -33.833 1.5 -50.5z" />
    <glyph glyph-name="currency" unicode="&#xa4;" horiz-adv-x="563" 
d="M94 505l78 -94l55 47l-77 95zM67 48l106 91l-42 51l-106 -91zM480 411l106 90l-41 52l-107 -92zM384 143l77 -95l55 48l-76 94zM74 300c-6 -42 -2 -81.166 12 -117.499s36.667 -65.666 68 -87.999s69.333 -33.5 114 -33.5c45.333 0 87.166 10.667 125.499 32
s70.333 50.166 96 86.499s41.834 76.5 48.501 120.5c6 42.667 1.83301 82.167 -12.5 118.5s-37 65.666 -68 87.999s-68.833 33.5 -113.5 33.5c-45.333 0 -87.166 -10.833 -125.499 -32.5s-70.333 -50.667 -96 -87s-41.834 -76.5 -48.501 -120.5zM154 300.001
c5.33301 30 16.5049 57.501 33.5049 82.501s38.5 45 64.5 60s54.333 22.5 85 22.5c30 0 54.667 -8 74 -24s33.166 -36.333 41.499 -61s10.166 -51.334 5.49902 -80.001c-4.66699 -30 -15.834 -57.333 -33.501 -82s-39.334 -44.5 -65.001 -59.5s-53.834 -22.5 -84.501 -22.5
c-30 0 -54.833 7.83301 -74.5 23.5s-33.5 36 -41.5 61s-9.66699 51.5 -5 79.5z" />
    <glyph glyph-name="yen" unicode="&#xa5;" horiz-adv-x="563" 
d="M67 291l472 -1l12 75h-472zM41 141l472 -1l13 75h-473zM548 700l-231 -322l-118 322h-91l158 -394l-54 -306h86l52 304l294 396h-96z" />
    <glyph glyph-name="brokenbar" unicode="&#xa6;" horiz-adv-x="266" 
d="M188 695l-41 -239h73l41 239h-73zM184 245h-73l-41 -239h73z" />
    <glyph glyph-name="section" unicode="&#xa7;" horiz-adv-x="396" 
d="M375 580l67.002 38.9971c-9.33301 28 -27.833 50.167 -55.5 66.5s-58.834 24.5 -93.501 24.5c-24 0 -47.833 -5 -71.5 -15s-43.834 -23.833 -60.501 -41.5s-27 -38.834 -31 -63.501c-2.66699 -18 -1.33398 -34 3.99902 -48s13.5 -26.333 24.5 -37s23.333 -20 37 -28
s27.834 -15.333 42.501 -22c15.333 -6.66699 29.833 -14 43.5 -22s24.5 -17.5 32.5 -28.5s10.667 -24.833 8 -41.5c-2 -14.667 -8 -28.167 -18 -40.5s-22 -22.666 -36 -30.999s-29 -13.833 -45 -16.5l-5 -34c23.333 0.666992 45.333 3.33398 66 8.00098
s39.5 11.834 56.5 21.501s31 22.667 42 39s18.167 36.5 21.5 60.5c3.33301 22 0.333008 41.333 -9 58s-22.333 31.5 -39 44.5s-35 24.167 -55 33.5l-32 15.5c-11.333 5.66699 -21.833 11.834 -31.5 18.501s-17.334 14 -23.001 22s-7.5 17 -5.5 27
c2 10.667 6.83301 19.167 14.5 25.5s17.334 11.166 29.001 14.499s23.167 5 34.5 5c19.333 0 36.5 -4.66699 51.5 -14s27.167 -22.666 36.5 -39.999zM92.002 160.997l-69.0059 -36.9971c3.33301 -25.333 11.833 -48 25.5 -68s31.667 -35.667 54 -47s47.5 -17.333 75.5 -18
c30.667 0 59.334 5 86.001 15s48.834 25.5 66.501 46.5s28.5 46.833 32.5 77.5c2.66699 22 -0.666016 41.333 -9.99902 58s-22.166 31.5 -38.499 44.5s-34.5 24.167 -54.5 33.5l-34.5 17c-11.667 6 -22.167 12.667 -31.5 20s-16.166 16.333 -20.499 27
s-5.16602 23.667 -2.49902 39c3.33301 15.333 9.66602 28 18.999 38s21 18.833 35 26.5s29.667 14.5 47 20.5l5 25c-24.667 -0.666992 -47.5 -3.33398 -68.5 -8.00098s-39.667 -11.834 -56 -21.501s-29.833 -21.834 -40.5 -36.501s-17.667 -32.334 -21 -53.001
c-3.33301 -24 -0.166016 -45.167 9.50098 -63.5s23.334 -34.166 41.001 -47.499s36.167 -24.666 55.5 -33.999c14.667 -6.66699 29 -13.834 43 -21.501s25 -17 33 -28s10.333 -24.833 7 -41.5c-2 -12.667 -7.5 -23.5 -16.5 -32.5s-19.833 -15.5 -32.5 -19.5
s-26.334 -6 -41.001 -6c-28.667 0 -51.167 9.16699 -67.5 27.5s-26.5 40.833 -30.5 67.5z" />
    <glyph glyph-name="dieresis" unicode="&#xa8;" horiz-adv-x="456" 
d="M356 661c-1.33301 -14 2.5 -26.498 11.5 -37.498s20.5 -16.833 34.5 -17.5s27.5 4.66602 40.5 15.999s20.167 23.666 21.5 36.999c1.33301 14 -2.5 26.667 -11.5 38s-20.833 17.333 -35.5 18c-13.333 0.666992 -26.5 -4.83301 -39.5 -16.5s-20.167 -24.167 -21.5 -37.5z
M162 661.002c-1.33301 -14 2.5 -26.498 11.5 -37.498s20.5 -16.833 34.5 -17.5s27.5 4.66602 40.5 15.999s20.167 23.666 21.5 36.999c1.33301 14 -2.5 26.667 -11.5 38s-20.833 17.333 -35.5 18c-13.333 0.666992 -26.5 -4.83301 -39.5 -16.5s-20.167 -24.167 -21.5 -37.5z
" />
    <glyph glyph-name="copyright" unicode="&#xa9;" horiz-adv-x="776" 
d="M269 350c4.66699 30.667 15.5 58.332 32.5 82.999s38.167 44.5 63.5 59.5s53 22.5 83 22.5c27.333 0 50.833 -5.5 70.5 -16.5s36.167 -26.167 49.5 -45.5l10 67c-17.333 15.333 -36 26.833 -56 34.5s-43.667 11.5 -71 11.5c-39.333 0 -75.833 -9.83301 -109.5 -29.5
s-61.667 -45.667 -84 -78s-36.166 -68.5 -41.499 -108.5c-4.66699 -38 -0.5 -73.333 12.5 -106s33.5 -59 61.5 -79s61.333 -30 100 -30c28 -0.666992 52.833 3 74.5 11s42.167 19.333 61.5 34l9 66c-18 -16.667 -39 -31 -63 -43s-50.333 -17.667 -79 -17
c-30 0.666992 -54.833 8.66699 -74.5 24s-33.834 35.333 -42.501 60s-11 51.334 -7 80.001zM130 349.998c6.66699 42.667 20.165 82.667 40.498 120s46 70.333 77 99s65.833 51 104.5 67s80 24 124 24c42.667 0 80.5 -8.5 113.5 -25.5s60.333 -40 82 -69
s36.834 -62 45.501 -99s10 -75.833 4 -116.5c-6.66699 -42 -20.167 -81.667 -40.5 -119s-46 -70.333 -77 -99s-66 -51 -105 -67s-80.167 -24 -123.5 -24c-42.667 0 -80.667 8.5 -114 25.5s-60.666 40 -81.999 69s-36.333 62 -45 99s-10 75.5 -4 115.5zM74.998 349.998
c-6.66699 -48 -4.33691 -93.502 6.99609 -136.502s30.333 -81.333 57 -115s59.834 -60.167 99.501 -79.5s84.5 -29 134.5 -29c51.333 0 99.666 9.33301 144.999 28s86 44.334 122 77.001s65.833 70.834 89.5 114.501s38.834 90.5 45.501 140.5
c6.66699 48 4.33398 93.667 -6.99902 137s-30.166 81.833 -56.499 115.5s-59.333 60 -99 79s-84.5 28.5 -134.5 28.5c-51.333 0 -99.833 -9.16699 -145.5 -27.5s-86.5 -44 -122.5 -77s-65.667 -71.333 -89 -115s-38.666 -90.5 -45.999 -140.5z" />
    <glyph glyph-name="ordfeminine" unicode="&#xaa;" horiz-adv-x="231" 
d="M123 532c1.33301 14 9.00293 25.9971 23.0029 35.9971s29 15 45 15c13.333 0.666992 25.166 -1.33301 35.499 -6s20.833 -10.667 31.5 -18l4 24c-6.66699 6.66699 -15.834 13.334 -27.501 20.001s-26.5 10 -44.5 10c-24 0 -47 -7.5 -69 -22.5s-34.667 -34.167 -38 -57.5
c-3.33301 -22 1.66699 -40.167 15 -54.5s30.333 -21.833 51 -22.5c24 -0.666992 44.333 5.5 61 18.5s28 29.5 34 49.5l-4 26c-5.33301 -17.333 -15 -31.5 -29 -42.5s-30.333 -16.167 -49 -15.5c-14 0.666992 -24.333 4.83398 -31 12.501s-9.33398 16.834 -8.00098 27.501z
M143.003 645.997c8.66699 4.66699 19.167 10.002 31.5 16.002s25.833 8.33301 40.5 7c12 -0.666992 21.333 -3.83398 28 -9.50098s10.667 -13.834 12 -24.501l-31 -174h40l29 174c2 22 -4.16699 39.167 -18.5 51.5s-33.166 18.5 -56.499 18.5
c-18.667 0.666992 -35.334 -2 -50.001 -8s-27.667 -12.333 -39 -19z" />
    <glyph glyph-name="guillemotleft" unicode="&#xab;" horiz-adv-x="495" 
d="M299 259l178 185l-43 46l-223 -232l146 -238l55 44zM143 259l179 185l-44 46l-223 -232l146 -238l56 44z" />
    <glyph glyph-name="logicalnot" unicode="&#xac;" horiz-adv-x="602" 
d="M86 300h404l-22 -124h74l35 199h-477z" />
    <glyph glyph-name="uni00AD" unicode="&#xad;" horiz-adv-x="204" 
d="M12 201h196l13 74h-196z" />
    <glyph glyph-name="registered" unicode="&#xae;" horiz-adv-x="776" 
d="M376 358l110 -208h61l-116 208h-55zM336 570l-64 -419h50l65 419h-51zM356 525h86.0029c24.667 -1.33301 44.167 -9 58.5 -23s19.833 -33.333 16.5 -58s-15 -44 -35 -58s-42.667 -21.667 -68 -23h-83l-6 -44h85c39.333 1.33301 74.166 13 104.499 35s48.166 52 53.499 90
c5.33301 37.333 -4.33398 67.5 -29.001 90.5s-55.667 34.833 -93 35.5h-83zM130.003 350c6.66699 42.667 20.165 82.667 40.498 120s46 70.333 77 99s65.833 51 104.5 67s80 24 124 24c42.667 0 80.5 -8.5 113.5 -25.5s60.333 -40 82 -69s36.834 -62 45.501 -99
s10 -75.833 4 -116.5c-6.66699 -42 -20.167 -81.667 -40.5 -119s-46 -70.333 -77 -99s-66 -51 -105 -67s-80.167 -24 -123.5 -24c-42.667 0 -80.667 8.5 -114 25.5s-60.666 40 -81.999 69s-36.333 62 -45 99s-10 75.5 -4 115.5zM75.001 350
c-6.66699 -48 -4.33691 -93.5 6.99609 -136.5s30.333 -81.333 57 -115s59.834 -60.167 99.501 -79.5s84.5 -29 134.5 -29c51.333 0 99.666 9.33301 144.999 28s86 44.5 122 77.5s65.833 71.167 89.5 114.5s38.834 90 45.501 140c6.66699 48 4.33398 93.667 -6.99902 137
s-30.166 81.833 -56.499 115.5s-59.333 60 -99 79s-84.5 28.5 -134.5 28.5c-51.333 0 -99.833 -9.16699 -145.5 -27.5s-86.5 -44 -122.5 -77s-65.667 -71.333 -89 -115s-38.666 -90.5 -45.999 -140.5z" />
    <glyph glyph-name="macron" unicode="&#xaf;" horiz-adv-x="495" 
d="M153 600h341l12 75h-341z" />
    <glyph glyph-name="degree" unicode="&#xb0;" horiz-adv-x="270" 
d="M94 601c-4.66699 -32.667 2.16895 -60.833 20.502 -84.5s44.166 -35.5 77.499 -35.5c22.667 0 43.5 5.33301 62.5 16s35 25 48 43s21.167 38 24.5 60c3.33301 21.333 1.33301 41 -6 59s-18.833 32.667 -34.5 44s-34.834 17 -57.501 17c-22 0 -42.667 -5.33301 -62 -16
s-35.5 -25 -48.5 -43s-21.167 -38 -24.5 -60zM134.003 600.001c2.66699 14.667 8.5 28.1641 17.5 40.4971s20.167 22.333 33.5 30s27.333 11.5 42 11.5c22 -0.666992 38.333 -9.16699 49 -25.5s14.334 -35.166 11.001 -56.499c-2 -14.667 -7.66699 -28.167 -17 -40.5
s-20.5 -22.166 -33.5 -29.499s-27.167 -11 -42.5 -11c-22 0 -38.333 8.33301 -49 25s-14.334 35.334 -11.001 56.001z" />
    <glyph glyph-name="plusminus" unicode="&#xb1;" horiz-adv-x="597" 
d="M47 0h471l13 80h-473zM100 345h471l13 80h-472zM334 620l-70 -469l82 -1l74 470h-86z" />
    <glyph glyph-name="uni00B2" unicode="&#xb2;" horiz-adv-x="336" 
d="M45 283l287.999 -0.00195312l8 47l-183 1l152 135c17.333 16.667 32.833 34.5 46.5 53.5s22.5 39.833 26.5 62.5c3.33301 20 1.66602 39.667 -5.00098 59s-18.334 35.5 -35.001 48.5s-38.667 19.5 -66 19.5c-29.333 0.666992 -55.166 -6 -77.499 -20
s-40.5 -32.333 -54.5 -55s-24 -47.667 -30 -75h51c4.66699 18 11.834 35 21.501 51s21.834 28.833 36.501 38.5s31.334 13.834 50.001 12.501c15.333 -0.666992 27.5 -4.66699 36.5 -12s15.333 -16.666 19 -27.999s4.5 -23 2.5 -35
c-2.66699 -18 -9.83398 -34.5 -21.501 -49.5s-24.5 -29.167 -38.5 -42.5z" />
    <glyph glyph-name="uni00B3" unicode="&#xb3;" horiz-adv-x="303" 
d="M193 488c24.667 2 47.834 7.16504 69.501 15.498s39.834 20 54.501 35s24 33.5 28 55.5c3.33301 19.333 1.5 37.5 -5.5 54.5s-18.167 30.833 -33.5 41.5s-34.333 16 -57 16c-34.667 0.666992 -63.667 -9.66602 -87 -30.999s-38.666 -47 -45.999 -77l49 -1
c5.33301 16.667 15.166 31.667 29.499 45s31.166 19.333 50.499 18c19.333 -0.666992 33.166 -7.66699 41.499 -21s10.833 -28.666 7.5 -45.999c-2.66699 -14 -8.5 -26.167 -17.5 -36.5s-20.167 -18.5 -33.5 -24.5s-28.333 -10 -45 -12zM177 274.998
c24 0 46.3359 4.83008 67.0029 14.4971s38 23.334 52 41.001s22.667 37.834 26 60.501c3.33301 20 2 37.333 -4 52s-15 26.5 -27 35.5s-26.167 16 -42.5 21s-33.833 7.83301 -52.5 8.5l-6 -33c16.667 -1.33301 31.667 -4.66602 45 -9.99902s23.5 -13.5 30.5 -24.5
s8.83301 -25.167 5.5 -42.5c-2.66699 -21.333 -12.834 -39.333 -30.501 -54s-37.834 -21.667 -60.501 -21s-39.334 7.5 -50.001 20.5s-16 28.833 -16 47.5h-51c-0.666992 -21.333 3 -40.833 11 -58.5s20.667 -31.667 38 -42s39 -15.5 65 -15.5z" />
    <glyph glyph-name="acute" unicode="&#xb4;" horiz-adv-x="364" 
d="M377 658l-70 42l-169 -158l42 -31z" />
    <glyph glyph-name="mu" unicode="&#xb5;" horiz-adv-x="509" 
d="M204 460l-81.0029 0.000976562l-131 -779l77 -1l57 330c9.33301 -6 20.333 -10.667 33 -14s26.334 -5 41.001 -5c28.667 0 54.834 6.33301 78.501 19s44.167 29.334 61.5 50.001l-9 -60h79l80 460h-80l-50 -284c-3.33301 -20.667 -11.166 -39.334 -23.499 -56.001
s-27.833 -29.834 -46.5 -39.501s-39.667 -14.5 -63 -14.5c-20 0 -36 4.5 -48 13.5s-20.167 21.333 -24.5 37s-5.5 33.167 -3.5 52.5z" />
    <glyph glyph-name="paragraph" unicode="&#xb6;" horiz-adv-x="561" 
d="M298 271l-82.999 -489.999h69l145 855h87l-146 -855h69l157 919h-225c-42.667 0 -82.334 -8.5 -119.001 -25.5s-67.167 -41.5 -91.5 -73.5s-40.166 -70.333 -47.499 -115c-6 -42.667 -1.83301 -79.667 12.5 -111s36.666 -55.833 66.999 -73.5s65.5 -27.834 105.5 -30.501
z" />
    <glyph glyph-name="periodcentered" unicode="&#xb7;" horiz-adv-x="291" 
d="M106 241c-0.666992 -9.33301 0.831055 -18.1689 4.49805 -26.502s9 -15 16 -20s15.167 -7.83301 24.5 -8.5s18.666 1.5 27.999 6.5s17.333 11.833 24 20.5s10.334 17.334 11.001 26.001c1.33301 9.33301 0 18.166 -4 26.499s-9.66699 15.166 -17 20.499
s-15.666 8.33301 -24.999 9s-18.5 -1.66602 -27.5 -6.99902s-16.667 -12.166 -23 -20.499s-10.166 -17.166 -11.499 -26.499z" />
    <glyph glyph-name="cedilla" unicode="&#xb8;" horiz-adv-x="340" 
d="M172 59l-110 -165.999c10 5.33301 20.667 9.66602 32 12.999s20.666 4.66602 27.999 3.99902c8.66699 0 16.334 -1.33301 23.001 -4s11.667 -6.66699 15 -12s4.33301 -11.666 3 -18.999c-0.666992 -7.33301 -3.83398 -14.166 -9.50098 -20.499s-12.667 -11.333 -21 -15
s-17.166 -5.5 -26.499 -5.5c-11.333 0 -20.5 2.33301 -27.5 7s-14.5 10.334 -22.5 17.001l-38 -38c12.667 -12.667 25.167 -22.334 37.5 -29.001s27.5 -10 45.5 -10s35.667 3.66699 53 11s32 18 44 32s19 30.333 21 49c2.66699 22 -2.33301 39.667 -15 53
s-28 20.666 -46 21.999h-3h-4l82 111h-61z" />
    <glyph glyph-name="uni00B9" unicode="&#xb9;" horiz-adv-x="456" 
d="M225 612l93 26l-61 -363h51l74 426l-149 -37z" />
    <glyph glyph-name="ordmasculine" unicode="&#xba;" horiz-adv-x="270" 
d="M91 581c-4.66699 -32.667 2.16895 -60.833 20.502 -84.5s44.166 -35.5 77.499 -35.5c22.667 0 43.5 5.33301 62.5 16s35 25 48 43s20.833 38 23.5 60c3.33301 21.333 1.33301 41 -6 59s-18.833 32.667 -34.5 44s-34.834 17 -57.501 17c-22 0 -42.667 -5.33301 -62 -16
s-35.333 -25 -48 -43s-20.667 -38 -24 -60zM130.003 580.001c2.66699 14.667 8.5 28.1641 17.5 40.4971s20.167 22.333 33.5 30s27.333 11.5 42 11.5c22 -0.666992 38.5 -9.16699 49.5 -25.5s14.833 -35.166 11.5 -56.499c-2.66699 -14.667 -8.5 -28.167 -17.5 -40.5
s-20 -22.166 -33 -29.499s-27.167 -11 -42.5 -11c-22 0 -38.333 8.33301 -49 25s-14.667 35.334 -12 56.001z" />
    <glyph glyph-name="guillemotright" unicode="&#xbb;" horiz-adv-x="495" 
d="M229 252l-178 -185l44 -46l223 231l-147 238l-55 -44zM385 252l-178 -185l43 -46l223 231l-146 238l-55 -44z" />
    <glyph glyph-name="onequarter" unicode="&#xbc;" horiz-adv-x="732" 
d="M690 699l-622 -699h65l623 699h-66zM107 612l93 26l-61 -363h51l73 426l-148 -37zM374 85h311l7 44h-86h-10l-176 -1zM428 85l179 217l-32 -190l-1 -6l-18 -106h51l71 420l-22 -1l-283 -333z" />
    <glyph glyph-name="onehalf" unicode="&#xbd;" horiz-adv-x="795" 
d="M690 699l-622 -699h65l623 699h-66zM107 612l93 26l-61 -363h51l73 426l-148 -37zM452 3l288.003 -0.00195312l8 47l-183 1l152 135c17.333 16.667 32.833 34.5 46.5 53.5s22.167 39.833 25.5 62.5c3.33301 20 1.66602 39.667 -5.00098 59s-18.334 35.5 -35.001 48.5
s-38.667 19.5 -66 19.5c-29.333 0.666992 -55 -6 -77 -20s-40 -32.333 -54 -55s-24 -47.667 -30 -75h51c4 18 10.833 34.833 20.5 50.5s21.834 28.334 36.501 38.001s31.334 13.834 50.001 12.501c15.333 -0.666992 27.666 -4.66699 36.999 -12s15.833 -16.5 19.5 -27.5
s4.5 -22.5 2.5 -34.5c-2.66699 -18 -9.83398 -34.5 -21.501 -49.5s-24.834 -29.167 -39.501 -42.5z" />
    <glyph glyph-name="threequarters" unicode="&#xbe;" horiz-adv-x="796" 
d="M755 699l-622 -699h65l623 699h-66zM198 488c24.667 2 47.833 7.16504 69.5 15.498s39.834 20 54.501 35s24 33.5 28 55.5c3.33301 19.333 1.33301 37.5 -6 54.5s-18.666 30.833 -33.999 41.5s-34.333 16 -57 16c-34.667 0.666992 -63.5 -9.66602 -86.5 -30.999
s-38.167 -47 -45.5 -77l49 -1c5.33301 16.667 15.166 31.667 29.499 45s31.166 19.333 50.499 18c19.333 -0.666992 33 -7.66699 41 -21s10.667 -28.666 8 -45.999c-2.66699 -14 -8.5 -26.167 -17.5 -36.5s-20.167 -18.5 -33.5 -24.5s-28.333 -10 -45 -12zM181.999 274.998
c24 0 46.3359 4.83008 67.0029 14.4971s38 23.334 52 41.001s22.667 37.834 26 60.501c3.33301 20 2 37.333 -4 52s-15 26.5 -27 35.5s-26.167 16 -42.5 21s-33.833 7.83301 -52.5 8.5l-6 -33c16.667 -1.33301 31.667 -4.66602 45 -9.99902s23.5 -13.5 30.5 -24.5
s8.83301 -25.167 5.5 -42.5c-2.66699 -21.333 -12.834 -39.333 -30.501 -54s-37.834 -21.667 -60.501 -21s-39.334 7.5 -50.001 20.5s-16 28.833 -16 47.5h-51c-0.666992 -21.333 3 -40.833 11 -58.5s20.667 -31.667 38 -42s39 -15.5 65 -15.5zM439.002 84.9951h311l7 44
h-86h-10l-176 -1zM493.002 84.9951l179 217l-32 -190l-1 -6l-18 -106h51l71 420l-22 -1l-283 -333z" />
    <glyph glyph-name="questiondown" unicode="&#xbf;" horiz-adv-x="541" 
d="M144 200c6 28.667 19.1641 54.499 39.4971 77.499s45.666 41.5 75.999 55.5s63.5 21.333 99.5 22h25l9 175h-60l-28 -120c-38 -4 -74.167 -15.333 -108.5 -34s-63.166 -42.834 -86.499 -72.501s-38.333 -63.834 -45 -102.501c-4 -28 -2.66699 -54.667 4 -80
s18 -47.666 34 -66.999s36 -34.666 60 -45.999s51 -17 81 -17c54 -0.666992 98.833 10 134.5 32s67.834 49.667 96.501 83l-59 42c-19.333 -22.667 -41.666 -42.167 -66.999 -58.5s-54.666 -24.166 -87.999 -23.499c-28 0 -51.5 5.83301 -70.5 17.5s-32.5 27.5 -40.5 47.5
s-10 43 -6 69zM437.997 658.999c1.33301 14 -2.50195 26.6631 -11.502 37.9961s-20.5 17.333 -34.5 18c-9.33301 0.666992 -18.5 -1.66602 -27.5 -6.99902s-16.667 -12.166 -23 -20.499s-10.166 -17.166 -11.499 -26.499c-1.33301 -14 2.33398 -26.5 11.001 -37.5
s20 -16.833 34 -17.5c9.33301 -0.666992 18.666 1.5 27.999 6.5s17.333 11.833 24 20.5s10.334 17.334 11.001 26.001z" />
    <glyph glyph-name="Agrave" unicode="&#xc0;" horiz-adv-x="640" 
d="M152 211l360 -1l-16 80h-303zM388 542l67 -282l4 -20l58 -240h91l-189 737l-444 -737h96l144 246l11 18zM328 946l152 -151l47 29l-120 161z" />
    <glyph glyph-name="Aacute" unicode="&#xc1;" horiz-adv-x="640" 
d="M152 211l360 -1l-16 80h-303zM388 542l67 -282l4 -20l58 -240h91l-189 737l-444 -737h96l144 246l11 18zM582 943l-69 42l-172 -158l42 -31z" />
    <glyph glyph-name="Acircumflex" unicode="&#xc2;" horiz-adv-x="640" 
d="M152 211l360 -1l-16 80h-303zM388 542l67 -282l4 -20l58 -240h91l-189 737l-444 -737h96l144 246l11 18zM441 850l90 -94l54 38l-134 141l-178 -138l44 -41z" />
    <glyph glyph-name="Atilde" unicode="&#xc3;" horiz-adv-x="640" 
d="M152 211l360 -1l-16 80h-303zM388 542l67 -282l4 -20l58 -240h91l-189 737l-444 -737h96l144 246l11 18zM271 814l48 -37.999c4 9.33301 10.167 19.833 18.5 31.5s21.5 17.834 39.5 18.501c14 0.666992 26.333 -2.83301 37 -10.5l32.5 -23
c11 -7.66699 24.167 -11.834 39.5 -12.501c16.667 -0.666992 32.167 2.66602 46.5 9.99902s27.333 16.5 39 27.5s21.167 22.167 28.5 33.5l-40 44c-9.33301 -12.667 -19.333 -23.5 -30 -32.5s-22 -13.833 -34 -14.5c-15.333 -0.666992 -28 2.83301 -38 10.5l-31.5 23.5
c-11 8 -25.167 12 -42.5 12c-16 0.666992 -31.5 -2.83301 -46.5 -10.5s-28.167 -17.667 -39.5 -30s-20.333 -25.5 -27 -39.5z" />
    <glyph glyph-name="Adieresis" unicode="&#xc4;" horiz-adv-x="640" 
d="M152 211l360 -1l-16 80h-303zM388 542l67 -282l4 -20l58 -240h91l-189 737l-444 -737h96l144 246l11 18zM482 851c-1.33301 -14 2.33398 -26.498 11.001 -37.498s20 -16.833 34 -17.5s27.5 4.66602 40.5 15.999s20.167 23.666 21.5 36.999
c1.33301 14 -2.33398 26.667 -11.001 38s-20 17.333 -34 18s-27.5 -4.83301 -40.5 -16.5s-20.167 -24.167 -21.5 -37.5zM287 851.002c-1.33301 -14 2.5 -26.498 11.5 -37.498s20.5 -16.833 34.5 -17.5s27.5 4.66602 40.5 15.999s20.167 23.666 21.5 36.999
c1.33301 14 -2.33398 26.667 -11.001 38s-20 17.333 -34 18s-27.667 -4.83301 -41 -16.5s-20.666 -24.167 -21.999 -37.5z" />
    <glyph glyph-name="Aring" unicode="&#xc5;" horiz-adv-x="640" 
d="M152 211l360 -1l-16 80h-303zM388 542l67 -282l4 -20l58 -240h91l-189 737l-444 -737h96l144 246l11 18zM330 799c-2.66699 -18 -0.500977 -34.499 6.49902 -49.499s17.333 -27.167 31 -36.5s29.167 -14 46.5 -14c18 0 35.333 4.33301 52 13s30.834 20.5 42.501 35.5
s18.5 31.5 20.5 49.5c2.66699 18.667 0.5 35.5 -6.5 50.5s-17.167 27.167 -30.5 36.5s-29 14 -47 14c-17.333 0 -34.5 -4.5 -51.5 -13.5s-31.167 -20.833 -42.5 -35.5s-18.333 -31.334 -21 -50.001zM379.999 798.001c1.33301 9.33301 5.16602 18.167 11.499 26.5
s14 15 23 20s17.5 7.16699 25.5 6.5c12 -0.666992 21.833 -6.16699 29.5 -16.5s10.834 -22.166 9.50098 -35.499c-1.33301 -14 -8.66602 -26.5 -21.999 -37.5s-26 -16.167 -38 -15.5s-21.833 6.16699 -29.5 16.5s-10.834 22.166 -9.50098 35.499z" />
    <glyph glyph-name="AE" unicode="&#xc6;" horiz-adv-x="932" 
d="M220 211l292 -1l14 80h-293zM517 700l-539 -700h94l504 658zM495 0h343l14 80h-344zM611 620h333l14 80h-441zM553 341l324 -1l14 80h-325zM567 700l-118 -700h82l121 700h-85z" />
    <glyph glyph-name="Ccedilla" unicode="&#xc7;" horiz-adv-x="665" 
d="M160 350c6 38 18.1709 73.499 36.5039 106.499s41.166 62.167 68.499 87.5s57.666 45.166 90.999 59.499s68.333 21.5 105 21.5c44.667 0 83.667 -9.16699 117 -27.5s60.666 -43.833 81.999 -76.5l18 112c-28 26.667 -58.5 46.334 -91.5 59.001s-71.833 18.667 -116.5 18
c-50 0 -97.333 -9.5 -142 -28.5s-85 -45 -121 -78s-65.833 -71.167 -89.5 -114.5s-39.167 -89.666 -46.5 -138.999c-6.66699 -46.667 -5 -91.667 5 -135s27.333 -81.833 52 -115.5s56.167 -60.334 94.5 -80.001s81.833 -29.5 130.5 -29.5c47.333 0 89.333 6.66699 126 20
s71.334 32.333 104.001 57l17 111c-30.667 -28.667 -66 -53 -106 -73s-84.333 -29.667 -133 -29c-36 0 -67.667 7.66699 -95 23s-49.833 35.833 -67.5 61.5s-29.834 54.834 -36.501 87.501s-7.33398 66.667 -2.00098 102zM350.004 57.999l-110 -166.001
c10 5.33301 20.667 9.66602 32 12.999s21 4.66602 29 3.99902c8.66699 0 16.167 -1.33301 22.5 -4s11.166 -6.66699 14.499 -12s4.33301 -11.666 3 -18.999c-0.666992 -7.33301 -3.83398 -14.166 -9.50098 -20.499s-12.667 -11.333 -21 -15s-17.166 -5.5 -26.499 -5.5
c-10.667 0 -19.667 2.33301 -27 7s-15 10.334 -23 17.001l-38 -38c12.667 -12.667 25.334 -22.334 38.001 -29.001s27.667 -10 45 -10c18 0 35.667 3.83301 53 11.5s32 18.334 44 32.001s19 29.834 21 48.501c2.66699 22 -2.33301 39.667 -15 53s-27.667 20.666 -45 21.999
h-4h-4l82 111h-61z" />
    <glyph glyph-name="Egrave" unicode="&#xc8;" horiz-adv-x="534" 
d="M97 0h344l13 80h-344zM203 621l343 -1l14 80h-344zM155 341l324 -1l14 80h-325zM169 700l-118 -700h82l121 700h-85zM275 921l152 -151l47 29l-120 161z" />
    <glyph glyph-name="Eacute" unicode="&#xc9;" horiz-adv-x="534" 
d="M97 0h344l13 80h-344zM203 621l343 -1l14 80h-344zM155 341l324 -1l14 80h-325zM169 700l-118 -700h82l121 700h-85zM529 918l-69 42l-172 -158l42 -31z" />
    <glyph glyph-name="Ecircumflex" unicode="&#xca;" horiz-adv-x="534" 
d="M97 0h344l13 80h-344zM203 621l343 -1l14 80h-344zM155 341l324 -1l14 80h-325zM169 700l-118 -700h82l121 700h-85zM405 865l90 -94l54 38l-134 141l-178 -138l44 -41z" />
    <glyph glyph-name="Edieresis" unicode="&#xcb;" horiz-adv-x="534" 
d="M97 0h344l13 80h-344zM203 621l343 -1l14 80h-344zM155 341l324 -1l14 80h-325zM169 700l-118 -700h82l121 700h-85zM442 846c-1.33301 -14 2.33398 -26.498 11.001 -37.498s20.334 -16.833 35.001 -17.5c13.333 -0.666992 26.666 4.66602 39.999 15.999
s20.666 23.666 21.999 36.999c1.33301 14 -2.33398 26.667 -11.001 38s-20.334 17.333 -35.001 18c-13.333 0.666992 -26.666 -4.83301 -39.999 -16.5s-20.666 -24.167 -21.999 -37.5zM248 846.002c-1.33301 -14 2.33398 -26.498 11.001 -37.498
s20.334 -16.833 35.001 -17.5c13.333 -0.666992 26.666 4.66602 39.999 15.999s20.666 23.666 21.999 36.999c1.33301 14 -2.5 26.667 -11.5 38s-20.5 17.333 -34.5 18s-27.5 -4.83301 -40.5 -16.5s-20.167 -24.167 -21.5 -37.5z" />
    <glyph glyph-name="Igrave" unicode="&#xcc;" horiz-adv-x="238" 
d="M169 700l-118 -700h82l121 700h-85zM122 921l152 -151l48 29l-121 161z" />
    <glyph glyph-name="Iacute" unicode="&#xcd;" horiz-adv-x="238" 
d="M169 700l-118 -700h82l121 700h-85zM375 918l-67 42l-172 -158l40 -31z" />
    <glyph glyph-name="Icircumflex" unicode="&#xce;" horiz-adv-x="238" 
d="M169 700l-118 -700h82l121 700h-85zM242 865l90 -94l54 38l-134 141l-178 -138l44 -41z" />
    <glyph glyph-name="Idieresis" unicode="&#xcf;" horiz-adv-x="238" 
d="M169 700l-118 -700h82l121 700h-85zM276 826c-1.33301 -13.333 2.16797 -25.665 10.501 -36.998s19.833 -17.333 34.5 -18c14 -0.666992 27.667 4.66602 41 15.999s20.666 23.666 21.999 36.999c1.33301 14 -2.5 26.667 -11.5 38s-20.5 17.333 -34.5 18
s-27.5 -4.83301 -40.5 -16.5s-20.167 -24.167 -21.5 -37.5zM82.001 826.001c-1.33301 -13.333 2.16797 -25.665 10.501 -36.998s19.833 -17.333 34.5 -18c14 -0.666992 27.667 4.66602 41 15.999s20.666 23.666 21.999 36.999c1.33301 14 -2.5 26.667 -11.5 38
s-20.833 17.333 -35.5 18c-13.333 0.666992 -26.5 -4.83301 -39.5 -16.5s-20.167 -24.167 -21.5 -37.5z" />
    <glyph glyph-name="Eth" unicode="&#xd0;" horiz-adv-x="660" 
d="M31 311l293 -1l12 75h-292zM169 700l-118 -700h82l121 700h-85zM258 0c68 1.33301 130.169 17.167 186.502 47.5s103 71.666 140 123.999s60.5 111.833 70.5 178.5c9.33301 64 3.83301 122.333 -16.5 175s-53.333 94.834 -99 126.501s-101.834 47.834 -168.501 48.501
h-156l-15 -85h162c52 -0.666992 94.833 -12.834 128.5 -36.501s57.5 -55.334 71.5 -95.001s17 -84.167 9 -133.5c-8.66699 -51.333 -27.167 -96.666 -55.5 -135.999s-63.833 -70.333 -106.5 -93s-90.334 -34.667 -143.001 -36h-156l-15 -85h163z" />
    <glyph glyph-name="Ntilde" unicode="&#xd1;" horiz-adv-x="752" 
d="M684 700l-90 -521l-419 555l-126 -734h85l90 522l418 -556l126 734h-84zM316 794l48.001 -37.999c4 9.33301 10.333 19.833 19 31.5s21.667 17.834 39 18.501c14 0.666992 26.333 -2.83301 37 -10.5l32.5 -23c11 -7.66699 24.167 -11.834 39.5 -12.501
c16.667 -0.666992 32.167 2.66602 46.5 9.99902s27.333 16.5 39 27.5s21.167 22.167 28.5 33.5l-40 44c-9.33301 -12.667 -19.333 -23.5 -30 -32.5s-21.667 -13.833 -33 -14.5c-15.333 -0.666992 -28.166 2.83301 -38.499 10.5l-32 23.5c-11 8 -25.167 12 -42.5 12
c-16 0.666992 -31.333 -2.83301 -46 -10.5s-27.834 -17.667 -39.501 -30s-20.834 -25.5 -27.501 -39.5z" />
    <glyph glyph-name="Ograve" unicode="&#xd2;" horiz-adv-x="767" 
d="M160 350c6 37.333 17.999 72.667 35.999 106s40.667 62.666 68 87.999s58.166 45.166 92.499 59.499s70.833 21.5 109.5 21.5c38 0 71.167 -7.66699 99.5 -23s51.5 -36 69.5 -62s30.167 -55.333 36.5 -88s6.83301 -66.667 1.5 -102
c-6 -37.333 -18.167 -72.5 -36.5 -105.5s-41.166 -62.167 -68.499 -87.5s-58.166 -45.166 -92.499 -59.499s-70.833 -21.5 -109.5 -21.5c-38 0 -71.167 7.66699 -99.5 23s-51.333 35.833 -69 61.5s-29.667 54.834 -36 87.501s-6.83301 66.667 -1.5 102zM70.999 350.001
c-6.66699 -46.667 -5.16504 -91.5039 4.50195 -134.504s27.167 -81.333 52.5 -115s57.333 -60.5 96 -80.5s83.334 -30 134.001 -30c51.333 0 99.666 9.5 144.999 28.5s86 45 122 78s65.833 71.333 89.5 115s39.5 89.834 47.5 138.501c6.66699 47.333 5 92.5 -5 135.5
s-27.667 81.333 -53 115s-57.333 60.334 -96 80.001s-83.334 29.5 -134.001 29.5s-98.834 -9.33301 -144.501 -28s-86.5 -44.667 -122.5 -78s-65.833 -71.666 -89.5 -114.999s-39.167 -89.666 -46.5 -138.999zM396.001 920.997l152 -151l48 29l-121 161z" />
    <glyph glyph-name="Oacute" unicode="&#xd3;" horiz-adv-x="767" 
d="M160 350c6 37.333 17.999 72.667 35.999 106s40.667 62.666 68 87.999s58.166 45.166 92.499 59.499s70.833 21.5 109.5 21.5c38 0 71.167 -7.66699 99.5 -23s51.5 -36 69.5 -62s30.167 -55.333 36.5 -88s6.83301 -66.667 1.5 -102
c-6 -37.333 -18.167 -72.5 -36.5 -105.5s-41.166 -62.167 -68.499 -87.5s-58.166 -45.166 -92.499 -59.499s-70.833 -21.5 -109.5 -21.5c-38 0 -71.167 7.66699 -99.5 23s-51.333 35.833 -69 61.5s-29.667 54.834 -36 87.501s-6.83301 66.667 -1.5 102zM70.999 350.001
c-6.66699 -46.667 -5.16504 -91.5039 4.50195 -134.504s27.167 -81.333 52.5 -115s57.333 -60.5 96 -80.5s83.334 -30 134.001 -30c51.333 0 99.666 9.5 144.999 28.5s86 45 122 78s65.833 71.333 89.5 115s39.5 89.834 47.5 138.501c6.66699 47.333 5 92.5 -5 135.5
s-27.667 81.333 -53 115s-57.333 60.334 -96 80.001s-83.334 29.5 -134.001 29.5s-98.834 -9.33301 -144.501 -28s-86.5 -44.667 -122.5 -78s-65.833 -71.666 -89.5 -114.999s-39.167 -89.666 -46.5 -138.999zM631.001 917.997l-69 42l-172 -158l42 -31z" />
    <glyph glyph-name="Ocircumflex" unicode="&#xd4;" horiz-adv-x="767" 
d="M160 350c6 37.333 17.999 72.667 35.999 106s40.667 62.666 68 87.999s58.166 45.166 92.499 59.499s70.833 21.5 109.5 21.5c38 0 71.167 -7.66699 99.5 -23s51.5 -36 69.5 -62s30.167 -55.333 36.5 -88s6.83301 -66.667 1.5 -102
c-6 -37.333 -18.167 -72.5 -36.5 -105.5s-41.166 -62.167 -68.499 -87.5s-58.166 -45.166 -92.499 -59.499s-70.833 -21.5 -109.5 -21.5c-38 0 -71.167 7.66699 -99.5 23s-51.333 35.833 -69 61.5s-29.667 54.834 -36 87.501s-6.83301 66.667 -1.5 102zM70.999 350.001
c-6.66699 -46.667 -5.16895 -91.5039 4.49805 -134.504s27.167 -81.333 52.5 -115s57.333 -60.5 96 -80.5s83.334 -30 134.001 -30c51.333 0 99.666 9.5 144.999 28.5s86 45 122 78s65.833 71.333 89.5 115s39.5 89.834 47.5 138.501c6.66699 47.333 5 92.5 -5 135.5
s-27.667 81.333 -53 115s-57.333 60.334 -96 80.001s-83 29.5 -133 29.5c-51.333 0 -99.666 -9.33301 -144.999 -28s-86.166 -44.667 -122.499 -78s-66.333 -71.666 -90 -114.999s-39.167 -89.666 -46.5 -138.999zM506.997 864.997l90 -94l54 38l-134 141l-178 -138l44 -41z
" />
    <glyph glyph-name="Otilde" unicode="&#xd5;" horiz-adv-x="767" 
d="M160 350c6 37.333 17.999 72.667 35.999 106s40.667 62.666 68 87.999s58.166 45.166 92.499 59.499s70.833 21.5 109.5 21.5c38 0 71.167 -7.66699 99.5 -23s51.5 -36 69.5 -62s30.167 -55.333 36.5 -88s6.83301 -66.667 1.5 -102
c-6 -37.333 -18.167 -72.5 -36.5 -105.5s-41.166 -62.167 -68.499 -87.5s-58.166 -45.166 -92.499 -59.499s-70.833 -21.5 -109.5 -21.5c-38 0 -71.167 7.66699 -99.5 23s-51.333 35.833 -69 61.5s-29.667 54.834 -36 87.501s-6.83301 66.667 -1.5 102zM70.999 350.001
c-6.66699 -46.667 -5.16895 -91.5039 4.49805 -134.504s27.167 -81.333 52.5 -115s57.333 -60.5 96 -80.5s83.334 -30 134.001 -30c51.333 0 99.666 9.5 144.999 28.5s86 45 122 78s65.833 71.333 89.5 115s39.5 89.834 47.5 138.501c6.66699 47.333 5 92.5 -5 135.5
s-27.667 81.333 -53 115s-57.333 60.334 -96 80.001s-83 29.5 -133 29.5c-51.333 0 -99.666 -9.33301 -144.999 -28s-86.166 -44.667 -122.499 -78s-66.333 -71.666 -90 -114.999s-39.167 -89.666 -46.5 -138.999zM332.997 808.997l48.002 -37.999
c4 9.33301 10.333 19.833 19 31.5s21.667 17.834 39 18.501c14 0.666992 26.333 -2.83301 37 -10.5l33 -23c11.333 -7.66699 24.666 -11.834 39.999 -12.501c16.667 -0.666992 32 2.66602 46 9.99902s26.833 16.5 38.5 27.5s21.167 22.167 28.5 33.5l-40 44
c-9.33301 -12.667 -19.333 -23.5 -30 -32.5s-21.667 -13.833 -33 -14.5c-15.333 -0.666992 -28.166 2.83301 -38.499 10.5l-32 23.5c-11 8 -25.167 12 -42.5 12c-12 0 -26.833 -3.66699 -44.5 -11s-33.334 -17 -47.001 -29s-20.834 -25.333 -21.501 -40z" />
    <glyph glyph-name="Odieresis" unicode="&#xd6;" horiz-adv-x="767" 
d="M160 350c6 37.333 17.999 72.667 35.999 106s40.667 62.666 68 87.999s58.166 45.166 92.499 59.499s70.833 21.5 109.5 21.5c38 0 71.167 -7.66699 99.5 -23s51.5 -36 69.5 -62s30.167 -55.333 36.5 -88s6.83301 -66.667 1.5 -102
c-6 -37.333 -18.167 -72.5 -36.5 -105.5s-41.166 -62.167 -68.499 -87.5s-58.166 -45.166 -92.499 -59.499s-70.833 -21.5 -109.5 -21.5c-38 0 -71.167 7.66699 -99.5 23s-51.333 35.833 -69 61.5s-29.667 54.834 -36 87.501s-6.83301 66.667 -1.5 102zM70.999 350.001
c-6.66699 -46.667 -5.16504 -91.5039 4.50195 -134.504s27.167 -81.333 52.5 -115s57.333 -60.5 96 -80.5s83.334 -30 134.001 -30c51.333 0 99.666 9.5 144.999 28.5s86 45 122 78s65.833 71.333 89.5 115s39.5 89.834 47.5 138.501c6.66699 47.333 5 92.5 -5 135.5
s-27.667 81.333 -53 115s-57.333 60.334 -96 80.001s-83.334 29.5 -134.001 29.5s-98.834 -9.33301 -144.501 -28s-86.5 -44.667 -122.5 -78s-65.833 -71.666 -89.5 -114.999s-39.167 -89.666 -46.5 -138.999zM540.001 825.997c-1.33301 -14 2.5 -26.498 11.5 -37.498
s20.5 -16.833 34.5 -17.5s27.5 4.66602 40.5 15.999s20.167 23.666 21.5 36.999c1.33301 14 -2.33398 26.667 -11.001 38s-20.334 17.333 -35.001 18c-13.333 0.666992 -26.666 -4.83301 -39.999 -16.5s-20.666 -24.167 -21.999 -37.5zM346.001 825.999
c-1.33301 -14 2.5 -26.498 11.5 -37.498s20.5 -16.833 34.5 -17.5s27.5 4.66602 40.5 15.999s20.167 23.666 21.5 36.999c1.33301 14 -2.33398 26.667 -11.001 38s-20.334 17.333 -35.001 18c-13.333 0.666992 -26.666 -4.83301 -39.999 -16.5
s-20.666 -24.167 -21.999 -37.5z" />
    <glyph glyph-name="multiply" unicode="&#xd7;" horiz-adv-x="578" 
d="M96 22l203 181l141 -181l62 54l-147 177l207 176l-46 59l-204 -181l-140 181l-62 -53l147 -178l-208 -176z" />
    <glyph glyph-name="Oslash" unicode="&#xd8;" horiz-adv-x="767" 
d="M160 350c6 37.333 17.999 72.667 35.999 106s40.667 62.666 68 87.999s58.166 45.166 92.499 59.499s70.833 21.5 109.5 21.5c38 0 71.167 -7.66699 99.5 -23s51.5 -36 69.5 -62s30.167 -55.333 36.5 -88s6.83301 -66.667 1.5 -102
c-6 -37.333 -18.167 -72.5 -36.5 -105.5s-41.166 -62.167 -68.499 -87.5s-58.166 -45.166 -92.499 -59.499s-70.833 -21.5 -109.5 -21.5c-38 0 -71.167 7.66699 -99.5 23s-51.333 35.833 -69 61.5s-29.667 54.834 -36 87.501s-6.83301 66.667 -1.5 102zM70.999 350.001
c-6.66699 -46.667 -5.16895 -91.5039 4.49805 -134.504s27.167 -81.333 52.5 -115s57.333 -60.5 96 -80.5s83.334 -30 134.001 -30c51.333 0 99.666 9.5 144.999 28.5s86 45 122 78s65.833 71.333 89.5 115s39.5 89.834 47.5 138.501c6.66699 47.333 5 92.5 -5 135.5
s-27.667 81.333 -53 115s-57.333 60.334 -96 80.001s-83 29.5 -133 29.5c-51.333 0 -99.666 -9.33301 -144.999 -28s-86.166 -44.667 -122.499 -78s-66.333 -71.666 -90 -114.999s-39.167 -89.666 -46.5 -138.999zM766.997 749.997l-758 -758l53 -41l758 758z" />
    <glyph glyph-name="Ugrave" unicode="&#xd9;" horiz-adv-x="608" 
d="M165 700l-79.998 -470.002c-6 -42.667 -2.5 -82.167 10.5 -118.5s35 -65.5 66 -87.5s69.833 -33 116.5 -33c48 0 90.833 10.833 128.5 32.5s68.834 50.5 93.501 86.5s40.667 76 48 120l81 470h-84l-81 -470c-5.33301 -29.333 -15.833 -56.166 -31.5 -80.499
s-35.834 -43.5 -60.501 -57.5s-53.334 -21 -86.001 -21c-32 0.666992 -57.333 8.33398 -76 23.001s-31.334 34 -38.001 58s-8 50 -4 78l81 470h-84zM307.002 920.998l152 -151l47 29l-120 161z" />
    <glyph glyph-name="Uacute" unicode="&#xda;" horiz-adv-x="608" 
d="M165 700l-79.998 -470.002c-6 -42.667 -2.5 -82.167 10.5 -118.5s35 -65.5 66 -87.5s69.833 -33 116.5 -33c48 0 90.833 10.833 128.5 32.5s68.834 50.5 93.501 86.5s40.667 76 48 120l81 470h-84l-81 -470c-5.33301 -29.333 -15.833 -56.166 -31.5 -80.499
s-35.834 -43.5 -60.501 -57.5s-53.334 -21 -86.001 -21c-32 0.666992 -57.333 8.33398 -76 23.001s-31.334 34 -38.001 58s-8 50 -4 78l81 470h-84zM561.002 917.998l-69 42l-172 -158l42 -31z" />
    <glyph glyph-name="Ucircumflex" unicode="&#xdb;" horiz-adv-x="608" 
d="M165 700l-79.998 -470.002c-6 -42.667 -2.5 -82.167 10.5 -118.5s35 -65.5 66 -87.5s69.833 -33 116.5 -33c48 0 90.833 10.833 128.5 32.5s68.834 50.5 93.501 86.5s40.667 76 48 120l81 470h-84l-81 -470c-5.33301 -29.333 -15.833 -56.166 -31.5 -80.499
s-35.834 -43.5 -60.501 -57.5s-53.334 -21 -86.001 -21c-32 0.666992 -57.333 8.33398 -76 23.001s-31.334 34 -38.001 58s-8 50 -4 78l81 470h-84zM427.002 864.998l90 -94l54 38l-134 141l-178 -138l44 -41z" />
    <glyph glyph-name="Udieresis" unicode="&#xdc;" horiz-adv-x="608" 
d="M165 700l-79.998 -470.002c-6 -42.667 -2.5 -82.167 10.5 -118.5s35 -65.5 66 -87.5s69.833 -33 116.5 -33c48 0 90.833 10.833 128.5 32.5s68.834 50.5 93.501 86.5s40.667 76 48 120l81 470h-84l-81 -470c-5.33301 -29.333 -15.833 -56.166 -31.5 -80.499
s-35.834 -43.5 -60.501 -57.5s-53.334 -21 -86.001 -21c-32 0.666992 -57.333 8.33398 -76 23.001s-31.334 34 -38.001 58s-8 50 -4 78l81 470h-84zM461.002 825.998c-1.33301 -14 2.33398 -26.498 11.001 -37.498s20.334 -16.833 35.001 -17.5
c13.333 -0.666992 26.666 4.66602 39.999 15.999s20.666 23.666 21.999 36.999c1.33301 14 -2.5 26.667 -11.5 38s-20.5 17.333 -34.5 18s-27.5 -4.83301 -40.5 -16.5s-20.167 -24.167 -21.5 -37.5zM267.002 826c-1.33301 -14 2.33398 -26.498 11.001 -37.498
s20 -16.833 34 -17.5s27.667 4.66602 41 15.999s20.666 23.666 21.999 36.999c1.33301 14 -2.5 26.667 -11.5 38s-20.5 17.333 -34.5 18s-27.5 -4.83301 -40.5 -16.5s-20.167 -24.167 -21.5 -37.5z" />
    <glyph glyph-name="Yacute" unicode="&#xdd;" horiz-adv-x="544" 
d="M529 918l-68 42l-172 -158l41 -31zM538 700l-230 -322l-119 322h-91l158 -396l-53 -304h84l51 300l297 400h-97z" />
    <glyph glyph-name="Thorn" unicode="&#xde;" horiz-adv-x="534" 
d="M169 700l-118 -700h82l121 700h-85zM177 480l143.001 -0.000976562c28 -0.666992 52 -6.16699 72 -16.5s34.667 -25 44 -44s11.666 -42.167 6.99902 -69.5s-15.334 -50.666 -32.001 -69.999s-37.167 -34 -61.5 -44s-50.833 -15.333 -79.5 -16h-137l-14 -80h143
c44 1.33301 84.833 10.5 122.5 27.5s69.167 41.167 94.5 72.5s41.333 68 48 110c6.66699 41.333 1.83398 77.666 -14.499 108.999s-40.5 55.833 -72.5 73.5s-69.333 26.834 -112 27.501h-137z" />
    <glyph glyph-name="germandbls" unicode="&#xdf;" horiz-adv-x="565" 
d="M342 -12c36.667 0 69.5 8.66699 98.5 26s52.167 40.666 69.5 69.999s26 62 26 98c0 28.667 -4.83301 52.5 -14.5 71.5s-21.834 35 -36.501 48s-29.334 24.5 -44.001 34.5s-26.834 20 -36.501 30s-14.5 22 -14.5 36c0 16.667 5.33301 31.167 16 43.5s24 24.333 40 36
s32 24.667 48 39s29.333 32 40 53s16 47.167 16 78.5c0 30.667 -7.33301 56.5 -22 77.5s-34.667 37 -60 48s-54.333 16.5 -87 16.5c-45.333 0 -84.5 -8.33301 -117.5 -25s-59.333 -39 -79 -67s-32.167 -59.333 -37.5 -94l-100 -610h81l99 590
c4.66699 30 13.334 54.833 26.001 74.5s28.667 34.334 48 44.001s41.666 14.5 66.999 14.5c27.333 0 50.5 -5.83301 69.5 -17.5s28.5 -31.167 28.5 -58.5c0 -22 -5.5 -41.167 -16.5 -57.5s-24.667 -31.333 -41 -45l-49 -41c-16.333 -13.667 -30 -28.5 -41 -44.5
s-16.5 -34.333 -16.5 -55c0 -22.667 5 -41.834 15 -57.501s22.5 -29.334 37.5 -41.001l45 -35.5c15 -12 27.5 -25.5 37.5 -40.5s15 -33.833 15 -56.5c0 -19.333 -4.5 -37.166 -13.5 -53.499s-21.333 -29.333 -37 -39s-33.5 -14.5 -53.5 -14.5
c-19.333 0 -37.666 4.83301 -54.999 14.5s-33.666 22.167 -48.999 37.5l-49 -60c12 -13.333 25.5 -25.166 40.5 -35.499s31.333 -18.333 49 -24s36.834 -8.5 57.501 -8.5z" />
    <glyph glyph-name="agrave" unicode="&#xe0;" 
d="M463 460l-77 -460h73l80 460h-76zM45 230c-6 -43.333 -2.33496 -83.1689 10.998 -119.502s34.833 -65.333 64.5 -87s66.167 -32.5 109.5 -32.5c30.667 0 58.834 6.16699 84.501 18.5s48.167 29.5 67.5 51.5s35.333 47.5 48 76.5s21.334 59.833 26.001 92.5
c4 31.333 4.16699 61.166 0.5 89.499s-11.5 53.833 -23.5 76.5s-28.5 40.667 -49.5 54s-46.833 20 -77.5 20c-43.333 0.666992 -83.5 -9.66602 -120.5 -30.999s-68 -50.166 -93 -86.499s-40.833 -77.166 -47.5 -122.499zM124.998 229.997
c5.33301 31.333 16.833 59.668 34.5 85.001s39.5 45.166 65.5 59.499s53.667 21.166 83 20.499c20 -0.666992 37.5 -5.5 52.5 -14.5s27.5 -21.167 37.5 -36.5s17 -32.666 21 -51.999s4.33301 -40 1 -62c-4 -22.667 -11.5 -44 -22.5 -64s-24.5 -37.5 -40.5 -52.5
s-33.5 -26.667 -52.5 -35s-38.5 -12.5 -58.5 -12.5c-29.333 0 -53.833 7.5 -73.5 22.5s-33.5 35 -41.5 60s-10 52.167 -6 81.5zM197.998 680.999l152 -151l47 29l-120 161z" />
    <glyph glyph-name="aacute" unicode="&#xe1;" 
d="M463 460l-77 -460l73 1l80 459h-76zM45 230c-6 -43.333 -2.33496 -83.1689 10.998 -119.502s34.833 -65.333 64.5 -87s66.167 -32.5 109.5 -32.5c30.667 0 58.834 6.16699 84.501 18.5s48.167 29.5 67.5 51.5s35.333 47.5 48 76.5s21.334 59.833 26.001 92.5
c4 31.333 4.16699 61.166 0.5 89.499s-11.5 53.833 -23.5 76.5s-28.5 40.667 -49.5 54s-46.833 20 -77.5 20c-43.333 0.666992 -83.5 -9.66602 -120.5 -30.999s-68 -50.166 -93 -86.499s-40.833 -77.166 -47.5 -122.499zM124.998 229.997
c5.33301 31.333 16.833 59.668 34.5 85.001s39.5 45.166 65.5 59.499s53.667 21.166 83 20.499c20 -0.666992 37.5 -5.5 52.5 -14.5s27.5 -21.167 37.5 -36.5s17 -32.666 21 -51.999s4.33301 -40 1 -62c-4 -22.667 -11.5 -44 -22.5 -64s-24.5 -37.5 -40.5 -52.5
s-33.5 -26.667 -52.5 -35s-38.5 -12.5 -58.5 -12.5c-29.333 0 -53.833 7.5 -73.5 22.5s-33.5 35 -41.5 60s-10 52.167 -6 81.5zM470.998 677.999l-68 42l-172 -158l41 -31z" />
    <glyph glyph-name="acircumflex" unicode="&#xe2;" 
d="M463 460l-77 -460h73l80 460h-76zM45 230c-6 -43.333 -2.33496 -83.1689 10.998 -119.502s34.833 -65.333 64.5 -87s66.167 -32.5 109.5 -32.5c30.667 0 58.834 6.16699 84.501 18.5s48.167 29.5 67.5 51.5s35.333 47.5 48 76.5s21.334 59.833 26.001 92.5
c4 31.333 4.16699 61.166 0.5 89.499s-11.5 53.833 -23.5 76.5s-28.5 40.667 -49.5 54s-46.833 20 -77.5 20c-43.333 0.666992 -83.5 -9.66602 -120.5 -30.999s-68 -50.166 -93 -86.499s-40.833 -77.166 -47.5 -122.499zM124.998 229.997
c5.33301 31.333 16.833 59.668 34.5 85.001s39.5 45.166 65.5 59.499s53.667 21.166 83 20.499c20 -0.666992 37.5 -5.5 52.5 -14.5s27.5 -21.167 37.5 -36.5s17 -32.666 21 -51.999s4.33301 -40 1 -62c-4 -22.667 -11.5 -44 -22.5 -64s-24.5 -37.5 -40.5 -52.5
s-33.5 -26.667 -52.5 -35s-38.5 -12.5 -58.5 -12.5c-29.333 0 -53.833 7.5 -73.5 22.5s-33.5 35 -41.5 60s-10 52.167 -6 81.5zM356.998 624.999l90 -94l54 38l-134 141l-178 -138l44 -41z" />
    <glyph glyph-name="atilde" unicode="&#xe3;" 
d="M463 460l-77 -460h73l80 460h-76zM45 230c-6 -43.333 -2.33496 -83.1689 10.998 -119.502s34.833 -65.333 64.5 -87s66.167 -32.5 109.5 -32.5c30.667 0 58.834 6.16699 84.501 18.5s48.167 29.5 67.5 51.5s35.333 47.5 48 76.5s21.334 59.833 26.001 92.5
c4 31.333 4.16699 61.166 0.5 89.499s-11.5 53.833 -23.5 76.5s-28.5 40.667 -49.5 54s-46.833 20 -77.5 20c-43.333 0.666992 -83.5 -9.66602 -120.5 -30.999s-68 -50.166 -93 -86.499s-40.833 -77.166 -47.5 -122.499zM124.998 229.997
c5.33301 31.333 16.833 59.668 34.5 85.001s39.5 45.166 65.5 59.499s53.667 21.166 83 20.499c20 -0.666992 37.5 -5.5 52.5 -14.5s27.5 -21.167 37.5 -36.5s17 -32.666 21 -51.999s4.33301 -40 1 -62c-4 -22.667 -11.5 -44 -22.5 -64s-24.5 -37.5 -40.5 -52.5
s-33.5 -26.667 -52.5 -35s-38.5 -12.5 -58.5 -12.5c-29.333 0 -53.833 7.5 -73.5 22.5s-33.5 35 -41.5 60s-10 52.167 -6 81.5zM183.998 568.999l47.001 -37.999c4.66699 9.33301 11.167 19.833 19.5 31.5s21.5 17.834 39.5 18.501c14 0.666992 26.167 -2.83301 36.5 -10.5
l32.5 -23c11.333 -7.66699 24.666 -11.834 39.999 -12.501c16.667 -0.666992 32 2.66602 46 9.99902s26.833 16.5 38.5 27.5s21.167 22.167 28.5 33.5l-39 44c-10 -12.667 -20.167 -23.5 -30.5 -32.5s-21.5 -13.833 -33.5 -14.5
c-15.333 -0.666992 -28.166 2.83301 -38.499 10.5l-31.5 23.5c-10.667 8 -24.667 12 -42 12c-15.333 0 -30.5 -3.66699 -45.5 -11s-28.333 -17 -40 -29s-20.834 -25.333 -27.501 -40z" />
    <glyph glyph-name="adieresis" unicode="&#xe4;" 
d="M463 460l-77 -460h73l80 460h-76zM45 230c-6 -43.333 -2.33496 -83.1689 10.998 -119.502s34.833 -65.333 64.5 -87s66.167 -32.5 109.5 -32.5c30.667 0 58.834 6.16699 84.501 18.5s48.167 29.5 67.5 51.5s35.333 47.5 48 76.5s21.334 59.833 26.001 92.5
c4 31.333 4.16699 61.166 0.5 89.499s-11.5 53.833 -23.5 76.5s-28.5 40.667 -49.5 54s-46.833 20 -77.5 20c-43.333 0.666992 -83.5 -9.66602 -120.5 -30.999s-68 -50.166 -93 -86.499s-40.833 -77.166 -47.5 -122.499zM124.998 229.997
c5.33301 31.333 16.833 59.668 34.5 85.001s39.5 45.166 65.5 59.499s53.667 21.166 83 20.499c20 -0.666992 37.5 -5.5 52.5 -14.5s27.5 -21.167 37.5 -36.5s17 -32.666 21 -51.999s4.33301 -40 1 -62c-4 -22.667 -11.5 -44 -22.5 -64s-24.5 -37.5 -40.5 -52.5
s-33.5 -26.667 -52.5 -35s-38.5 -12.5 -58.5 -12.5c-29.333 0 -53.833 7.5 -73.5 22.5s-33.5 35 -41.5 60s-10 52.167 -6 81.5zM390.998 585.999c-1.33301 -14 2.33398 -26.498 11.001 -37.498s20 -16.833 34 -17.5s27.667 4.66602 41 15.999s20.666 23.666 21.999 36.999
c1.33301 14 -2.5 26.667 -11.5 38s-20.5 17.333 -34.5 18s-27.5 -4.83301 -40.5 -16.5s-20.167 -24.167 -21.5 -37.5zM196.998 586.001c-1.33301 -14 2.33398 -26.498 11.001 -37.498s20 -16.833 34 -17.5s27.5 4.66602 40.5 15.999s20.167 23.666 21.5 36.999
c1.33301 14 -2.33398 26.667 -11.001 38s-20 17.333 -34 18s-27.5 -4.83301 -40.5 -16.5s-20.167 -24.167 -21.5 -37.5z" />
    <glyph glyph-name="aring" unicode="&#xe5;" 
d="M463 460l-77 -460h73l80 460h-76zM45 230c-6 -43.333 -2.33496 -83.1689 10.998 -119.502s34.833 -65.333 64.5 -87s66.167 -32.5 109.5 -32.5c30.667 0 58.834 6.16699 84.501 18.5s48.167 29.5 67.5 51.5s35.333 47.5 48 76.5s21.334 59.833 26.001 92.5
c4 31.333 4.16699 61.166 0.5 89.499s-11.5 53.833 -23.5 76.5s-28.5 40.667 -49.5 54s-46.833 20 -77.5 20c-43.333 0.666992 -83.5 -9.66602 -120.5 -30.999s-68 -50.166 -93 -86.499s-40.833 -77.166 -47.5 -122.499zM124.998 229.997
c5.33301 31.333 16.833 59.668 34.5 85.001s39.5 45.166 65.5 59.499s53.667 21.166 83 20.499c20 -0.666992 37.5 -5.5 52.5 -14.5s27.5 -21.167 37.5 -36.5s17 -32.666 21 -51.999s4.33301 -40 1 -62c-4 -22.667 -11.5 -44 -22.5 -64s-24.5 -37.5 -40.5 -52.5
s-33.5 -26.667 -52.5 -35s-38.5 -12.5 -58.5 -12.5c-29.333 0 -53.833 7.5 -73.5 22.5s-33.5 35 -41.5 60s-10 52.167 -6 81.5zM228.998 629.999c-2 -18 0.333984 -34.5 7.00098 -49.5s17 -27 31 -36s29.667 -13.833 47 -14.5c18 0 35.167 4.5 51.5 13.5s30.333 21 42 36
s18.834 31.5 21.501 49.5s0.5 34.667 -6.5 50s-17.333 27.5 -31 36.5s-29.5 13.5 -47.5 13.5c-17.333 0.666992 -34.333 -3.5 -51 -12.5s-30.834 -21 -42.501 -36s-18.834 -31.833 -21.501 -50.5zM278.999 628.999c1.33301 9.33301 5.16895 18 11.502 26
s14.166 14.5 23.499 19.5s18 7.5 26 7.5c12 0 21.833 -5.33301 29.5 -16s10.834 -22.667 9.50098 -36c-0.666992 -8.66699 -4.33398 -17.167 -11.001 -25.5s-14.5 -15 -23.5 -20s-17.833 -7.5 -26.5 -7.5c-12 0 -21.833 5.5 -29.5 16.5s-10.834 22.833 -9.50098 35.5z" />
    <glyph glyph-name="ae" unicode="&#xe6;" horiz-adv-x="801" 
d="M183 -10c50 0 91.168 10.832 123.501 32.499s55.166 50.834 68.499 87.501h-15c14 -42 35.167 -72.5 63.5 -91.5s64.833 -28.5 109.5 -28.5c42 0 82.833 9.83301 122.5 29.5s71.834 48.834 96.501 87.501l-65 41c-16.667 -28 -37.834 -48.833 -63.501 -62.5
s-54.167 -20.5 -85.5 -20.5c-30.667 0 -55.167 7.5 -73.5 22.5s-30.5 35 -36.5 60s-6.66699 52.167 -2 81.5l-22 -19h372c3.33301 7.33301 6 15.833 8 25.5s3 20.834 3 33.501c0 41.333 -7.33301 77 -22 107s-35.167 53.167 -61.5 69.5s-56.5 24.5 -90.5 24.5
c-32 0 -61.667 -5.83301 -89 -17.5s-51.166 -27.167 -71.499 -46.5s-36.5 -41 -48.5 -65l20 15c3.33301 37.333 -8 65.666 -34 84.999s-61.667 29 -107 29c-32 0 -63 -4.83301 -93 -14.5s-57.667 -23.834 -83 -42.501l39 -61c13.333 10 27.666 18.667 42.999 26
s31.166 12.833 47.499 16.5s31.833 5.5 46.5 5.5c26 0 46.667 -7.5 62 -22.5s21 -37.5 17 -67.5l-13 -80h39c-34 21.333 -62.667 36 -86 44s-48.666 12 -75.999 12c-40 0 -75.5 -7.5 -106.5 -22.5s-55.333 -35 -73 -60s-26.5 -52.833 -26.5 -83.5
c0 -36 13.5 -66.667 40.5 -92s67.833 -38 122.5 -38zM198.001 60.999c-33.333 0 -57.834 5.16797 -73.501 15.501s-23.5 28.166 -23.5 53.499c0 20 5.66699 37 17 51s26.833 24.833 46.5 32.5s41.5 11.5 65.5 11.5c23.333 0 45.333 -2.66699 66 -8s40 -13 58 -23l-8 27v-105
l8 76c-13.333 -44.667 -32.666 -77.667 -57.999 -99s-58 -32 -98 -32zM426 239c8.66699 32.667 20.668 61 36.001 85s34.166 42.667 56.499 56s48.166 20 77.499 20c27.333 0 48.833 -5.5 64.5 -16.5s26.834 -26.5 33.501 -46.5s10 -43.667 10 -71
c0 -8 -0.666992 -13.333 -2 -16l24 28h-322z" />
    <glyph glyph-name="ccedilla" unicode="&#xe7;" horiz-adv-x="464" 
d="M120 230c5.33301 30 16.667 57.498 34 82.498s39 45 65 60s54.333 22.5 85 22.5c33.333 0 62.333 -7.66699 87 -23s42 -35.666 52 -60.999l16 100c-17.333 19.333 -39 34 -65 44s-53.667 15 -83 15c-45.333 0 -87.166 -10.833 -125.499 -32.5s-70.333 -50.5 -96 -86.5
s-41.834 -76.333 -48.501 -121c-6.66699 -42 -2.83398 -81.167 11.499 -117.5s37 -65.666 68 -87.999s68.833 -33.5 113.5 -33.5c31.333 0 61.333 5.16699 90 15.5s53.334 24.5 74.001 42.5l16 99c-18 -22 -42.167 -41.333 -72.5 -58s-63.5 -24.667 -99.5 -24
c-30 0.666992 -54.833 8.66699 -74.5 24s-33.5 35.5 -41.5 60.5s-10 51.5 -6 79.5zM232.001 57.998l-111.001 -166.001c10 5.33301 20.833 9.66602 32.5 12.999s21.167 4.66602 28.5 3.99902c8.66699 0 16.334 -1.33301 23.001 -4s11.667 -6.66699 15 -12
s4.33301 -11.666 3 -18.999c-0.666992 -7.33301 -3.83398 -14.166 -9.50098 -20.499s-12.667 -11.333 -21 -15s-17.166 -5.5 -26.499 -5.5c-11.333 0 -20.5 2.33301 -27.5 7s-14.5 10.334 -22.5 17.001l-39 -38c13.333 -12.667 26.166 -22.334 38.499 -29.001
s27.5 -10 45.5 -10s35.5 3.83301 52.5 11.5s31.5 18.334 43.5 32.001s19 29.834 21 48.501c2.66699 22 -2.16602 39.667 -14.499 53s-27.5 20.666 -45.5 21.999h-3h-4l81 111h-60z" />
    <glyph glyph-name="egrave" unicode="&#xe8;" horiz-adv-x="500" 
d="M92 211l384.002 -0.00195312c1.33301 4 2.16602 7.83301 2.49902 11.5s0.833008 7.5 1.5 11.5c5.33301 42.667 2.5 81.834 -8.5 117.501s-30.167 64.334 -57.5 86.001s-63.333 32.5 -108 32.5c-40 0 -76.667 -8.5 -110 -25.5s-61.833 -39.833 -85.5 -68.5
s-41.5 -61 -53.5 -97c-2.66699 -8 -5 -16 -7 -24s-3.66699 -16.333 -5 -25c-5.33301 -40.667 -2.16602 -79.167 9.50098 -115.5s31.5 -65.833 59.5 -88.5s63.333 -34.334 106 -35.001c36 0 67.667 4.83301 95 14.5s52 23.334 74 41.001s42.333 37.5 61 59.5l-59 42
c-12.667 -14.667 -26.834 -28.334 -42.501 -41.001s-32.667 -22.667 -51 -30s-38.5 -11 -60.5 -11c-30.667 0.666992 -55 8.33398 -73 23.001s-30 34.5 -36 59.5s-7 52.167 -3 81.5l8 30c6 26.667 16.833 50.5 32.5 71.5s35 37.833 58 50.5s48.167 18.667 75.5 18
c26 0 46.5 -5.5 61.5 -16.5s25.667 -25.667 32 -44s9.16602 -38.833 8.49902 -61.5h-298zM209.002 690.998l153 -151l47 29l-121 161z" />
    <glyph glyph-name="eacute" unicode="&#xe9;" horiz-adv-x="500" 
d="M92 211l384.002 -0.00195312c1.33301 4 2.16602 7.83301 2.49902 11.5s0.833008 7.5 1.5 11.5c5.33301 42.667 2.5 81.834 -8.5 117.501s-30.167 64.334 -57.5 86.001s-63.333 32.5 -108 32.5c-40 0 -76.667 -8.5 -110 -25.5s-61.833 -39.833 -85.5 -68.5
s-41.5 -61 -53.5 -97c-2.66699 -8 -5 -16 -7 -24s-3.66699 -16.333 -5 -25c-5.33301 -40.667 -2.16602 -79.167 9.50098 -115.5s31.5 -65.833 59.5 -88.5s63.333 -34.334 106 -35.001c36 0 67.667 4.83301 95 14.5s52 23.334 74 41.001s42.333 37.5 61 59.5l-59 42
c-12.667 -14.667 -26.834 -28.334 -42.501 -41.001s-32.667 -22.667 -51 -30s-38.5 -11 -60.5 -11c-30.667 0.666992 -55 8.33398 -73 23.001s-30 34.5 -36 59.5s-7 52.167 -3 81.5l8 30c6 26.667 16.833 50.5 32.5 71.5s35 37.833 58 50.5s48.167 18.667 75.5 18
c26 0 46.5 -5.5 61.5 -16.5s25.667 -25.667 32 -44s9.16602 -38.833 8.49902 -61.5h-298zM502.002 687.998l-69 42l-171 -158l41 -31z" />
    <glyph glyph-name="ecircumflex" unicode="&#xea;" horiz-adv-x="500" 
d="M92 211l384.002 -0.00195312c1.33301 4 2.16602 7.83301 2.49902 11.5s0.833008 7.5 1.5 11.5c5.33301 42.667 2.5 81.834 -8.5 117.501s-30.167 64.334 -57.5 86.001s-63.333 32.5 -108 32.5c-40 0 -76.667 -8.5 -110 -25.5s-61.833 -39.833 -85.5 -68.5
s-41.5 -61 -53.5 -97c-2.66699 -8 -5 -16 -7 -24s-3.66699 -16.333 -5 -25c-5.33301 -40.667 -2.16602 -79.167 9.50098 -115.5s31.5 -65.833 59.5 -88.5s63.333 -34.334 106 -35.001c36 0 67.667 4.83301 95 14.5s52 23.334 74 41.001s42.333 37.5 61 59.5l-59 42
c-12.667 -14.667 -26.834 -28.334 -42.501 -41.001s-32.667 -22.667 -51 -30s-38.5 -11 -60.5 -11c-30.667 0.666992 -55 8.33398 -73 23.001s-30 34.5 -36 59.5s-7 52.167 -3 81.5l8 30c6 26.667 16.833 50.5 32.5 71.5s35 37.833 58 50.5s48.167 18.667 75.5 18
c26 0 46.5 -5.5 61.5 -16.5s25.667 -25.667 32 -44s9.16602 -38.833 8.49902 -61.5h-298zM338.002 624.998l90 -94l54 38l-134 141l-178 -138l44 -41z" />
    <glyph glyph-name="edieresis" unicode="&#xeb;" horiz-adv-x="500" 
d="M92 211l384.002 -0.00195312c1.33301 4 2.16602 7.83301 2.49902 11.5s0.833008 7.5 1.5 11.5c5.33301 42.667 2.5 81.834 -8.5 117.501s-30.167 64.334 -57.5 86.001s-63.333 32.5 -108 32.5c-40 0 -76.667 -8.5 -110 -25.5s-61.833 -39.833 -85.5 -68.5
s-41.5 -61 -53.5 -97c-2.66699 -8 -5 -16 -7 -24s-3.66699 -16.333 -5 -25c-5.33301 -40.667 -2.16602 -79.167 9.50098 -115.5s31.5 -65.833 59.5 -88.5s63.333 -34.334 106 -35.001c36 0 67.667 4.83301 95 14.5s52 23.334 74 41.001s42.333 37.5 61 59.5l-59 42
c-12.667 -14.667 -26.834 -28.334 -42.501 -41.001s-32.667 -22.667 -51 -30s-38.5 -11 -60.5 -11c-30.667 0.666992 -55 8.33398 -73 23.001s-30 34.5 -36 59.5s-7 52.167 -3 81.5l8 30c6 26.667 16.833 50.5 32.5 71.5s35 37.833 58 50.5s48.167 18.667 75.5 18
c26 0 46.5 -5.5 61.5 -16.5s25.667 -25.667 32 -44s9.16602 -38.833 8.49902 -61.5h-298zM371.002 585.998c-1.33301 -14 2.5 -26.498 11.5 -37.498s20.5 -16.833 34.5 -17.5s27.5 4.66602 40.5 15.999s20.167 23.666 21.5 36.999c1.33301 14 -2.33398 26.667 -11.001 38
s-20.334 17.333 -35.001 18c-13.333 0.666992 -26.666 -4.83301 -39.999 -16.5s-20.666 -24.167 -21.999 -37.5zM177.002 586c-1.33301 -14 2.33398 -26.498 11.001 -37.498s20.334 -16.833 35.001 -17.5c13.333 -0.666992 26.666 4.66602 39.999 15.999
s20.666 23.666 21.999 36.999c1.33301 14 -2.33398 26.667 -11.001 38s-20.334 17.333 -35.001 18c-13.333 0.666992 -26.666 -4.83301 -39.999 -16.5s-20.666 -24.167 -21.999 -37.5z" />
    <glyph glyph-name="igrave" unicode="&#xec;" horiz-adv-x="252" 
d="M137 460l-76 -460h77l80 460h-81zM63 701l152 -151l47 29l-120 161z" />
    <glyph glyph-name="iacute" unicode="&#xed;" horiz-adv-x="252" 
d="M137 460l-76 -460h77l80 460h-81zM375 698l-69 42l-172 -158l42 -31z" />
    <glyph glyph-name="icircumflex" unicode="&#xee;" horiz-adv-x="252" 
d="M137 460l-76 -460h77l80 460h-81zM210 635l91 -94l53 38l-134 141l-178 -138l44 -41z" />
    <glyph glyph-name="idieresis" unicode="&#xef;" horiz-adv-x="252" 
d="M137 460l-76 -460h77l80 460h-81zM247 616c-1.33301 -14 2.5 -26.498 11.5 -37.498s20.5 -16.833 34.5 -17.5s27.5 4.66602 40.5 15.999s20.167 23.666 21.5 36.999c1.33301 14 -2.33398 26.667 -11.001 38s-20.334 17.333 -35.001 18
c-13.333 0.666992 -26.666 -4.83301 -39.999 -16.5s-20.666 -24.167 -21.999 -37.5zM53 616.002c-1.33301 -14 2.5 -26.498 11.5 -37.498s20.5 -16.833 34.5 -17.5s27.5 4.66602 40.5 15.999s20.167 23.666 21.5 36.999c1.33301 14 -2.33398 26.667 -11.001 38
s-20.334 17.333 -35.001 18c-13.333 0.666992 -26.666 -4.83301 -39.999 -16.5s-20.666 -24.167 -21.999 -37.5z" />
    <glyph glyph-name="eth" unicode="&#xf0;" horiz-adv-x="576" 
d="M263 -10c41.333 0 78.165 8.00098 110.498 24.001s59.833 37.5 82.5 64.5s40 57.5 52 91.5s18 69 18 105c0 26.667 -3 53.5 -9 80.5s-15.5 54.5 -28.5 82.5s-29.833 57.167 -50.5 87.5s-45.667 62 -75 95s-63.333 67.833 -102 104.5l-48 -56
c28.667 -24.667 53.834 -48.5 75.501 -71.5s40.834 -45.833 57.501 -68.5s31.167 -45.667 43.5 -69s23.5 -48 33.5 -74h41c-28.667 23.333 -56.167 41 -82.5 53s-54.5 18 -84.5 18s-59.667 -6.16699 -89 -18.5s-55.833 -29.833 -79.5 -52.5s-42.667 -49.334 -57 -80.001
s-21.5 -64.334 -21.5 -101.001c0 -43.333 8.83301 -81.166 26.5 -113.499s42.5 -57.333 74.5 -75s69.333 -26.5 112 -26.5zM262.999 67.001c-38.667 0 -70.3311 12.499 -94.998 37.499s-37 58.5 -37 100.5c0 26 5.16699 50.5 15.5 73.5s24.166 43.167 41.499 60.5
s36.833 31 58.5 41s43.834 15 66.501 15c25.333 0 47.666 -5.33301 66.999 -16s34.5 -26.5 45.5 -47.5s16.5 -46.5 16.5 -76.5c0 -23.333 -4.33301 -46.166 -13 -68.499s-20.834 -42.5 -36.501 -60.5s-34.5 -32.333 -56.5 -43s-46.333 -16 -73 -16zM224.002 503l280 107
l-18 47l-280 -107z" />
    <glyph glyph-name="ntilde" unicode="&#xf1;" horiz-adv-x="509" 
d="M203 460h-79l-80 -460h80zM380 280l-47.9961 -279.999h78l50 290c4 34 2.33301 64.5 -5 91.5s-21 48.5 -41 64.5s-46.667 24 -80 24c-34 0 -64.667 -8.83301 -92 -26.5s-50.166 -40.834 -68.499 -69.501s-30.833 -59.667 -37.5 -93h36
c5.33301 20.667 14.166 39.667 26.499 57s27.666 31.333 45.999 42s39.166 15.667 62.499 15c22 -0.666992 38.667 -6.16699 50 -16.5s18.666 -24 21.999 -41s3.66602 -36.167 0.999023 -57.5zM164.004 569.001l48.001 -37.999c4 9.33301 10.333 19.833 19 31.5
s21.667 17.834 39 18.501c14 0.666992 26.333 -2.83301 37 -10.5l32.5 -23c11 -7.66699 24.167 -11.834 39.5 -12.501c16.667 -0.666992 32.167 2.66602 46.5 9.99902s27.333 16.5 39 27.5s21.167 22.167 28.5 33.5l-40 44c-9.33301 -12.667 -19.333 -23.5 -30 -32.5
s-21.667 -13.833 -33 -14.5c-15.333 -0.666992 -28.166 2.83301 -38.499 10.5l-32 23.5c-11 8 -25.167 12 -42.5 12c-16 0.666992 -31.333 -2.83301 -46 -10.5s-27.834 -17.667 -39.501 -30s-20.834 -25.5 -27.501 -39.5z" />
    <glyph glyph-name="ograve" unicode="&#xf2;" horiz-adv-x="530" 
d="M45 230c-6 -42 -1.83203 -81.167 12.501 -117.5s37 -65.666 68 -87.999s68.833 -33.5 113.5 -33.5c45.333 0 87.166 10.833 125.499 32.5s70.333 50.5 96 86.5s41.834 76 48.501 120c6.66699 42.667 2.83398 82.167 -11.499 118.5s-37.166 65.666 -68.499 87.999
s-69.333 33.5 -114 33.5s-86.334 -10.833 -125.001 -32.5s-70.834 -50.667 -96.501 -87s-41.834 -76.5 -48.501 -120.5zM125.001 230c5.33301 30 16.667 57.5 34 82.5s39 45 65 60s54 22.5 84 22.5c30.667 0 55.667 -8 75 -24s33 -36.333 41 -61s9.66699 -51.334 5 -80.001
c-4.66699 -29.333 -15.667 -56.666 -33 -81.999s-39 -45.333 -65 -60s-54.333 -22 -85 -22c-30 0 -54.667 7.83301 -74 23.5s-33 36 -41 61s-10 51.5 -6 79.5zM201.002 701l153 -151l47 29l-121 161z" />
    <glyph glyph-name="oacute" unicode="&#xf3;" horiz-adv-x="530" 
d="M45 230c-6 -42 -1.83203 -81.167 12.501 -117.5s37 -65.666 68 -87.999s68.833 -33.5 113.5 -33.5c45.333 0 87.166 10.833 125.499 32.5s70.333 50.5 96 86.5s41.834 76 48.501 120c6.66699 42.667 2.83398 82.167 -11.499 118.5s-37.166 65.666 -68.499 87.999
s-69.333 33.5 -114 33.5s-86.334 -10.833 -125.001 -32.5s-70.834 -50.667 -96.501 -87s-41.834 -76.5 -48.501 -120.5zM125.001 230c5.33301 30 16.667 57.5 34 82.5s39 45 65 60s54 22.5 84 22.5c30.667 0 55.667 -8 75 -24s33 -36.333 41 -61s9.66699 -51.334 5 -80.001
c-4.66699 -29.333 -15.667 -56.666 -33 -81.999s-39 -45.333 -65 -60s-54.333 -22 -85 -22c-30 0 -54.667 7.83301 -74 23.5s-33 36 -41 61s-10 51.5 -6 79.5zM513.002 698l-68 42l-172 -158l42 -31z" />
    <glyph glyph-name="ocircumflex" unicode="&#xf4;" horiz-adv-x="530" 
d="M45 230c-6 -42 -1.83203 -81.167 12.501 -117.5s37 -65.666 68 -87.999s68.833 -33.5 113.5 -33.5c45.333 0 87.166 10.833 125.499 32.5s70.333 50.5 96 86.5s41.834 76 48.501 120c6.66699 42.667 2.83398 82.167 -11.499 118.5s-37.166 65.666 -68.499 87.999
s-69.333 33.5 -114 33.5s-86.334 -10.833 -125.001 -32.5s-70.834 -50.667 -96.501 -87s-41.834 -76.5 -48.501 -120.5zM125.001 230c5.33301 30 16.667 57.5 34 82.5s39 45 65 60s54 22.5 84 22.5c30.667 0 55.667 -8 75 -24s33 -36.333 41 -61s9.66699 -51.334 5 -80.001
c-4.66699 -29.333 -15.667 -56.666 -33 -81.999s-39 -45.333 -65 -60s-54.333 -22 -85 -22c-30 0 -54.667 7.83301 -74 23.5s-33 36 -41 61s-10 51.5 -6 79.5zM351.002 645l90 -94l54 38l-134 141l-178 -138l44 -41z" />
    <glyph glyph-name="otilde" unicode="&#xf5;" horiz-adv-x="530" 
d="M45 230c-6 -42 -1.83203 -81.167 12.501 -117.5s37 -65.666 68 -87.999s68.833 -33.5 113.5 -33.5c45.333 0 87.166 10.833 125.499 32.5s70.333 50.5 96 86.5s41.834 76 48.501 120c6.66699 42.667 2.83398 82.167 -11.499 118.5s-37.166 65.666 -68.499 87.999
s-69.333 33.5 -114 33.5s-86.334 -10.833 -125.001 -32.5s-70.834 -50.667 -96.501 -87s-41.834 -76.5 -48.501 -120.5zM125.001 230c5.33301 30 16.667 57.5 34 82.5s39 45 65 60s54 22.5 84 22.5c30.667 0 55.667 -8 75 -24s33 -36.333 41 -61s9.66699 -51.334 5 -80.001
c-4.66699 -29.333 -15.667 -56.666 -33 -81.999s-39 -45.333 -65 -60s-54.333 -22 -85 -22c-30 0 -54.667 7.83301 -74 23.5s-33 36 -41 61s-10 51.5 -6 79.5zM174.002 569l46.999 -37.999c4.66699 9.33301 11.167 19.833 19.5 31.5s21.5 17.834 39.5 18.501
c14 0.666992 26.333 -2.83301 37 -10.5l32.5 -23c11 -7.66699 24.167 -11.834 39.5 -12.501c16.667 -0.666992 32.167 2.66602 46.5 9.99902s27.333 16.5 39 27.5s21.167 22.167 28.5 33.5l-40 44c-10 -12.667 -20.167 -23.5 -30.5 -32.5s-21.5 -13.833 -33.5 -14.5
c-15.333 -0.666992 -28.166 2.83301 -38.499 10.5l-31.5 23.5c-10.667 8 -24.667 12 -42 12c-12 0 -27 -3.66699 -45 -11s-33.833 -17 -47.5 -29s-20.5 -25.333 -20.5 -40z" />
    <glyph glyph-name="odieresis" unicode="&#xf6;" horiz-adv-x="530" 
d="M45 230c-6 -42 -1.83203 -81.167 12.501 -117.5s37 -65.666 68 -87.999s68.833 -33.5 113.5 -33.5c45.333 0 87.166 10.833 125.499 32.5s70.333 50.5 96 86.5s41.834 76 48.501 120c6.66699 42.667 2.83398 82.167 -11.499 118.5s-37.166 65.666 -68.499 87.999
s-69.333 33.5 -114 33.5s-86.334 -10.833 -125.001 -32.5s-70.834 -50.667 -96.501 -87s-41.834 -76.5 -48.501 -120.5zM125.001 230c5.33301 30 16.667 57.5 34 82.5s39 45 65 60s54 22.5 84 22.5c30.667 0 55.667 -8 75 -24s33 -36.333 41 -61s9.66699 -51.334 5 -80.001
c-4.66699 -29.333 -15.667 -56.666 -33 -81.999s-39 -45.333 -65 -60s-54.333 -22 -85 -22c-30 0 -54.667 7.83301 -74 23.5s-33 36 -41 61s-10 51.5 -6 79.5zM386.002 616c-1.33301 -14 2.33398 -26.498 11.001 -37.498s20.334 -16.833 35.001 -17.5
c13.333 -0.666992 26.666 4.66602 39.999 15.999s20.666 23.666 21.999 36.999c1.33301 14 -2.33398 26.667 -11.001 38s-20.334 17.333 -35.001 18c-13.333 0.666992 -26.666 -4.83301 -39.999 -16.5s-20.666 -24.167 -21.999 -37.5zM192.002 616.002
c-1.33301 -14 2.33398 -26.498 11.001 -37.498s20.334 -16.833 35.001 -17.5c13.333 -0.666992 26.666 4.66602 39.999 15.999s20.666 23.666 21.999 36.999c1.33301 14 -2.33398 26.667 -11.001 38s-20.334 17.333 -35.001 18
c-13.333 0.666992 -26.666 -4.83301 -39.999 -16.5s-20.666 -24.167 -21.999 -37.5z" />
    <glyph glyph-name="divide" unicode="&#xf7;" horiz-adv-x="605" 
d="M297 451c-0.666992 -9.33301 0.831055 -18.1689 4.49805 -26.502s9.16699 -15 16.5 -20s15.666 -7.83301 24.999 -8.5s18.5 1.5 27.5 6.5s16.833 11.833 23.5 20.5s10.334 17.334 11.001 26.001c1.33301 9.33301 0 18.166 -4 26.499s-9.66699 15.166 -17 20.499
s-15.666 8.33301 -24.999 9s-18.5 -1.66602 -27.5 -6.99902s-16.667 -12.166 -23 -20.499s-10.166 -17.166 -11.499 -26.499zM231.998 70.9971c-1.33301 -14 2.3291 -26.502 10.9961 -37.502s20.334 -16.833 35.001 -17.5c9.33301 -0.666992 18.5 1.5 27.5 6.5
s16.833 11.833 23.5 20.5s10.334 17.334 11.001 26.001c1.33301 9.33301 0 18.166 -4 26.499s-9.5 15.166 -16.5 20.499s-15.5 8.33301 -25.5 9c-8.66699 0.666992 -17.667 -1.66602 -27 -6.99902s-17.166 -12.166 -23.499 -20.499s-10.166 -17.166 -11.499 -26.499z
M69.9932 225.995l487 -1l13 80h-487z" />
    <glyph glyph-name="oslash" unicode="&#xf8;" horiz-adv-x="530" 
d="M45 230c-6 -42 -1.83203 -81.167 12.501 -117.5s37 -65.666 68 -87.999s68.833 -33.5 113.5 -33.5c45.333 0 87.166 10.833 125.499 32.5s70.333 50.5 96 86.5s41.834 76 48.501 120c6.66699 42.667 2.83398 82.167 -11.499 118.5s-37.166 65.666 -68.499 87.999
s-69.333 33.5 -114 33.5s-86.334 -10.833 -125.001 -32.5s-70.834 -50.667 -96.501 -87s-41.834 -76.5 -48.501 -120.5zM125.001 230c5.33301 30 16.667 57.5 34 82.5s39 45 65 60s54 22.5 84 22.5c30.667 0 55.667 -8 75 -24s33 -36.333 41 -61s9.66699 -51.334 5 -80.001
c-4.66699 -29.333 -15.667 -56.666 -33 -81.999s-39 -45.333 -65 -60s-54.333 -22 -85 -22c-30 0 -54.667 7.83301 -74 23.5s-33 36 -41 61s-10 51.5 -6 79.5zM484.002 499l-467 -521l43 -21l467 522z" />
    <glyph glyph-name="ugrave" unicode="&#xf9;" horiz-adv-x="509" 
d="M331 0h79l80 460h-80zM154 180l47.9971 279.998h-77l-51 -290c-4 -33.333 -2.33301 -63.5 5 -90.5s21 -48.5 41 -64.5s46.667 -24 80 -24c34 0 64.833 8.83301 92.5 26.5s50.667 40.834 69 69.501s30.833 59.334 37.5 92.001h-37
c-5.33301 -20 -14.166 -38.667 -26.499 -56s-27.666 -31.333 -45.999 -42s-39.166 -15.667 -62.499 -15c-22 0.666992 -38.667 6.16699 -50 16.5s-18.5 24 -21.5 41s-3.5 35.833 -1.5 56.5zM229.997 700.998l152 -151l48 29l-121 161z" />
    <glyph glyph-name="uacute" unicode="&#xfa;" horiz-adv-x="509" 
d="M331 0h79l80 460h-80zM154 180l47.9971 279.998h-77l-51 -290c-4 -33.333 -2.33301 -63.5 5 -90.5s21 -48.5 41 -64.5s46.667 -24 80 -24c34 0 64.833 8.83301 92.5 26.5s50.667 40.834 69 69.501s30.833 59.334 37.5 92.001h-37
c-5.33301 -20 -14.166 -38.667 -26.499 -56s-27.666 -31.333 -45.999 -42s-39.166 -15.667 -62.499 -15c-22 0.666992 -38.667 6.16699 -50 16.5s-18.5 24 -21.5 41s-3.5 35.833 -1.5 56.5zM463.997 697.998l-68 42l-171 -158l40 -31z" />
    <glyph glyph-name="ucircumflex" unicode="&#xfb;" horiz-adv-x="509" 
d="M331 0h79l80 460h-80zM154 180l47.9971 279.998h-77l-51 -290c-4 -33.333 -2.33301 -63.5 5 -90.5s21 -48.5 41 -64.5s46.667 -24 80 -24c34 0 64.833 8.83301 92.5 26.5s50.667 40.834 69 69.501s30.833 59.334 37.5 92.001h-37
c-5.33301 -20 -14.166 -38.667 -26.499 -56s-27.666 -31.333 -45.999 -42s-39.166 -15.667 -62.499 -15c-22 0.666992 -38.667 6.16699 -50 16.5s-18.5 24 -21.5 41s-3.5 35.833 -1.5 56.5zM339.997 644.998l90 -94l54 38l-134 141l-178 -138l44 -41z" />
    <glyph glyph-name="udieresis" unicode="&#xfc;" horiz-adv-x="509" 
d="M331 0h79l80 460h-80zM154 180l47.9971 279.998h-77l-51 -290c-4 -33.333 -2.33301 -63.5 5 -90.5s21 -48.5 41 -64.5s46.667 -24 80 -24c34 0 64.833 8.83301 92.5 26.5s50.667 40.834 69 69.501s30.833 59.334 37.5 92.001h-37
c-5.33301 -20 -14.166 -38.667 -26.499 -56s-27.666 -31.333 -45.999 -42s-39.166 -15.667 -62.499 -15c-22 0.666992 -38.667 6.16699 -50 16.5s-18.5 24 -21.5 41s-3.5 35.833 -1.5 56.5zM374.997 605.998c-1.33301 -13.333 2 -25.665 10 -36.998s19.333 -17.333 34 -18
c14 -0.666992 27.833 4.66602 41.5 15.999s21.167 23.666 22.5 36.999c1.33301 14 -2.66699 26.667 -12 38s-21 17.333 -35 18s-27.333 -4.83301 -40 -16.5s-19.667 -24.167 -21 -37.5zM180.997 605.999c-1.33301 -13.333 2.00098 -25.665 10.001 -36.998
s19.333 -17.333 34 -18c14 -0.666992 27.667 4.66602 41 15.999s20.666 23.666 21.999 36.999c1.33301 14 -2.5 26.667 -11.5 38s-20.5 17.333 -34.5 18s-27.333 -4.83301 -40 -16.5s-19.667 -24.167 -21 -37.5z" />
    <glyph glyph-name="yacute" unicode="&#xfd;" horiz-adv-x="427" 
d="M481 460h-91l-198 -355l32 -5l-80 360h-92l104 -392l-174 -287h91zM433 698l-69 42l-171 -158l41 -31z" />
    <glyph glyph-name="thorn" unicode="&#xfe;" 
d="M83 -219l169 999h-78l-172 -1000zM532 230c6 43.333 2.50195 83.168 -10.498 119.501s-34.333 65.5 -64 87.5s-66.167 33 -109.5 33c-30.667 0 -58.834 -6.33301 -84.501 -19s-48.167 -30 -67.5 -52s-35.333 -47.5 -48 -76.5s-21.334 -59.833 -26.001 -92.5
c-4 -30.667 -4.16699 -60.334 -0.5 -89.001s11.5 -54.334 23.5 -77.001s28.5 -40.667 49.5 -54s46.833 -20 77.5 -20c43.333 0 83.5 10.5 120.5 31.5s68 49.833 93 86.5s40.5 77.334 46.5 122.001zM453.002 230.002c-4.66699 -31.333 -15.999 -59.501 -33.999 -84.501
s-39.833 -44.667 -65.5 -59s-53.5 -21.166 -83.5 -20.499c-20 0.666992 -37.5 5.33398 -52.5 14.001s-27.5 20.667 -37.5 36s-16.833 32.666 -20.5 51.999s-4.16699 40 -1.5 62c4 23.333 11.5 45 22.5 65s24.5 37.5 40.5 52.5s33.5 26.667 52.5 35s38.5 12.5 58.5 12.5
c29.333 0 53.833 -7.5 73.5 -22.5s33.667 -35 42 -60s10.166 -52.5 5.49902 -82.5z" />
    <glyph glyph-name="ydieresis" unicode="&#xff;" horiz-adv-x="427" 
d="M481 460h-91l-198 -355l32 -5l-80 360h-92l104 -392l-174 -287h91zM330 586c-1.33301 -14 2.33398 -26.498 11.001 -37.498s20 -16.833 34 -17.5s27.5 4.66602 40.5 15.999s20.167 23.666 21.5 36.999c1.33301 14 -2.33398 26.667 -11.001 38s-20 17.333 -34 18
s-27.5 -4.83301 -40.5 -16.5s-20.167 -24.167 -21.5 -37.5zM136 586.002c-1.33301 -14 2.33398 -26.498 11.001 -37.498s20 -16.833 34 -17.5s27.5 4.66602 40.5 15.999s20.167 23.666 21.5 36.999c1.33301 14 -2.33398 26.667 -11.001 38s-20 17.333 -34 18
s-27.5 -4.83301 -40.5 -16.5s-20.167 -24.167 -21.5 -37.5z" />
    <glyph glyph-name="Amacron" unicode="&#x100;" horiz-adv-x="640" 
d="M152 211l360 -1l-16 80h-303zM388 542l67 -282l4 -20l58 -240h91l-189 737l-444 -737h96l144 246l11 18zM260 796l341 -1l12 75h-341z" />
    <glyph glyph-name="amacron" unicode="&#x101;" 
d="M463 460l-77 -460h73l80 460h-76zM45 230c-6 -43.333 -2.33496 -83.1689 10.998 -119.502s34.833 -65.333 64.5 -87s66.167 -32.5 109.5 -32.5c30.667 0 58.834 6.16699 84.501 18.5s48.167 29.5 67.5 51.5s35.333 47.5 48 76.5s21.334 59.833 26.001 92.5
c4 31.333 4.16699 61.166 0.5 89.499s-11.5 53.833 -23.5 76.5s-28.5 40.667 -49.5 54s-46.833 20 -77.5 20c-43.333 0.666992 -83.5 -9.66602 -120.5 -30.999s-68 -50.166 -93 -86.499s-40.833 -77.166 -47.5 -122.499zM124.998 229.997
c5.33301 31.333 16.833 59.668 34.5 85.001s39.5 45.166 65.5 59.499s53.667 21.166 83 20.499c20 -0.666992 37.5 -5.5 52.5 -14.5s27.5 -21.167 37.5 -36.5s17 -32.666 21 -51.999s4.33301 -40 1 -62c-4 -22.667 -11.5 -44 -22.5 -64s-24.5 -37.5 -40.5 -52.5
s-33.5 -26.667 -52.5 -35s-38.5 -12.5 -58.5 -12.5c-29.333 0 -53.833 7.5 -73.5 22.5s-33.5 35 -41.5 60s-10 52.167 -6 81.5zM158.998 540.999l341 -1l13 75h-342z" />
    <glyph glyph-name="Abreve" unicode="&#x102;" horiz-adv-x="640" 
d="M152 211l360 -1l-16 80h-303zM388 542l67 -282l4 -20l58 -240h91l-189 737l-444 -737h96l144 246l11 18zM299 935c-2 -24 1.49707 -46.667 10.4971 -68s23.667 -38.5 44 -51.5s46.5 -19.5 78.5 -19.5c32.667 0 60.834 6.5 84.501 19.5s43.167 30 58.5 51s26 43.5 32 67.5
l-71 1c-4 -10.667 -10 -21.834 -18 -33.501s-18.333 -21.334 -31 -29.001s-29.334 -11.5 -50.001 -11.5c-19.333 0 -34.166 3.83301 -44.499 11.5s-17.166 17.334 -20.499 29.001s-4.66602 22.834 -3.99902 33.501h-69z" />
    <glyph glyph-name="abreve" unicode="&#x103;" 
d="M463 460l-77 -460h73l80 460h-76zM45 230c-6 -43.333 -2.33496 -83.1689 10.998 -119.502s34.833 -65.333 64.5 -87s66.167 -32.5 109.5 -32.5c30.667 0 58.834 6.16699 84.501 18.5s48.167 29.5 67.5 51.5s35.333 47.5 48 76.5s21.334 59.833 26.001 92.5
c4 31.333 4.16699 61.166 0.5 89.499s-11.5 53.833 -23.5 76.5s-28.5 40.667 -49.5 54s-46.833 20 -77.5 20c-43.333 0.666992 -83.5 -9.66602 -120.5 -30.999s-68 -50.166 -93 -86.499s-40.833 -77.166 -47.5 -122.499zM124.998 229.997
c5.33301 31.333 16.833 59.668 34.5 85.001s39.5 45.166 65.5 59.499s53.667 21.166 83 20.499c20 -0.666992 37.5 -5.5 52.5 -14.5s27.5 -21.167 37.5 -36.5s17 -32.666 21 -51.999s4.33301 -40 1 -62c-4 -22.667 -11.5 -44 -22.5 -64s-24.5 -37.5 -40.5 -52.5
s-33.5 -26.667 -52.5 -35s-38.5 -12.5 -58.5 -12.5c-29.333 0 -53.833 7.5 -73.5 22.5s-33.5 35 -41.5 60s-10 52.167 -6 81.5zM167.998 669.999c-1.33301 -24.667 2.66797 -47.668 12.001 -69.001s24.166 -38.5 44.499 -51.5s46.5 -19.5 78.5 -19.5
c32.667 0 60.834 6.5 84.501 19.5s43 30.167 58 51.5s25.167 44 30.5 68h-70c-4 -10.667 -9.83301 -21.667 -17.5 -33s-17.834 -21 -30.501 -29s-29.334 -12 -50.001 -12c-19.333 0.666992 -34.166 4.83398 -44.499 12.501s-17.333 17.167 -21 28.5s-5.5 22.333 -5.5 33z
" />
    <glyph glyph-name="Aogonek" unicode="&#x104;" horiz-adv-x="640" 
d="M152 211l360 -1l-16 80h-303zM388 542l67 -282l4 -20l58 -240h91l-189 737l-444 -737h96l144 246l11 18zM590 -130c-6.66699 -4.66699 -14.166 -9.16797 -22.499 -13.501s-18.166 -6.16602 -29.499 -5.49902c-14 1.33301 -24 6.16602 -30 14.499s-8.33301 19.833 -7 34.5
c2.66699 14.667 9.66699 28.167 21 40.5s25 23.5 41 33.5s31.667 18.667 47 26l-39 25c-22 -10.667 -43.833 -23 -65.5 -37s-40.334 -29.833 -56.001 -47.5s-25.5 -37.5 -29.5 -59.5c-4.66699 -30.667 2.66602 -55.167 21.999 -73.5s47 -27.166 83 -26.499
c19.333 0 36.5 3.83301 51.5 11.5s27.833 16.5 38.5 26.5z" />
    <glyph glyph-name="aogonek" unicode="&#x105;" 
d="M463 460l-77 -460l73 1l80 459h-76zM45 230c-6 -43.333 -2.33496 -83.1689 10.998 -119.502s34.833 -65.333 64.5 -87s66.167 -32.5 109.5 -32.5c30.667 0 58.834 6.16699 84.501 18.5s48.167 29.5 67.5 51.5s35.333 47.5 48 76.5s21.334 59.833 26.001 92.5
c4 31.333 4.16699 61.166 0.5 89.499s-11.5 53.833 -23.5 76.5s-28.5 40.667 -49.5 54s-46.833 20 -77.5 20c-43.333 0.666992 -83.5 -9.66602 -120.5 -30.999s-68 -50.166 -93 -86.499s-40.833 -77.166 -47.5 -122.499zM124.998 229.997
c5.33301 31.333 16.833 59.668 34.5 85.001s39.5 45.166 65.5 59.499s53.667 21.166 83 20.499c20 -0.666992 37.5 -5.5 52.5 -14.5s27.5 -21.167 37.5 -36.5s17 -32.666 21 -51.999s4.33301 -40 1 -62c-4 -22.667 -11.5 -44 -22.5 -64s-24.5 -37.5 -40.5 -52.5
s-33.5 -26.667 -52.5 -35s-38.5 -12.5 -58.5 -12.5c-29.333 0 -53.833 7.5 -73.5 22.5s-33.5 35 -41.5 60s-10 52.167 -6 81.5zM439.998 -130.001c-6.66699 -4.66699 -14.166 -9.16797 -22.499 -13.501s-18.166 -6.16602 -29.499 -5.49902
c-14 1.33301 -24 6.16602 -30 14.499s-8.33301 19.833 -7 34.5c2.66699 14.667 9.66699 28.167 21 40.5s24.833 23.5 40.5 33.5s31.167 18.667 46.5 26l-38 25c-22 -10.667 -44 -23 -66 -37s-40.833 -29.833 -56.5 -47.5s-25.5 -37.5 -29.5 -59.5
c-4.66699 -30.667 2.66602 -55.167 21.999 -73.5s47 -27.166 83 -26.499c19.333 0 36.666 3.83301 51.999 11.5s28.333 16.5 39 26.5z" />
    <glyph glyph-name="Cacute" unicode="&#x106;" horiz-adv-x="665" 
d="M160 350c6 38 18.1709 73.499 36.5039 106.499s41.166 62.167 68.499 87.5s57.666 45.166 90.999 59.499s68.333 21.5 105 21.5c44.667 0 83.667 -9.16699 117 -27.5s60.666 -43.833 81.999 -76.5l18 112c-28 26.667 -58.5 46.334 -91.5 59.001s-71.833 18.667 -116.5 18
c-50 0 -97.333 -9.5 -142 -28.5s-85 -45 -121 -78s-65.833 -71.167 -89.5 -114.5s-39.167 -89.666 -46.5 -138.999c-6.66699 -46.667 -5 -91.667 5 -135s27.333 -81.833 52 -115.5s56.167 -60.334 94.5 -80.001s81.833 -29.5 130.5 -29.5c47.333 0 89.333 6.66699 126 20
s71.334 32.333 104.001 57l17 111c-30.667 -28.667 -66 -53 -106 -73s-84.333 -29.667 -133 -29c-36 0 -67.667 7.66699 -95 23s-49.833 35.833 -67.5 61.5s-29.834 54.834 -36.501 87.501s-7.33398 66.667 -2.00098 102zM635.004 917.999l-68 42l-172 -158l42 -31z" />
    <glyph glyph-name="cacute" unicode="&#x107;" horiz-adv-x="464" 
d="M120 230c5.33301 30 16.667 57.498 34 82.498s39 45 65 60s54.333 22.5 85 22.5c33.333 0 62.333 -7.66699 87 -23s42 -35.666 52 -60.999l16 100c-17.333 19.333 -39 34 -65 44s-53.667 15 -83 15c-45.333 0 -87.166 -10.833 -125.499 -32.5s-70.333 -50.5 -96 -86.5
s-41.834 -76.333 -48.501 -121c-6.66699 -42 -2.83398 -81.167 11.499 -117.5s37 -65.666 68 -87.999s68.833 -33.5 113.5 -33.5c31.333 0 61.333 5.16699 90 15.5s53.334 24.5 74.001 42.5l16 99c-18 -22 -42.167 -41.333 -72.5 -58s-63.5 -24.667 -99.5 -24
c-30 0.666992 -54.833 8.66699 -74.5 24s-33.5 35.5 -41.5 60.5s-10 51.5 -6 79.5zM476.001 677.998l-69 42l-171 -158l41 -31z" />
    <glyph glyph-name="Ccircumflex" unicode="&#x108;" horiz-adv-x="665" 
d="M160 350c6 38 18.1709 73.499 36.5039 106.499s41.166 62.167 68.499 87.5s57.666 45.166 90.999 59.499s68.333 21.5 105 21.5c44.667 0 83.667 -9.16699 117 -27.5s60.666 -43.833 81.999 -76.5l18 112c-28 26.667 -58.5 46.334 -91.5 59.001s-71.833 18.667 -116.5 18
c-50 0 -97.333 -9.5 -142 -28.5s-85 -45 -121 -78s-65.833 -71.167 -89.5 -114.5s-39.167 -89.666 -46.5 -138.999c-6.66699 -46.667 -5 -91.667 5 -135s27.333 -81.833 52 -115.5s56.167 -60.334 94.5 -80.001s81.833 -29.5 130.5 -29.5c47.333 0 89.333 6.66699 126 20
s71.334 32.333 104.001 57l17 111c-30.667 -28.667 -66 -53 -106 -73s-84.333 -29.667 -133 -29c-36 0 -67.667 7.66699 -95 23s-49.833 35.833 -67.5 61.5s-29.834 54.834 -36.501 87.501s-7.33398 66.667 -2.00098 102zM502.004 864.999l90 -94l54 38l-134 141l-178 -138
l44 -41z" />
    <glyph glyph-name="ccircumflex" unicode="&#x109;" horiz-adv-x="464" 
d="M120 230c5.33301 30 16.667 57.498 34 82.498s39 45 65 60s54.333 22.5 85 22.5c33.333 0 62.333 -7.66699 87 -23s42 -35.666 52 -60.999l16 100c-17.333 19.333 -39 34 -65 44s-53.667 15 -83 15c-45.333 0 -87.166 -10.833 -125.499 -32.5s-70.333 -50.5 -96 -86.5
s-41.834 -76.333 -48.501 -121c-6.66699 -42 -2.83398 -81.167 11.499 -117.5s37 -65.666 68 -87.999s68.833 -33.5 113.5 -33.5c31.333 0 61.333 5.16699 90 15.5s53.334 24.5 74.001 42.5l16 99c-18 -22 -42.167 -41.333 -72.5 -58s-63.5 -24.667 -99.5 -24
c-30 0.666992 -54.833 8.66699 -74.5 24s-33.5 35.5 -41.5 60.5s-10 51.5 -6 79.5zM343.001 624.998l90 -94l54 38l-135 141l-178 -138l45 -41z" />
    <glyph glyph-name="Cdotaccent" unicode="&#x10a;" horiz-adv-x="665" 
d="M160 350c6 38 18.1709 73.499 36.5039 106.499s41.166 62.167 68.499 87.5s57.666 45.166 90.999 59.499s68.333 21.5 105 21.5c44.667 0 83.667 -9.16699 117 -27.5s60.666 -43.833 81.999 -76.5l18 112c-28 26.667 -58.5 46.334 -91.5 59.001s-71.833 18.667 -116.5 18
c-50 0 -97.333 -9.5 -142 -28.5s-85 -45 -121 -78s-65.833 -71.167 -89.5 -114.5s-39.167 -89.666 -46.5 -138.999c-6.66699 -46.667 -5 -91.667 5 -135s27.333 -81.833 52 -115.5s56.167 -60.334 94.5 -80.001s81.833 -29.5 130.5 -29.5c47.333 0 89.333 6.66699 126 20
s71.334 32.333 104.001 57l17 111c-30.667 -28.667 -66 -53 -106 -73s-84.333 -29.667 -133 -29c-36 0 -67.667 7.66699 -95 23s-49.833 35.833 -67.5 61.5s-29.834 54.834 -36.501 87.501s-7.33398 66.667 -2.00098 102zM439.004 825.999
c-1.33301 -14 2.33398 -26.498 11.001 -37.498s20 -16.833 34 -17.5s27.5 4.66602 40.5 15.999s20.167 23.666 21.5 36.999c1.33301 14 -2.33398 26.667 -11.001 38s-20 17.333 -34 18s-27.5 -4.83301 -40.5 -16.5s-20.167 -24.167 -21.5 -37.5z" />
    <glyph glyph-name="cdotaccent" unicode="&#x10b;" horiz-adv-x="464" 
d="M120 230c5.33301 30 16.667 57.498 34 82.498s39 45 65 60s54.333 22.5 85 22.5c33.333 0 62.333 -7.66699 87 -23s42 -35.666 52 -60.999l16 100c-17.333 19.333 -39 34 -65 44s-53.667 15 -83 15c-45.333 0 -87.166 -10.833 -125.499 -32.5s-70.333 -50.5 -96 -86.5
s-41.834 -76.333 -48.501 -121c-6.66699 -42 -2.83398 -81.167 11.499 -117.5s37 -65.666 68 -87.999s68.833 -33.5 113.5 -33.5c31.333 0 61.333 5.16699 90 15.5s53.334 24.5 74.001 42.5l16 99c-18 -22 -42.167 -41.333 -72.5 -58s-63.5 -24.667 -99.5 -24
c-30 0.666992 -54.833 8.66699 -74.5 24s-33.5 35.5 -41.5 60.5s-10 51.5 -6 79.5zM279.001 585.998c-1.33301 -14 2.33398 -26.498 11.001 -37.498s20.334 -16.833 35.001 -17.5c13.333 -0.666992 26.666 4.66602 39.999 15.999s20.666 23.666 21.999 36.999
c1.33301 14 -2.33398 26.667 -11.001 38s-20.334 17.333 -35.001 18c-13.333 0.666992 -26.666 -4.83301 -39.999 -16.5s-20.666 -24.167 -21.999 -37.5z" />
    <glyph glyph-name="Ccaron" unicode="&#x10c;" horiz-adv-x="665" 
d="M160 350c6 38 18.1709 73.499 36.5039 106.499s41.166 62.167 68.499 87.5s57.666 45.166 90.999 59.499s68.333 21.5 105 21.5c44.667 0 83.667 -9.16699 117 -27.5s60.666 -43.833 81.999 -76.5l18 112c-28 26.667 -58.5 46.334 -91.5 59.001s-71.833 18.667 -116.5 18
c-50 0 -97.333 -9.5 -142 -28.5s-85 -45 -121 -78s-65.833 -71.167 -89.5 -114.5s-39.167 -89.666 -46.5 -138.999c-6.66699 -46.667 -5 -91.667 5 -135s27.333 -81.833 52 -115.5s56.167 -60.334 94.5 -80.001s81.833 -29.5 130.5 -29.5c47.333 0 89.333 6.66699 126 20
s71.334 32.333 104.001 57l17 111c-30.667 -28.667 -66 -53 -106 -73s-84.333 -29.667 -133 -29c-36 0 -67.667 7.66699 -95 23s-49.833 35.833 -67.5 61.5s-29.834 54.834 -36.501 87.501s-7.33398 66.667 -2.00098 102zM495.004 855.999l-90 94l-54 -39l134 -141l178 139
l-44 41z" />
    <glyph glyph-name="ccaron" unicode="&#x10d;" horiz-adv-x="464" 
d="M120 230c5.33301 30 16.667 57.498 34 82.498s39 45 65 60s54.333 22.5 85 22.5c33.333 0 62.333 -7.66699 87 -23s42 -35.666 52 -60.999l16 100c-17.333 19.333 -39 34 -65 44s-53.667 15 -83 15c-45.333 0 -87.166 -10.833 -125.499 -32.5s-70.333 -50.5 -96 -86.5
s-41.834 -76.333 -48.501 -121c-6.66699 -42 -2.83398 -81.167 11.499 -117.5s37 -65.666 68 -87.999s68.833 -33.5 113.5 -33.5c31.333 0 61.333 5.16699 90 15.5s53.334 24.5 74.001 42.5l16 99c-18 -22 -42.167 -41.333 -72.5 -58s-63.5 -24.667 -99.5 -24
c-30 0.666992 -54.833 8.66699 -74.5 24s-33.5 35.5 -41.5 60.5s-10 51.5 -6 79.5zM336.001 615.998l-91 94l-54 -39l135 -141l178 139l-45 41z" />
    <glyph glyph-name="Dcaron" unicode="&#x10e;" horiz-adv-x="660" 
d="M169 700l-118 -700h82l121 700h-85zM258 0c68 1.33301 130.169 17.167 186.502 47.5s103 71.666 140 123.999s60.5 111.833 70.5 178.5c9.33301 64 3.83301 122.333 -16.5 175s-53.333 94.834 -99 126.501s-101.834 47.834 -168.501 48.501h-156l-15 -85h162
c52 -0.666992 94.833 -12.834 128.5 -36.501s57.5 -55.334 71.5 -95.001s17 -84.167 9 -133.5c-8.66699 -51.333 -27.167 -96.666 -55.5 -135.999s-63.833 -70.333 -106.5 -93s-90.334 -34.667 -143.001 -36h-156l-15 -85h163zM437.002 856.001l-91 94l-53 -39l134 -141
l178 139l-45 41z" />
    <glyph glyph-name="dcaron" unicode="&#x10f;" 
d="M512 780l-131 -780h77l135 780h-81zM45 230c-6 -43.333 -2.33496 -83.1689 10.998 -119.502s34.833 -65.333 64.5 -87s66.167 -32.5 109.5 -32.5c30.667 0 58.834 6.16699 84.501 18.5s48.167 29.5 67.5 51.5s35.333 47.5 48 76.5s21.334 59.833 26.001 92.5
c4 31.333 4.16699 61.166 0.5 89.499s-11.5 53.833 -23.5 76.5s-28.5 40.667 -49.5 54s-46.833 20 -77.5 20c-43.333 0.666992 -83.5 -9.66602 -120.5 -30.999s-68 -50.166 -93 -86.499s-40.833 -77.166 -47.5 -122.499zM124.998 229.997
c5.33301 31.333 16.833 59.668 34.5 85.001s39.5 45.166 65.5 59.499s53.667 21.166 83 20.499c20 -0.666992 37.5 -5.5 52.5 -14.5s27.5 -21.167 37.5 -36.5s17 -32.666 21 -51.999s4.33301 -40 1 -62c-4 -22.667 -11.5 -44 -22.5 -64s-24.5 -37.5 -40.5 -52.5
s-33.5 -26.667 -52.5 -35s-38.5 -12.5 -58.5 -12.5c-29.333 0 -53.833 7.5 -73.5 22.5s-33.5 35 -41.5 60s-10 52.167 -6 81.5zM703.998 778.999l-129 -257l56 -21l149 247z" />
    <glyph glyph-name="Dcroat" unicode="&#x110;" horiz-adv-x="660" 
d="M31 311l293 -1l12 75h-292zM169 700l-118 -700h82l121 700h-85zM258 0c68 1.33301 130.169 17.167 186.502 47.5s103 71.666 140 123.999s60.5 111.833 70.5 178.5c9.33301 64 3.83301 122.333 -16.5 175s-53.333 94.834 -99 126.501s-101.834 47.834 -168.501 48.501
h-156l-15 -85h162c52 -0.666992 94.833 -12.834 128.5 -36.501s57.5 -55.334 71.5 -95.001s17 -84.167 9 -133.5c-8.66699 -51.333 -27.167 -96.666 -55.5 -135.999s-63.833 -70.333 -106.5 -93s-90.334 -34.667 -143.001 -36h-156l-15 -85h163z" />
    <glyph glyph-name="dcroat" unicode="&#x111;" 
d="M360 591l293 -1l13 75h-293zM512 780l-131 -780h77l135 780h-81zM45 230c-6 -43.333 -2.33496 -83.1689 10.998 -119.502s34.833 -65.333 64.5 -87s66.167 -32.5 109.5 -32.5c30.667 0 58.834 6.16699 84.501 18.5s48.167 29.5 67.5 51.5s35.333 47.5 48 76.5
s21.334 59.833 26.001 92.5c4 31.333 4.16699 61.166 0.5 89.499s-11.5 53.833 -23.5 76.5s-28.5 40.667 -49.5 54s-46.833 20 -77.5 20c-43.333 0.666992 -83.5 -9.66602 -120.5 -30.999s-68 -50.166 -93 -86.499s-40.833 -77.166 -47.5 -122.499zM124.998 229.997
c5.33301 31.333 16.833 59.668 34.5 85.001s39.5 45.166 65.5 59.499s53.667 21.166 83 20.499c20 -0.666992 37.5 -5.5 52.5 -14.5s27.5 -21.167 37.5 -36.5s17 -32.666 21 -51.999s4.33301 -40 1 -62c-4 -22.667 -11.5 -44 -22.5 -64s-24.5 -37.5 -40.5 -52.5
s-33.5 -26.667 -52.5 -35s-38.5 -12.5 -58.5 -12.5c-29.333 0 -53.833 7.5 -73.5 22.5s-33.5 35 -41.5 60s-10 52.167 -6 81.5z" />
    <glyph glyph-name="Emacron" unicode="&#x112;" horiz-adv-x="534" 
d="M97 0h344l13 80h-344zM203 621l343 -1l14 80h-344zM155 341l324 -1l14 80h-325zM169 700l-118 -700h82l121 700h-85zM207 771l341 -1l12 75h-341z" />
    <glyph glyph-name="emacron" unicode="&#x113;" horiz-adv-x="500" 
d="M92 211l384.002 -0.00195312c1.33301 4 2.16602 7.83301 2.49902 11.5s0.833008 7.5 1.5 11.5c5.33301 42.667 2.5 81.834 -8.5 117.501s-30.167 64.334 -57.5 86.001s-63.333 32.5 -108 32.5c-40 0 -76.667 -8.5 -110 -25.5s-61.833 -39.833 -85.5 -68.5
s-41.5 -61 -53.5 -97c-2.66699 -8 -5 -16 -7 -24s-3.66699 -16.333 -5 -25c-5.33301 -40.667 -2.16602 -79.167 9.50098 -115.5s31.5 -65.833 59.5 -88.5s63.333 -34.334 106 -35.001c36 0 67.667 4.83301 95 14.5s52 23.334 74 41.001s42.333 37.5 61 59.5l-59 42
c-12.667 -14.667 -26.834 -28.334 -42.501 -41.001s-32.667 -22.667 -51 -30s-38.5 -11 -60.5 -11c-30.667 0.666992 -55 8.33398 -73 23.001s-30 34.5 -36 59.5s-7 52.167 -3 81.5l8 30c6 26.667 16.833 50.5 32.5 71.5s35 37.833 58 50.5s48.167 18.667 75.5 18
c26 0 46.5 -5.5 61.5 -16.5s25.667 -25.667 32 -44s9.16602 -38.833 8.49902 -61.5h-298zM149.002 530.998l341 -1l13 75h-341z" />
    <glyph glyph-name="Ebreve" unicode="&#x114;" horiz-adv-x="534" 
d="M97 0h344l13 80h-344zM203 621l343 -1l14 80h-344zM155 341l324 -1l14 80h-325zM169 700l-118 -700h82l121 700h-85zM246 910c-2 -24 1.49707 -46.667 10.4971 -68s23.667 -38.5 44 -51.5s46.5 -19.5 78.5 -19.5c32.667 0 60.834 6.5 84.501 19.5s43.167 30 58.5 51
s26 43.5 32 67.5l-71 1c-4 -10.667 -10 -21.834 -18 -33.501s-18.333 -21.334 -31 -29.001s-29.334 -11.5 -50.001 -11.5c-19.333 0 -34.166 3.83301 -44.499 11.5s-17.166 17.334 -20.499 29.001s-4.66602 22.834 -3.99902 33.501h-69z" />
    <glyph glyph-name="ebreve" unicode="&#x115;" horiz-adv-x="500" 
d="M92 211l384.002 -0.00195312c1.33301 4 2.16602 7.83301 2.49902 11.5s0.833008 7.5 1.5 11.5c5.33301 42.667 2.5 81.834 -8.5 117.501s-30.167 64.334 -57.5 86.001s-63.333 32.5 -108 32.5c-40 0 -76.667 -8.5 -110 -25.5s-61.833 -39.833 -85.5 -68.5
s-41.5 -61 -53.5 -97c-2.66699 -8 -5 -16 -7 -24s-3.66699 -16.333 -5 -25c-5.33301 -40.667 -2.16602 -79.167 9.50098 -115.5s31.5 -65.833 59.5 -88.5s63.333 -34.334 106 -35.001c36 0 67.667 4.83301 95 14.5s52 23.334 74 41.001s42.333 37.5 61 59.5l-59 42
c-12.667 -14.667 -26.834 -28.334 -42.501 -41.001s-32.667 -22.667 -51 -30s-38.5 -11 -60.5 -11c-30.667 0.666992 -55 8.33398 -73 23.001s-30 34.5 -36 59.5s-7 52.167 -3 81.5l8 30c6 26.667 16.833 50.5 32.5 71.5s35 37.833 58 50.5s48.167 18.667 75.5 18
c26 0 46.5 -5.5 61.5 -16.5s25.667 -25.667 32 -44s9.16602 -38.833 8.49902 -61.5h-298zM189.002 669.998c-2 -24 1.49805 -46.667 10.498 -68s23.5 -38.5 43.5 -51.5s46 -19.5 78 -19.5c32.667 0 60.834 6.5 84.501 19.5s43.334 30 59.001 51s26.5 43.5 32.5 67.5l-71 1
c-4.66699 -10.667 -10.834 -21.834 -18.501 -33.501s-17.834 -21.334 -30.501 -29.001s-29.334 -11.5 -50.001 -11.5c-19.333 0 -34.166 3.83301 -44.499 11.5s-17.166 17.334 -20.499 29.001s-4.66602 22.834 -3.99902 33.501h-69z" />
    <glyph glyph-name="Edotaccent" unicode="&#x116;" horiz-adv-x="534" 
d="M97 0h344l13 80h-344zM203 621l343 -1l14 80h-344zM155 341l324 -1l14 80h-325zM169 700l-118 -700h82l121 700h-85zM332 826c-1.33301 -14 2.33398 -26.498 11.001 -37.498s20 -16.833 34 -17.5s27.667 4.66602 41 15.999s20.666 23.666 21.999 36.999
c1.33301 14 -2.5 26.667 -11.5 38s-20.5 17.333 -34.5 18s-27.5 -4.83301 -40.5 -16.5s-20.167 -24.167 -21.5 -37.5z" />
    <glyph glyph-name="edotaccent" unicode="&#x117;" horiz-adv-x="500" 
d="M92 211l384.002 -0.00195312c1.33301 4 2.16602 7.83301 2.49902 11.5s0.833008 7.5 1.5 11.5c5.33301 42.667 2.5 81.834 -8.5 117.501s-30.167 64.334 -57.5 86.001s-63.333 32.5 -108 32.5c-40 0 -76.667 -8.5 -110 -25.5s-61.833 -39.833 -85.5 -68.5
s-41.5 -61 -53.5 -97c-2.66699 -8 -5 -16 -7 -24s-3.66699 -16.333 -5 -25c-5.33301 -40.667 -2.16602 -79.167 9.50098 -115.5s31.5 -65.833 59.5 -88.5s63.333 -34.334 106 -35.001c36 0 67.667 4.83301 95 14.5s52 23.334 74 41.001s42.333 37.5 61 59.5l-59 42
c-12.667 -14.667 -26.834 -28.334 -42.501 -41.001s-32.667 -22.667 -51 -30s-38.5 -11 -60.5 -11c-30.667 0.666992 -55 8.33398 -73 23.001s-30 34.5 -36 59.5s-7 52.167 -3 81.5l8 30c6 26.667 16.833 50.5 32.5 71.5s35 37.833 58 50.5s48.167 18.667 75.5 18
c26 0 46.5 -5.5 61.5 -16.5s25.667 -25.667 32 -44s9.16602 -38.833 8.49902 -61.5h-298zM274.002 585.998c-1.33301 -14 2.33398 -26.498 11.001 -37.498s20.334 -16.833 35.001 -17.5c13.333 -0.666992 26.666 4.66602 39.999 15.999s20.666 23.666 21.999 36.999
c1.33301 14 -2.33398 26.667 -11.001 38s-20.334 17.333 -35.001 18c-13.333 0.666992 -26.666 -4.83301 -39.999 -16.5s-20.666 -24.167 -21.999 -37.5z" />
    <glyph glyph-name="Eogonek" unicode="&#x118;" horiz-adv-x="534" 
d="M97 0h344l13 80h-344zM203 621l343 -1l14 80h-344zM155 341l324 -1l14 80h-325zM169 700l-118 -700h82l121 700h-85zM304 -130c-6.66699 -4.66699 -14.166 -9.16797 -22.499 -13.501s-18.166 -6.16602 -29.499 -5.49902c-14 1.33301 -24 6.16602 -30 14.499
s-8.33301 19.833 -7 34.5c2.66699 14.667 9.66699 28.167 21 40.5s24.833 23.5 40.5 33.5s31.167 18.667 46.5 26l-38 25c-22 -10.667 -44 -23 -66 -37s-40.833 -29.833 -56.5 -47.5s-25.5 -37.5 -29.5 -59.5c-4.66699 -30.667 2.66602 -55.167 21.999 -73.5
s47 -27.166 83 -26.499c19.333 0 36.666 3.83301 51.999 11.5s28.333 16.5 39 26.5z" />
    <glyph glyph-name="eogonek" unicode="&#x119;" horiz-adv-x="500" 
d="M92 211l384.004 -0.000976562c1.33301 4 2.16602 7.83301 2.49902 11.5s0.833008 7.5 1.5 11.5c5.33301 42.667 2.5 81.834 -8.5 117.501s-30.167 64.334 -57.5 86.001s-63.333 32.5 -108 32.5c-40 0 -76.667 -8.5 -110 -25.5s-61.833 -39.833 -85.5 -68.5
s-41.5 -61 -53.5 -97c-2.66699 -8 -5 -16 -7 -24s-3.66699 -16.333 -5 -25c-5.33301 -40.667 -2.16602 -79.167 9.50098 -115.5s31.5 -65.833 59.5 -88.5s63.333 -34.334 106 -35.001c26.667 0 50.5 3.83301 71.5 11.5s40.167 17.5 57.5 29.5s34.166 24.667 50.499 38
s33.166 25.333 50.499 36l-59 42c-12.667 -14.667 -26.834 -28.334 -42.501 -41.001s-32.667 -22.667 -51 -30s-38.5 -11 -60.5 -11c-30.667 0.666992 -55 8.33398 -73 23.001s-30 34.5 -36 59.5s-7 52.167 -3 81.5l8 30c6 26.667 16.833 50.5 32.5 71.5s35 37.833 58 50.5
s48.167 18.667 75.5 18c26 0 46.5 -5.5 61.5 -16.5s25.667 -25.667 32 -44s9.16602 -38.833 8.49902 -61.5h-298zM400.004 -65.001c-6.66699 -4.66699 -14.1689 -9.16895 -22.502 -13.502s-18.166 -6.16602 -29.499 -5.49902c-14 1.33301 -24 6 -30 14s-8.33301 18 -7 30
c2.66699 14.667 9.16699 27.667 19.5 39s25.5 25 45.5 41s44.667 38 74 66l-58 -5l-66.5 -46.5c-23.667 -17 -44.5 -35.333 -62.5 -55s-29 -40.5 -33 -62.5c-4.66699 -30.667 3.33301 -53.667 24 -69s46 -22.666 76 -21.999c19.333 0 37.333 3.83301 54 11.5
s30.334 16.5 41.001 26.5z" />
    <glyph glyph-name="Ecaron" unicode="&#x11a;" horiz-adv-x="534" 
d="M97 0h344l13 80h-344zM203 621l343 -1l14 80h-344zM155 341l324 -1l14 80h-325zM169 700l-118 -700h82l121 700h-85zM388 856l-90 94l-54 -39l134 -141l178 139l-44 41z" />
    <glyph glyph-name="ecaron" unicode="&#x11b;" horiz-adv-x="500" 
d="M92 211l384.002 -0.00195312c1.33301 4 2.16602 7.83301 2.49902 11.5s0.833008 7.5 1.5 11.5c5.33301 42.667 2.5 81.834 -8.5 117.501s-30.167 64.334 -57.5 86.001s-63.333 32.5 -108 32.5c-40 0 -76.667 -8.5 -110 -25.5s-61.833 -39.833 -85.5 -68.5
s-41.5 -61 -53.5 -97c-2.66699 -8 -5 -16 -7 -24s-3.66699 -16.333 -5 -25c-5.33301 -40.667 -2.16602 -79.167 9.50098 -115.5s31.5 -65.833 59.5 -88.5s63.333 -34.334 106 -35.001c36 0 67.667 4.83301 95 14.5s52 23.334 74 41.001s42.333 37.5 61 59.5l-59 42
c-12.667 -14.667 -26.834 -28.334 -42.501 -41.001s-32.667 -22.667 -51 -30s-38.5 -11 -60.5 -11c-30.667 0.666992 -55 8.33398 -73 23.001s-30 34.5 -36 59.5s-7 52.167 -3 81.5l8 30c6 26.667 16.833 50.5 32.5 71.5s35 37.833 58 50.5s48.167 18.667 75.5 18
c26 0 46.5 -5.5 61.5 -16.5s25.667 -25.667 32 -44s9.16602 -38.833 8.49902 -61.5h-298zM331.002 615.998l-91 94l-53 -39l134 -141l178 139l-45 41z" />
    <glyph glyph-name="Gcircumflex" unicode="&#x11c;" horiz-adv-x="752" 
d="M412 275l228.002 0.000976562c-12 -26 -26.5 -51 -43.5 -75s-37 -45.333 -60 -64s-48.667 -33.334 -77 -44.001s-59.5 -16 -93.5 -16c-37.333 0 -70.166 7.5 -98.499 22.5s-51.333 35.333 -69 61s-29.834 54.834 -36.501 87.501s-7.33398 67 -2.00098 103
c6 38 18.167 73.667 36.5 107s41.333 62.5 69 87.5s58.5 44.667 92.5 59s70 21.5 108 21.5c48 0 89.333 -10.167 124 -30.5s61 -49.5 79 -87.5l66 53c-24.667 49.333 -59.334 86.833 -104.001 112.5s-96.667 38.167 -156 37.5c-51.333 0 -99.833 -9.33301 -145.5 -28
s-86.5 -44.334 -122.5 -77.001s-65.667 -70.834 -89 -114.501s-39 -90.5 -47 -140.5c-6.66699 -47.333 -5.16699 -92.666 4.5 -135.999s27.167 -81.833 52.5 -115.5s57.333 -60.167 96 -79.5s83.334 -29 134.001 -29c53.333 0 101.666 10 144.999 30s81.333 47.167 114 81.5
s59.5 73.333 80.5 117s35.833 89.167 44.5 136.5h-316zM507.002 865.001l90 -94l54 38l-134 141l-178 -138l44 -41z" />
    <glyph glyph-name="gcircumflex" unicode="&#x11d;" 
d="M10 -30c-4 -38.667 1.16504 -72.999 15.498 -102.999s36.5 -53.5 66.5 -70.5s66.333 -25.5 109 -25.5s82.334 10.167 119.001 30.5s67.5 48.5 92.5 84.5s41.167 77.333 48.5 124l77 450h-79l-78 -450c-5.33301 -32.667 -16.5 -61.334 -33.5 -86.001
s-37.667 -43.834 -62 -57.501s-50.166 -20.5 -77.499 -20.5c-28 0 -51.167 5.66699 -69.5 17s-31.5 26.333 -39.5 45s-11.333 39.334 -10 62.001h-79zM44.998 230.001c-6 -43.333 -2.33496 -83.1689 10.998 -119.502s34.833 -65.333 64.5 -87s66.167 -32.5 109.5 -32.5
c30.667 0 58.834 6.16699 84.501 18.5s48.167 29.5 67.5 51.5s35.333 47.5 48 76.5s21.334 59.833 26.001 92.5c4 31.333 4.16699 61.166 0.5 89.499s-11.5 53.833 -23.5 76.5s-28.5 40.667 -49.5 54s-46.833 20 -77.5 20c-43.333 0.666992 -83.5 -9.66602 -120.5 -30.999
s-68 -50.166 -93 -86.499s-40.833 -77.166 -47.5 -122.499zM124.996 229.998c5.33301 31.333 16.833 59.668 34.5 85.001s39.5 45.166 65.5 59.499s53.667 21.166 83 20.499c20 -0.666992 37.5 -5.5 52.5 -14.5s27.5 -21.167 37.5 -36.5s17 -32.666 21 -51.999
s4.33301 -40 1 -62c-4 -22.667 -11.5 -44 -22.5 -64s-24.5 -37.5 -40.5 -52.5s-33.5 -26.667 -52.5 -35s-38.5 -12.5 -58.5 -12.5c-29.333 0 -53.833 7.5 -73.5 22.5s-33.5 35 -41.5 60s-10 52.167 -6 81.5zM337.996 625l90 -94l54 38l-134 141l-178 -138l44 -41z" />
    <glyph glyph-name="Gbreve" unicode="&#x11e;" horiz-adv-x="752" 
d="M412 275l228.002 0.000976562c-12 -26 -26.5 -51 -43.5 -75s-37 -45.333 -60 -64s-48.667 -33.334 -77 -44.001s-59.5 -16 -93.5 -16c-37.333 0 -70.166 7.5 -98.499 22.5s-51.333 35.333 -69 61s-29.834 54.834 -36.501 87.501s-7.33398 67 -2.00098 103
c6 38 18.167 73.667 36.5 107s41.333 62.5 69 87.5s58.5 44.667 92.5 59s70 21.5 108 21.5c48 0 89.333 -10.167 124 -30.5s61 -49.5 79 -87.5l66 53c-24.667 49.333 -59.334 86.833 -104.001 112.5s-96.667 38.167 -156 37.5c-51.333 0 -99.833 -9.33301 -145.5 -28
s-86.5 -44.334 -122.5 -77.001s-65.667 -70.834 -89 -114.501s-39 -90.5 -47 -140.5c-6.66699 -47.333 -5.16699 -92.666 4.5 -135.999s27.167 -81.833 52.5 -115.5s57.333 -60.167 96 -79.5s83.334 -29 134.001 -29c53.333 0 101.666 10 144.999 30s81.333 47.167 114 81.5
s59.5 73.333 80.5 117s35.833 89.167 44.5 136.5h-316zM358.002 910.001c-2 -24 1.49512 -46.667 10.4951 -68s23.5 -38.5 43.5 -51.5s46 -19.5 78 -19.5c32.667 0 60.834 6.5 84.501 19.5s43.334 30 59.001 51s26.5 43.5 32.5 67.5l-71 1
c-4 -10.667 -9.83301 -21.834 -17.5 -33.501s-18 -21.334 -31 -29.001s-29.833 -11.5 -50.5 -11.5c-19.333 0 -34.166 3.83301 -44.499 11.5s-17.166 17.334 -20.499 29.001s-4.66602 22.834 -3.99902 33.501h-69z" />
    <glyph glyph-name="gbreve" unicode="&#x11f;" 
d="M10 -30c-4 -38.667 1.16504 -72.999 15.498 -102.999s36.5 -53.5 66.5 -70.5s66.333 -25.5 109 -25.5s82.334 10.167 119.001 30.5s67.5 48.5 92.5 84.5s41.167 77.333 48.5 124l77 450h-79l-78 -450c-5.33301 -32.667 -16.5 -61.334 -33.5 -86.001
s-37.667 -43.834 -62 -57.501s-50.166 -20.5 -77.499 -20.5c-28 0 -51.167 5.66699 -69.5 17s-31.5 26.333 -39.5 45s-11.333 39.334 -10 62.001h-79zM44.998 230.001c-6 -43.333 -2.33496 -83.1689 10.998 -119.502s34.833 -65.333 64.5 -87s66.167 -32.5 109.5 -32.5
c30.667 0 58.834 6.16699 84.501 18.5s48.167 29.5 67.5 51.5s35.333 47.5 48 76.5s21.334 59.833 26.001 92.5c4 31.333 4.16699 61.166 0.5 89.499s-11.5 53.833 -23.5 76.5s-28.5 40.667 -49.5 54s-46.833 20 -77.5 20c-43.333 0.666992 -83.5 -9.66602 -120.5 -30.999
s-68 -50.166 -93 -86.499s-40.833 -77.166 -47.5 -122.499zM124.996 229.998c5.33301 31.333 16.833 59.668 34.5 85.001s39.5 45.166 65.5 59.499s53.667 21.166 83 20.499c20 -0.666992 37.5 -5.5 52.5 -14.5s27.5 -21.167 37.5 -36.5s17 -32.666 21 -51.999
s4.33301 -40 1 -62c-4 -22.667 -11.5 -44 -22.5 -64s-24.5 -37.5 -40.5 -52.5s-33.5 -26.667 -52.5 -35s-38.5 -12.5 -58.5 -12.5c-29.333 0 -53.833 7.5 -73.5 22.5s-33.5 35 -41.5 60s-10 52.167 -6 81.5zM188.996 670c-2 -24 1.49805 -46.667 10.498 -68
s23.5 -38.5 43.5 -51.5s46 -19.5 78 -19.5c32.667 0 60.834 6.5 84.501 19.5s43.334 30 59.001 51s26.5 43.5 32.5 67.5l-71 1c-4.66699 -10.667 -10.834 -21.834 -18.501 -33.501s-17.834 -21.334 -30.501 -29.001s-29.334 -11.5 -50.001 -11.5
c-19.333 0 -34.166 3.83301 -44.499 11.5s-17.166 17.334 -20.499 29.001s-4.66602 22.834 -3.99902 33.501h-69z" />
    <glyph glyph-name="Gdotaccent" unicode="&#x120;" horiz-adv-x="752" 
d="M412 275l228.002 0.000976562c-12 -26 -26.5 -51 -43.5 -75s-37 -45.333 -60 -64s-48.667 -33.334 -77 -44.001s-59.5 -16 -93.5 -16c-37.333 0 -70.166 7.5 -98.499 22.5s-51.333 35.333 -69 61s-29.834 54.834 -36.501 87.501s-7.33398 67 -2.00098 103
c6 38 18.167 73.667 36.5 107s41.333 62.5 69 87.5s58.5 44.667 92.5 59s70 21.5 108 21.5c48 0 89.333 -10.167 124 -30.5s61 -49.5 79 -87.5l66 53c-24.667 49.333 -59.334 86.833 -104.001 112.5s-96.667 38.167 -156 37.5c-51.333 0 -99.833 -9.33301 -145.5 -28
s-86.5 -44.334 -122.5 -77.001s-65.667 -70.834 -89 -114.501s-39 -90.5 -47 -140.5c-6.66699 -47.333 -5.16699 -92.666 4.5 -135.999s27.167 -81.833 52.5 -115.5s57.333 -60.167 96 -79.5s83.334 -29 134.001 -29c53.333 0 101.666 10 144.999 30s81.333 47.167 114 81.5
s59.5 73.333 80.5 117s35.833 89.167 44.5 136.5h-316zM443.002 826.001c-1.33301 -14 2.5 -26.498 11.5 -37.498s20.5 -16.833 34.5 -17.5s27.5 4.66602 40.5 15.999s20.167 23.666 21.5 36.999c1.33301 14 -2.33398 26.667 -11.001 38s-20.334 17.333 -35.001 18
c-13.333 0.666992 -26.666 -4.83301 -39.999 -16.5s-20.666 -24.167 -21.999 -37.5z" />
    <glyph glyph-name="gdotaccent" unicode="&#x121;" 
d="M10 -30c-4 -38.667 1.16504 -72.999 15.498 -102.999s36.5 -53.5 66.5 -70.5s66.333 -25.5 109 -25.5s82.334 10.167 119.001 30.5s67.5 48.5 92.5 84.5s41.167 77.333 48.5 124l77 450h-79l-78 -450c-5.33301 -32.667 -16.5 -61.334 -33.5 -86.001
s-37.667 -43.834 -62 -57.501s-50.166 -20.5 -77.499 -20.5c-28 0 -51.167 5.66699 -69.5 17s-31.5 26.333 -39.5 45s-11.333 39.334 -10 62.001h-79zM44.998 230.001c-6 -43.333 -2.33496 -83.1689 10.998 -119.502s34.833 -65.333 64.5 -87s66.167 -32.5 109.5 -32.5
c30.667 0 58.834 6.16699 84.501 18.5s48.167 29.5 67.5 51.5s35.333 47.5 48 76.5s21.334 59.833 26.001 92.5c4 31.333 4.16699 61.166 0.5 89.499s-11.5 53.833 -23.5 76.5s-28.5 40.667 -49.5 54s-46.833 20 -77.5 20c-43.333 0.666992 -83.5 -9.66602 -120.5 -30.999
s-68 -50.166 -93 -86.499s-40.833 -77.166 -47.5 -122.499zM124.996 229.998c5.33301 31.333 16.833 59.668 34.5 85.001s39.5 45.166 65.5 59.499s53.667 21.166 83 20.499c20 -0.666992 37.5 -5.5 52.5 -14.5s27.5 -21.167 37.5 -36.5s17 -32.666 21 -51.999
s4.33301 -40 1 -62c-4 -22.667 -11.5 -44 -22.5 -64s-24.5 -37.5 -40.5 -52.5s-33.5 -26.667 -52.5 -35s-38.5 -12.5 -58.5 -12.5c-29.333 0 -53.833 7.5 -73.5 22.5s-33.5 35 -41.5 60s-10 52.167 -6 81.5zM300.996 626c-1.33301 -14 2.33398 -26.498 11.001 -37.498
s20 -16.833 34 -17.5s27.5 4.66602 40.5 15.999s20.167 23.666 21.5 36.999c1.33301 14 -2.33398 26.667 -11.001 38s-20 17.333 -34 18s-27.5 -4.83301 -40.5 -16.5s-20.167 -24.167 -21.5 -37.5z" />
    <glyph glyph-name="uni0122" unicode="&#x122;" horiz-adv-x="752" 
d="M412 275l228.002 0.000976562c-12 -26 -26.5 -51 -43.5 -75s-37 -45.333 -60 -64s-48.667 -33.334 -77 -44.001s-59.5 -16 -93.5 -16c-37.333 0 -70.166 7.5 -98.499 22.5s-51.333 35.333 -69 61s-29.834 54.834 -36.501 87.501s-7.33398 67 -2.00098 103
c6 38 18.167 73.667 36.5 107s41.333 62.5 69 87.5s58.5 44.667 92.5 59s70 21.5 108 21.5c48 0 89.333 -10.167 124 -30.5s61 -49.5 79 -87.5l66 53c-24.667 49.333 -59.334 86.833 -104.001 112.5s-96.667 38.167 -156 37.5c-51.333 0 -99.833 -9.33301 -145.5 -28
s-86.5 -44.334 -122.5 -77.001s-65.667 -70.834 -89 -114.501s-39 -90.5 -47 -140.5c-6.66699 -47.333 -5.16699 -92.666 4.5 -135.999s27.167 -81.833 52.5 -115.5s57.333 -60.167 96 -79.5s83.334 -29 134.001 -29c53.333 0 101.666 10 144.999 30s81.333 47.167 114 81.5
s59.5 73.333 80.5 117s35.833 89.167 44.5 136.5h-316zM346.002 -70.999l-128 -257l55 -21l150 247z" />
    <glyph glyph-name="uni0123" unicode="&#x123;" 
d="M9 -30c-3.33301 -38.667 2.33008 -72.998 16.9971 -102.998s37 -53.5 67 -70.5s66.333 -25.5 109 -25.5s82.334 10.167 119.001 30.5s67.5 48.5 92.5 84.5s41.167 77.333 48.5 124l77 450h-81l-77 -450c-5.33301 -32.667 -16.666 -61.334 -33.999 -86.001
s-38.333 -43.834 -63 -57.501s-50.667 -20.5 -78 -20.5c-27.333 0.666992 -50.166 6.66699 -68.499 18s-31.5 26.333 -39.5 45s-11.333 39 -10 61h-79zM44.9961 230.002c-6 -43.333 -2.16797 -83.1689 11.499 -119.502s35.5 -65.333 65.5 -87s66.333 -32.5 109 -32.5
c30.667 0 58.834 6.16699 84.501 18.5s48.167 29.5 67.5 51.5s35.333 47.5 48 76.5s21 59.833 25 92.5c4 31.333 4.16699 61.333 0.5 90s-11.667 54.167 -24 76.5s-29 40.166 -50 53.499s-47.167 20 -78.5 20c-43.333 0.666992 -83.5 -9.66602 -120.5 -30.999
s-67.667 -50.166 -92 -86.499s-39.833 -77.166 -46.5 -122.499zM125.995 229.999c5.33301 31.333 16.8301 59.6689 34.4971 85.002s39.5 45.166 65.5 59.499s54 21.166 84 20.499c19.333 -0.666992 36.5 -5.5 51.5 -14.5s27.333 -21.167 37 -36.5
s16.334 -32.833 20.001 -52.5s3.83398 -40.167 0.500977 -61.5c-4 -22.667 -11.5 -44 -22.5 -64s-24.5 -37.5 -40.5 -52.5s-33.5 -26.667 -52.5 -35s-38.5 -12.5 -58.5 -12.5c-29.333 0 -53.666 7.5 -72.999 22.5s-33 35 -41 60s-9.66699 52.167 -5 81.5zM343.992 546.002
l161 240l-51 31l-181 -226z" />
    <glyph glyph-name="Hcircumflex" unicode="&#x124;" horiz-adv-x="694" 
d="M155 341l467 -1l13 80h-467zM625 700l-118 -700h82l122 700h-86zM169 700l-118 -700h82l121 700h-85zM471 865l90 -94l54 38l-134 141l-178 -138l44 -41z" />
    <glyph glyph-name="hcircumflex" unicode="&#x125;" horiz-adv-x="509" 
d="M258 780h-79l-134 -780h79zM380 280l-47.9961 -279.999h78l50 290c4 34 2.33301 64.5 -5 91.5s-21 48.5 -41 64.5s-46.667 24 -80 24c-34 0 -64.667 -8.83301 -92 -26.5s-50.166 -40.834 -68.499 -69.501s-30.833 -59.667 -37.5 -93h36
c5.33301 20.667 14.166 39.667 26.499 57s27.666 31.333 45.999 42s39.166 15.667 62.499 15c22 -0.666992 38.667 -6.16699 50 -16.5s18.666 -24 21.999 -41s3.66602 -36.167 0.999023 -57.5zM254.004 935.001l90 -94l54 38l-134 141l-178 -138l44 -41z" />
    <glyph glyph-name="Hbar" unicode="&#x126;" horiz-adv-x="694" 
d="M155 341h468l13 79h-468zM624 700l-117 -700h83l121 700h-87zM168 700l-117 -700h82l122 700h-87zM71 541h686l12 74h-686z" />
    <glyph glyph-name="hbar" unicode="&#x127;" horiz-adv-x="509" 
d="M259 780h-81l-134 -780h80zM380 280l-46.998 -279.998h77l50 290c4 34 2.16699 64.5 -5.5 91.5s-21.5 48.5 -41.5 64.5s-46.667 24 -80 24s-63 -9 -89 -27s-47.333 -41.167 -64 -69.5s-28.334 -58.833 -35.001 -91.5l28 -1c5.33301 20.667 14.166 39.667 26.499 57
s27.833 31.166 46.5 41.499s39.667 15.166 63 14.499c22 0 38.5 -5.33301 49.5 -16s18 -24.5 21 -41.5s3.16699 -35.833 0.5 -56.5zM85.002 626.002h305l12 74h-305z" />
    <glyph glyph-name="Itilde" unicode="&#x128;" horiz-adv-x="238" 
d="M169 700l-118 -700h82l121 700h-85zM69 809l48.002 -37.999c4 9.33301 10.333 19.833 19 31.5s21.667 17.834 39 18.501c14 0.666992 26.333 -2.83301 37 -10.5l33 -23c11.333 -7.66699 24.666 -11.834 39.999 -12.501c16.667 -0.666992 32 2.66602 46 9.99902
s26.833 16.5 38.5 27.5s21.167 22.167 28.5 33.5l-40 44c-9.33301 -12.667 -19.333 -23.5 -30 -32.5s-21.667 -13.833 -33 -14.5c-15.333 -0.666992 -28.166 2.83301 -38.499 10.5l-32 23.5c-11 8 -25.167 12 -42.5 12c-16 0.666992 -31.333 -2.83301 -46 -10.5
s-27.834 -17.667 -39.501 -30s-20.834 -25.5 -27.501 -39.5z" />
    <glyph glyph-name="itilde" unicode="&#x129;" horiz-adv-x="252" 
d="M137 460l-76 -460h77l80 460h-81zM35 569l48.001 -37.999c4 9.33301 10.333 19.833 19 31.5s21.667 17.834 39 18.501c14 0.666992 26.333 -2.83301 37 -10.5l32.5 -23c11 -7.66699 24.167 -11.834 39.5 -12.501c16.667 -0.666992 32.167 2.66602 46.5 9.99902
s27.333 16.5 39 27.5s21.167 22.167 28.5 33.5l-40 44c-9.33301 -12.667 -19.333 -23.5 -30 -32.5s-21.667 -13.833 -33 -14.5c-15.333 -0.666992 -28.166 2.83301 -38.499 10.5l-32 23.5c-11 8 -25.167 12 -42.5 12c-16 0.666992 -31.333 -2.83301 -46 -10.5
s-27.834 -17.667 -39.501 -30s-20.834 -25.5 -27.501 -39.5z" />
    <glyph glyph-name="Imacron" unicode="&#x12a;" horiz-adv-x="238" 
d="M169 700l-118 -700h82l121 700h-85zM54 771l341 -1l13 75h-341z" />
    <glyph glyph-name="imacron" unicode="&#x12b;" horiz-adv-x="252" 
d="M137 460l-76 -460h77l80 460h-81zM20 531l341 -1l13 75h-341z" />
    <glyph glyph-name="Ibreve" unicode="&#x12c;" horiz-adv-x="238" 
d="M169 700l-118 -700h82l121 700h-85zM94 910c-2 -24 1.5 -46.667 10.5 -68s23.667 -38.5 44 -51.5s46.5 -19.5 78.5 -19.5c32.667 0 60.834 6.5 84.501 19.5s43.167 30 58.5 51s26 43.5 32 67.5l-71 1c-4 -10.667 -10 -21.834 -18 -33.501s-18.333 -21.334 -31 -29.001
s-29.334 -11.5 -50.001 -11.5c-19.333 0 -34 3.83301 -44 11.5s-16.833 17.334 -20.5 29.001s-5.16699 22.834 -4.5 33.501h-69z" />
    <glyph glyph-name="ibreve" unicode="&#x12d;" horiz-adv-x="252" 
d="M137 460l-76 -460h77l80 460h-81zM59 670c-1.33301 -24 2.33105 -46.667 10.998 -68s23.167 -38.5 43.5 -51.5s46.5 -19.5 78.5 -19.5c32.667 0 60.834 6.5 84.501 19.5s43.167 30 58.5 51s26 43.5 32 67.5l-70 1c-4.66699 -10.667 -10.834 -21.834 -18.501 -33.501
s-18 -21.334 -31 -29.001s-29.5 -11.5 -49.5 -11.5c-19.333 0 -34.166 3.83301 -44.499 11.5s-17.166 17.334 -20.499 29.001s-5 22.834 -5 33.501h-69z" />
    <glyph glyph-name="Iogonek" unicode="&#x12e;" horiz-adv-x="238" 
d="M169 700l-118 -700h82l121 700h-85zM115 -130c-7.33301 -4.66699 -15.168 -9.16699 -23.501 -13.5s-18.166 -6.16602 -29.499 -5.49902c-13.333 1.33301 -23 6.16602 -29 14.499s-8.33301 19.833 -7 34.5c2.66699 14.667 9.66699 28.167 21 40.5s24.833 23.5 40.5 33.5
s31.167 18.667 46.5 26l-38 25c-22 -10.667 -44 -23 -66 -37s-40.833 -29.833 -56.5 -47.5s-25.5 -37.5 -29.5 -59.5c-2.66699 -20 -0.166992 -37.667 7.5 -53s19.834 -27 36.501 -35s37 -12 61 -12c19.333 0 36.666 3.83301 51.999 11.5s28.333 16.5 39 26.5z" />
    <glyph glyph-name="iogonek" unicode="&#x12f;" horiz-adv-x="252" 
d="M156 651c-1.33301 -14 2.5 -26.498 11.5 -37.498s20.5 -16.833 34.5 -17.5s27.5 4.66602 40.5 15.999s20.167 23.666 21.5 36.999c1.33301 14 -2.33398 26.667 -11.001 38s-20.334 17.333 -35.001 18c-13.333 0.666992 -26.666 -4.83301 -39.999 -16.5
s-20.666 -24.167 -21.999 -37.5zM137 460.002l-76 -460h77l80 460h-81zM120 -129.998c-7.33301 -4.66699 -15.166 -9.16797 -23.499 -13.501s-18.166 -6.16602 -29.499 -5.49902c-13.333 1.33301 -23 6.16602 -29 14.499s-8.33301 19.833 -7 34.5
c2.66699 14.667 9.5 28.167 20.5 40.5s24.5 23.5 40.5 33.5s31.667 18.667 47 26l-38 25c-22 -10.667 -44 -23 -66 -37s-40.833 -29.833 -56.5 -47.5s-25.5 -37.5 -29.5 -59.5c-4.66699 -30.667 2.66602 -55.167 21.999 -73.5s47 -27.166 83 -26.499
c19.333 0 36.666 3.83301 51.999 11.5s28.333 16.5 39 26.5z" />
    <glyph glyph-name="Idotaccent" unicode="&#x130;" horiz-adv-x="238" 
d="M169 700l-118 -700h82l121 700h-85zM178 826c-1.33301 -14 2.5 -26.498 11.5 -37.498s20.5 -16.833 34.5 -17.5s27.5 4.66602 40.5 15.999s20.167 23.666 21.5 36.999c1.33301 14 -2.33398 26.667 -11.001 38s-20 17.333 -34 18s-27.667 -4.83301 -41 -16.5
s-20.666 -24.167 -21.999 -37.5z" />
    <glyph glyph-name="dotlessi" unicode="&#x131;" horiz-adv-x="252" 
d="M137 460l-76 -460h77l80 460h-81z" />
    <glyph glyph-name="IJ" unicode="&#x132;" horiz-adv-x="476" 
d="M131 -104l-52.999 -65c11.333 -12.667 26.5 -24.167 45.5 -34.5s40.5 -15.5 64.5 -15.5c32 0 60 6.5 84 19.5s43.667 31.5 59 55.5s25.666 52 30.999 84l130 760h-79l-129 -750c-4.66699 -26.667 -14.834 -48 -30.501 -64s-33.167 -24.667 -52.5 -26
c-16.667 -0.666992 -30.667 2.5 -42 9.5s-20.666 15.833 -27.999 26.5zM169.001 700l-118 -700h82l121 700h-85z" />
    <glyph glyph-name="ij" unicode="&#x133;" horiz-adv-x="495" 
d="M399 651c-1.33301 -14 2.33398 -26.498 11.001 -37.498s20.334 -16.833 35.001 -17.5c13.333 -0.666992 26.666 4.66602 39.999 15.999s20.666 23.666 21.999 36.999c1.33301 14 -2.33398 26.667 -11.001 38s-20.334 17.333 -35.001 18
c-13.333 0.666992 -26.666 -4.83301 -39.999 -16.5s-20.666 -24.167 -21.999 -37.5zM187 -113.998l-51.999 -64.001c9.33301 -10.667 20.5 -20.167 33.5 -28.5s28.833 -12.5 47.5 -12.5c29.333 -0.666992 54.833 5.83301 76.5 19.5s39.167 32.667 52.5 57
s22.333 51.833 27 82.5l89 520h-80l-88 -510c-1.33301 -16 -4.83301 -31 -10.5 -45s-12.834 -25.167 -21.501 -33.5s-19 -12.166 -31 -11.499c-4.66699 0 -9.5 1.33301 -14.5 4s-10 6 -15 10s-9.5 8 -13.5 12zM156.001 651.001c-1.33301 -14 2.5 -26.498 11.5 -37.498
s20.5 -16.833 34.5 -17.5s27.5 4.66602 40.5 15.999s20.167 23.666 21.5 36.999c1.33301 14 -2.33398 26.667 -11.001 38s-20.334 17.333 -35.001 18c-13.333 0.666992 -26.666 -4.83301 -39.999 -16.5s-20.666 -24.167 -21.999 -37.5zM137.001 460.003l-76 -460h77l80 460
h-81z" />
    <glyph glyph-name="Jcircumflex" unicode="&#x134;" horiz-adv-x="233" 
d="M-112 -104l-52 -65c10.667 -12.667 25.5 -24.167 44.5 -34.5s40.5 -15.5 64.5 -15.5c32 0 60 6.5 84 19.5s43.833 31.5 59.5 55.5s26.167 52 31.5 84l129 760h-79l-129 -750c-4 -26.667 -14 -48 -30 -64s-33.667 -24.667 -53 -26c-16 -0.666992 -29.833 2.5 -41.5 9.5
s-21.167 15.833 -28.5 26.5zM240 865l90 -94l54 38l-134 141l-178 -138l44 -41z" />
    <glyph glyph-name="jcircumflex" unicode="&#x135;" horiz-adv-x="243" 
d="M-65 -114l-52 -64c9.33301 -10.667 20.5 -20.167 33.5 -28.5s28.833 -12.5 47.5 -12.5c29.333 -0.666992 54.833 5.83301 76.5 19.5s39.167 32.667 52.5 57s22.333 51.833 27 82.5l88 520h-79l-88 -510c-2 -16 -5.66699 -30.833 -11 -44.5s-12.333 -24.667 -21 -33
s-19 -12.5 -31 -12.5c-8.66699 0 -16.5 2.16699 -23.5 6.5s-13.5 10.833 -19.5 19.5zM199 625l90 -94l54 38l-134 141l-178 -138l44 -41z" />
    <glyph glyph-name="uni0136" unicode="&#x136;" horiz-adv-x="548" 
d="M169 700l-118 -700h82l121 700h-85zM517 700l-346 -327l245 -373h99l-244 370l353 330h-107zM275 -61l-128 -257l55 -21l150 247z" />
    <glyph glyph-name="uni0137" unicode="&#x137;" horiz-adv-x="427" 
d="M173 780l-132 -780h78l135 780h-81zM360 460l-224 -187l168 -273h95l-167 268l230 192h-102zM212 -61l-128 -257l55 -21l150 247z" />
    <glyph glyph-name="kgreenlandic" unicode="&#x138;" horiz-adv-x="427" 
d="M118 460l-77 -460h78l80 460h-81zM360 460l-224 -187l168 -273h95l-167 268l230 192h-102z" />
    <glyph glyph-name="Lacute" unicode="&#x139;" horiz-adv-x="437" 
d="M170 700l-120 -700h351l14 80h-267l106 620h-84zM509 918l-68 42l-172 -158l41 -31z" />
    <glyph glyph-name="lacute" unicode="&#x13a;" horiz-adv-x="223" 
d="M178 780l-132 -780h77l135 780h-80zM381 988l-69 42l-172 -158l42 -31z" />
    <glyph glyph-name="uni013B" unicode="&#x13b;" horiz-adv-x="437" 
d="M170 700l-120 -700h351l14 80h-267l106 620h-84zM217 -61l-129 -257l56 -21l149 247z" />
    <glyph glyph-name="uni013C" unicode="&#x13c;" horiz-adv-x="223" 
d="M178 780l-132 -780h77l135 780h-80zM76 -61l-128 -257l55 -21l150 247z" />
    <glyph glyph-name="Lcaron" unicode="&#x13d;" horiz-adv-x="437" 
d="M170 700l-120 -700h351l14 80h-267l106 620h-84zM411 709l-129 -257l55 -21l150 247z" />
    <glyph glyph-name="lcaron" unicode="&#x13e;" horiz-adv-x="223" 
d="M178 780l-132 -780h77l135 780h-80zM389 779l-129 -257l55 -21l150 247z" />
    <glyph glyph-name="Ldot" unicode="&#x13f;" horiz-adv-x="437" 
d="M170 700l-120 -700h351l14 80h-267l106 620h-84zM291 416c-1.33301 -14 2.3291 -26.502 10.9961 -37.502s20.334 -16.833 35.001 -17.5c9.33301 -0.666992 18.5 1.5 27.5 6.5s16.833 11.833 23.5 20.5s10.334 17.334 11.001 26.001c1.33301 9.33301 0 18.166 -4 26.499
s-9.66699 15.166 -17 20.499s-15.666 8.33301 -24.999 9s-18.5 -1.66602 -27.5 -6.99902s-16.667 -12.166 -23 -20.499s-10.166 -17.166 -11.499 -26.499z" />
    <glyph glyph-name="ldot" unicode="&#x140;" horiz-adv-x="359" 
d="M178 780l-132 -780h77l135 780h-80zM252 416c-0.666992 -9.33301 0.831055 -18.1689 4.49805 -26.502s9.16699 -15 16.5 -20s15.666 -7.83301 24.999 -8.5s18.5 1.5 27.5 6.5s16.833 11.833 23.5 20.5s10.334 17.334 11.001 26.001c1.33301 9.33301 0 18.166 -4 26.499
s-9.5 15.166 -16.5 20.499s-15.5 8.33301 -25.5 9c-8.66699 0.666992 -17.667 -1.66602 -27 -6.99902s-17.166 -12.166 -23.499 -20.499s-10.166 -17.166 -11.499 -26.499z" />
    <glyph glyph-name="Lslash" unicode="&#x141;" horiz-adv-x="437" 
d="M37 341l291 168l-12 56l-290 -169zM170 700l-120 -700h351l14 80h-267l106 620h-84z" />
    <glyph glyph-name="lslash" unicode="&#x142;" horiz-adv-x="223" 
d="M37 341l268 148l-11 56l-268 -149zM178 780l-132 -780h77l135 780h-80z" />
    <glyph glyph-name="Nacute" unicode="&#x143;" horiz-adv-x="752" 
d="M684 700l-90 -521l-419 555l-126 -734h85l90 522l418 -556l126 734h-84zM672 903l-69 42l-172 -158l42 -31z" />
    <glyph glyph-name="nacute" unicode="&#x144;" horiz-adv-x="509" 
d="M203 460h-79l-80 -460h80zM380 280l-47.9951 -279.999h78l50 290c4 34 2.33301 64.5 -5 91.5s-21 48.5 -41 64.5s-46.667 24 -80 24s-63.166 -8.83301 -89.499 -26.5s-47.833 -40.834 -64.5 -69.501s-28.334 -59.667 -35.001 -93h27
c5.33301 20.667 14.166 39.667 26.499 57s27.666 31.333 45.999 42s39.166 15.667 62.499 15c22 -0.666992 38.667 -6.16699 50 -16.5s18.666 -24 21.999 -41s3.66602 -36.167 0.999023 -57.5zM480.005 678.001l-68 42l-171 -158l40 -31z" />
    <glyph glyph-name="uni0145" unicode="&#x145;" horiz-adv-x="752" 
d="M352 -36l-128 -257l55 -21l150 247zM684 700l-90 -521l-419 555l-126 -734h85l90 522l418 -556l126 734h-84z" />
    <glyph glyph-name="uni0146" unicode="&#x146;" horiz-adv-x="509" 
d="M203 460h-79l-80 -460h80zM380 280l-47.9961 -279.999h78l50 290c4 34 2.33301 64.5 -5 91.5s-21 48.5 -41 64.5s-46.667 24 -80 24c-34 0 -64.667 -8.83301 -92 -26.5s-50.166 -40.834 -68.499 -69.501s-30.833 -59.667 -37.5 -93h36
c5.33301 20.667 14.166 39.667 26.499 57s27.666 31.333 45.999 42s39.166 15.667 62.499 15c22 -0.666992 38.667 -6.16699 50 -16.5s18.666 -24 21.999 -41s3.66602 -36.167 0.999023 -57.5zM219.004 -60.999l-129 -257l56 -21l149 247z" />
    <glyph glyph-name="Ncaron" unicode="&#x147;" horiz-adv-x="752" 
d="M509 881l-90 94l-54 -39l134 -141l178 139l-44 41zM684 700l-90 -521l-419 555l-126 -734h85l90 522l418 -556l126 734h-84z" />
    <glyph glyph-name="ncaron" unicode="&#x148;" horiz-adv-x="509" 
d="M203 460h-79l-80 -460h80zM380 280l-47.9961 -279.999h78l50 290c4 34 2.33301 64.5 -5 91.5s-21 48.5 -41 64.5s-46.667 24 -80 24c-34 0 -64.667 -8.83301 -92 -26.5s-50.166 -40.834 -68.499 -69.501s-30.833 -59.667 -37.5 -93h36
c5.33301 20.667 14.166 39.667 26.499 57s27.666 31.333 45.999 42s39.166 15.667 62.499 15c22 -0.666992 38.667 -6.16699 50 -16.5s18.666 -24 21.999 -41s3.66602 -36.167 0.999023 -57.5zM330.004 616.001l-91 94l-53 -39l134 -141l178 139l-44 41z" />
    <glyph glyph-name="napostrophe" unicode="&#x149;" horiz-adv-x="616" 
d="M310 460h-79l-80 -460h80zM487 280l-47.9951 -279.999h77l51 290c4 34 2.33301 64.5 -5 91.5s-21 48.5 -41 64.5s-46.667 24 -80 24c-34 0 -64.833 -8.83301 -92.5 -26.5s-50.667 -40.834 -69 -69.501s-30.833 -59.667 -37.5 -93h37
c5.33301 20.667 14.166 39.667 26.499 57s27.666 31.333 45.999 42s39.166 15.667 62.499 15c22 -0.666992 38.667 -6.16699 50 -16.5s18.666 -24 21.999 -41s3.66602 -36.167 0.999023 -57.5zM217.005 700.001l-96 -229h55l138 229h-97z" />
    <glyph glyph-name="Eng" unicode="&#x14a;" horiz-adv-x="775" 
d="M480 -220c28 0 53.001 6.33203 75.001 18.999s40.333 31 55 55s24.667 52.667 30 86l127 760h-85l-87 -521l-437 556l-123 -735h85l87 521l371 -472l-16 -99c-3.33301 -21.333 -7.83301 -38.666 -13.5 -51.999s-12.5 -23 -20.5 -29s-17.667 -9 -29 -9
c-10.667 0 -19.834 2.33301 -27.501 7s-13.5 11 -17.5 19l-55 -66c8 -13.333 18.5 -23.333 31.5 -30s29.5 -10 49.5 -10z" />
    <glyph glyph-name="eng" unicode="&#x14b;" horiz-adv-x="525" 
d="M235 -220c44 0 79.502 13.502 106.502 40.502s44.833 66.833 53.5 119.5l59 350c9.33301 57.333 2.83301 101.666 -19.5 132.999s-58.5 47 -108.5 47c-28.667 0 -56.167 -7.16699 -82.5 -21.5s-49.166 -34.5 -68.499 -60.5l12 72h-80l-77 -460h80l47 280
c4 22.667 12.5 42.667 25.5 60s29 30.833 48 40.5s39.833 14.5 62.5 14.5c32.667 0 55.667 -9.66699 69 -29s16.666 -48 9.99902 -86l-55 -330c-4.66699 -30.667 -12.334 -53.334 -23.001 -68.001s-24 -22 -40 -22c-22 0 -37 8.66699 -45 26l-55 -66
c7.33301 -12.667 18.166 -22.5 32.499 -29.5s30.5 -10.5 48.5 -10.5z" />
    <glyph glyph-name="Omacron" unicode="&#x14c;" horiz-adv-x="767" 
d="M160 350c6 37.333 17.999 72.667 35.999 106s40.667 62.666 68 87.999s58.166 45.166 92.499 59.499s70.833 21.5 109.5 21.5c38 0 71.167 -7.66699 99.5 -23s51.5 -36 69.5 -62s30.167 -55.333 36.5 -88s6.83301 -66.667 1.5 -102
c-6 -37.333 -18.167 -72.5 -36.5 -105.5s-41.166 -62.167 -68.499 -87.5s-58.166 -45.166 -92.499 -59.499s-70.833 -21.5 -109.5 -21.5c-38 0 -71.167 7.66699 -99.5 23s-51.333 35.833 -69 61.5s-29.667 54.834 -36 87.501s-6.83301 66.667 -1.5 102zM70.999 350.001
c-6.66699 -46.667 -5.16895 -91.5039 4.49805 -134.504s27.167 -81.333 52.5 -115s57.333 -60.5 96 -80.5s83.334 -30 134.001 -30c51.333 0 99.666 9.5 144.999 28.5s86 45 122 78s65.833 71.333 89.5 115s39.5 89.834 47.5 138.501c6.66699 47.333 5 92.5 -5 135.5
s-27.667 81.333 -53 115s-57.333 60.334 -96 80.001s-83 29.5 -133 29.5c-51.333 0 -99.666 -9.33301 -144.999 -28s-86.166 -44.667 -122.499 -78s-66.333 -71.666 -90 -114.999s-39.167 -89.666 -46.5 -138.999zM317.997 770.997l341 -1l13 75h-341z" />
    <glyph glyph-name="omacron" unicode="&#x14d;" horiz-adv-x="530" 
d="M45 230c-6 -42 -1.83203 -81.167 12.501 -117.5s37 -65.666 68 -87.999s68.833 -33.5 113.5 -33.5c45.333 0 87.166 10.833 125.499 32.5s70.333 50.5 96 86.5s41.834 76 48.501 120c6.66699 42.667 2.83398 82.167 -11.499 118.5s-37.166 65.666 -68.499 87.999
s-69.333 33.5 -114 33.5s-86.334 -10.833 -125.001 -32.5s-70.834 -50.667 -96.501 -87s-41.834 -76.5 -48.501 -120.5zM125.001 230c5.33301 30 16.667 57.5 34 82.5s39 45 65 60s54 22.5 84 22.5c30.667 0 55.667 -8 75 -24s33 -36.333 41 -61s9.66699 -51.334 5 -80.001
c-4.66699 -29.333 -15.667 -56.666 -33 -81.999s-39 -45.333 -65 -60s-54.333 -22 -85 -22c-30 0 -54.667 7.83301 -74 23.5s-33 36 -41 61s-10 51.5 -6 79.5zM159.002 531l341 -1l13 75h-342z" />
    <glyph glyph-name="Obreve" unicode="&#x14e;" horiz-adv-x="767" 
d="M160 350c6 37.333 17.999 72.667 35.999 106s40.667 62.666 68 87.999s58.166 45.166 92.499 59.499s70.833 21.5 109.5 21.5c38 0 71.167 -7.66699 99.5 -23s51.5 -36 69.5 -62s30.167 -55.333 36.5 -88s6.83301 -66.667 1.5 -102
c-6 -37.333 -18.167 -72.5 -36.5 -105.5s-41.166 -62.167 -68.499 -87.5s-58.166 -45.166 -92.499 -59.499s-70.833 -21.5 -109.5 -21.5c-38 0 -71.167 7.66699 -99.5 23s-51.333 35.833 -69 61.5s-29.667 54.834 -36 87.501s-6.83301 66.667 -1.5 102zM70.999 350.001
c-6.66699 -46.667 -5.16895 -91.5039 4.49805 -134.504s27.167 -81.333 52.5 -115s57.333 -60.5 96 -80.5s83.334 -30 134.001 -30c51.333 0 99.666 9.5 144.999 28.5s86 45 122 78s65.833 71.333 89.5 115s39.5 89.834 47.5 138.501c6.66699 47.333 5 92.5 -5 135.5
s-27.667 81.333 -53 115s-57.333 60.334 -96 80.001s-83 29.5 -133 29.5c-51.333 0 -99.666 -9.33301 -144.999 -28s-86.166 -44.667 -122.499 -78s-66.333 -71.666 -90 -114.999s-39.167 -89.666 -46.5 -138.999zM357.997 909.997c-2 -24 1.49512 -46.667 10.4951 -68
s23.5 -38.5 43.5 -51.5s46 -19.5 78 -19.5c32.667 0 60.834 6.5 84.501 19.5s43.334 30 59.001 51s26.5 43.5 32.5 67.5l-71 1c-4 -10.667 -9.83301 -21.834 -17.5 -33.501s-18 -21.334 -31 -29.001s-29.833 -11.5 -50.5 -11.5c-19.333 0 -34.166 3.83301 -44.499 11.5
s-17.166 17.334 -20.499 29.001s-4.66602 22.834 -3.99902 33.501h-69z" />
    <glyph glyph-name="obreve" unicode="&#x14f;" horiz-adv-x="530" 
d="M45 230c-6 -42 -1.83203 -81.167 12.501 -117.5s37 -65.666 68 -87.999s68.833 -33.5 113.5 -33.5c45.333 0 87.166 10.833 125.499 32.5s70.333 50.5 96 86.5s41.834 76 48.501 120c6.66699 42.667 2.83398 82.167 -11.499 118.5s-37.166 65.666 -68.499 87.999
s-69.333 33.5 -114 33.5s-86.334 -10.833 -125.001 -32.5s-70.834 -50.667 -96.501 -87s-41.834 -76.5 -48.501 -120.5zM125.001 230c5.33301 30 16.667 57.5 34 82.5s39 45 65 60s54 22.5 84 22.5c30.667 0 55.667 -8 75 -24s33 -36.333 41 -61s9.66699 -51.334 5 -80.001
c-4.66699 -29.333 -15.667 -56.666 -33 -81.999s-39 -45.333 -65 -60s-54.333 -22 -85 -22c-30 0 -54.667 7.83301 -74 23.5s-33 36 -41 61s-10 51.5 -6 79.5zM198.002 670c-1.33301 -24 2.33105 -46.667 10.998 -68s23.167 -38.5 43.5 -51.5s46.5 -19.5 78.5 -19.5
c32.667 0 60.834 6.5 84.501 19.5s43.167 30 58.5 51s26 43.5 32 67.5l-70 1c-4.66699 -10.667 -10.834 -21.834 -18.501 -33.501s-18 -21.334 -31 -29.001s-29.5 -11.5 -49.5 -11.5c-19.333 0 -34.166 3.83301 -44.499 11.5s-17.166 17.334 -20.499 29.001
s-5 22.834 -5 33.501h-69z" />
    <glyph glyph-name="Ohungarumlaut" unicode="&#x150;" horiz-adv-x="767" 
d="M402 771l159 191l-85 22l-129 -194zM566 771l161 191l-87 22l-128 -194zM160 350c6 37.333 17.999 72.667 35.999 106s40.667 62.666 68 87.999s58.166 45.166 92.499 59.499s70.833 21.5 109.5 21.5c38 0 71.167 -7.66699 99.5 -23s51.5 -36 69.5 -62
s30.167 -55.333 36.5 -88s6.83301 -66.667 1.5 -102c-6 -37.333 -18.167 -72.5 -36.5 -105.5s-41.166 -62.167 -68.499 -87.5s-58.166 -45.166 -92.499 -59.499s-70.833 -21.5 -109.5 -21.5c-38 0 -71.167 7.66699 -99.5 23s-51.333 35.833 -69 61.5
s-29.667 54.834 -36 87.501s-6.83301 66.667 -1.5 102zM70.999 350.001c-6.66699 -46.667 -5.16504 -91.5039 4.50195 -134.504s27.167 -81.333 52.5 -115s57.333 -60.5 96 -80.5s83.334 -30 134.001 -30c51.333 0 99.666 9.5 144.999 28.5s86 45 122 78
s65.833 71.333 89.5 115s39.5 89.834 47.5 138.501c6.66699 47.333 5 92.5 -5 135.5s-27.667 81.333 -53 115s-57.333 60.334 -96 80.001s-83.334 29.5 -134.001 29.5s-98.834 -9.33301 -144.501 -28s-86.5 -44.667 -122.5 -78s-65.833 -71.666 -89.5 -114.999
s-39.167 -89.666 -46.5 -138.999z" />
    <glyph glyph-name="ohungarumlaut" unicode="&#x151;" horiz-adv-x="530" 
d="M246 530l159 191l-85 22l-129 -194zM410 530l161 191l-87 22l-128 -194zM52 230c-5.33301 -42.667 -0.667969 -82.166 13.999 -118.499s37.834 -65.5 69.501 -87.5s69.5 -33 113.5 -33c45.333 0 87 10.833 125 32.5s69.5 50.5 94.5 86.5s40.5 76 46.5 120
c6 42.667 1.5 82.167 -13.5 118.5s-38.167 65.666 -69.5 87.999s-69.333 33.5 -114 33.5s-86.167 -10.833 -124.5 -32.5s-70 -50.5 -95 -86.5s-40.5 -76.333 -46.5 -121zM130.998 230.001c4.66699 30 15.502 57.5 32.502 82.5s38.333 45 64 60s53.5 22.5 83.5 22.5
s55 -8 75 -24s34.333 -36.333 43 -61s11 -51.334 7 -80.001c-4.66699 -29.333 -15.5 -56.666 -32.5 -81.999s-38.333 -45.333 -64 -60s-53.834 -22 -84.501 -22c-30 0 -54.833 7.83301 -74.5 23.5s-33.834 36 -42.501 61s-11 51.5 -7 79.5z" />
    <glyph glyph-name="OE" unicode="&#x152;" horiz-adv-x="956" 
d="M577 341l324 -1l14 80h-325zM586 670l-108 -639l82 -1l111 640h-85zM875 80l-336.002 -0.00195312h-23h-154c-38.667 1.33301 -72.167 9.16602 -100.5 23.499s-51.5 33.833 -69.5 58.5s-30.167 53 -36.5 85s-6.5 66.333 -0.5 103
c6.66699 38.667 18.834 74.334 36.501 107.001s39.834 61 66.501 85s57.167 42.833 91.5 56.5s71.5 20.834 111.5 21.501h156h16h334l15 80h-514c-50.667 -0.666992 -98.5 -9.83398 -143.5 -27.501s-85 -42.167 -120 -73.5s-64 -68.166 -87 -110.499
s-38.5 -88.5 -46.5 -138.5c-7.33301 -48 -6 -93 4 -135s27.5 -78.833 52.5 -110.5s56.667 -56.667 95 -75s82.5 -28.166 132.5 -29.499h507z" />
    <glyph glyph-name="oe" unicode="&#x153;" horiz-adv-x="873" 
d="M773 250l-4.00391 -19.001l80 -20c1.33301 4 2.16602 7.83301 2.49902 11.5s0.833008 7.5 1.5 11.5c5.33301 41.333 2.33301 79.833 -9 115.5s-30 64.667 -56 87s-59 33.5 -99 33.5c-39.333 0.666992 -75.666 -7.5 -108.999 -24.5s-62 -40 -86 -69
s-41.667 -61.5 -53 -97.5c-2.66699 -8 -5 -16 -7 -24s-3.66699 -16.333 -5 -25c-5.33301 -40.667 -2.16602 -79.167 9.50098 -115.5s31.334 -65.833 59.001 -88.5s62.834 -34.334 105.501 -35.001c32 0 61.167 5 87.5 15s50.666 23.833 72.999 41.5s42.5 37.167 60.5 58.5
l-59 42c-19.333 -22.667 -41.666 -42.167 -66.999 -58.5s-54.666 -24.166 -87.999 -23.499c-30.667 0.666992 -54.834 8.33398 -72.501 23.001s-29.5 34.5 -35.5 59.5s-7 52.167 -3 81.5l7 30c6 26.667 16.833 50.5 32.5 71.5s35.167 37.833 58.5 50.5
s48.666 18.667 75.999 18c29.333 -0.666992 51.833 -8.16699 67.5 -22.5s25.834 -32.833 30.501 -55.5s5.33398 -46.667 2.00098 -72zM475.996 210.999l372 -1l-9 68h-353zM44.9961 229.999c-6 -43.333 -2.33398 -83.166 10.999 -119.499s34.833 -65.333 64.5 -87
s66.167 -32.5 109.5 -32.5s81.5 10.667 114.5 32s60 50.166 81 86.499s34.5 76.5 40.5 120.5c5.33301 42.667 3.5 82.167 -5.5 118.5s-26.167 65.666 -51.5 87.999s-59.666 33.5 -102.999 33.5s-83.5 -10.5 -120.5 -31.5s-68 -49.667 -93 -86
s-40.833 -77.166 -47.5 -122.499zM124.995 229.999c5.33301 31.333 16.834 59.6719 34.501 85.0049s39.5 45.166 65.5 59.499s53.667 21.166 83 20.499c26.667 -0.666992 48.167 -8.83398 64.5 -24.501s27.666 -35.834 33.999 -60.501s7.5 -51.334 3.5 -80.001
c-4.66699 -30 -15 -57.5 -31 -82.5s-35.5 -44.833 -58.5 -59.5s-47.833 -22 -74.5 -22c-29.333 0 -53.833 7.5 -73.5 22.5s-33.5 35 -41.5 60s-10 52.167 -6 81.5z" />
    <glyph glyph-name="Racute" unicode="&#x154;" horiz-adv-x="543" 
d="M231 345l176 -345h99l-184 345h-91zM169 700l-118 -700h82l121 700h-85zM202 625h143c28 -0.666992 51.833 -6.66699 71.5 -18s34.167 -26.833 43.5 -46.5s11.666 -43.167 6.99902 -70.5s-15.334 -51 -32.001 -71s-37.167 -35.333 -61.5 -46s-51.166 -16.667 -80.499 -18
h-137l-13 -75h143c44 1.33301 84.833 10.5 122.5 27.5s69.167 41.167 94.5 72.5s41.333 68 48 110c6.66699 41.333 1.83398 77.666 -14.499 108.999s-40.5 55.833 -72.5 73.5s-69.333 26.834 -112 27.501h-137zM524 918l-69 42l-172 -158l42 -31z" />
    <glyph glyph-name="racute" unicode="&#x155;" horiz-adv-x="333" 
d="M203 460h-79l-80 -460h80zM324 373l52.999 64.0049c-12 11.333 -24.5 19.666 -37.5 24.999s-27.5 8 -43.5 8c-26.667 0 -51.167 -9.33301 -73.5 -28s-41 -42.334 -56 -71.001s-25.5 -58.667 -31.5 -90h37c4 19.333 9.5 37.666 16.5 54.999s17 31.666 30 42.999
s29.5 16.666 49.5 15.999c11.333 0 21.333 -2 30 -6s17.334 -9.33301 26.001 -16zM415.999 678.005l-68 42l-171 -158l40 -31z" />
    <glyph glyph-name="uni0156" unicode="&#x156;" horiz-adv-x="543" 
d="M231 345l176 -345h99l-184 345h-91zM169 700l-118 -700h82l121 700h-85zM202 625h143c28 -0.666992 51.833 -6.66699 71.5 -18s34.167 -26.833 43.5 -46.5s11.666 -43.167 6.99902 -70.5s-15.334 -51 -32.001 -71s-37.167 -35.333 -61.5 -46s-51.166 -16.667 -80.499 -18
h-137l-13 -75h143c44 1.33301 84.833 10.5 122.5 27.5s69.167 41.167 94.5 72.5s41.333 68 48 110c6.66699 41.333 1.83398 77.666 -14.499 108.999s-40.5 55.833 -72.5 73.5s-69.333 26.834 -112 27.501h-137zM270 -61l-128 -257l55 -21l150 247z" />
    <glyph glyph-name="uni0157" unicode="&#x157;" horiz-adv-x="333" 
d="M203 460h-79l-80 -460h80zM324 373l52.999 64.0049c-12 11.333 -24.5 19.666 -37.5 24.999s-27.5 8 -43.5 8c-26.667 0 -51.167 -9.33301 -73.5 -28s-41 -42.334 -56 -71.001s-25.5 -58.667 -31.5 -90h37c4 19.333 9.5 37.666 16.5 54.999s17 31.666 30 42.999
s29.5 16.666 49.5 15.999c11.333 0 21.333 -2 30 -6s17.334 -9.33301 26.001 -16zM75.999 -60.9951l-128 -257l55 -21l150 247z" />
    <glyph glyph-name="Rcaron" unicode="&#x158;" horiz-adv-x="543" 
d="M231 345l176 -345h99l-184 345h-91zM169 700l-118 -700h82l121 700h-85zM202 625h143c28 -0.666992 51.833 -6.66699 71.5 -18s34.167 -26.833 43.5 -46.5s11.666 -43.167 6.99902 -70.5s-15.334 -51 -32.001 -71s-37.167 -35.333 -61.5 -46s-51.166 -16.667 -80.499 -18
h-137l-13 -75h143c44 1.33301 84.833 10.5 122.5 27.5s69.167 41.167 94.5 72.5s41.333 68 48 110c6.66699 41.333 1.83398 77.666 -14.499 108.999s-40.5 55.833 -72.5 73.5s-69.333 26.834 -112 27.501h-137zM364 856l-90 94l-54 -39l134 -141l178 139l-44 41z" />
    <glyph glyph-name="rcaron" unicode="&#x159;" horiz-adv-x="333" 
d="M203 460h-79l-80 -460h80zM324 373l52.999 64.0049c-12 11.333 -24.5 19.666 -37.5 24.999s-27.5 8 -43.5 8c-26.667 0 -51.167 -9.33301 -73.5 -28s-41 -42.334 -56 -71.001s-25.5 -58.667 -31.5 -90h37c4 19.333 9.5 37.666 16.5 54.999s17 31.666 30 42.999
s29.5 16.666 49.5 15.999c11.333 0 21.333 -2 30 -6s17.334 -9.33301 26.001 -16zM274.999 616.005l-90 94l-54 -39l134 -141l178 139l-44 41z" />
    <glyph glyph-name="Sacute" unicode="&#x15a;" horiz-adv-x="532" 
d="M119 226l-76.0078 -42c9.33301 -36 23.333 -68.5 42 -97.5s42.334 -52.167 71.001 -69.5s62 -26 100 -26c43.333 0 81.833 8.33301 115.5 25s61.334 40.167 83.001 70.5s35.167 64.833 40.5 103.5c4.66699 37.333 0.5 69.166 -12.5 95.499s-31 48.5 -54 66.5
s-47.5 32.667 -73.5 44c-17.333 7.33301 -34.5 15.166 -51.5 23.499s-32.167 17.666 -45.5 27.999s-23.333 22.166 -30 35.499s-8.33398 28.666 -5.00098 45.999c3.33301 20 11.333 37.5 24 52.5s28.334 26.667 47.001 35s38.667 12.5 60 12.5c24 0 43.667 -5.66699 59 -17
s27.833 -25.666 37.5 -42.999s17.834 -35.666 24.501 -54.999l74 45c-7.33301 26 -19.166 50.5 -35.499 73.5s-37.166 41.667 -62.499 56s-55.333 21.5 -90 21.5c-36 0 -70.167 -7.33301 -102.5 -22s-59.5 -35 -81.5 -61s-35.667 -56.333 -41 -91
c-4.66699 -35.333 -0.333984 -65.666 12.999 -90.999s31.833 -46.666 55.5 -63.999s47.834 -31.666 72.501 -42.999c24 -10 46.833 -21.5 68.5 -34.5s38.667 -29.167 51 -48.5s15.833 -43.333 10.5 -72c-4 -22 -12.167 -41.5 -24.5 -58.5s-28.166 -30.167 -47.499 -39.5
s-41.666 -14 -66.999 -14c-22 0 -41 4.16699 -57 12.5s-29.667 19.666 -41 33.999s-21.166 30.833 -29.499 49.5s-15.5 38.334 -21.5 59.001zM574.992 918l-68 42l-172 -158l41 -31z" />
    <glyph glyph-name="sacute" unicode="&#x15b;" horiz-adv-x="391" 
d="M88 161l-69.9971 -36.999c3.33301 -25.333 12 -48.166 26 -68.499s32.167 -36.166 54.5 -47.499s47.166 -17 74.499 -17c31.333 0 60.333 5 87 15s48.834 25.5 66.501 46.5s28.167 46.833 31.5 77.5c3.33301 22 0.333008 41.5 -9 58.5s-22.333 32 -39 45
s-34.667 23.833 -54 32.5l-43.5 19.5c-15.667 7 -28.5 15.167 -38.5 24.5s-14 20.666 -12 33.999c2.66699 17.333 12 30 28 38s33 12 51 12c18.667 0 35.5 -5.33301 50.5 -16s27.5 -23.334 37.5 -38.001l68 39c-9.33301 28 -27.833 50.167 -55.5 66.5
s-58.834 24.5 -93.501 24.5c-24 0 -48 -5 -72 -15s-44.333 -23.833 -61 -41.5s-27 -38.834 -31 -63.501c-3.33301 -24 0.166992 -44.5 10.5 -61.5s24.333 -31.167 42 -42.5s36.167 -21.666 55.5 -30.999c11.333 -4.66699 22.333 -9.83398 33 -15.501s20.167 -12 28.5 -19
s14.5 -15.167 18.5 -24.5s5 -20 3 -32c-2 -12.667 -7.5 -23.5 -16.5 -32.5s-19.833 -15.5 -32.5 -19.5s-26.334 -6 -41.001 -6c-18.667 0 -34.834 4.16699 -48.501 12.5s-24.5 19.833 -32.5 34.5s-13.333 30.667 -16 48zM462.003 678.001l-69 42l-172 -158l42 -31z" />
    <glyph glyph-name="Scircumflex" unicode="&#x15c;" horiz-adv-x="532" 
d="M119 226l-76.0059 -42c9.33301 -36 23.333 -68.5 42 -97.5s42.334 -52.167 71.001 -69.5s62 -26 100 -26c43.333 0 81.833 8.33301 115.5 25s61.167 40.167 82.5 70.5s34.666 64.833 39.999 103.5c5.33301 37.333 1.5 69.166 -11.5 95.499s-31 48.5 -54 66.5
s-47.5 32.667 -73.5 44c-17.333 7.33301 -34.5 15.166 -51.5 23.499s-32.167 17.666 -45.5 27.999s-23.333 22.166 -30 35.499s-8.33398 28.666 -5.00098 45.999c3.33301 20 11.333 37.5 24 52.5s28.334 26.667 47.001 35s38.667 12.5 60 12.5c24 0 43.667 -5.66699 59 -17
s27.833 -25.666 37.5 -42.999s17.834 -35.666 24.501 -54.999l74 45c-7.33301 26 -19.166 50.5 -35.499 73.5s-37.166 41.667 -62.499 56s-55.333 21.5 -90 21.5c-36 0 -70.167 -7.33301 -102.5 -22s-59.5 -35 -81.5 -61s-35.667 -56.333 -41 -91
c-4.66699 -35.333 -0.333984 -65.666 12.999 -90.999s31.833 -46.666 55.5 -63.999s47.834 -31.666 72.501 -42.999c24 -10 46.833 -21.5 68.5 -34.5s38.667 -29.167 51 -48.5s15.833 -43.333 10.5 -72c-4 -22 -12.167 -41.5 -24.5 -58.5s-28.166 -30.167 -47.499 -39.5
s-41.666 -14 -66.999 -14c-22 0 -41 4.16699 -57 12.5s-29.667 19.666 -41 33.999s-21.166 30.833 -29.499 49.5s-15.5 38.334 -21.5 59.001zM392.994 865l91 -94l53 38l-134 141l-178 -138l44 -41z" />
    <glyph glyph-name="scircumflex" unicode="&#x15d;" horiz-adv-x="391" 
d="M88 161l-69.9971 -36.999c3.33301 -25.333 12 -48.166 26 -68.499s32.167 -36.166 54.5 -47.499s47.166 -17 74.499 -17c31.333 0 60.333 5 87 15s48.834 25.5 66.501 46.5s28.167 46.833 31.5 77.5c3.33301 22 0.333008 41.5 -9 58.5s-22.333 32 -39 45
s-34.667 23.833 -54 32.5l-43.5 19.5c-15.667 7 -28.5 15.167 -38.5 24.5s-14 20.666 -12 33.999c2.66699 17.333 12 30 28 38s33 12 51 12c18.667 0 35.5 -5.33301 50.5 -16s27.5 -23.334 37.5 -38.001l68 39c-9.33301 28 -27.833 50.167 -55.5 66.5
s-58.834 24.5 -93.501 24.5c-24 0 -48 -5 -72 -15s-44.333 -23.833 -61 -41.5s-27 -38.834 -31 -63.501c-3.33301 -24 0.166992 -44.5 10.5 -61.5s24.333 -31.167 42 -42.5s36.167 -21.666 55.5 -30.999c11.333 -4.66699 22.333 -9.83398 33 -15.501s20.167 -12 28.5 -19
s14.5 -15.167 18.5 -24.5s5 -20 3 -32c-2 -12.667 -7.33301 -23.5 -16 -32.5s-19.334 -15.5 -32.001 -19.5s-26.334 -6 -41.001 -6c-18.667 0 -35 4.16699 -49 12.5s-25 19.833 -33 34.5s-13.333 30.667 -16 48zM279.003 625.001l91 -94l53 38l-134 141l-178 -138l45 -41z
" />
    <glyph glyph-name="Scedilla" unicode="&#x15e;" horiz-adv-x="532" 
d="M119 226l-75.998 -41.9971c9.33301 -36 23.333 -68.5 42 -97.5s42.334 -52.167 71.001 -69.5s62 -26 100 -26c41.333 0 79 8.5 113 25.5s62.167 40.5 84.5 70.5s36.166 64.333 41.499 103c4.66699 37.333 0.5 69.166 -12.5 95.499s-31 48.5 -54 66.5
s-47.5 32.667 -73.5 44c-17.333 7.33301 -34.5 15.166 -51.5 23.499s-32.167 17.5 -45.5 27.5s-23.333 21.667 -30 35s-8.33398 29 -5.00098 47c3.33301 20 10.5 37.5 21.5 52.5s25 26.667 42 35s36.167 12.5 57.5 12.5c24 0 44.5 -5.66699 61.5 -17
s31.167 -25.5 42.5 -42.5s20.333 -35.167 27 -54.5l74 44c-9.33301 28 -22 53.333 -38 76s-36.333 40.834 -61 54.501s-54.334 20.5 -89.001 20.5c-38.667 0 -74 -7.66699 -106 -23s-58.5 -36.333 -79.5 -63s-34.167 -57.667 -39.5 -93
c-4.66699 -37.333 -0.333984 -68.333 12.999 -93s31.666 -44.834 54.999 -60.501s47.666 -28.834 72.999 -39.501c24 -10 46.833 -21.5 68.5 -34.5s38.667 -29.167 51 -48.5s15.833 -43.333 10.5 -72c-4 -22 -12.167 -41.5 -24.5 -58.5s-28.166 -30.167 -47.499 -39.5
s-41.666 -14 -66.999 -14c-22 0 -41 4.16699 -57 12.5s-29.667 19.666 -41 33.999s-21.166 30.833 -29.499 49.5s-15.5 38.334 -21.5 59.001zM273.002 58.0029l-111.003 -166.001c10 5.33301 20.833 9.66602 32.5 12.999s21.167 4.66602 28.5 3.99902
c8.66699 0 16.334 -1.33301 23.001 -4s11.667 -6.66699 15 -12s4.33301 -11.666 3 -18.999c-0.666992 -7.33301 -3.83398 -14.166 -9.50098 -20.499s-12.667 -11.333 -21 -15s-17.166 -5.5 -26.499 -5.5c-11.333 0 -20.666 2.33301 -27.999 7s-15 10.334 -23 17.001l-38 -38
c12.667 -12.667 25.334 -22.334 38.001 -29.001s27.667 -10 45 -10c18 0 35.667 3.83301 53 11.5s32 18.334 44 32.001s19 29.834 21 48.501c2.66699 22 -2.33301 39.667 -15 53s-27.667 20.666 -45 21.999h-3.5h-3.5l81 111h-60z" />
    <glyph glyph-name="scedilla" unicode="&#x15f;" horiz-adv-x="391" 
d="M85 163l-66.9951 -38.001c8.66699 -24.667 20.5 -47 35.5 -67s33.5 -36 55.5 -48s46.667 -18 74 -18c29.333 0 56.5 5.16699 81.5 15.5s45.833 26 62.5 47s27 46.5 31 76.5c3.33301 24 0.666016 44.667 -8.00098 62s-21.334 32.5 -38.001 45.5
s-35.334 23.833 -56.001 32.5c-13.333 6 -27.833 12.167 -43.5 18.5s-28.834 14.333 -39.501 24s-14.667 21.834 -12 36.501c3.33301 17.333 13.166 29.666 29.499 36.999s33.166 11 50.499 11c18.667 -0.666992 35.667 -6.5 51 -17.5s27.666 -24.167 36.999 -39.5l68 39
c-13.333 27.333 -32.833 49.333 -58.5 66s-55.834 25 -90.501 25c-24.667 0 -49 -4.66699 -73 -14s-44.167 -23.166 -60.5 -41.499s-26.5 -40.833 -30.5 -67.5c-3.33301 -26 -0.166016 -47.333 9.50098 -64s23.5 -30.5 41.5 -41.5s37 -21.167 57 -30.5
c14.667 -6 29 -13 43 -21s25 -17.333 33 -28s10.333 -24 7 -40c-2 -12 -7.16699 -22.333 -15.5 -31s-18.5 -15 -30.5 -19s-24.667 -6 -38 -6c-16 0.666992 -30.667 5.5 -44 14.5s-25.166 20.667 -35.499 35s-19.166 29.833 -26.499 46.5zM199.005 58.999l-108.999 -165.999
c10 5.33301 20.5 9.66602 31.5 12.999s20.167 4.66602 27.5 3.99902c8.66699 0 16.334 -1.33301 23.001 -4s11.667 -6.66699 15 -12s4.33301 -11.666 3 -18.999c-0.666992 -7.33301 -3.83398 -14.166 -9.50098 -20.499s-12.667 -11.333 -21 -15s-17.166 -5.5 -26.499 -5.5
c-10.667 0 -19.667 2.33301 -27 7s-15 10.334 -23 17.001l-37 -38c12.667 -12.667 25.167 -22.334 37.5 -29.001s27.166 -10 44.499 -10c18 0 35.667 3.66699 53 11s32.166 18 44.499 32s19.5 30.333 21.5 49c2.66699 22 -2.5 39.667 -15.5 53s-28.5 20.666 -46.5 21.999
h-2.5h-3.5l83 111h-63z" />
    <glyph glyph-name="Scaron" unicode="&#x160;" horiz-adv-x="532" 
d="M119 226l-76.0059 -42c9.33301 -36 23.333 -68.5 42 -97.5s42.334 -52.167 71.001 -69.5s62 -26 100 -26c43.333 0 81.833 8.33301 115.5 25s61.167 40.167 82.5 70.5s34.666 64.833 39.999 103.5c5.33301 37.333 1.5 69.166 -11.5 95.499s-31 48.5 -54 66.5
s-47.5 32.667 -73.5 44c-17.333 7.33301 -34.5 15.166 -51.5 23.499s-32.167 17.666 -45.5 27.999s-23.333 22.166 -30 35.499s-8.33398 28.666 -5.00098 45.999c3.33301 20 11.333 37.5 24 52.5s28.334 26.667 47.001 35s38.667 12.5 60 12.5c24 0 43.667 -5.66699 59 -17
s27.833 -25.666 37.5 -42.999s17.834 -35.666 24.501 -54.999l74 45c-7.33301 26 -19.166 50.5 -35.499 73.5s-37.166 41.667 -62.499 56s-55.333 21.5 -90 21.5c-36 0 -70.167 -7.33301 -102.5 -22s-59.5 -35 -81.5 -61s-35.667 -56.333 -41 -91
c-4.66699 -35.333 -0.333984 -65.666 12.999 -90.999s31.833 -46.666 55.5 -63.999s47.834 -31.666 72.501 -42.999c24 -10 46.833 -21.5 68.5 -34.5s38.667 -29.167 51 -48.5s15.833 -43.333 10.5 -72c-4 -22 -12.167 -41.5 -24.5 -58.5s-28.166 -30.167 -47.499 -39.5
s-41.666 -14 -66.999 -14c-22 0 -41 4.16699 -57 12.5s-29.667 19.666 -41 33.999s-21.166 30.833 -29.499 49.5s-15.5 38.334 -21.5 59.001zM385.994 856l-90 94l-54 -39l134 -141l178 139l-44 41z" />
    <glyph glyph-name="scaron" unicode="&#x161;" horiz-adv-x="391" 
d="M88 161l-69.9971 -36.999c3.33301 -25.333 12 -48.166 26 -68.499s32.167 -36.166 54.5 -47.499s47.166 -17 74.499 -17c31.333 0 60.333 5 87 15s48.834 25.5 66.501 46.5s28.167 46.833 31.5 77.5c3.33301 22 0.333008 41.5 -9 58.5s-22.333 32 -39 45
s-34.667 23.833 -54 32.5l-43.5 19.5c-15.667 7 -28.5 15.167 -38.5 24.5s-14 20.666 -12 33.999c2.66699 17.333 12 30 28 38s33 12 51 12c18.667 0 35.5 -5.33301 50.5 -16s27.5 -23.334 37.5 -38.001l68 39c-9.33301 28 -27.833 50.167 -55.5 66.5
s-58.834 24.5 -93.501 24.5c-24 0 -48 -5 -72 -15s-44.333 -23.833 -61 -41.5s-27 -38.834 -31 -63.501c-3.33301 -24 0.166992 -44.5 10.5 -61.5s24.333 -31.167 42 -42.5s36.167 -21.666 55.5 -30.999c11.333 -4.66699 22.333 -9.83398 33 -15.501s20.167 -12 28.5 -19
s14.5 -15.167 18.5 -24.5s5 -20 3 -32c-2 -12.667 -7.33301 -23.5 -16 -32.5s-19.334 -15.5 -32.001 -19.5s-26.334 -6 -41.001 -6c-18.667 0 -35 4.16699 -49 12.5s-25 19.833 -33 34.5s-13.333 30.667 -16 48zM272.003 616.001l-90 94l-54 -39l134 -141l179 139l-45 41z
" />
    <glyph glyph-name="uni0162" unicode="&#x162;" horiz-adv-x="451" 
d="M170 9l-110 -165.999c10 5.33301 20.667 9.66602 32 12.999s20.666 4.66602 27.999 3.99902c8.66699 0 16.334 -1.33301 23.001 -4s11.667 -6.66699 15 -12s4.33301 -11.666 3 -18.999c-0.666992 -7.33301 -3.83398 -14.166 -9.50098 -20.499s-12.667 -11.333 -21 -15
s-17.166 -5.5 -26.499 -5.5c-11.333 0 -20.5 2.33301 -27.5 7s-14.5 10.334 -22.5 17.001l-38 -38c12.667 -12.667 25.167 -22.334 37.5 -29.001s27.5 -10 45.5 -10s35.667 3.66699 53 11s32 18 44 32s19 30.333 21 49c2.66699 22 -2.33301 39.667 -15 53
s-28 20.666 -46 21.999h-3h-4l82 111h-61zM87 620.001h176l-107 -620h84l107 620h174l14 80h-433z" />
    <glyph glyph-name="uni0163" unicode="&#x163;" horiz-adv-x="233" 
d="M61 9l-110 -165.999c10 5.33301 20.667 9.66602 32 12.999s20.666 4.66602 27.999 3.99902c8.66699 0 16.334 -1.33301 23.001 -4s11.667 -6.66699 15 -12s4.33301 -11.666 3 -18.999c-0.666992 -7.33301 -3.83398 -14.166 -9.50098 -20.499s-12.667 -11.333 -21 -15
s-17.166 -5.5 -26.499 -5.5c-11.333 0 -20.5 2.33301 -27.5 7s-14.5 10.334 -22.5 17.001l-38 -38c12.667 -12.667 25.167 -22.334 37.5 -29.001s27.5 -10 45.5 -10s35.667 3.66699 53 11s32 18 44 32s19 30.333 21 49c2.66699 22 -2.33301 39.667 -15 53
s-28 20.666 -46 21.999h-3h-4l82 111h-61zM58 460.001l-14 -75h225l13 75h-224zM155 620.001l-104 -620h77l108 620h-81z" />
    <glyph glyph-name="Tcaron" unicode="&#x164;" horiz-adv-x="451" 
d="M87 620h176l-107 -620h84l107 620h174l14 80h-433zM342 856l-91 94l-53 -39l134 -141l178 139l-44 41z" />
    <glyph glyph-name="tcaron" unicode="&#x165;" horiz-adv-x="340" 
d="M56 460l-14 -75h225l14 75h-225zM155 620l-104 -620h77l108 620h-81zM396 809l-129 -257l55 -21l150 247z" />
    <glyph glyph-name="Tbar" unicode="&#x166;" horiz-adv-x="465" 
d="M111 381h309l20 74h-309zM87 620h176l-107 -620h84l107 620h174l14 80h-433z" />
    <glyph glyph-name="tbar" unicode="&#x167;" horiz-adv-x="240" 
d="M27 206h196l13 74h-196zM58 460l-14 -75h225l13 75h-224zM155 620l-104 -620h77l108 620h-81z" />
    <glyph glyph-name="Utilde" unicode="&#x168;" horiz-adv-x="608" 
d="M165 700l-80.9961 -470.004c-5.33301 -42.667 -1.33301 -82.167 12 -118.5s35.666 -65.5 66.999 -87.5s70.333 -33 117 -33c48 0 90.833 10.833 128.5 32.5s68.667 50.5 93 86.5s40.166 76 47.499 120l80 470h-85l-81 -470
c-5.33301 -29.333 -15.833 -56.166 -31.5 -80.499s-35.834 -43.666 -60.501 -57.999s-53.334 -21.166 -86.001 -20.499c-32 0.666992 -57.333 8.33398 -76 23.001s-31.167 34 -37.5 58s-7.5 50 -3.5 78l82 470h-85zM253.004 808.996l49 -38
c4.66699 9.33301 11.334 19.833 20.001 31.5s21.667 17.834 39 18.501c14 0.666992 26.333 -2.83301 37 -10.5l32.5 -23c11 -7.66699 24.167 -11.834 39.5 -12.501c16.667 -0.666992 32 2.5 46 9.5s26.667 16 38 27s20.666 22.167 27.999 33.5l-40 45
c-10 -12 -20.333 -22.667 -31 -32s-21.667 -14.333 -33 -15c-15.333 -0.666992 -28.166 2.83301 -38.499 10.5l-32 23.5c-11 8 -25.167 12 -42.5 12c-12 0 -26.833 -3.66699 -44.5 -11s-33.334 -17 -47.001 -29s-20.5 -25.333 -20.5 -40z" />
    <glyph glyph-name="utilde" unicode="&#x169;" horiz-adv-x="509" 
d="M330 0h81l79 460h-80zM154 180l47.998 279.997h-78l-50 -290c-4 -33.333 -2.16699 -63.666 5.5 -90.999s21.667 -48.833 42 -64.5s47.166 -23.5 80.499 -23.5s62.833 8.83301 88.5 26.5s47 40.834 64 69.501s28.5 59.334 34.5 92.001h-28
c-5.33301 -20 -14.166 -38.667 -26.499 -56s-27.666 -31.333 -45.999 -42s-39.166 -15.667 -62.499 -15c-22 0.666992 -38.5 6.16699 -49.5 16.5s-18 24 -21 41s-3.5 35.833 -1.5 56.5zM162.998 568.997l49.001 -38c4.66699 9.33301 11.167 19.833 19.5 31.5
s21.5 17.834 39.5 18.501c14 0.666992 26.167 -2.83301 36.5 -10.5l32.5 -23c11.333 -7.66699 24.666 -11.834 39.999 -12.501c16.667 -0.666992 32 2.5 46 9.5s26.667 16 38 27s20.666 22.167 27.999 33.5l-41 45c-9.33301 -12 -19.333 -22.667 -30 -32
s-21.667 -14.333 -33 -15c-15.333 -0.666992 -28.166 2.83301 -38.499 10.5l-32 23.5c-11 8 -25.167 12 -42.5 12c-16 0.666992 -31.333 -2.83301 -46 -10.5s-27.667 -17.5 -39 -29.5s-20.333 -25.333 -27 -40z" />
    <glyph glyph-name="Umacron" unicode="&#x16a;" horiz-adv-x="608" 
d="M165 700l-80.9961 -470.004c-5.33301 -42.667 -1.33301 -82.167 12 -118.5s35.666 -65.5 66.999 -87.5s70.333 -33 117 -33c48 0 90.833 10.833 128.5 32.5s68.667 50.5 93 86.5s40.166 76 47.499 120l80 470h-85l-81 -470
c-5.33301 -29.333 -15.833 -56.166 -31.5 -80.499s-35.834 -43.666 -60.501 -57.999s-53.334 -21.166 -86.001 -20.499c-32 0.666992 -57.333 8.33398 -76 23.001s-31.167 34 -37.5 58s-7.5 50 -3.5 78l82 470h-85zM239.004 770.996h342l12 74h-342z" />
    <glyph glyph-name="umacron" unicode="&#x16b;" horiz-adv-x="509" 
d="M330 0h81l79 460h-80zM154 180l47.998 279.997h-78l-50 -290c-4 -33.333 -2.16699 -63.666 5.5 -90.999s21.667 -48.833 42 -64.5s47.166 -23.5 80.499 -23.5s62.833 8.83301 88.5 26.5s47 40.834 64 69.501s28.5 59.334 34.5 92.001h-28
c-5.33301 -20 -14.166 -38.667 -26.499 -56s-27.666 -31.333 -45.999 -42s-39.166 -15.667 -62.499 -15c-22 0.666992 -38.5 6.16699 -49.5 16.5s-18 24 -21 41s-3.5 35.833 -1.5 56.5zM148.998 530.997h342l12 74h-342z" />
    <glyph glyph-name="Ubreve" unicode="&#x16c;" horiz-adv-x="608" 
d="M165 700l-80.9961 -470.004c-5.33301 -42.667 -1.33301 -82.167 12 -118.5s35.666 -65.5 66.999 -87.5s70.333 -33 117 -33c48 0 90.833 10.833 128.5 32.5s68.667 50.5 93 86.5s40.166 76 47.499 120l80 470h-85l-81 -470
c-5.33301 -29.333 -15.833 -56.166 -31.5 -80.499s-35.834 -43.666 -60.501 -57.999s-53.334 -21.166 -86.001 -20.499c-32 0.666992 -57.333 8.33398 -76 23.001s-31.167 34 -37.5 58s-7.5 50 -3.5 78l82 470h-85zM277.004 909.996
c-1.33301 -24.667 2.49902 -47.5 11.499 -68.5s23.833 -38 44.5 -51s47 -19.5 79 -19.5c32.667 0 60.834 6.5 84.501 19.5s43 30 58 51s25.5 43.5 31.5 67.5l-72 1c-4 -10.667 -10 -21.834 -18 -33.501s-18.333 -21.334 -31 -29.001s-29.334 -11.5 -50.001 -11.5
c-19.333 0 -34 3.83301 -44 11.5s-16.667 17.334 -20 29.001s-4.66602 22.834 -3.99902 33.501h-70z" />
    <glyph glyph-name="ubreve" unicode="&#x16d;" horiz-adv-x="509" 
d="M330 0h81l79 460h-80zM154 180l47.998 279.997h-78l-50 -290c-4 -33.333 -2.16699 -63.666 5.5 -90.999s21.667 -48.833 42 -64.5s47.166 -23.5 80.499 -23.5s62.833 8.83301 88.5 26.5s47 40.834 64 69.501s28.5 59.334 34.5 92.001h-28
c-5.33301 -20 -14.166 -38.667 -26.499 -56s-27.666 -31.333 -45.999 -42s-39.166 -15.667 -62.499 -15c-22 0.666992 -38.5 6.16699 -49.5 16.5s-18 24 -21 41s-3.5 35.833 -1.5 56.5zM186.998 669.997c-1.33301 -24.667 2.49609 -47.5 11.4961 -68.5s23.833 -38 44.5 -51
s47 -19.5 79 -19.5c32.667 0 60.834 6.5 84.501 19.5s43 30 58 51s25.5 43.5 31.5 67.5l-72 1c-4 -10.667 -10 -21.834 -18 -33.501s-18.5 -21.334 -31.5 -29.001s-29.5 -11.5 -49.5 -11.5c-19.333 0 -34.166 3.83301 -44.499 11.5s-17.166 17.334 -20.499 29.001
s-4.66602 22.834 -3.99902 33.501h-69z" />
    <glyph glyph-name="Uring" unicode="&#x16e;" horiz-adv-x="608" 
d="M165 700l-79.998 -470.002c-6 -42.667 -2.5 -82.167 10.5 -118.5s35 -65.5 66 -87.5s69.833 -33 116.5 -33c48 0 90.833 10.833 128.5 32.5s68.834 50.5 93.501 86.5s40.667 76 48 120l81 470h-84l-81 -470c-5.33301 -29.333 -15.833 -56.166 -31.5 -80.499
s-35.834 -43.5 -60.501 -57.5s-53.334 -21 -86.001 -21c-32 0.666992 -57.333 8.33398 -76 23.001s-31.334 34 -38.001 58s-8 50 -4 78l81 470h-84zM326.002 870.998c-2.66699 -18 -0.500977 -34.499 6.49902 -49.499s17.333 -27.167 31 -36.5s29.167 -14 46.5 -14
c18 0 35.333 4.33301 52 13s30.834 20.5 42.501 35.5s18.5 31.5 20.5 49.5c2.66699 18.667 0.5 35.5 -6.5 50.5s-17.333 27.167 -31 36.5s-29.5 14 -47.5 14c-17.333 0 -34.333 -4.5 -51 -13.5s-30.667 -20.833 -42 -35.5s-18.333 -31.334 -21 -50.001zM376.001 869.999
c1.33301 9.33301 5.16797 18.166 11.501 26.499s14 15 23 20s17.5 7.16699 25.5 6.5c12 -0.666992 21.833 -6.16699 29.5 -16.5s10.834 -22.166 9.50098 -35.499c-0.666992 -9.33301 -4.33398 -18.166 -11.001 -26.499s-14.5 -15 -23.5 -20s-17.5 -7.16699 -25.5 -6.5
c-12 0.666992 -21.833 6.16699 -29.5 16.5s-10.834 22.166 -9.50098 35.499z" />
    <glyph glyph-name="uring" unicode="&#x16f;" horiz-adv-x="509" 
d="M331 0h79l80 460h-80zM154 180l47.9971 279.998h-77l-51 -290c-4 -33.333 -2.33301 -63.5 5 -90.5s21 -48.5 41 -64.5s46.667 -24 80 -24c34 0 64 8.83301 90 26.5s47.5 40.834 64.5 69.501s28.5 59.334 34.5 92.001h-27c-5.33301 -20 -14.166 -38.667 -26.499 -56
s-27.666 -31.333 -45.999 -42s-39.166 -15.667 -62.499 -15c-22 0.666992 -38.667 6.16699 -50 16.5s-18.5 24 -21.5 41s-3.5 35.833 -1.5 56.5zM234.997 630.998c-2 -18 0.333984 -34.499 7.00098 -49.499s17 -27.167 31 -36.5s29.667 -14 47 -14
c18 0 35.167 4.33301 51.5 13s30.333 20.5 42 35.5s18.834 31.5 21.501 49.5c2.66699 18.667 0.5 35.5 -6.5 50.5s-17.333 27.167 -31 36.5s-29.5 14 -47.5 14c-17.333 0 -34.333 -4.5 -51 -13.5s-30.834 -20.833 -42.501 -35.5s-18.834 -31.334 -21.501 -50.001z
M284.998 629.999c1.33301 9.33301 5.16895 18.166 11.502 26.499s14.166 15 23.499 20s18 7.16699 26 6.5c12 -0.666992 21.833 -6.16699 29.5 -16.5s10.834 -22.166 9.50098 -35.499c-0.666992 -9.33301 -4.33398 -18.166 -11.001 -26.499s-14.5 -15 -23.5 -20
s-17.833 -7.16699 -26.5 -6.5c-12 0.666992 -21.833 6.16699 -29.5 16.5s-10.834 22.166 -9.50098 35.499z" />
    <glyph glyph-name="Uhungarumlaut" unicode="&#x170;" horiz-adv-x="608" 
d="M327 771l159 191l-85 22l-129 -194zM491 771l161 191l-87 22l-128 -194zM165 700l-79.9961 -469.999c-6.66699 -42.667 -3.33398 -82.167 9.99902 -118.5s35.666 -65.5 66.999 -87.5s70.333 -33 117 -33c53.333 0 98.666 10.667 135.999 32s67 50.166 89 86.499
s36.667 76.5 44 120.5l81 470h-84l-81 -470c-4.66699 -30 -14.167 -57 -28.5 -81s-33.833 -43 -58.5 -57s-55 -21 -91 -21c-32 0 -57.333 7.33301 -76 22s-31.334 34.167 -38.001 58.5s-8 50.5 -4 78.5l81 470h-84z" />
    <glyph glyph-name="uhungarumlaut" unicode="&#x171;" horiz-adv-x="509" 
d="M237 530l159 191l-85 22l-129 -194zM401 530l161 191l-87 22l-128 -194zM154 180l47.998 280.001h-77l-51 -290c-4.66699 -31.333 -3.33398 -60.666 3.99902 -87.999s21.166 -49.333 41.499 -66s47.166 -25 80.499 -25c30.667 0 57.834 7 81.501 21
s43.834 33.333 60.501 58l-11 -70h79l80 460h-80l-50 -284c-3.33301 -20.667 -11.166 -39.334 -23.499 -56.001s-27.833 -29.834 -46.5 -39.501s-39.667 -14.5 -63 -14.5c-22 0 -38.667 5.33301 -50 16s-18.666 24.667 -21.999 42s-3.66602 36 -0.999023 56z" />
    <glyph glyph-name="Uogonek" unicode="&#x172;" horiz-adv-x="608" 
d="M300 -133c-7.33301 -4.66699 -15.168 -9.16797 -23.501 -13.501s-18.166 -6.16602 -29.499 -5.49902c-13.333 1.33301 -23.166 6.16602 -29.499 14.499s-8.83301 19.833 -7.5 34.5c2 14.667 8.5 28.167 19.5 40.5s24.333 23.5 40 33.5s31.167 18.667 46.5 26l-38 25
c-22 -10.667 -43.833 -23 -65.5 -37s-40.334 -29.833 -56.001 -47.5s-25.167 -37.5 -28.5 -59.5c-4 -30.667 3.83301 -55.167 23.5 -73.5s47.5 -27.166 83.5 -26.499c19.333 0 36.5 4 51.5 12s27.833 16.667 38.5 26zM164.998 699.999l-79.9961 -469.999
c-6.66699 -42.667 -3.33398 -82.167 9.99902 -118.5s35.666 -65.5 66.999 -87.5s70.333 -33 117 -33c53.333 0 98.666 10.667 135.999 32s67 50.166 89 86.499s36.667 76.5 44 120.5l81 470h-84l-81 -470c-4.66699 -30 -14.167 -57 -28.5 -81s-33.833 -43 -58.5 -57
s-55 -21 -91 -21c-32 0 -57.333 7.33301 -76 22s-31.334 34.167 -38.001 58.5s-8 50.5 -4 78.5l81 470h-84z" />
    <glyph glyph-name="uogonek" unicode="&#x173;" horiz-adv-x="509" 
d="M394 -130c-7.33301 -4.66699 -15.168 -9.16797 -23.501 -13.501s-18.166 -6.16602 -29.499 -5.49902c-13.333 1.33301 -23.166 6.16602 -29.499 14.499s-8.83301 19.833 -7.5 34.5c2 14.667 8.5 28.167 19.5 40.5s24.333 23.5 40 33.5s31.167 18.667 46.5 26l-38 25
c-22 -10.667 -43.833 -23 -65.5 -37s-40.334 -29.833 -56.001 -47.5s-25.167 -37.5 -28.5 -59.5c-4 -30.667 3.83301 -55.167 23.5 -73.5s47.5 -27.166 83.5 -26.499c19.333 0 36.5 4 51.5 12s27.833 16.667 38.5 26zM153.998 179.999l47.998 280.001h-77l-51 -290
c-4.66699 -31.333 -3.33398 -60.666 3.99902 -87.999s21.166 -49.333 41.499 -66s47.166 -25 80.499 -25c30.667 0 57.834 7 81.501 21s43.834 33.333 60.501 58l-11 -70h79l80 460h-80l-50 -284c-3.33301 -20.667 -11.166 -39.334 -23.499 -56.001
s-27.833 -29.834 -46.5 -39.501s-39.667 -14.5 -63 -14.5c-22 0 -38.667 5.33301 -50 16s-18.666 24.667 -21.999 42s-3.66602 36 -0.999023 56z" />
    <glyph glyph-name="Wcircumflex" unicode="&#x174;" horiz-adv-x="961" 
d="M681 179l-102 560l-295 -560l-89 521h-92l140 -738l298 544l110 -544l396 738h-98zM609 889l90 -94l53 39l-135 141l-177 -138l45 -41z" />
    <glyph glyph-name="wcircumflex" unicode="&#x175;" horiz-adv-x="660" 
d="M57 460l109 -498l186 335l76 -335l282 498h-93l-163 -297l-71 335l-180 -333l-59 295h-87zM413 649l90 -94l53 39l-135 141l-177 -138l45 -41z" />
    <glyph glyph-name="Ycircumflex" unicode="&#x176;" horiz-adv-x="544" 
d="M537 700l-230 -321l-118 321h-90l157 -394l-54 -306h85l51 299l298 401h-99zM397 864l90 -94l53 39l-136 141l-177 -138l46 -41z" />
    <glyph glyph-name="ycircumflex" unicode="&#x177;" horiz-adv-x="427" 
d="M482 460h-93l-198 -355l34 -5l-81 360h-92l104 -391l-176 -288h94zM297 624l90 -94l53 39l-135 141l-177 -138l45 -41z" />
    <glyph glyph-name="Ydieresis" unicode="&#x178;" horiz-adv-x="544" 
d="M236 826c-1.33301 -13.333 2.00098 -25.665 10.001 -36.998s19.333 -17.333 34 -18c14 -0.666992 27.667 4.66602 41 15.999s20.666 23.666 21.999 36.999c1.33301 14 -2.5 26.667 -11.5 38s-20.5 17.333 -34.5 18s-27.333 -4.83301 -40 -16.5s-19.667 -24.167 -21 -37.5
zM430.001 826.001c-1.33301 -13.333 2 -25.665 10 -36.998s19.333 -17.333 34 -18c14 -0.666992 27.833 4.66602 41.5 15.999s21.167 23.666 22.5 36.999c1.33301 14 -2.66699 26.667 -12 38s-21 17.333 -35 18s-27.333 -4.83301 -40 -16.5s-19.667 -24.167 -21 -37.5z
M538.001 700.002l-230 -322l-119 322h-91l158 -396l-53 -304h84l51 300l297 400h-97z" />
    <glyph glyph-name="Zacute" unicode="&#x179;" horiz-adv-x="529" 
d="M112 620h337l-464 -620h479l14 80l-337 1l463 619h-478zM558 918l-69 42l-172 -158l42 -31z" />
    <glyph glyph-name="zacute" unicode="&#x17a;" horiz-adv-x="446" 
d="M328 385l-343 -385h401l14 75l-257 1l343 384h-391l-14 -75h247zM486 698l-68 42l-172 -158l41 -31z" />
    <glyph glyph-name="Zdotaccent" unicode="&#x17b;" horiz-adv-x="529" 
d="M112 620h337l-464 -620h479l14 80l-337 1l463 619h-478zM332 826c-1.33301 -14 2.33398 -26.498 11.001 -37.498s20 -16.833 34 -17.5s27.667 4.66602 41 15.999s20.666 23.666 21.999 36.999c1.33301 14 -2.5 26.667 -11.5 38s-20.5 17.333 -34.5 18
s-27.5 -4.83301 -40.5 -16.5s-20.167 -24.167 -21.5 -37.5z" />
    <glyph glyph-name="zdotaccent" unicode="&#x17c;" horiz-adv-x="446" 
d="M328 385l-343 -385h401l14 75l-257 1l343 384h-391l-14 -75h247zM262 616c-1.33301 -14 2.33398 -26.498 11.001 -37.498s20.334 -16.833 35.001 -17.5c13.333 -0.666992 26.666 4.66602 39.999 15.999s20.666 23.666 21.999 36.999
c1.33301 14 -2.33398 26.667 -11.001 38s-20.334 17.333 -35.001 18c-13.333 0.666992 -26.666 -4.83301 -39.999 -16.5s-20.666 -24.167 -21.999 -37.5z" />
    <glyph glyph-name="Zcaron" unicode="&#x17d;" horiz-adv-x="529" 
d="M112 620h337l-464 -620h479l14 80l-337 1l463 619h-478zM388 856l-90 94l-54 -39l134 -141l178 139l-44 41z" />
    <glyph glyph-name="zcaron" unicode="&#x17e;" horiz-adv-x="446" 
d="M313 616l-90 94l-54 -39l134 -141l178 139l-44 41zM328 385l-343 -385h401l14 75l-257 1l343 384h-391l-14 -75h247z" />
    <glyph glyph-name="florin" unicode="&#x192;" horiz-adv-x="600" 
d="M159 -200c24.667 -0.666992 47.168 5.83105 67.501 19.498s37.666 32.834 51.999 57.501s24.833 53 31.5 85l93 423h78l16 75h-78l38 160c6 27.333 15 49.333 27 66s25.333 25 40 25c6 0 12.167 -1.83301 18.5 -5.5s14.833 -10.5 25.5 -20.5l48 62
c-16.667 15.333 -31.834 26 -45.501 32s-28.167 9.33301 -43.5 10c-24.667 0.666992 -47.167 -6 -67.5 -20s-37.5 -33.333 -51.5 -58s-24.667 -53 -32 -85l-37 -166h-62l-16 -75h62l-94 -417c-6 -27.333 -14.833 -49.166 -26.5 -65.499s-25.167 -24.5 -40.5 -24.5
c-6 0 -12.167 1.83301 -18.5 5.5s-14.833 10.5 -25.5 20.5l-48 -62c17.333 -14.667 32.833 -25.167 46.5 -31.5s27.834 -9.83301 42.501 -10.5z" />
    <glyph glyph-name="uni0212" unicode="&#x212;" horiz-adv-x="543" 
d="M231 345l176 -345h99l-184 345h-91zM169 700l-118 -700h82l121 700h-85zM202 625h143c28 -0.666992 51.833 -6.66699 71.5 -18s34.167 -26.833 43.5 -46.5s11.666 -43.167 6.99902 -70.5s-15.334 -51 -32.001 -71s-37.167 -35.333 -61.5 -46s-51.166 -16.667 -80.499 -18
h-137l-13 -75h143c44 1.33301 84.833 10.5 122.5 27.5s69.167 41.167 94.5 72.5s41.333 68 48 110c6.66699 41.333 1.83398 77.666 -14.499 108.999s-40.5 55.833 -72.5 73.5s-69.333 26.834 -112 27.501h-137zM217 770c7.33301 24 19 46.665 35 67.998
s36.167 38.833 60.5 52.5s52.833 20.167 85.5 19.5c32 0 57.667 -6.66699 77 -20s33 -30.666 41 -51.999s10.333 -44 7 -68h-63c0.666992 11.333 -1 22.833 -5 34.5s-11.333 21.334 -22 29.001s-26 11.5 -46 11.5s-36.333 -4 -49 -12s-22.667 -17.667 -30 -29
s-13.333 -22.333 -18 -33z" />
    <glyph glyph-name="uni0213" unicode="&#x213;" horiz-adv-x="333" 
d="M203 460h-79l-80 -460h80zM324 373l52.999 64.0049c-12 11.333 -24.5 19.666 -37.5 24.999s-27.5 8 -43.5 8c-26.667 0 -51.167 -9.33301 -73.5 -28s-41 -42.334 -56 -71.001s-25.5 -58.667 -31.5 -90h37c4 19.333 9.5 37.666 16.5 54.999s17 31.666 30 42.999
s29.5 16.666 49.5 15.999c11.333 0 21.333 -2 30 -6s17.334 -9.33301 26.001 -16zM109.999 530.005c7.33301 24 19 46.665 35 67.998s36.167 38.833 60.5 52.5s52.833 20.167 85.5 19.5c32 0 57.667 -6.66699 77 -20s33 -30.666 41 -51.999s10.333 -44 7 -68h-63
c0.666992 11.333 -1 22.833 -5 34.5s-11.333 21.334 -22 29.001s-26 11.5 -46 11.5s-36.333 -4 -49 -12s-22.667 -17.667 -30 -29s-13.333 -22.333 -18 -33z" />
    <glyph glyph-name="uni0218" unicode="&#x218;" horiz-adv-x="532" 
d="M119 226l-76.0078 -42c9.33301 -36 23.333 -68.5 42 -97.5s42.334 -52.167 71.001 -69.5s62 -26 100 -26c43.333 0 81.833 8.33301 115.5 25s61.334 40.167 83.001 70.5s35.167 64.833 40.5 103.5c4.66699 37.333 0.5 69.166 -12.5 95.499s-31 48.5 -54 66.5
s-47.5 32.667 -73.5 44c-17.333 7.33301 -34.5 15.166 -51.5 23.499s-32.167 17.666 -45.5 27.999s-23.333 22.166 -30 35.499s-8.33398 28.666 -5.00098 45.999c3.33301 20 11.333 37.5 24 52.5s28.334 26.667 47.001 35s38.667 12.5 60 12.5c24 0 43.667 -5.66699 59 -17
s27.833 -25.666 37.5 -42.999s17.834 -35.666 24.501 -54.999l74 45c-7.33301 26 -19.166 50.5 -35.499 73.5s-37.166 41.667 -62.499 56s-55.333 21.5 -90 21.5c-36 0 -70.167 -7.33301 -102.5 -22s-59.5 -35 -81.5 -61s-35.667 -56.333 -41 -91
c-4.66699 -35.333 -0.333984 -65.666 12.999 -90.999s31.833 -46.666 55.5 -63.999s47.834 -31.666 72.501 -42.999c24 -10 46.833 -21.5 68.5 -34.5s38.667 -29.167 51 -48.5s15.833 -43.333 10.5 -72c-4 -22 -12.167 -41.5 -24.5 -58.5s-28.166 -30.167 -47.499 -39.5
s-41.666 -14 -66.999 -14c-22 0 -41 4.16699 -57 12.5s-29.667 19.666 -41 33.999s-21.166 30.833 -29.499 49.5s-15.5 38.334 -21.5 59.001zM244.992 -71l-129 -257l55 -21l150 247z" />
    <glyph glyph-name="uni0219" unicode="&#x219;" horiz-adv-x="391" 
d="M88 161l-69.9971 -36.999c3.33301 -25.333 12 -48.166 26 -68.499s32.167 -36.166 54.5 -47.499s47.166 -17 74.499 -17c31.333 0 60.333 5 87 15s48.834 25.5 66.501 46.5s28.167 46.833 31.5 77.5c3.33301 22 0.333008 41.5 -9 58.5s-22.333 32 -39 45
s-34.667 23.833 -54 32.5l-43.5 19.5c-15.667 7 -28.5 15.167 -38.5 24.5s-14 20.666 -12 33.999c2.66699 17.333 12 30 28 38s33 12 51 12c18.667 0 35.5 -5.33301 50.5 -16s27.5 -23.334 37.5 -38.001l68 39c-9.33301 28 -27.833 50.167 -55.5 66.5
s-58.834 24.5 -93.501 24.5c-24 0 -48 -5 -72 -15s-44.333 -23.833 -61 -41.5s-27 -38.834 -31 -63.501c-3.33301 -24 0.166992 -44.5 10.5 -61.5s24.333 -31.167 42 -42.5s36.167 -21.666 55.5 -30.999c11.333 -4.66699 22.333 -9.83398 33 -15.501s20.167 -12 28.5 -19
s14.5 -15.167 18.5 -24.5s5 -20 3 -32c-2 -12.667 -7.5 -23.5 -16.5 -32.5s-19.833 -15.5 -32.5 -19.5s-26.334 -6 -41.001 -6c-18.667 0 -34.834 4.16699 -48.501 12.5s-24.5 19.833 -32.5 34.5s-13.333 30.667 -16 48zM162.003 -70.999l-129 -257l56 -21l149 247z" />
    <glyph glyph-name="uni021A" unicode="&#x21a;" horiz-adv-x="451" 
d="M87 620h176l-107 -620h84l107 620h174l14 80h-433zM191 -60l-129 -257l55 -21l150 247z" />
    <glyph glyph-name="uni021B" unicode="&#x21b;" horiz-adv-x="233" 
d="M58 460l-14 -75h225l13 75h-224zM155 620l-104 -620h77l108 620h-81zM82 -60l-129 -257l56 -21l149 247z" />
    <glyph glyph-name="uni0237" unicode="&#x237;" horiz-adv-x="243" 
d="M-65 -114l-52 -64c9.33301 -10.667 20.5 -20.167 33.5 -28.5s28.833 -12.5 47.5 -12.5c29.333 -0.666992 54.833 5.83301 76.5 19.5s39.167 32.667 52.5 57s22.333 51.833 27 82.5l88 520h-79l-88 -510c-2 -16 -5.66699 -30.833 -11 -44.5s-12.333 -24.667 -21 -33
s-19 -12.5 -31 -12.5c-8.66699 0 -16.5 2.16699 -23.5 6.5s-13.5 10.833 -19.5 19.5z" />
    <glyph glyph-name="circumflex" unicode="&#x2c6;" horiz-adv-x="466" 
d="M319 645l90 -94l54 38l-134 141l-178 -138l44 -41z" />
    <glyph glyph-name="caron" unicode="&#x2c7;" horiz-adv-x="466" 
d="M315 656l-90 94l-54 -39l134 -141l178 139l-44 41z" />
    <glyph glyph-name="breve" unicode="&#x2d8;" horiz-adv-x="530" 
d="M225 850c-1.33301 -24.667 2.49902 -47.5 11.499 -68.5s23.833 -38 44.5 -51s47 -19.5 79 -19.5c32.667 0 60.667 6.5 84 19.5s42.5 30 57.5 51s25.5 43.5 31.5 67.5l-71 1c-4 -10.667 -9.66699 -21.834 -17 -33.501s-17.5 -21.334 -30.5 -29.001
s-29.5 -11.5 -49.5 -11.5c-19.333 0 -34.166 3.83301 -44.499 11.5s-17.333 17.334 -21 29.001s-5.5 22.834 -5.5 33.501h-69z" />
    <glyph glyph-name="dotaccent" unicode="&#x2d9;" horiz-adv-x="291" 
d="M200 791c0 -14.667 5.5 -27.5 16.5 -38.5s23.833 -16.5 38.5 -16.5c15.333 0 28.333 5.5 39 16.5s16 23.833 16 38.5c0 15.333 -5.33301 28.333 -16 39s-23.667 16 -39 16c-14.667 0 -27.5 -5.33301 -38.5 -16s-16.5 -23.667 -16.5 -39z" />
    </font>
</defs>
</svg>
